<!-- Generated by IcoMoon.io -->
<svg version="1.1" xmlns="http://www.w3.org/2000/svg" width="82" height="32" viewBox="0 0 82 32">
<title>logo-colour</title>
<path fill="#3dc5ed" d="M2.676 28.484h-0.014c-0.093 1.115-0.093 2.243-0.106 3.252-0.692 0.066-2.168 0.079-2.314 0l-0.014-0.013c0-3.211 0.027-4.857 0.027-8.984v-0.014c0.917-0.159 4.456-0.398 5.945-0.026 0 0.464 0.040 1.513 0 1.963-0.958 0.067-2.447 0.106-3.551 0.212-0.2 0.465-0.134 0.916 0.027 1.195 0.013 0.013 0.013 0.013 0.027 0.013 0.505 0.066 1.277 0.040 1.675 0 0.106 0.265-0.027 1.539 0.040 2.176 0 0.013-0.013 0.027-0.040 0.027-0.545 0.093-1.17 0.106-1.702 0.199z"></path>
<path fill="#3dc5ed" d="M12.688 29.745c-0.146 1.168-0.904 2.070-2.18 2.19-1.503 0.146-3.338-0.504-3.405-2.136 0-2.336 0.093-4.724 0.053-7.060l-0.013-0.014h0.013c0.545 0 1.344-0.079 1.876 0.067v0.013c-0.093 2.137-0.054 4.313 0.119 6.516 0.253 0.862 1.463 0.743 1.636-0.066 0.093-2.123 0.066-4.366 0.12-6.423 0.492-0.040 1.516-0.212 1.941 0.040 0.106 2.269 0.093 4.592-0.16 6.874z"></path>
<path fill="#3dc5ed" d="M18.018 31.748c-0.585-1.313-1.197-2.548-1.609-3.676l-0.133-0.398c-0.067-0.199-0.133-0.398-0.173-0.398-0.053 0-0.093 1.884-0.093 3.37 0 0.411 0 0.796 0.013 1.101-0.199 0.053-0.386 0.066-0.585 0.066-0.425 0-0.865-0.079-1.277-0.079v-0.929c0-1.686-0.040-3.132-0.040-4.791 0-1.221 0.026-2.428 0.119-3.556 0.173-0.040 0.386-0.053 0.599-0.053 0.226 0 1.104 0.053 1.104 0.133 0.253 0.651 0.373 0.743 0.692 1.486 0.107 0.253 1.078 2.216 1.117 2.216 0.053-0.040 0.093-0.425 0.093-0.73 0-0.703-0.040-1.287-0.040-1.924 0-0.372 0.013-0.743 0.027-1.181 0.306-0.053 0.624-0.080 0.957-0.080s0.625 0.027 0.878 0.080v4.273c0.013 0.743 0.013 1.513 0.013 2.269 0 0.518-0.013 0.982-0.013 1.473 0 0.358 0.013 0.703 0.013 1.061v0.266c-0.040 0.013-0.133 0.066-0.439 0.066-0.359 0-0.864-0.066-1.223-0.066z"></path>
<path fill="#3dc5ed" d="M24.799 26.719c-0.107-0.544-0.266-1.208-0.865-1.42-0.306-0.039-0.678-0.052-0.998 0.014h-0.039v0.053c0.066 0.955-0.040 2.243 0.026 3.437 0.2 0.173 0.585 0.119 0.904 0.080 0.093 0.013 0.146-0.040 0.239-0.080 0.173-0.106 0.306-0.265 0.412-0.425 0.306-0.464 0.466-1.008 0.32-1.659zM26.501 25.511c0.093 0.279 0.106 0.558 0.12 0.836-0.040 0.837-0.026 1.686-0.186 2.495 0 0.014-0.014 0.014-0.014 0.027-0.359 1.049-1.011 1.977-1.689 2.813-1.171 0.040-2.381 0.040-3.498 0.040l-0.013 0.014c-0.386-2.801-0.146-6.025-0.213-9.104 0.014-0.013 0.027-0.040 0.040-0.053 1.011-0.252 2.181-0.093 3.205-0.133 0.572 0.146 1.13 0.597 1.45 1.115 0.385 0.597 0.638 1.247 0.798 1.95z"></path>
<path fill="#3dc5ed" d="M29.704 25.963h0.014c0.412 0.040 0.918 0.066 1.343 0 0.678-0.146 0.731-1.208 0.239-1.592-0.386-0.358-1.037-0.292-1.663-0.040 0.040 0.451 0 1.235 0.067 1.633v0zM34.132 31.709c-0.625 0-1.409 0.079-2.208 0.027h-0.013c-0.346-0.81-1.090-2.403-1.849-3.331l-0.027-0.040c-0.106 0.797 0.027 2.561 0.066 3.238-0.598 0.253-2.141 0.107-2.314 0.146 0.107 0 0.040-8.386-0.093-9.276 0.997-0.146 2.208-0.332 3.497-0.186 2.101 0.107 3.458 2.402 2.354 4.247-0.333 0.637-0.878 1.101-1.729 1.155h-0.067v0.013c0.745 1.314 1.835 2.548 2.367 4.008h0.014z"></path>
<path fill="#3dc5ed" d="M37.88 27.953c0.306 0.013 0.651 0 0.984 0-0.533-4.578-0.612-2.721-0.984 0v0zM41.218 31.735v0.013c-0.531 0.107-1.21 0.066-1.782-0.053h-0.014c-0.213-0.571-0.385-1.645-0.625-2.163-0.452-0.066-0.425-0.014-0.825-0.014-0.239 0.558-0.279 1.632-0.586 2.217-0.013 0-0.026 0.013-0.039 0.013-0.147 0.040-0.651-0.027-1.862-0.013-0.014 0-0.014 0-0.027-0.014 0.107-0.358 0.758-5.016 2.035-9.262 0.252-0.040 0.465 0.040 1.636-0.066 0.159 0.69 0.878 3.808 1.091 4.697l0.997 4.645z"></path>
<path fill="#3dc5ed" d="M44.74 22.419v0.053c0 3.039-0.186 6.197-0.013 9.21-0.293 0.291-2.048 0.013-2.421 0.119 0.252-3.198-0.213-6.449 0.107-9.422v-0.027c0.093-0.013 0.425 0.027 0.545 0.027 0.319 0.014 0.665 0.053 1.463 0.040h0.319z"></path>
<path fill="#3dc5ed" d="M50.284 25.445c0.213-0.969-1.516-1.327-1.663-0.332-0.040 0.12-0.013 0.239 0 0.358 0.146 0.425 0.493 0.518 0.865 0.571 0.944 0.106 1.782 0.637 2.3 1.394 0.626 0.796 0.639 1.937 0.214 2.853-0.425 1.088-1.476 1.566-2.567 1.526-1.556-0.040-3.245-1.035-3.139-2.721v-0.079c0.624-0.093 1.436 0 2.035-0.014 0.066 1.129 2.008 1.155 1.795-0.079-0.107-0.849-1.157-0.968-1.902-1.114-0.359-0.066-0.651-0.239-0.904-0.452-1.636-1.552-0.825-3.968 0.877-4.671 0.865-0.358 2.102-0.239 2.953 0.146 0.851 0.438 1.396 1.3 1.144 2.628-0.639 0.106-1.383 0.159-2.008-0.014z"></path>
<path fill="#3dc5ed" d="M56.146 22.419v0.053c0 3.039-0.186 6.197-0.013 9.21-0.293 0.291-2.048 0.013-2.42 0.119 0.252-3.198-0.213-6.449 0.107-9.422v-0.027c0.093-0.013 0.426 0.027 0.546 0.027 0.319 0.014 0.665 0.053 1.463 0.040h0.319z"></path>
<path fill="#3dc5ed" d="M61.226 31.748c-0.586-1.313-1.197-2.548-1.609-3.676l-0.133-0.398c-0.067-0.199-0.133-0.398-0.173-0.398-0.053 0-0.093 1.884-0.093 3.37 0 0.411 0 0.796 0.013 1.101-0.199 0.053-0.386 0.066-0.585 0.066-0.425 0-0.865-0.079-1.277-0.079v-0.929c0-1.686-0.040-3.132-0.040-4.791 0-1.221 0.026-2.428 0.12-3.556 0.173-0.040 0.385-0.053 0.598-0.053 0.226 0 1.104 0.053 1.104 0.133 0.252 0.651 0.372 0.743 0.691 1.486 0.107 0.253 1.078 2.216 1.117 2.216 0.053-0.040 0.093-0.425 0.093-0.73 0-0.703-0.040-1.287-0.040-1.924 0-0.372 0.013-0.743 0.027-1.181 0.306-0.053 0.625-0.080 0.957-0.080s0.625 0.027 0.878 0.080v4.273c0.013 0.743 0.013 1.513 0.013 2.269 0 0.518-0.013 0.982-0.013 1.473 0 0.358 0.013 0.703 0.013 1.061v0.266c-0.040 0.013-0.133 0.066-0.439 0.066-0.359 0-0.864-0.066-1.223-0.066z"></path>
<path fill="#3dc5ed" d="M69.642 27.077h0.026l0.014 0.013c0.106 0.943 0.173 2.044 0 2.999-0.093 0.902-0.585 1.327-1.264 1.579-0.878 0.252-1.968 0.451-2.819 0.093-0.706-0.305-1.038-0.809-1.251-1.565-0.053-0.199-0.119-0.571-0.159-0.929-0.106-1.128-0.173-1.725-0.133-3.039 0.013-0.571 0.040-1.168 0.133-1.738 0.093-0.584 0.266-1.168 0.785-1.526 0.359-0.305 0.811-0.425 1.29-0.491 1.982-0.252 3.658 0.73 3.404 2.893l-0.013 0.079c-0.040 0.053-0.146 0.040-0.425 0.053-0.519 0-0.718 0.027-1.25-0.039-0.107-0.358-0.386-1.102-0.904-1.102-0.306-0.013-0.599-0.066-0.811 0.146-0.040 0.040-0.106 0.213-0.146 0.359-0.253 0.849-0.306 2.494-0.2 3.822 0.040 0.385 0.107 0.915 0.439 1.181 0.079 0.053 0.186 0.093 0.306 0.119 0.265 0.040 0.571-0.027 0.824-0.119 0.199-0.093 0.345-0.226 0.412-0.478 0.040-0.146 0.12-0.757 0.013-0.796-0.213-0.040-0.811 0.040-0.985-0.027-0.066-0.571 0.014-0.783-0.053-1.394v-0.013c0-0.013 0-0.013 0.013-0.013 0 0 0.013 0 0.027-0.013 0.452-0.279 2.367-0.054 2.727-0.054z"></path>
<path fill="#2869a7" d="M5.063 8.994c-1.493 0-1.598 0.314-1.598 3.006 0 2.196 0.104 3.79 1.886 3.79 1.493 0 2.383-1.673 2.383-3.424 0-0.497 0-1.019-0.183-1.516-0.183-1.228-1.048-1.856-2.488-1.856v0zM3.492 0.997c0.105 2.064 0.183 0.758 0.078 5.672 0.131-0.628 3.144-1.046 5.029-0.34 1.546 0.548 2.122 2.875 2.122 5.305-0.131 3.502-0.393 7.083-4.401 7.37-0.969 0.131-1.912-0.078-2.436-1.124-0.104-0.209-0.183-0.078-0.262 0.105 0 0.392-0.026 0.522-0.026 0.862 0 0.078 0 0.157-0.027 0.183-1.047 0.131-2.462 0.027-3.536 0.027-0.131-5.018 0.157-10.846 0.157-16.648v-1.725c1.153-0.209 3.301-0.053 3.301 0.026v0.288z"></path>
<path fill="#2869a7" d="M15.462 0.161c0 4.286-0.236 14.557-0.026 18.765-0.341 0.392-3.222 0.026-3.693 0.157 0.498-6.299-0.472-12.676 0.156-19l3.563 0.078z"></path>
<path fill="#2869a7" d="M22.954 18.063c-1.44 1.045-3.823 1.306-5.264 0.078-1.1-0.993-0.34-8.468-0.55-12.075 1.231-0.183 2.042-0.105 3.274-0.105 0.131 1.594-0.026 4.182 0.105 6.064 0.079 0.862 0.105 2.117 0.655 2.535 0.026 0.026 0.078 0.026 0.104 0.052 0.576 0.287 2.358 0.47 2.489-1.411 0.131-2.379-0.315-4.731 0.026-7.004v-0.104c1.205-0.34 1.572-0.027 3.248-0.157 0 4.286 0.157 8.494 0.027 13.093-0.838-0.078-0.995-0.078-1.834 0-0.288 0-1.572 0.261-1.572 0.027-0.078-0.602-0.026-0.889-0.053-1.385-0.183 0.104-0.471 0.261-0.655 0.392z"></path>
<path fill="#2869a7" d="M34.166 8.21c-1.65 0-2.043 0.758-2.174 1.698-0.131 0.732-0.131 0.575 2.462 0.575 1.808 0 1.65 0.209 1.65-0.314 0-0.705-0.393-1.385-1.021-1.699-0.288-0.183-0.524-0.261-0.917-0.261v0zM31.913 12.993c0.026 1.046 0 1.621 0.393 2.248 0.838 1.62 3.404 1.647 3.274-1.176 0.707 0.078 2.54-0.157 3.3 0.052-0.131 1.777-0.236 3.659-0.734 4.077-1.179 1.673-4.034 1.15-6.023 1.15-0.498-0.078-0.943-0.235-1.363-0.47-1.859-1.307-2.514-4.391-2.383-7.214 0.104-1.28 0.157-2.483 0.576-3.633 0.917-2.065 3.981-2.823 6.469-2.195 3.248 0.548 3.719 3.554 3.51 6.481-0.734 0.21-5.92 0.418-7.020 0.21v0.47z"></path>
<path fill="#2869a7" d="M45.141 18.978c-1.152-0.131-2.462 0.209-3.379 0.078-0.209-1.307-0.052-7.736-0.052-9.252-0.55 0-1.153 0-1.86 0.026l-0.079-3.188c0.733 0 1.336 0 1.886 0.026-0.131-1.725 0.315-4.313 2.698-5.071 1.467-0.496 3.274-0.575 4.925-0.496 0.366 1.071 0.13 2.561 0 3.528-0.812-0.078-2.279 0.183-3.274 0.314-0.812 0.13-0.943 0.915-0.759 1.777h4.008c-0.079 0.392 0 0.706-0.027 1.203 0 0.758 0 0.705-0.131 2.064-1.782-0.105-2.882-0.183-3.956-0.209v9.2z"></path>
<path fill="#2869a7" d="M55.357 6.433c1.336-0.418 3.614-0.445 3.614-0.34 0 2.378-0.078 3.528 0 4.6l-0.236-0.078c-0.183-0.078-0.366-0.104-0.55-0.183-0.419-0.105-0.969-0.184-0.995-0.184-1.86-0.209-3.274-0.13-3.195 1.804 0.078 2.405 0.105 4.26 0.105 6.848v0.104c-1.206 0.34-1.834 0.026-3.51 0.157 0-4.286-0.157-8.494-0.026-13.094 0.838 0.078 0.995 0.078 1.833 0 0.288 0 1.703-0.183 1.703-0.026 0 0.575 0.026 0.418 0.026 0.889 0.131-0.078 0.733-0.314 1.231-0.497z"></path>
<path fill="#2869a7" d="M63.582 10.772c-0.131 1.124-0.079 2.169-0.157 3.397-0.079 1.594 2.095 1.673 3.012 1.176 0.288-0.13 0.498-0.418 0.602-0.862 0.131-1.124 0.288-2.274 0.079-3.293-0.183-1.229-1.048-1.83-2.41-1.516-0.366 0.105-0.655 0.287-0.891 0.575-0.105 0.078-0.183 0.235-0.235 0.523zM64.472 5.649c0.708 0.078 1.31-0.052 2.044 0.027 1.126 0.078 2.174 0.418 2.907 1.124 0.995 0.654 0.995 2.875 1.074 5.175-0.079 2.038-0.157 5.462-0.838 6.142-1.204 1.699-4.059 1.15-6.076 1.15-0.891-0.157-1.65-0.548-2.253-1.15-1.886-1.673-1.127-5.253-1.336-7.527 0-0.627 0.026-1.228 0.131-1.881 0.027-0.392 0.315-1.15 0.419-1.542 0.497-1.072 2.279-1.517 3.928-1.517z"></path>
<path fill="#2869a7" d="M74.584 13.124c0 0.888 0.262 1.646 0.786 2.274 0.629 0.758 1.807 0.889 2.724 0.601 0.602-0.209 0.681-0.967 0.759-1.594 0-1.385 0-2.875-0.34-4.208-0.446-1.098-2.017-1.124-2.829-0.445-0.524 0.602-0.917 1.307-1.048 2.117-0.079 0.34-0.052 0.679-0.052 1.019v0.235zM76.418 24.309c-1.65 0-2.96-0.758-3.772-1.934-0.289-0.522-0.498-1.646-0.419-2.195 0.707-0.287 2.54-0.157 3.353-0.026 0 1.83 2.697 2.195 3.117 0.235 0.026-0.34 0.078-0.732 0.052-1.020s-0.026-0.601 0-0.915c-0.681 0.758-1.99 0.602-2.985 0.68-1.336 0-2.776-0.34-3.405-1.647-0.498-0.941-0.655-1.986-0.734-3.058 0-3.267-0.104-8.049 4.375-8.337 1.126-0.078 2.174 0.261 2.593 1.228 0.288 0.131-0.027-0.941 0.156-1.255 1.153-0.13 2.358-0.026 3.536-0.026 0.131 4.365 0.183 9.147-0.027 14.165-0.026 0.836 0.106 1.725-0.236 2.274-0.969 1.516-2.043 1.751-2.907 1.829-0.34 0.078-1.257 0-2.697 0v0z"></path>
</svg>
