<?xml version="1.0" encoding="UTF-8" standalone="no"?>
<svg width="167px" height="167px" viewBox="0 0 167 167" version="1.1" xmlns="http://www.w3.org/2000/svg" xmlns:xlink="http://www.w3.org/1999/xlink">
    <!-- Generator: Sketch 50.2 (55047) - http://www.bohemiancoding.com/sketch -->
    <title>004-analysis</title>
    <desc>Created with Sketch.</desc>
    <defs></defs>
    <g id="BF-Digital" stroke="none" stroke-width="1" fill="none" fill-rule="evenodd">
        <g id="Home" transform="translate(-292.000000, -2021.000000)" fill="#2869A7" fill-rule="nonzero">
            <g id="Group" transform="translate(124.000000, 2021.000000)">
                <g id="004-analysis" transform="translate(168.000000, 0.000000)">
                    <path d="M69.5,11 C37.1912857,11 11,37.1912857 11,69.5 C11,101.808714 37.1912857,128 69.5,128 C101.808714,128 128,101.808714 128,69.5 C127.96483,37.2059107 101.794089,11.0351696 69.5,11 Z M69.5,16.5714286 C86.7073571,16.5850089 102.832116,24.9714018 112.723143,39.0521429 L105.758857,46.0164286 C104.064098,44.9909375 102.123848,44.4421518 100.142857,44.4285714 C93.9888661,44.4285714 89,49.4174375 89,55.5714286 C89.00975,57.5545089 89.5554018,59.4978929 90.5795,61.1957857 L72.3386429,79.4366429 C68.8847054,77.3306429 64.5438661,77.3306429 61.0899286,79.4366429 L48.4205,66.7672143 C49.4445982,65.0693214 49.99025,63.1259375 50,61.1428571 C50.0076607,55.0010536 45.0351607,50.0160179 38.8933571,50.0083571 C33.8139554,50.0020893 29.3759643,53.4379196 28.1098571,58.3571429 L17.7748571,58.3571429 C23.0492589,34.0005982 44.579,16.6079911 69.5,16.5714286 Z M105.714286,55.5714286 C105.714286,58.6485982 103.220027,61.1428571 100.142857,61.1428571 C97.0656875,61.1428571 94.5714286,58.6485982 94.5714286,55.5714286 C94.5714286,52.4942589 97.0656875,50 100.142857,50 C103.220027,50 105.714286,52.4942589 105.714286,55.5714286 Z M72.2857143,89 C72.2857143,92.0771696 69.7914554,94.5714286 66.7142857,94.5714286 C63.6371161,94.5714286 61.1428571,92.0771696 61.1428571,89 C61.1428571,85.9228304 63.6371161,83.4285714 66.7142857,83.4285714 C69.7914554,83.4285714 72.2857143,85.9228304 72.2857143,89 Z M44.4285714,61.1428571 C44.4285714,64.2200268 41.9343125,66.7142857 38.8571429,66.7142857 C35.7799732,66.7142857 33.2857143,64.2200268 33.2857143,61.1428571 C33.2857143,58.0656875 35.7799732,55.5714286 38.8571429,55.5714286 C41.9343125,55.5714286 44.4285714,58.0656875 44.4285714,61.1428571 Z M95.2170179,115.779768 C87.3501607,120.147768 78.4985536,122.436232 69.5,122.428223 C40.2883036,122.448071 16.5912768,98.7837768 16.5714286,69.5720804 C16.5700357,67.6868482 16.669625,65.8026607 16.8695,63.9282232 L28.1098571,63.9282232 C29.3763125,68.8328214 33.7916696,72.2662143 38.8571429,72.2853661 C40.8402232,72.2756161 42.7836071,71.7299643 44.4815,70.7058661 L57.1509286,83.3752946 C56.1268304,85.0731875 55.5811786,87.0165714 55.5714286,88.9996518 C55.5714286,95.1536429 60.5602946,100.142509 66.7142857,100.142509 C72.8682768,100.142509 77.8571429,95.1536429 77.8571429,88.9996518 C77.8473929,87.0165714 77.3017411,85.0731875 76.2776429,83.3752946 L94.5185,65.1344375 C96.2163929,66.1585357 98.1597768,66.7041875 100.142857,66.7139375 C106.296848,66.7139375 111.285714,61.7250714 111.285714,55.5710804 C111.275964,53.588 110.730313,51.6446161 109.706214,49.9467232 L115.779071,43.8766518 C129.956616,69.4105089 120.750527,101.602571 95.2170179,115.779768 Z" id="Shape"></path>
                    <path d="M139.177199,27.8410005 C144.236427,27.821866 148.646341,24.3919124 149.911235,19.4913823 L167,19.4913823 L167,13.9249701 L149.911235,13.9249701 C148.646341,9.02444001 144.236427,5.59448641 139.177199,5.57535187 C133.030794,5.57535187 128.048078,10.5597261 128.048078,16.7081762 C128.057816,18.689471 128.602795,20.6311052 129.625631,22.3274693 L124.737165,27.2175624 C101.346883,-3.26585015 57.6817785,-9.0096917 27.2085074,14.3883739 C-3.26476364,37.7864396 -9.0066943,81.4664237 14.3835871,111.949836 C36.4623712,140.723664 76.9344616,147.703597 107.370172,127.986322 L115.767093,136.386038 L119.701238,140.321491 L142.098593,162.7263 C147.794964,168.424567 157.030047,168.424567 162.726418,162.7263 C168.422789,157.028034 168.422789,147.789877 162.726418,142.09161 L140.329063,119.686801 L136.394918,115.751348 L127.997997,107.351632 C142.903715,84.3846153 142.903715,54.7939161 127.997997,31.8265516 L133.562557,26.2601395 C135.257314,27.2836635 137.197606,27.8298677 139.177199,27.8410005 Z M139.177199,11.141764 C142.250575,11.141764 144.741759,13.6337772 144.741759,16.7081762 C144.741759,19.7825752 142.250575,22.2745884 139.177199,22.2745884 C136.103822,22.2745884 133.612638,19.7825752 133.612638,16.7081762 C133.612638,13.6337772 136.10417,11.141764 139.177199,11.141764 Z M158.792274,146.027064 C162.355679,149.511638 162.420715,155.226255 158.9373,158.790847 C155.453885,162.355438 149.741168,162.420495 146.177763,158.935921 C146.128725,158.888259 146.080731,158.839901 146.032737,158.790847 L123.635382,136.386038 L136.394918,123.622255 L158.792274,146.027064 Z M132.460774,119.686801 L119.701238,132.450584 L111.999886,124.74667 C112.392188,124.446084 112.759449,124.114882 113.146185,123.805946 C113.532922,123.49701 113.98087,123.126844 114.395429,122.778943 C115.004749,122.266833 115.605721,121.749157 116.195565,121.217565 C116.498833,120.939244 116.78819,120.660923 117.085894,120.382603 C118.226629,119.313852 119.331194,118.208919 120.39959,117.067804 C120.677818,116.770001 120.956046,116.480548 121.234274,116.177178 C121.765689,115.587139 122.283193,114.985966 122.795133,114.376444 C123.143961,113.96453 123.486182,113.548092 123.821794,113.126784 C124.127845,112.742702 124.458937,112.375319 124.759423,111.982887 L132.460774,119.686801 Z M121.671092,106.758809 C120.794674,107.98342 119.890433,109.182981 118.93611,110.338012 C118.657882,110.67478 118.360178,111.000415 118.073604,111.331617 C117.222226,112.322438 116.343025,113.283688 115.436002,114.215018 C115.040918,114.623106 114.639227,115.024931 114.231275,115.420146 C113.303732,116.327471 112.34315,117.206965 111.348833,118.058626 C111.017741,118.336946 110.692214,118.640316 110.355558,118.92142 C109.200912,119.876059 108.001749,120.780601 106.777546,121.657311 C77.9753821,142.24086 37.9456743,135.570558 17.3689737,106.758809 C-3.2077269,77.9470596 3.46035526,37.90403 32.2625193,17.3204815 C61.0646834,-3.26306694 101.094391,3.40688643 121.671092,32.2189837 C137.593038,54.5131602 137.593038,84.4646325 121.671092,106.758809 Z" id="Shape"></path>
                </g>
            </g>
        </g>
    </g>
</svg>