<?xml version="1.0" encoding="UTF-8" standalone="no"?>
<svg width="156px" height="145px" viewBox="0 0 156 145" version="1.1" xmlns="http://www.w3.org/2000/svg" xmlns:xlink="http://www.w3.org/1999/xlink">
    <!-- Generator: Sketch 50.2 (55047) - http://www.bohemiancoding.com/sketch -->
    <title>003-email</title>
    <desc>Created with Sketch.</desc>
    <defs></defs>
    <g id="BF-Digital" stroke="none" stroke-width="1" fill="none" fill-rule="evenodd">
        <g id="Home" transform="translate(-921.000000, -2027.000000)" fill="#2869A7" fill-rule="nonzero">
            <g id="Group" transform="translate(124.000000, 2021.000000)">
                <g id="003-email" transform="translate(797.000000, 6.000000)">
                    <path d="M154.843539,60.0639316 L154.843883,60.0635864 L134.923947,46.8282537 L134.923947,2.58940902 C134.923947,1.15936473 133.767141,0 132.340253,0 L23.6563024,0 C22.2294144,0 21.0726084,1.15936473 21.0726084,2.58940902 L21.0726084,46.831361 L1.15611695,60.0635864 L1.15646144,60.0642769 C0.459897536,60.5279537 0,61.3206581 0,62.2217725 L0,142.410591 C0,143.840635 1.15680594,145 2.58369402,145 L153.416306,145 C154.843194,145 156,143.840635 156,142.410591 L156,62.2217725 C156,61.3206581 155.540102,60.5279537 154.843539,60.0639316 Z M21.0726084,69.1196128 L12.9684215,64.8111815 L21.0726084,64.8111815 L21.0726084,69.1196128 Z M5.16738804,66.526406 L64.5837382,98.1137435 L5.16738804,137.585659 L5.16738804,66.526406 Z M77.9989665,95.4141983 L144.843265,139.821182 L11.1550128,139.821182 L77.9989665,95.4141983 Z M91.4152283,98.1140888 L150.832267,66.526406 L150.832267,137.58704 L91.4152283,98.1140888 Z M134.923947,64.8111815 L143.031923,64.8111815 L134.923947,69.1213391 L134.923947,64.8111815 Z M144.843265,59.6323634 L134.923947,59.6323634 L134.923947,53.0414544 L144.843265,59.6323634 Z M129.756559,5.17881804 L129.756559,71.8685295 L86.513444,94.857648 L79.4261991,90.1494119 C78.5611783,89.5745631 77.4364102,89.5745631 76.5713895,90.1494119 L69.485178,94.8569575 L26.2399965,71.8668032 L26.2399965,5.17881804 L129.756559,5.17881804 Z M21.0726084,59.6323634 L11.1574243,59.6323634 L21.0726084,53.0449069 L21.0726084,59.6323634 Z" id="Shape"></path>
                    <path d="M78,68 L98.4350968,68 C99.8516073,68 101,66.845643 101,65.4217756 C101,63.9979082 99.8516073,62.8435511 98.4350968,62.8435511 L78,62.8435511 C68.1463259,62.8435511 60.1298064,54.7853966 60.1298064,44.8805459 L60.1298064,44.1197978 C60.1298064,34.2149471 68.1463259,26.1567926 78,26.1567926 C87.8536741,26.1567926 95.8701936,34.2149471 95.8701936,44.1197978 L95.8701936,46.0218399 C95.8701936,48.1658914 94.1349511,49.9104899 92.0016356,49.9104899 C89.8683201,49.9104899 88.1330776,48.1662351 88.1330776,46.0218399 L88.1330776,42.4082006 C88.1330776,36.2672138 83.1629792,31.2709586 77.0537217,31.2709586 C70.9444643,31.2709586 65.9743658,36.26687 65.9743658,42.4082006 C65.9743658,48.5491874 70.9444643,53.5450988 77.0537217,53.5450988 C79.8474143,53.5450988 82.4010319,52.4983397 84.3517263,50.7771171 C85.9399144,53.3494975 88.7743034,55.066595 92.0016356,55.066595 C96.9631843,55.066595 101,51.0091573 101,46.0214962 L101,44.1194541 C101,31.3713375 90.6822494,21 78,21 C65.3177506,21 55,31.3713375 55,44.1194541 L55,44.8802022 C55,57.6286625 65.3177506,68 78,68 Z M77.0537217,48.38865 C73.7730395,48.38865 71.1041722,45.7059215 71.1041722,42.4082006 C71.1041722,39.1104797 73.7733815,36.4274074 77.0537217,36.4274074 C80.3340619,36.4274074 83.0032712,39.1104797 83.0032712,42.4082006 C83.0032712,45.7059215 80.3344039,48.38865 77.0537217,48.38865 Z" id="Shape"></path>
                </g>
            </g>
        </g>
    </g>
</svg>