<?xml version="1.0" encoding="UTF-8" standalone="no"?>
<svg width="299px" height="299px" viewBox="0 0 299 299" version="1.1" xmlns="http://www.w3.org/2000/svg" xmlns:xlink="http://www.w3.org/1999/xlink">
    <!-- Generator: Sketch 50.2 (55047) - http://www.bohemiancoding.com/sketch -->
    <title>002-success</title>
    <desc>Created with Sketch.</desc>
    <defs></defs>
    <g id="BF-Digital" stroke="none" stroke-width="1" fill="none" fill-rule="evenodd">
        <g id="Home" transform="translate(-187.000000, -1235.000000)" fill="#2869A7" fill-rule="nonzero">
            <g id="002-success" transform="translate(187.000000, 1235.000000)">
                <path d="M290.677833,289.033333 L198.202117,176.240567 C197.255283,175.089417 195.845,174.416667 194.35,174.416667 L193.398183,174.416667 L190.41815,160.508183 C193.5726,160.941733 196.7121,161.23575 199.8217,161.23575 C209.16545,161.23575 218.274983,158.714183 227.025717,150.2774 C230.090467,147.327267 233.005717,143.270833 236.095383,138.970217 C240.854467,132.357333 246.246433,124.857417 251.3394,123.11325 C251.344383,123.108267 251.349367,123.108267 251.359333,123.103283 C253.965617,122.21625 255.355967,119.3907 254.473917,116.779433 C253.586883,114.178133 250.751367,112.762867 248.150067,113.669833 C248.150067,113.669833 248.145083,113.669833 248.1401,113.669833 C241.4126,115.977117 234.017333,111.940617 229.73665,107.80445 C225.022417,103.254667 221.698533,97.3444333 218.1803,91.09035 L216.211883,87.62195 C213.3066,82.56885 209.828233,77.1719 205.328283,72.67195 C213.77005,66.3082333 219.266667,56.2219667 219.266667,44.85 L219.266667,4.98333333 C219.266667,2.22755 217.034133,0 214.283333,0 L194.35,0 C191.5992,0 189.366667,2.22755 189.366667,4.98333333 L189.366667,44.85 C189.366667,47.6008 187.12915,49.8333333 184.383333,49.8333333 L171.725667,49.8333333 C176.479767,44.53605 179.4,37.5643667 179.4,29.9 C179.4,13.41015 165.98985,0 149.5,0 C133.01015,0 119.6,13.41015 119.6,29.9 C119.6,37.5643667 122.520233,44.53605 127.274333,49.8333333 L114.616667,49.8333333 C111.87085,49.8333333 109.633333,47.6008 109.633333,44.85 L109.633333,4.98333333 C109.633333,2.22755 107.4008,0 104.65,0 L84.7166667,0 C81.9658667,0 79.7333333,2.22755 79.7333333,4.98333333 L79.7333333,44.85 C79.7333333,64.0806833 95.381,79.7333333 114.616667,79.7333333 L119.6,79.7333333 L119.6,109.110083 L105.601817,174.416667 L104.65,174.416667 C103.155,174.416667 101.744717,175.089417 100.797883,176.240567 L8.32216667,289.033333 L0,289.033333 L0,299 L10.6792833,299 L288.320717,299 L299,299 L299,289.033333 L290.677833,289.033333 Z M207.5658,92.5953167 L209.489367,95.9889667 C213.20195,102.591883 217.0441,109.41905 222.804833,114.985433 C226.188517,118.249517 230.718367,121.284367 235.80635,122.96375 C233.075483,126.10325 230.519033,129.656367 228.00245,133.154667 C225.181883,137.07655 222.520783,140.779167 220.10885,143.106383 C211.2136,151.677717 202.10905,152.3704 188.17565,150.063117 L179.4,109.110083 L179.4,79.7333333 L184.383333,79.7333333 C188.47465,79.7333333 192.386567,78.9908167 196.03935,77.6901667 C200.7785,81.5472667 204.38145,87.0588333 207.5658,92.5953167 Z M149.5,9.96666667 C160.493233,9.96666667 169.433333,18.9067667 169.433333,29.9 C169.433333,40.8932333 160.493233,49.8333333 149.5,49.8333333 C138.506767,49.8333333 129.566667,40.8932333 129.566667,29.9 C129.566667,18.9067667 138.506767,9.96666667 149.5,9.96666667 Z M129.457033,110.679833 C129.531783,110.335983 129.566667,109.982167 129.566667,109.633333 L129.566667,74.75 C129.566667,71.9942167 127.334133,69.7666667 124.583333,69.7666667 L114.616667,69.7666667 C100.877617,69.7666667 89.7,58.58905 89.7,44.85 L89.7,9.96666667 L99.6666667,9.96666667 L99.6666667,44.85 C99.6666667,53.0924333 106.374233,59.8 114.616667,59.8 L184.383333,59.8 C192.625767,59.8 199.333333,53.0924333 199.333333,44.85 L199.333333,9.96666667 L209.3,9.96666667 L209.3,44.85 C209.3,58.58905 198.122383,69.7666667 184.383333,69.7666667 L174.416667,69.7666667 C171.665867,69.7666667 169.433333,71.9942167 169.433333,74.75 L169.433333,109.633333 C169.433333,109.982167 169.468217,110.335983 169.542967,110.679833 L183.202283,174.416667 L168.341983,174.416667 L154.333833,118.394033 C153.780683,116.171467 151.78735,114.616667 149.5,114.616667 C147.21265,114.616667 145.219317,116.171467 144.666167,118.394033 L130.658017,174.416667 L115.797717,174.416667 L129.457033,110.679833 Z M158.06635,174.416667 L140.93365,174.416667 L149.5,140.146283 L158.06635,174.416667 Z M107.007117,184.383333 L109.633333,184.383333 L134.55,184.383333 L164.45,184.383333 L189.366667,184.383333 L191.992883,184.383333 L216.81985,214.66705 L199.333333,232.153567 L177.939883,210.760117 C175.9914,208.811633 172.841933,208.811633 170.89345,210.760117 L149.5,232.153567 L128.10655,210.760117 C126.158067,208.811633 123.0086,208.811633 121.060117,210.760117 L99.6666667,232.153567 L82.18015,214.66705 L107.007117,184.383333 Z M21.2090667,289.033333 L75.8313833,222.41115 L96.14345,242.723217 C98.0919333,244.6717 101.2414,244.6717 103.189883,242.723217 L124.583333,221.329767 L145.976783,242.723217 C147.925267,244.6717 151.074733,244.6717 153.023217,242.723217 L174.416667,221.329767 L195.810117,242.723217 C196.781867,243.694967 198.0576,244.183333 199.333333,244.183333 C200.609067,244.183333 201.8848,243.694967 202.85655,242.723217 L223.168617,222.41115 L277.790933,289.033333 L21.2090667,289.033333 Z" id="Shape"></path>
                <rect id="Rectangle-path" x="145" y="269" width="10" height="10"></rect>
                <rect id="Rectangle-path" x="164" y="269" width="10" height="10"></rect>
                <rect id="Rectangle-path" x="125" y="269" width="10" height="10"></rect>
                <path d="M65,30 C51.215,30 40,18.785 40,5 C40,2.235 37.76,0 35,0 C32.24,0 30,2.235 30,5 C30,18.785 18.785,30 5,30 C2.24,30 0,32.235 0,35 C0,37.765 2.24,40 5,40 C18.785,40 30,51.215 30,65 C30,67.765 32.24,70 35,70 C37.76,70 40,67.765 40,65 C40,51.215 51.215,40 65,40 C67.76,40 70,37.765 70,35 C70,32.235 67.76,30 65,30 Z M35,46.985 C32.045,42.085 27.915,37.955 23.015,35 C27.915,32.045 32.045,27.915 35,23.015 C37.955,27.915 42.085,32.045 46.985,35 C42.085,37.955 37.955,42.085 35,46.985 Z" id="Shape"></path>
                <path d="M294,179 C280.215,179 269,167.785 269,154 C269,151.235 266.76,149 264,149 C261.24,149 259,151.235 259,154 C259,167.785 247.785,179 234,179 C231.24,179 229,181.235 229,184 C229,186.765 231.24,189 234,189 C247.785,189 259,200.215 259,214 C259,216.765 261.24,219 264,219 C266.76,219 269,216.765 269,214 C269,200.215 280.215,189 294,189 C296.76,189 299,186.765 299,184 C299,181.235 296.76,179 294,179 Z M264,195.985 C261.045,191.085 256.915,186.95 252.015,184 C256.92,181.045 261.045,176.915 264,172.015 C266.955,176.915 271.085,181.05 275.985,184 C271.085,186.955 266.955,191.085 264,195.985 Z" id="Shape"></path>
                <path d="M60,120 C49.98,120 40.51,124.305 33.905,131.695 C31.045,130.58 28.025,130 25,130 C11.215,130 0,141.215 0,155 C0,156.965 0.285,159.01 0.87,161.26 C1.44,163.46 3.43,165 5.71,165 L89.55,165 C91.99,165 94.075,163.235 94.48,160.825 C94.83,158.75 95,156.84 95,155 C95,135.705 79.3,120 60,120 Z M10,155 C10,146.73 16.73,140 25,140 C27.695,140 30.3,140.75 32.735,142.225 C35,143.605 37.935,142.97 39.44,140.8 C44.12,134.04 51.805,130 60,130 C73.785,130 85,141.215 85,155 L10,155 Z" id="Shape"></path>
            </g>
        </g>
    </g>
</svg>