<!-- Generated by IcoMoon.io -->
<svg version="1.1" xmlns="http://www.w3.org/2000/svg" width="40" height="32" viewBox="0 0 40 32">
<title>icon-twitter</title>
<path d="M38.849 7.451c-0.695-0.364-1.395-0.719-2.080-1.1 0.516-0.869 0.972-1.774 1.38-2.708 0.229-0.53 0.146-1.146-0.365-1.462-0.343-0.214-0.851-0.181-1.168 0.095-1.162 0.381-2.287 0.863-3.397 1.384-0.285-0.427-0.615-0.832-0.999-1.209-5.217-5.124-13.698-0.423-15.995 5.161-4.495-0.214-8.288-2.627-11.395-5.594-0.132-0.129-0.277-0.205-0.423-0.246-0.535-0.255-1.247-0.131-1.385 0.575-0.628 3.196 0.229 6.207 2.367 8.538-0.427-0.013-0.854-0.033-1.282-0.061-0.183-0.011-0.34 0.020-0.472 0.076-0.697-0.15-1.532 0.34-1.226 1.148 0.836 2.211 2.317 3.921 4.278 4.974-0.212 0.002-0.425 0-0.638-0.009-0.132-0.004-0.248 0.016-0.353 0.046-0.636 0.109-1.18 0.741-0.734 1.41 1.385 2.076 3.296 3.614 5.621 4.577-1.368 1.444-3.308 1.965-5.454 1.801-0.082-0.007-0.161-0.004-0.235 0.004-0.161 0.002-0.326 0.039-0.483 0.127-0.454 0.253-0.685 0.891-0.368 1.325 0.041 0.054 0.087 0.107 0.128 0.159-0.877-0.091-1.75-0.227-2.623-0.414-0.949-0.495-2.128 0.73-1.226 1.514 1.767 1.534 3.752 2.675 5.966 3.536 0.213 0.083 0.405 0.091 0.569 0.050 12.289 3.168 23.328-5.867 26.892-16.612 0.33-0.993 0.594-2.067 0.757-3.163 1.502-0.54 2.98-1.157 4.454-1.78 1.047-0.442 0.78-2.076-0.111-2.142zM31.089 15.875c-3.779 9.144-13.668 16.309-24.258 13.261-0.12-0.035-0.229-0.044-0.334-0.042-0.452-0.187-0.894-0.39-1.323-0.61 0.865 0.052 1.735 0.065 2.61 0.035 1.189-0.039 1.3-1.625 0.332-1.891-0.025-0.016-0.045-0.031-0.070-0.042 2.060-0.46 3.834-1.616 5.011-3.477 0.363-0.575 0.025-1.115-0.471-1.336-0.095-0.074-0.206-0.139-0.344-0.183-1.721-0.549-3.201-1.46-4.385-2.693 1.207-0.104 2.394-0.344 3.568-0.664 1.187-0.32 0.786-1.983-0.314-1.904-0.109-0.046-0.229-0.081-0.365-0.091-2.518-0.194-4.549-1.464-5.745-3.434 1.030 0.043 2.059 0.048 3.089 0.050 1.17 0 1.299-1.523 0.39-1.865-2.198-1.621-3.541-3.797-3.636-6.3 3.341 2.801 7.339 4.845 11.926 4.876 0.27 0.002 0.483-0.081 0.642-0.209 0.244-0.098 0.45-0.29 0.547-0.597 1.216-3.768 5.301-7.065 9.644-6.4 1.709 0.264 3.137 1.12 4.030 2.525 2.056 3.226 0.795 7.76-0.543 10.991zM34.403 6.458c-0.072-0.305-0.155-0.608-0.256-0.902 0.318-0.148 0.638-0.292 0.957-0.431-0.169 0.292-0.347 0.579-0.53 0.863-0.105 0.161-0.157 0.32-0.171 0.471zM34.678 9.046c-0.002-0.544-0.033-1.085-0.106-1.616 0.070 0.087 0.153 0.168 0.264 0.235 0.448 0.281 0.906 0.536 1.37 0.784-0.508 0.205-1.017 0.403-1.529 0.597z"></path>
<path d="M25.233 5.564c-1.364 0-1.364 2.231 0 2.231 1.362 0 1.362-2.231 0-2.231z"></path>
</svg>
