<svg version="1.1" xmlns="http://www.w3.org/2000/svg" width="33" height="32" viewBox="0 0 33 32">
<path d="M32.396 1.6c-0.043-0.422-0.345-0.811-0.914-0.808-10.021 0.066-20.016-0.436-30.035-0.458-0.037 0-0.071 0.005-0.106 0.009-0.028-0.004-0.056-0.009-0.083-0.009-0.52 0-0.954 0.416-0.954 0.915v1.281c0 0.049 0.007 0.095 0.015 0.14-0.013 0.071-0.021 0.145-0.015 0.227 0.527 8.511-0.443 18.845-0.287 27.36 0.002 0.095 0.021 0.179 0.043 0.258 0.049 0.418 0.35 0.817 0.911 0.841 10.010 0.442 20.025 0.095 30.035-0.091 0.486-0.011 0.779-0.304 0.879-0.651 0.108-0.139 0.173-0.318 0.171-0.539-0.061-5.959 0.008-13.537 0.149-19.818 0.253-0.322 0.263-0.808 0.026-1.14 0.060-2.459 0.129-4.885 0.205-7.228 0.004-0.107-0.013-0.202-0.039-0.29zM10.784 2.302c0.668 0.015 1.339 0.027 2.008 0.041-0.071 2.059 0.006 4.111 0.156 6.165-0.78-0.025-1.562-0.054-2.343-0.084 0.082-2.039 0.101-4.080 0.179-6.121zM6.596 2.225c0.76 0.012 1.521 0.025 2.281 0.039-0.076 2.025-0.095 4.052-0.175 6.077-0.766-0.034-1.529-0.075-2.293-0.114 0.164-1.998 0.184-3.998 0.186-6.002zM2.211 2.531v-0.357c0.827 0.004 1.652 0.016 2.479 0.025-0.002 1.977-0.022 3.95-0.179 5.921-0.717-0.043-1.432-0.082-2.149-0.132 0-0.202 0.002-0.405 0-0.606 0.008-0.075 0.008-0.152-0.004-0.227-0.017-1.435-0.062-2.858-0.147-4.259-0.004-0.055-0.019-0.103-0.030-0.154 0.019-0.068 0.030-0.139 0.030-0.211zM30.145 29.451c-9.408 0.184-18.822 0.475-28.228 0.108-0.069-6.018 0.387-13.514 0.445-19.741 9.295 0.631 18.613 0.753 27.929 0.763-0.13 5.968-0.194 13.226-0.145 18.87zM30.333 8.751c-5.158-0.005-10.319-0.048-15.474-0.189-0.153-2.057-0.231-4.112-0.16-6.175 5.267 0.12 10.535 0.241 15.807 0.238-0.065 1.987-0.123 4.041-0.173 6.127z"></path>
<path d="M21.53 7.237c0.084 0.372 0.38 0.693 0.894 0.693h2.86c0.235 0 0.423-0.068 0.568-0.175 0.34-0.145 0.616-0.466 0.577-0.833-0.090-0.82-0.095-1.644-0.095-2.47 0-0.093-0.017-0.175-0.039-0.254-0.030-0.432-0.333-0.844-0.914-0.844h-2.765c-0.35 0-0.598 0.15-0.749 0.363-0.329 0.113-0.59 0.388-0.586 0.826 0.007 0.733 0.087 1.464 0.095 2.197 0.002 0.2 0.061 0.365 0.154 0.497zM24.433 5.185c0.004 0.304 0.011 0.609 0.028 0.915h-1.201c-0.015-0.306-0.033-0.611-0.048-0.915h1.221z"></path>
<path d="M29.29 6.831v-2.561c0-1.181-1.907-1.181-1.907 0v2.561c0 1.18 1.907 1.18 1.907 0z"></path>
<path d="M16.323 11.224c-0.192-0.018-0.35 0.015-0.481 0.077-5.877-0.216-10.505 5.235-9.402 10.872 0.859 4.39 5.443 6.743 9.775 6.547 4.049-0.184 8.076-2.559 9.14-6.456 0.627-2.3-0.084-4.786-1.272-6.799-1.607-2.726-4.654-3.943-7.76-4.241zM23.435 22.071c-0.788 2.884-4.024 4.499-6.901 4.795-3.181 0.329-6.265-0.949-7.74-3.737-2.563-4.838 2.414-10.894 7.848-9.925 0.184 0.034 0.35 0.016 0.499-0.033 4.244 0.804 7.473 4.583 6.294 8.899z"></path>
<path d="M16.205 14.566c-0.153-0.016-0.288-0.002-0.421 0.038-1.691-0.030-3.287 0.7-4.4 1.989-1.145 1.324-1.615 3.040-1.289 4.706 0.385 1.97 2.337 4.091 5.713 4.091 0.102 0 0.205-0.001 0.307-0.007 2.691-0.122 4.996-1.764 5.605-3.997 0.47-1.724-0.276-3.363-0.761-4.187-0.879-1.489-2.566-2.424-4.755-2.633zM19.548 21.001c-0.37 1.36-1.946 2.114-3.345 2.257-0.158 0.018-0.32 0.025-0.479 0.025-1.437 0-2.652-0.674-3.249-1.803-0.499-0.942-0.421-2.054 0.216-3.051 0.68-1.064 1.825-1.725 2.987-1.725 0.181 0 0.363 0.016 0.542 0.049 0.138 0.025 0.263 0.025 0.39 0.005 1.067 0.232 1.989 0.842 2.54 1.686 0.506 0.776 0.645 1.66 0.399 2.558z"></path>
<path d="M16.898 17.48c-0.469-0.212-1.024-0.13-1.303 0.329-0.246 0.4-0.129 1.039 0.343 1.251 0.313 0.143 0.51 0.272 0.739 0.52 0.14 0.152 0.213 0.431 0.218 0.611 0.035 1.178 1.942 1.181 1.907 0-0.036-1.187-0.79-2.209-1.904-2.711z"></path>
</svg>
