<?xml version="1.0" encoding="UTF-8" standalone="no"?>
<svg width="116px" height="45px" viewBox="0 0 116 45" version="1.1" xmlns="http://www.w3.org/2000/svg" xmlns:xlink="http://www.w3.org/1999/xlink">
    <!-- Generator: Sketch 47.1 (45422) - http://www.bohemiancoding.com/sketch -->
    <title>Page 1 Copy</title>
    <desc>Created with Sketch.</desc>
    <defs>
        <polygon id="path-1" points="0 0.0520517803 0 26.0915286 15.0810733 26.0915286 15.0810733 0.0520517803 5.59463754e-21 0.0520517803"></polygon>
        <polygon id="path-3" points="5.3549604 0.0613555622 0.0342531389 0.0613555622 0.0342531389 26.8232915 5.3549604 26.8232915 5.3549604 0.0613555622"></polygon>
    </defs>
    <g id="Welcome" stroke="none" stroke-width="1" fill="none" fill-rule="evenodd">
        <g id="Nav" transform="translate(-1283.000000, -28.000000)">
            <g id="Page-1-Copy" transform="translate(1283.000000, 28.000000)">
                <path d="M3.76455089,40.0549888 L3.74514875,40.0549888 C3.61428754,41.6230557 3.61428754,43.2088294 3.59612384,44.6278312 C2.6231274,44.720894 0.545860498,44.7394242 0.34110605,44.6278312 L0.321703915,44.6088892 C0.321703915,40.0928727 0.359269751,37.779068 0.359269751,31.9754083 L0.359269751,31.9560545 C1.64971815,31.7324568 6.62698505,31.3964424 8.72200285,31.9198177 C8.72200285,32.5724926 8.7781452,34.047085 8.72200285,34.680818 C7.37458648,34.7751161 5.27915587,34.830295 3.72698505,34.9793602 C3.4458605,35.6332705 3.53915587,36.267827 3.76455089,36.6594319 C3.78271459,36.6779621 3.78271459,36.6779621 3.80211673,36.6779621 C4.51256512,36.7706132 5.59784626,36.7335528 6.15885694,36.6779621 C6.30829466,37.0510369 6.1212911,38.8427017 6.21499929,39.7383282 C6.21499929,39.7564466 6.19683559,39.7758004 6.15885694,39.7758004 C5.39185338,39.9063353 4.51256512,39.9248656 3.76455089,40.0549888" id="Fill-1" fill="#292626"></path>
                <path d="M17.8479004,41.8284116 C17.6427331,43.4701876 16.5764413,44.7393006 14.7807117,44.9077196 C12.665879,45.1127872 10.0845694,44.1990423 9.99127402,41.903356 C9.99127402,38.6189804 10.122548,35.2596604 10.0655801,31.9752848 L10.0474164,31.955931 L10.0655801,31.955931 C10.8325836,31.955931 11.9558434,31.8447498 12.7038577,32.0502292 L12.7038577,32.0683476 C12.5725836,35.0735348 12.6283132,38.1330772 12.8718719,41.2313272 C13.2273025,42.4436143 14.9297367,42.2760189 15.1732954,41.1382644 C15.3041566,38.152431 15.2665907,34.9985904 15.3417224,32.1058198 C16.0335943,32.0502292 17.4747189,31.8072776 18.0728826,32.1614104 C18.2223203,35.3527232 18.2041566,38.6189804 17.8479004,41.8284116" id="Fill-3" fill="#292626"></path>
                <path d="M25.3462477,44.6461143 C24.5231018,42.7992707 23.6619772,41.0631965 23.08239,39.4770111 L22.8949737,38.917399 C22.8012655,38.6369752 22.7079701,38.3577868 22.6522406,38.3577868 C22.5771089,38.3577868 22.5213794,41.0076059 22.5213794,43.0974011 C22.5213794,43.6755434 22.5213794,44.2170371 22.5395431,44.6461143 C22.2596569,44.7210587 21.9966961,44.7395889 21.71681,44.7395889 C21.1182335,44.7395889 20.5002548,44.6279959 19.9206676,44.6279959 L19.9206676,43.3214106 C19.9206676,40.95078 19.8649381,38.917399 19.8649381,36.5846523 C19.8649381,34.8679319 19.9016783,33.1697417 20.0325395,31.5835563 C20.2760982,31.5271421 20.5753865,31.5086119 20.8746747,31.5086119 C21.1929523,31.5086119 22.4272584,31.5835563 22.4272584,31.6951493 C22.7831018,32.6101295 22.9515288,32.7406645 23.4002548,33.7849444 C23.5501053,34.1403126 24.9160982,36.9013129 24.9718278,36.9013129 C25.0469594,36.8457222 25.102689,36.3042285 25.102689,35.8751514 C25.102689,34.8864621 25.0469594,34.0653682 25.0469594,33.1697417 C25.0469594,32.64719 25.0651231,32.1242264 25.0845253,31.5086119 C25.5146747,31.4340793 25.9629879,31.3966071 26.4307032,31.3966071 C26.8988313,31.3966071 27.3104043,31.4340793 27.6658349,31.5086119 L27.6658349,37.517751 C27.6839986,38.5624426 27.6839986,39.6450183 27.6839986,40.708652 C27.6839986,41.4366831 27.6658349,42.089358 27.6658349,42.7799169 C27.6658349,43.2835267 27.6839986,43.7686062 27.6839986,44.2726278 L27.6839986,44.6461143 C27.628269,44.6642327 27.4974078,44.7395889 27.0668456,44.7395889 C26.5615644,44.7395889 25.8515288,44.6461143 25.3462477,44.6461143" id="Fill-5" fill="#292626"></path>
                <path d="M34.8850391,37.5734239 C34.7347758,36.8083324 34.5106192,35.8752337 33.668484,35.5762798 C33.2383345,35.521101 32.7144769,35.5025708 32.2649253,35.5956336 L32.2285979,35.5956336 L32.2096085,35.5956336 L32.2096085,35.6705779 C32.3029039,37.0138118 32.1534662,38.8244185 32.2467616,40.503255 C32.5278861,40.7466183 33.0699075,40.6712621 33.5190463,40.6160833 C33.6503203,40.6342017 33.7250391,40.5592574 33.8559004,40.503255 C34.0986335,40.353778 34.2864626,40.1301802 34.4354875,39.9061706 C34.865637,39.2534957 35.091032,38.4884042 34.8850391,37.5734239 M37.2793452,35.8752337 C37.4106192,36.2676623 37.4287829,36.6592672 37.4477722,37.0508722 C37.3912171,38.2273342 37.4106192,39.4215029 37.1860498,40.5592574 C37.1860498,40.5786111 37.1670605,40.5786111 37.1670605,40.5967295 C36.6617794,42.0713219 35.7453381,43.3770836 34.7917438,44.5531339 C33.1450391,44.6087245 31.4421922,44.6087245 29.8706192,44.6087245 L29.8524555,44.6280782 C29.3096085,40.6897923 29.6464626,36.1556575 29.5527544,31.8257666 C29.5721566,31.8072364 29.5903203,31.7697642 29.6088968,31.7516458 C31.0314448,31.3966895 32.676911,31.6211108 34.1180356,31.5642849 C34.922605,31.7697642 35.7077722,32.4043208 36.1573238,33.1323519 C36.6993452,33.9723877 37.054363,34.8865444 37.2793452,35.8752337" id="Fill-7" fill="#292626"></path>
                <path d="M41.7847274,36.5097903 L41.8037167,36.5097903 C42.3833039,36.5666162 43.0945779,36.6028531 43.6931544,36.5097903 C44.6471616,36.3043109 44.7218804,34.8111883 44.0300085,34.2709299 C43.4871616,33.7669084 42.5711331,33.8599712 41.6910192,34.2141039 C41.7471616,34.8486605 41.6910192,35.9501781 41.7847274,36.5097903 L41.7847274,36.5097903 Z M48.0144641,44.590606 C47.134763,44.590606 46.0321438,44.702199 44.908884,44.6280782 L44.8903075,44.6280782 C44.4036028,43.4890884 43.3563004,41.2494045 42.2900085,39.9440546 L42.2524427,39.8872286 C42.103005,41.0076883 42.2900085,43.4890884 42.3457381,44.4407173 C41.5044285,44.7960854 39.334279,44.590606 39.0907203,44.6461967 C39.2409836,44.6461967 39.1464498,32.8527517 38.9598591,31.6021688 C40.363005,31.3966895 42.065852,31.1352077 43.8797452,31.3406871 C46.8354747,31.4905758 48.7443146,34.7181255 47.191731,37.3123539 C46.7240157,38.2079804 45.9570121,38.8610672 44.7598591,38.9360115 L44.6843146,38.9360115 L44.6661509,38.9360115 L44.6661509,38.9549535 C45.7134534,40.8022089 47.2474605,42.5378713 47.9954747,44.590606 L48.0144641,44.590606 Z" id="Fill-9" fill="#292626"></path>
                <path d="M53.2866021,39.3094569 C53.7171644,39.3275753 54.2030434,39.3094569 54.6711715,39.3094569 C53.9219189,32.8712407 53.8104598,35.4835876 53.2866021,39.3094569 L53.2866021,39.3094569 Z M57.981506,44.6280371 L57.981506,44.6461555 C57.2339046,44.7960442 56.2798975,44.7396301 55.4753281,44.5712111 L55.4563388,44.5712111 C55.1566377,43.7686474 54.9143174,42.2574064 54.5774633,41.5301988 C53.941321,41.4367243 53.9788868,41.5108451 53.4174633,41.5108451 C53.0810221,42.2948786 53.0248797,43.8061196 52.5934918,44.6280371 C52.5753281,44.6280371 52.5571644,44.6461555 52.5381751,44.6461555 C52.3317694,44.7021579 51.6217338,44.6086833 49.9192996,44.6280371 C49.8998975,44.6280371 49.8998975,44.6280371 49.8817338,44.6086833 C50.0315843,44.1050735 50.9480256,37.5552643 52.744168,31.5835975 C53.0991858,31.5271833 53.398474,31.6395999 55.0451786,31.4905347 C55.2693352,32.460282 56.2798975,36.8457634 56.5795986,38.0959345 L57.981506,44.6280371 Z" id="Fill-11" fill="#292626"></path>
                <path d="M62.9360683,31.5270186 L62.9360683,31.6019629 C62.9360683,35.8754396 62.6743459,40.3165117 62.9179046,44.5533397 C62.5059189,44.9630631 60.0364811,44.5714582 59.5126235,44.7209351 C59.8676413,40.2230371 59.2133352,35.6514301 59.6628868,31.471428 L59.6628868,31.4339558 C59.793748,31.4154256 60.2614633,31.471428 60.4298904,31.471428 C60.8786164,31.4907817 61.365321,31.5463723 62.4877552,31.5270186 L62.9360683,31.5270186 Z" id="Fill-13" fill="#292626"></path>
                <path d="M73.5421836,35.8012365 C72.6624826,35.9498899 71.6155929,36.0248342 70.7358918,35.7818827 C71.0351801,34.4197068 68.6028954,33.9156853 68.3969025,35.3153333 C68.341173,35.4837523 68.3787388,35.6513477 68.3969025,35.8193549 C68.6028954,36.4164392 69.0900128,36.547386 69.6134577,36.6219186 C70.9418847,36.770572 72.1200484,37.5179568 72.8490733,38.5815905 C73.7291872,39.7012266 73.7481765,41.3059422 73.1496,42.5935854 C72.5510235,44.1237685 71.0727459,44.7962089 69.5387388,44.739383 C67.3500128,44.6833806 64.9734577,43.2837326 65.123721,40.9135137 L65.123721,40.8575113 L65.123721,40.8023324 C66.0021836,40.6713857 67.1440199,40.8023324 67.9861552,40.7829787 C68.0794505,42.3699876 70.8110235,42.4074598 70.5113224,40.6713857 C70.3614719,39.477217 68.8840199,39.3096216 67.8358918,39.1041423 C67.3306107,39.0106677 66.9198633,38.7677161 66.5648456,38.469174 C64.2630093,36.286316 65.4036071,32.8895238 67.798326,31.9004228 C69.0148811,31.3964012 70.7548811,31.5644084 71.9520342,32.1059021 C73.1496,32.7215167 73.9157779,33.9346273 73.5607601,35.8012365 L73.5421836,35.8012365 Z" id="Fill-15" fill="#292626"></path>
                <path d="M78.9820883,31.5270186 L78.9820883,31.6019629 C78.9820883,35.8754396 78.719953,40.3165117 78.9635117,44.5533397 C78.551526,44.9630631 76.0820883,44.5714582 75.5586434,44.7209351 C75.9132484,40.2230371 75.2589423,35.6514301 75.708494,31.471428 L75.708494,31.4339558 C75.839768,31.4154256 76.3074833,31.471428 76.4759103,31.471428 C76.9242235,31.4907817 77.4109281,31.5463723 78.5333623,31.5270186 L78.9820883,31.5270186 Z" id="Fill-17" fill="#292626"></path>
                <path d="M86.1272754,44.6461143 C85.3033039,42.7992707 84.443005,41.0631965 83.8634178,39.4770111 L83.6760014,38.917399 C83.5822932,38.6369752 83.4889979,38.3577868 83.4332683,38.3577868 C83.3581367,38.3577868 83.3024071,41.0076059 83.3024071,43.0974011 C83.3024071,43.6755434 83.3024071,44.2170371 83.3205708,44.6461143 C83.0402719,44.7210587 82.7777238,44.7395889 82.4978377,44.7395889 C81.8992612,44.7395889 81.2812826,44.6279959 80.7016954,44.6279959 L80.7016954,43.3214106 C80.7016954,40.95078 80.6459658,38.917399 80.6459658,36.5846523 C80.6459658,34.8679319 80.682706,33.1697417 80.8143929,31.5835563 C81.057126,31.5271421 81.3560014,31.5086119 81.6557025,31.5086119 C81.9739801,31.5086119 83.2091117,31.5835563 83.2091117,31.6951493 C83.5641295,32.6101295 83.7325566,32.7406645 84.1808698,33.7849444 C84.3311331,34.1403126 85.6967132,36.9013129 85.7528555,36.9013129 C85.8275744,36.8457222 85.8837167,36.3042285 85.8837167,35.8751514 C85.8837167,34.8864621 85.8275744,34.0653682 85.8275744,33.1697417 C85.8275744,32.64719 85.8457381,32.1242264 85.8651402,31.5086119 C86.2952897,31.4340793 86.7440157,31.3966071 87.211731,31.3966071 C87.6794463,31.3966071 88.091432,31.4340793 88.4464498,31.5086119 L88.4464498,37.517751 C88.4650263,38.5624426 88.4650263,39.6450183 88.4650263,40.708652 C88.4650263,41.4366831 88.4464498,42.089358 88.4464498,42.7799169 C88.4464498,43.2835267 88.4650263,43.7686062 88.4650263,44.2726278 L88.4650263,44.6461143 C88.408884,44.6642327 88.2780228,44.7395889 87.8478733,44.7395889 C87.3425922,44.7395889 86.6325566,44.6461143 86.1272754,44.6461143" id="Fill-19" fill="#292626"></path>
                <g id="Group-23" transform="translate(89.992883, 31.349829)" fill="#292626">
                    <path d="M7.97328683,6.72749327 L8.00961423,6.72749327 L8.02901637,6.74602347 C8.17804128,8.07196247 8.27257509,9.62026391 8.02901637,10.9634978 C7.89815516,12.2326108 7.20628327,12.8296951 6.25145053,13.1842397 C5.01673167,13.539196 3.48355018,13.8187962 2.28639715,13.3143629 C1.29358577,12.8852857 0.826283274,12.1766084 0.526582206,11.1129747 C0.452688968,10.8329628 0.359393594,10.310411 0.302425623,9.80680129 C0.153400712,8.22061588 0.0588669039,7.38057999 0.115834875,5.53332461 C0.133998577,4.73076092 0.171564413,3.89154859 0.302425623,3.0889849 C0.433286833,2.26706743 0.676845552,1.44638532 1.40628327,0.942363786 C1.91156441,0.513286633 2.54770676,0.345279456 3.22058932,0.252216657 C6.00871744,-0.101916118 8.36587046,1.27837814 8.00961423,4.32062575 L7.99145053,4.43221875 C7.935721,4.50675135 7.78545765,4.48863292 7.39287402,4.50675135 C6.6634363,4.50675135 6.38231174,4.54422353 5.63429751,4.45157252 C5.48444698,3.94755099 5.09186335,2.90162395 4.36201281,2.90162395 C3.93186335,2.88350553 3.51987758,2.80856115 3.22058932,3.10710332 C3.16485979,3.16310571 3.07156441,3.40605727 3.01542206,3.61153663 C2.65957865,4.80570529 2.5852726,7.11909824 2.73471032,8.98570739 C2.79043986,9.52720111 2.88497367,10.2729388 3.35268897,10.6468372 C3.46414804,10.7213698 3.61399858,10.7773722 3.78283843,10.8148443 C4.15601993,10.870435 4.5861694,10.7773722 4.94242562,10.6468372 C5.22272456,10.5158904 5.42830463,10.3289412 5.52201281,9.97480846 C5.57856797,9.7693291 5.69043986,8.91076301 5.54100214,8.8551724 C5.24171388,8.79958179 4.39957865,8.91076301 4.15601993,8.81770021 C4.06272456,8.01513651 4.17542206,7.71618257 4.08212669,6.85802826 L4.08212669,6.83990984 C4.08212669,6.82096785 4.08212669,6.82096785 4.10029039,6.82096785 C4.10029039,6.82096785 4.11845409,6.82096785 4.13785623,6.80284943 C4.77399858,6.41083269 7.46759288,6.72749327 7.97328683,6.72749327" id="Fill-21"></path>
                </g>
                <g id="Group-26" transform="translate(0.000000, 0.762209)">
                    <mask id="mask-2" fill="white">
                        <use xlink:href="#path-1"></use>
                    </mask>
                    <g id="Clip-25"></g>
                    <path d="M7.12206975,11.8855383 C5.02168541,11.8855383 4.87472456,12.326969 4.87472456,16.1124836 C4.87472456,19.2004391 5.02168541,21.4421819 7.52786335,21.4421819 C9.62824769,21.4421819 10.8803046,19.0900814 10.8803046,16.6276233 C10.8803046,15.9288287 10.8803046,15.1942091 10.6222975,14.4958263 C10.3647032,12.7683996 9.14814804,11.8855383 7.12206975,11.8855383 L7.12206975,11.8855383 Z M4.91187758,0.639763816 C5.05925125,3.54282901 5.1698847,1.7054564 5.02168541,8.61557512 C5.2062121,7.73312566 9.443721,7.14468876 12.0956214,8.13749587 C14.2703117,8.90876411 15.0810733,12.1799627 15.0810733,15.5981675 C14.8965466,20.5230838 14.527906,25.5583577 8.89055374,25.9623161 C7.52786335,26.1463828 6.20067473,25.8519585 5.46380641,24.3823075 C5.31684555,24.0878831 5.2062121,24.2719498 5.09557865,24.5293138 C5.09557865,25.0806903 5.05925125,25.2639334 5.05925125,25.7416008 C5.05925125,25.8519585 5.05925125,25.9623161 5.02168541,25.998553 C3.54836157,26.1830315 1.55861068,26.0360252 0.0477209964,26.0360252 C-0.135980071,18.9797237 0.2689879,10.7836089 0.2689879,2.62455449 L0.2689879,0.198744976 C1.89051103,-0.0948558014 4.91187758,0.124624163 4.91187758,0.234981818 L4.91187758,0.639763816 Z" id="Fill-24" fill="#292626" mask="url(#mask-2)"></path>
                </g>
                <g id="Group-29" transform="translate(16.396319, 0.054374)">
                    <mask id="mask-4" fill="white">
                        <use xlink:href="#path-3"></use>
                    </mask>
                    <g id="Clip-28"></g>
                    <path d="M5.3549604,0.171548505 C5.3549604,6.19880598 5.02306004,20.6428936 5.31863299,26.5597934 C4.83935897,27.1111699 0.785963954,26.5960303 0.123401677,26.7805087 C0.82352979,17.9230715 -0.539986224,8.95486489 0.343430146,0.0611908493 L5.3549604,0.171548505 Z" id="Fill-27" fill="#292626" mask="url(#mask-4)"></path>
                </g>
                <path d="M32.2894463,25.401551 C30.263368,26.871202 26.9109267,27.2385118 24.8844356,25.5119087 C23.3363929,24.1151431 24.4055744,13.6044 24.1104142,8.53165389 C25.842158,8.27428995 26.9835815,8.38464761 28.7157381,8.38464761 C28.9006776,10.6268022 28.6794107,14.2653106 28.8631117,16.9118354 C28.9737452,18.1245343 29.011311,19.8886096 29.7845068,20.4766347 C29.8216598,20.5128716 29.8947274,20.5128716 29.9314676,20.5503438 C30.7422292,20.9543022 33.2484071,21.2112544 33.4321082,18.5655531 C33.6166349,15.2206455 32.9895744,11.9132101 33.4684356,8.71572057 L33.4684356,8.56912608 C35.163852,8.09104683 35.6794534,8.53165389 38.037432,8.34841077 C38.037432,14.3756682 38.2586989,20.2925681 38.0749979,26.7608444 C36.8960085,26.6504867 36.6747416,26.6504867 35.4957523,26.7608444 C35.0899587,26.7608444 33.2847345,27.1281542 33.2847345,26.7983166 C33.1745139,25.9521039 33.2484071,25.5481455 33.2108413,24.8501745 C32.9528342,24.996769 32.548279,25.2174843 32.2894463,25.401551" id="Fill-30" fill="#292626"></path>
                <path d="M48.0613594,11.5456944 C45.7397082,11.5456944 45.1877794,12.611387 45.0032527,13.9340317 C44.818726,14.9634875 44.818726,14.7427722 48.4659146,14.7427722 C51.0088327,14.7427722 50.7875658,15.0371965 50.7875658,14.3017533 C50.7875658,13.3097698 50.2348114,12.3544348 49.3509822,11.9130042 C48.9451886,11.6560521 48.6141139,11.5456944 48.0613594,11.5456944 L48.0613594,11.5456944 Z M44.8926192,18.2713347 C44.9289466,19.7418092 44.8926192,20.5505497 45.4457865,21.4321756 C46.6247758,23.710567 50.2348114,23.7476274 50.0511103,19.7784579 C51.045573,19.8884037 53.6248185,19.5577426 54.6931744,19.8521669 C54.5094733,22.3512737 54.361274,24.9969749 53.6611459,25.585 C52.0032954,27.9371005 47.9870534,27.2020691 45.1877794,27.2020691 C44.4876512,27.0917115 43.8605907,26.8714079 43.2710961,26.5411585 C40.6555231,24.7033741 39.7341281,20.3660712 39.9186548,16.3969016 C40.0656157,14.5961777 40.1399217,12.9058113 40.7294164,11.2883305 C42.0190391,8.3848535 46.3292028,7.31874913 49.8298434,8.20161038 C54.3988399,8.97287862 55.0618149,13.1994121 54.7674804,17.3155879 C53.735452,17.6104241 46.4398363,17.9036131 44.8926192,17.6104241 L44.8926192,18.2713347 Z" id="Fill-32" fill="#292626"></path>
                <path d="M63.5004641,26.6879589 C61.8797665,26.5038922 60.0369765,26.9815597 58.7473537,26.7983166 C58.453432,24.9605322 58.6746989,15.9190283 58.6746989,13.7872313 C57.9006776,13.7872313 57.0531758,13.7872313 56.0578875,13.82388 L55.9472541,9.34039432 C56.9788698,9.34039432 57.8263715,9.34039432 58.6003929,9.37745472 C58.4158662,6.95164522 59.0429267,3.31272506 62.395368,2.24703248 C64.4590121,1.54906148 67.0006918,1.43870383 69.3227559,1.54906148 C69.8379445,3.05577291 69.5060441,5.15092123 69.3227559,6.51021459 C68.180094,6.39985694 66.1172754,6.76757853 64.7166064,6.95164522 C63.5743573,7.13488834 63.3906562,8.23805311 63.6482505,9.45075197 L69.2860157,9.45075197 C69.1753822,10.0021285 69.2860157,10.4435591 69.2484498,11.1419419 C69.2484498,12.2076344 69.2484498,12.1335136 69.0647488,14.0445953 C66.5585708,13.897589 65.0109409,13.7872313 63.5004641,13.7509945 L63.5004641,21.7630426 L63.5004641,26.6879589 Z" id="Fill-34" fill="#292626"></path>
                <path d="M77.871832,9.04667001 C79.7509495,8.45864489 82.9560171,8.4211727 82.9560171,8.56900254 C82.9560171,11.9130866 82.8457964,13.5305674 82.9560171,15.0372789 L82.6245295,14.9269212 C82.3669352,14.8169753 82.1093409,14.7803267 81.8513338,14.669969 C81.2618391,14.5221392 80.4878178,14.4117815 80.4510776,14.4117815 C77.8350918,14.1181808 75.8457537,14.2285384 75.9559744,16.9483605 C76.0657822,20.3299167 76.103348,22.9389693 76.103348,26.5778895 L76.103348,26.724484 C74.4075189,27.2021515 73.5241025,26.7611326 71.1661238,26.9451993 C71.1661238,20.9179418 70.9448569,15.0002185 71.1293836,8.53153035 C72.308373,8.64188801 72.5288142,8.64188801 73.7078036,8.53153035 C74.1135972,8.53153035 76.103348,8.2745782 76.103348,8.49529351 C76.103348,9.30403394 76.1400883,9.08290685 76.1400883,9.74505278 C76.3246149,9.63469513 77.1717039,9.30403394 77.871832,9.04667001" id="Fill-36" fill="#292626"></path>
                <path d="M89.4418619,15.1478012 C89.2573352,16.7278099 89.3312285,18.1982845 89.2210078,19.9248876 C89.1099616,22.1666305 92.1680683,22.2769881 93.4581039,21.5790171 C93.8630719,21.395774 94.158232,20.9905802 94.3051929,20.3663183 C94.488894,18.7863096 94.7101609,17.1688287 94.4158263,15.7358263 C94.158232,14.0079878 92.9416769,13.1630106 91.0258192,13.6040294 C90.5106306,13.7510357 90.1044242,14.0079878 89.7729367,14.4119463 C89.625563,14.5223039 89.5153423,14.7430192 89.4418619,15.1478012 M90.6939189,7.94325816 C91.6892071,8.05361582 92.5367089,7.87078448 93.5687374,7.98073035 C95.1522819,8.09108801 96.6268441,8.56875547 97.6576342,9.56073903 C99.0578904,10.4798371 99.0578904,13.6040294 99.1685238,16.8377558 C99.0578904,19.7041723 98.9472569,24.5191427 97.9895345,25.4744777 C96.2953566,27.8640503 92.2791146,27.0919585 89.4418619,27.0919585 C88.1889794,26.8712432 87.1206235,26.3206903 86.2731217,25.4744777 C83.6195701,23.1223772 84.6883388,18.0879268 84.3940043,14.8896137 C84.3940043,14.0079878 84.4303317,13.1630106 84.5777053,12.2439125 C84.6152712,11.6921242 85.0202391,10.6268434 85.1676128,10.0758787 C85.8673281,8.56875547 88.373506,7.94325816 90.6939189,7.94325816" id="Fill-38" fill="#292626"></path>
                <path d="M104.918656,18.455319 C104.918656,19.7042547 105.286884,20.7703591 106.023752,21.6528085 C106.907994,22.7185011 108.566258,22.9025678 109.85588,22.4977858 C110.703382,22.204185 110.813603,21.1384924 110.924236,20.256043 C110.924236,18.3087245 110.924236,16.2135762 110.445375,14.3391432 C109.818315,12.7953713 107.608535,12.7583109 106.465873,13.7136458 C105.729418,14.5598585 105.176251,15.5514302 104.991724,16.6912436 C104.88109,17.1689111 104.918656,17.6465786 104.918656,18.124246 L104.918656,18.455319 Z M107.497902,34.1849909 C105.176251,34.1849909 103.33346,33.1188866 102.19245,31.4651689 C101.786243,30.7305493 101.491909,29.1505406 101.602542,28.3784488 C102.597005,27.9744903 105.176251,28.1577335 106.318912,28.3418001 C106.318912,30.9146159 110.113475,31.428932 110.703382,28.6728731 C110.73971,28.1952057 110.813603,27.6434174 110.776037,27.2386354 C110.73971,26.8346769 110.73971,26.3936581 110.776037,25.9522275 C109.818315,27.0187436 107.976763,26.7984401 106.576507,26.9087978 C104.697389,26.9087978 102.671311,26.4311303 101.786243,24.5929341 C101.086115,23.2698776 100.865261,21.799403 100.754215,20.2922798 C100.754215,15.6984365 100.607254,8.97279626 106.907994,8.56883783 C108.491952,8.45848017 109.966514,8.93614764 110.556009,10.2958528 C110.960977,10.4799195 110.518443,8.97279626 110.776037,8.53136564 C112.39756,8.3485343 114.093389,8.4951288 115.750827,8.4951288 C115.934941,14.6327439 116.008421,21.3579724 115.713261,28.4146856 C115.676934,29.5907359 115.861873,30.8409069 115.381774,31.6129987 C114.019083,33.7443839 112.508194,34.0754568 111.292464,34.1849909 C110.813603,34.2953486 109.52398,34.1849909 107.497902,34.1849909 L107.497902,34.1849909 Z" id="Fill-40" fill="#292626"></path>
            </g>
        </g>
    </g>
</svg>