<?xml version="1.0" encoding="UTF-8" standalone="no"?>
<svg width="40px" height="32px" viewBox="0 0 40 32" version="1.1" xmlns="http://www.w3.org/2000/svg" xmlns:xlink="http://www.w3.org/1999/xlink">
    <!-- Generator: Sketch 47.1 (45422) - http://www.bohemiancoding.com/sketch -->
    <title>twitter-hand-drawn-logo</title>
    <desc>Created with Sketch.</desc>
    <defs>
        <polygon id="path-1" points="39.6379195 0.25097193 0.0316979561 0.25097193 0.0316979561 31.7892024 39.6379195 31.7892024 39.6379195 0.25097193"></polygon>
    </defs>
    <g id="Welcome" stroke="none" stroke-width="1" fill="none" fill-rule="evenodd">
        <g id="Twitter" transform="translate(-5.000000, -9.000000)">
            <g id="twitter-hand-drawn-logo" transform="translate(5.000000, 9.000000)">
                <g id="Group-3">
                    <mask id="mask-2" fill="white">
                        <use xlink:href="#path-1"></use>
                    </mask>
                    <g id="Clip-2"></g>
                    <path d="M38.8484866,7.45107774 C38.1532448,7.08688959 37.4537766,6.73218259 36.7685724,6.35070526 C37.2841925,5.48178467 37.7406431,4.57717029 38.1490184,3.64299699 C38.3783003,3.11316736 38.2953573,2.49689185 37.7839636,2.18122493 C37.4410974,1.96761993 36.9334018,1.99996742 36.6158939,2.27659426 C35.4536356,2.6580716 34.3288864,3.13937999 33.2189296,3.66028617 C32.9341763,3.23307617 32.6039893,2.82817479 32.2199157,2.45115918 C27.0029605,-2.67312991 18.521644,2.02841091 16.2245988,7.6122575 C11.7298286,7.3986525 7.9366399,4.98486025 4.82918361,2.01781432 C4.69710879,1.88898206 4.55235479,1.81257505 4.40601589,1.77130411 C3.87137703,1.51642817 3.15922962,1.64079871 3.02134351,2.34630869 C2.39372398,5.54257565 3.25009709,8.55312338 5.38812423,10.8843737 C4.96125842,10.8715463 4.53386431,10.8514685 4.10647021,10.8235828 C3.92315036,10.8124285 3.76624548,10.8431028 3.63417066,10.8994321 C2.93681563,10.7494066 2.10263109,11.2396385 2.40851636,12.0477681 C3.2442858,14.2591096 4.72563695,15.9690651 6.68615553,17.021474 C6.47377923,17.0237049 6.26140292,17.021474 6.04849832,17.0125506 C5.9164235,17.0086466 5.80072596,17.0281666 5.6955944,17.0582832 C5.06005039,17.1675954 4.51537384,17.7989293 4.96125842,18.4681878 C6.3459308,20.5440045 8.25678925,22.0821836 10.5823626,23.045358 C9.21406753,24.4898409 7.27468092,25.0101894 5.12820099,24.8467788 C5.04578631,24.8400862 4.96706971,24.8423171 4.89310782,24.8512405 C4.73197654,24.8534714 4.56714717,24.8902806 4.41024229,24.9778419 C3.95590492,25.230487 3.72503814,25.8685134 4.042546,26.302416 C4.08375334,26.3565144 4.12918708,26.4089396 4.17092272,26.4613649 C3.29341763,26.3698995 2.42066724,26.2343747 1.54791685,26.04754 C0.59856307,25.5528465 -0.580072596,26.7770318 0.321734254,27.5611796 C2.088367,29.094897 4.07371565,30.2365404 6.28781788,31.0970953 C6.50072249,31.1801949 6.69249512,31.1885606 6.85732449,31.1472897 C19.1466221,34.3151131 30.1854353,25.2806814 33.7493421,14.5357365 C34.0795292,13.5424453 34.3436788,12.4682855 34.506395,11.3723747 C36.0088781,10.8319485 37.4865311,10.215673 38.9599578,9.59270488 C40.0065186,9.15043657 39.7402558,7.51633045 38.8484866,7.45107774 Z M31.0893553,15.8753689 C27.3104306,25.0191128 17.4217249,32.1840826 6.83090953,29.1367256 C6.7109856,29.1015896 6.60162765,29.0926661 6.49649609,29.094897 C6.04427192,28.9075046 5.60261373,28.7050539 5.17363473,28.4853141 C6.03846063,28.5371816 6.90909782,28.5505668 7.78396141,28.5198924 C8.97263476,28.4808523 9.08410591,26.8947097 8.11626165,26.6292372 C8.09143158,26.6136212 8.07082791,26.5985629 8.04599785,26.5874086 C10.1058367,26.1278511 11.8803939,24.9711493 13.0569164,23.1106107 C13.419858,22.5356062 13.0817465,21.9951799 12.5862018,21.7748824 C12.4916362,21.7012639 12.380165,21.6354535 12.2417506,21.5919517 C10.5205516,21.0431598 9.04078537,20.1324105 7.85633841,18.8993018 C9.06350224,18.795009 10.2500624,18.5551914 11.4244717,18.2350627 C12.6110318,17.9149341 12.210581,16.2523845 11.1106619,16.3310223 C11.0013039,16.2852897 10.8819083,16.2501536 10.7456071,16.239557 C8.22773279,16.0454721 6.19695041,14.7755541 5.00035257,12.8057033 C6.03000784,12.8492051 7.05966311,12.8536668 8.08931839,12.8558977 C9.25950126,12.8558977 9.38787799,11.3333346 8.47973154,10.9908974 C6.28200659,9.37017644 4.93854155,7.19397095 4.84344769,4.69094423 C8.18441225,7.49234868 12.1820528,9.53581791 16.7692754,9.56649226 C17.0397646,9.56872312 17.2521409,9.48562352 17.411159,9.35734898 C17.6547049,9.25919107 17.8612699,9.06733697 17.9579487,8.76003579 C19.1735653,4.99155283 23.2594319,1.6948971 27.6015235,2.35969386 C29.3100434,2.62349324 30.7385646,3.47958638 31.6319186,4.88447147 C33.6875311,8.11085506 32.4264807,12.6445236 31.0893553,15.8753689 Z M34.4033766,6.45778662 C34.3309996,6.15271629 34.2485849,5.84987683 34.1476798,5.5554031 C34.4651876,5.40760852 34.785337,5.26371795 35.104958,5.1242891 C34.9359023,5.41597425 34.7583937,5.7037554 34.5745456,5.98707482 C34.469414,6.14825457 34.4176407,6.30720346 34.4033766,6.45778662 Z M34.6780922,9.04558607 C34.675979,8.50125584 34.6448094,7.96082962 34.5724324,7.42932684 C34.6426962,7.51633045 34.7251109,7.59719918 34.836582,7.66468274 C35.2845798,7.9457713 35.7426153,8.20064724 36.2069903,8.4488306 C35.6992947,8.65351215 35.1894859,8.85205883 34.6780922,9.04558607 Z" id="Fill-1" fill="#1D1D1B" mask="url(#mask-2)"></path>
                </g>
                <path d="M25.2326296,5.56432655 C23.8685609,5.56432655 23.8685609,7.79518815 25.2326296,7.79518815 C26.5945851,7.79518815 26.5945851,5.56432655 25.2326296,5.56432655 Z" id="Fill-4" fill="#1D1D1B"></path>
            </g>
        </g>
    </g>
</svg>