<?xml version="1.0" encoding="UTF-8" standalone="no"?>
<svg width="166px" height="166px" viewBox="0 0 166 166" version="1.1" xmlns="http://www.w3.org/2000/svg" xmlns:xlink="http://www.w3.org/1999/xlink">
    <!-- Generator: Sketch 50.2 (55047) - http://www.bohemiancoding.com/sketch -->
    <title>001-marketing</title>
    <desc>Created with Sketch.</desc>
    <defs></defs>
    <g id="BF-Digital" stroke="none" stroke-width="1" fill="none" fill-rule="evenodd">
        <g id="Home" transform="translate(-930.000000, -2486.000000)" fill="#2869A7" fill-rule="nonzero">
            <g id="Group" transform="translate(124.000000, 2021.000000)">
                <g id="001-marketing" transform="translate(806.000000, 465.000000)">
                    <rect id="Rectangle-path" x="8" y="53" width="6" height="6"></rect>
                    <rect id="Rectangle-path" x="20" y="53" width="6" height="6"></rect>
                    <rect id="Rectangle-path" x="31" y="53" width="48" height="6"></rect>
                    <path d="M147.222222,30.6666667 L136.111111,30.6666667 L134.483333,30.6666667 L130.555556,26.8017333 L130.555556,19.7333333 C130.555556,18.22385 129.313194,17 127.777778,17 C122.610069,17 118.253472,20.490125 117.019444,25.2 L108.333333,25.2 C107.595486,25.2 106.890278,25.4883667 106.369444,26.0008667 L100.813889,31.4675333 C100.293056,31.9800333 100,32.675325 100,33.4 L100,49.8 C100,50.524675 100.293056,51.2199667 100.813889,51.7324667 L106.369444,57.1991333 C106.890278,57.7116333 107.595486,58 108.333333,58 L136.111111,58 L147.222222,58 C148.757639,58 150,56.77615 150,55.2666667 L150,33.4 C150,31.8905167 148.757639,30.6666667 147.222222,30.6666667 Z M133.333333,52.5333333 L109.483333,52.5333333 L105.555556,48.6684 L105.555556,34.5319417 L109.483681,30.6666667 L119.444444,30.6666667 C120.979861,30.6666667 122.222222,29.4428167 122.222222,27.9333333 C122.222222,25.9140833 123.339931,24.1469833 125,23.2005667 L125,27.9333333 C125,28.6580083 125.293056,29.3533 125.813889,29.8658 L131.369444,35.3324667 C131.890278,35.8449667 132.595486,36.1333333 133.333333,36.1333333 L133.333333,52.5333333 Z M144.444444,52.5333333 L138.888889,52.5333333 L138.888889,36.1333333 L144.444444,36.1333333 L144.444444,52.5333333 Z" id="Shape"></path>
                    <rect id="Rectangle-path" x="55" y="105" width="28" height="6"></rect>
                    <rect id="Rectangle-path" x="55" y="94" width="28" height="6"></rect>
                    <rect id="Rectangle-path" x="55" y="83" width="28" height="6"></rect>
                    <path d="M163.232993,88.5333333 L132.799723,88.5333333 L132.799723,82.130575 C151.879654,78.2385667 165.999654,61.2076583 165.999654,41.5 C165.999654,18.6169 147.384176,0 124.499741,0 C109.148231,0 94.9607938,8.6486 87.8504753,22.1333333 L2.7666609,22.1333333 C1.23738909,22.1333333 0,23.3721083 0,24.9 L0,35.9666667 L0,130.033333 C0,131.561225 1.23738909,132.8 2.7666609,132.8 L9.921246,132.8 L0.810631645,141.910633 C-0.270095271,142.991362 -0.270095271,144.742317 0.810631645,145.823046 L20.177258,165.189712 C20.7174485,165.729904 21.4253679,166 22.1332872,166 C22.8412066,166 23.5491259,165.729904 24.0893165,165.189367 L38.7332526,150.545746 L45.0772061,156.889713 C45.8688169,157.684092 47.0577895,157.919258 48.0925206,157.489387 C49.1272518,157.061246 49.8002421,156.052104 49.8002421,154.933333 L49.8002421,132.8 L105.13346,132.8 L105.13346,163.233333 C105.13346,164.761225 106.370849,166 107.900121,166 L163.233339,166 C164.762611,166 166,164.761225 166,163.233333 L166,91.3 C165.999654,89.7721083 164.762265,88.5333333 163.232993,88.5333333 Z M88.5601238,41.0462667 C88.5843321,36.8153417 89.3787096,32.6490875 90.9242356,28.6543667 C91.2538141,27.7897833 91.6103675,26.948025 92.0319374,26.0834417 C97.9408335,13.59955 110.685457,5.53333333 124.499741,5.53333333 C144.331166,5.53333333 160.466332,21.66715 160.466332,41.5 C160.466332,59.2862083 147.214027,74.5931375 129.651955,77.1045792 C121.298022,78.2624292 113.100752,76.5830625 106.167845,72.4358292 C105.875271,72.2622208 105.553993,72.1671167 105.226489,72.1090167 C105.145218,72.0944917 105.068098,72.083425 104.98579,72.0765083 C104.905556,72.0692458 104.827398,72.0443458 104.746819,72.0443458 C104.492978,72.0443458 104.236025,72.0796208 103.98495,72.1512083 L89.7895588,76.2106 L90.0057042,75.45945 C90.00605,75.4577208 90.0053583,75.4556458 90.0057042,75.4539167 L93.8503253,62.0151792 C94.0585165,61.28305 93.9558043,60.4980083 93.5691634,59.843 C92.964648,58.824175 92.413045,57.782525 91.9143543,56.7194333 C91.8956794,56.6793167 91.8825377,56.637125 91.8638628,56.5970083 C90.3999533,53.4447375 89.3991138,50.1098667 88.890394,46.6390833 C88.6541903,44.9223667 88.5328031,43.2011542 88.5328031,41.4114667 C88.549403,41.2893875 88.5601238,41.1676542 88.5601238,41.0462667 Z M83.8104587,82.1893667 C84.0456249,82.4245333 84.3226368,82.5908792 84.6138279,82.7250625 C84.6899111,82.7603375 84.7635734,82.7893875 84.8420774,82.8174 C85.1204727,82.9166542 85.4078596,82.9809792 85.7049298,82.9878958 C85.7260256,82.9882417 85.7453922,83 85.766488,83 C85.7723671,83 85.7785921,82.9975792 85.7844713,82.9975792 C86.0317416,82.9961958 86.2810869,82.9629958 86.5259364,82.8948667 L88.5334947,82.3221667 L88.5334947,116.2 L49.7998963,116.2 L49.7998963,77.4666667 L83.6780048,77.4666667 L83.105306,79.4742292 C82.8296774,80.4401417 83.0997727,81.479025 83.8104587,82.1893667 Z M5.53332181,27.6666667 L85.3881471,27.6666667 C85.2280266,28.1148667 85.1090602,28.5720583 84.9651938,29.0237167 C84.8071483,29.5186042 84.640457,30.010725 84.502124,30.5094167 C84.3219452,31.160275 84.1780788,31.81805 84.0307541,32.4754792 C83.923546,32.9541125 83.8004296,33.4299792 83.7108589,33.911725 C83.5742551,34.6466208 83.4819177,35.3884333 83.3868138,36.1299 C83.3342472,36.5397125 83.2595474,36.9457208 83.2197766,37.3572625 C83.1077269,38.5133833 83.0402895,39.6753833 83.0292229,40.842225 C83.0053604,41.0607917 82.9998271,41.2662167 82.9998271,41.5 C82.9998271,42.4147292 83.0295687,43.33845 83.0918186,44.2666667 L56.7165485,44.2666667 L49.2458724,34.3063208 C48.7247027,33.6094667 47.9033502,33.2 47.0332353,33.2 L5.53332181,33.2 L5.53332181,27.6666667 Z M5.53332181,38.7333333 L45.6499049,38.7333333 L49.7998963,44.2666667 L5.53332181,44.2666667 L5.53332181,38.7333333 Z M5.53332181,49.8 L55.3332181,49.8 L83.8291337,49.8 C83.8837752,50.0666375 83.9629709,50.3256667 84.0228,50.590575 C84.1161748,51.0038458 84.2192329,51.4129667 84.3250577,51.8227792 C84.5149198,52.5587125 84.7255318,53.2873833 84.9548188,54.0105208 C85.0838144,54.416875 85.2114266,54.8232292 85.3528722,55.2250875 C85.6188175,55.9803875 85.9148502,56.7239292 86.2247162,57.4633208 C86.3668534,57.8022375 86.495849,58.1459958 86.6469778,58.4818 C87.0678561,59.4158958 87.5260843,60.334775 88.0171666,61.2405125 L5.53332181,60.878425 L5.53332181,49.8 Z M44.2665744,130.033333 L44.2665744,148.2546 L40.6892819,144.6773 C39.608555,143.596571 37.8576045,143.596571 36.7768775,144.6773 L22.1332872,159.321267 L6.67906525,143.866667 L18.5563405,131.989367 L21.3230014,129.2227 C22.4037283,128.141971 22.4037283,126.391017 21.3230014,125.310288 L17.7457089,121.733333 L44.2665744,121.733333 L44.2665744,130.033333 Z M47.0332353,71.9333333 C45.5039635,71.9333333 44.2665744,73.1721083 44.2665744,74.7 L44.2665744,116.2 L11.0666436,116.2 C9.94822094,116.2 8.93769805,116.874029 8.51059477,117.907725 C8.08107066,118.942458 8.31865767,120.131433 9.11026852,120.923046 L15.4545678,127.266667 L5.53332181,127.266667 L5.53332181,66.4117583 L86.7368943,66.7679667 L85.2605349,71.9333333 L47.0332353,71.9333333 Z M49.7998963,127.266667 L49.7998963,121.733333 L91.2998098,121.733333 C92.8290816,121.733333 94.0664707,120.494558 94.0664707,118.966667 L94.0664707,80.7399792 L104.379199,77.7934792 C105.298768,78.30635 106.23805,78.7770292 107.190127,79.2165833 C107.519705,79.36875 107.858275,79.4977458 108.191658,79.6412667 C108.822802,79.9124 109.454639,80.180075 110.098233,80.4187 C110.498016,80.5670625 110.904369,80.6964042 111.308647,80.8319708 C111.901059,81.030825 112.494853,81.2244917 113.096602,81.3963708 C113.526472,81.5191417 113.959454,81.6280792 114.393474,81.7370167 C114.986577,81.885725 115.582447,82.0230208 116.182812,82.1454458 C116.623749,82.2350167 117.065377,82.3183625 117.509772,82.3937542 C118.122933,82.49785 118.739553,82.5836167 119.359285,82.6600458 C119.79538,82.71365 120.230437,82.7686375 120.668953,82.8087542 C121.327418,82.8689292 121.990379,82.9031667 122.654724,82.9322167 C123.058656,82.9495083 123.460514,82.9764833 123.866175,82.9827083 C124.654328,82.9941208 125.446976,82.9712958 126.241008,82.9387875 C126.525628,82.9270292 126.808173,82.9308333 127.093485,82.9135417 C127.151239,82.9100833 127.208647,82.9121583 127.266402,82.9083542 L127.266402,134.421267 L120.922448,128.0773 C120.403699,127.55855 119.701313,127.266667 118.966419,127.266667 L49.7998963,127.266667 Z M160.466678,160.466667 L110.666436,160.466667 L110.666436,132.8 L117.821021,132.8 L128.077033,143.056033 C128.606503,143.585504 129.314422,143.866667 130.033062,143.866667 C130.389616,143.866667 130.748936,143.797846 131.092348,143.656054 C132.127079,143.227913 132.800069,142.218771 132.800069,141.1 L132.800069,94.0666667 L160.466678,94.0666667 L160.466678,160.466667 Z" id="Shape"></path>
                    <rect id="Rectangle-path" x="133" y="149" width="6" height="6"></rect>
                    <path d="M150.5,132 L150.5,148.5 L145,148.5 L145,154 L153.25,154 C154.770062,154 156,152.768687 156,151.25 L156,132 L150.5,132 Z" id="Shape"></path>
                </g>
            </g>
        </g>
    </g>
</svg>