<?xml version="1.0" encoding="UTF-8" standalone="no"?>
<svg width="181px" height="169px" viewBox="0 0 181 169" version="1.1" xmlns="http://www.w3.org/2000/svg" xmlns:xlink="http://www.w3.org/1999/xlink">
    <!-- Generator: Sketch 50.2 (55047) - http://www.bohemiancoding.com/sketch -->
    <title>002-responsive</title>
    <desc>Created with Sketch.</desc>
    <defs></defs>
    <g id="BF-Digital" stroke="none" stroke-width="1" fill="none" fill-rule="evenodd">
        <g id="Home" transform="translate(-295.000000, -2485.000000)" fill="#2869A7" fill-rule="nonzero">
            <g id="Group" transform="translate(124.000000, 2021.000000)">
                <g id="002-responsive" transform="translate(171.000000, 464.000000)">
                    <path d="M171.95,81.4821429 L171.95,15.0892857 C171.95,6.76905357 165.183617,0 156.866667,0 L24.1333333,0 C15.8163833,0 9.05,6.76905357 9.05,15.0892857 L9.05,60.3571429 C4.06043333,60.3571429 0,64.4191786 0,69.4107143 L0,159.946429 C0,164.937964 4.06043333,169 9.05,169 L75.4166667,169 C80.4062333,169 84.4666667,164.937964 84.4666667,159.946429 L109.74935,159.946429 C112.594067,159.946429 115.21555,158.64875 116.941083,156.388375 C118.666617,154.128 119.227717,151.255 118.479583,148.511768 L112.548817,126.75 L129.716667,126.75 L129.716667,159.946429 C129.716667,164.937964 133.7771,169 138.766667,169 L171.95,169 C176.939567,169 181,164.937964 181,159.946429 L181,90.5357143 C181,85.5441786 176.939567,81.4821429 171.95,81.4821429 Z M78.4333333,159.946429 C78.4333333,161.609268 77.07885,162.964286 75.4166667,162.964286 L9.05,162.964286 C7.38781667,162.964286 6.03333333,161.609268 6.03333333,159.946429 L6.03333333,153.910714 L78.4333333,153.910714 L78.4333333,159.946429 Z M78.4333333,147.875 L6.03333333,147.875 L6.03333333,81.4821429 L78.4333333,81.4821429 L78.4333333,147.875 Z M78.4333333,75.4464286 L6.03333333,75.4464286 L6.03333333,69.4107143 C6.03333333,67.747875 7.38781667,66.3928571 9.05,66.3928571 L75.4166667,66.3928571 C77.07885,66.3928571 78.4333333,67.747875 78.4333333,69.4107143 L78.4333333,75.4464286 Z M112.660433,150.099161 C112.910817,151.013571 112.723783,151.970232 112.1476,152.724696 C111.571417,153.479161 110.6996,153.910714 109.74935,153.910714 L84.4666667,153.910714 L84.4666667,147.875 L112.054083,147.875 L112.660433,150.099161 Z M84.4666667,141.839286 L84.4666667,126.75 L106.295267,126.75 L110.41,141.839286 L84.4666667,141.839286 Z M129.716667,120.714286 L84.4666667,120.714286 L84.4666667,102.607143 L129.716667,102.607143 L129.716667,120.714286 Z M129.716667,90.5357143 L129.716667,96.5714286 L84.4666667,96.5714286 L84.4666667,69.4107143 C84.4666667,64.4191786 80.4062333,60.3571429 75.4166667,60.3571429 L15.0833333,60.3571429 L15.0833333,15.0892857 C15.0833333,10.09775 19.1437667,6.03571429 24.1333333,6.03571429 L156.866667,6.03571429 C161.856233,6.03571429 165.916667,10.09775 165.916667,15.0892857 L165.916667,81.4821429 L138.766667,81.4821429 C133.7771,81.4821429 129.716667,85.5441786 129.716667,90.5357143 Z M174.966667,159.946429 C174.966667,161.609268 173.612183,162.964286 171.95,162.964286 L138.766667,162.964286 C137.104483,162.964286 135.75,161.609268 135.75,159.946429 L135.75,153.910714 L174.966667,153.910714 L174.966667,159.946429 Z M174.966667,147.875 L135.75,147.875 L135.75,102.607143 L174.966667,102.607143 L174.966667,147.875 Z M174.966667,96.5714286 L135.75,96.5714286 L135.75,90.5357143 C135.75,88.872875 137.104483,87.5178571 138.766667,87.5178571 L171.95,87.5178571 C173.612183,87.5178571 174.966667,88.872875 174.966667,90.5357143 L174.966667,96.5714286 Z" id="Shape"></path>
                    <rect id="Rectangle-path" transform="translate(24.500000, 121.000000) rotate(-45.000000) translate(-24.500000, -121.000000) " x="16" y="118" width="17" height="6"></rect>
                    <rect id="Rectangle-path" transform="translate(48.500000, 118.000000) rotate(-45.000000) translate(-48.500000, -118.000000) " x="23" y="115" width="51" height="6"></rect>
                    <rect id="Rectangle-path" transform="translate(45.000000, 100.000000) rotate(-45.000000) translate(-45.000000, -100.000000) " x="32" y="97" width="26" height="6"></rect>
                    <rect id="Rectangle-path" transform="translate(152.500000, 119.000000) rotate(-45.000000) translate(-152.500000, -119.000000) " x="142" y="116" width="21" height="6"></rect>
                    <rect id="Rectangle-path" transform="translate(158.500000, 131.000000) rotate(-45.000000) translate(-158.500000, -131.000000) " x="148" y="128" width="21" height="6"></rect>
                    <rect id="Rectangle-path" transform="translate(91.000000, 45.000000) rotate(-45.000000) translate(-91.000000, -45.000000) " x="78" y="42" width="26" height="6"></rect>
                    <rect id="Rectangle-path" transform="translate(118.000000, 39.000000) rotate(-45.000000) translate(-118.000000, -39.000000) " x="105" y="36" width="26" height="6"></rect>
                    <rect id="Rectangle-path" transform="translate(96.500000, 60.000000) rotate(-45.000000) translate(-96.500000, -60.000000) " x="88" y="57" width="17" height="6"></rect>
                    <rect id="Rectangle-path" transform="translate(111.500000, 24.000000) rotate(-45.000000) translate(-111.500000, -24.000000) " x="103" y="21" width="17" height="6"></rect>
                    <rect id="Rectangle-path" x="21" y="12" width="6" height="6"></rect>
                    <rect id="Rectangle-path" x="33" y="12" width="6" height="6"></rect>
                    <rect id="Rectangle-path" x="45" y="12" width="6" height="6"></rect>
                </g>
            </g>
        </g>
    </g>
</svg>