<?xml version="1.0" encoding="UTF-8" standalone="no"?>
<svg width="100px" height="141px" viewBox="0 0 100 141" version="1.1" xmlns="http://www.w3.org/2000/svg" xmlns:xlink="http://www.w3.org/1999/xlink">
    <!-- Generator: Sketch 50.2 (55047) - http://www.bohemiancoding.com/sketch -->
    <title>BVUK_logo_Mono</title>
    <desc>Created with Sketch.</desc>
    <defs></defs>
    <g id="BF-Digital" stroke="none" stroke-width="1" fill="none" fill-rule="evenodd" opacity="0.800000012">
        <g id="Home" transform="translate(-195.000000, -5356.000000)">
            <g id="Group-7" style="mix-blend-mode: multiply;" transform="translate(115.000000, 5122.000000)">
                <g id="BVUK_logo_Mono" transform="translate(80.000000, 234.000000)">
                    <path d="M48,20.5924846 C46.8775992,19.1645664 44.9021251,17.7474475 40.9414274,18.4638065 C36.4311067,19.2809597 31.5210602,23.1087406 27.3531876,28.8660111 C20.6382817,38.1402802 16.5508416,47.6641351 12.8740955,58.1659339 C9.6982253,59.4906581 3.76327215,62.0345125 0,64 C5.35851931,48.345696 11.833346,34.980861 19.0844695,24.8390416 C25.2180669,16.2607326 31.5222789,11.6037991 37.6351588,11.0482309 C42.7243507,10.5850575 44.9984005,13.5536875 45.9270318,15.8431565 L48,20.5924846" id="Fill-1" fill="#1A1919"></path>
                    <path d="M99,141 L99,81.3361036 C86.2258838,85.9943904 78.0415289,82.9972821 71.3391345,71.0148723 C67.273335,63.7545944 63.3741961,58.6457776 52.278676,59.0192115 C38.154489,59.4974479 18.4873379,65.9771284 0,76.3284754 L0,141 L99,141" id="Fill-2" fill="#1A1919"></path>
                    <path d="M50,24.5239291 C51.8538922,26.7492397 54.1520958,28.2379701 57.4479042,28.0750841 C61.7820359,27.861895 64.5724551,25.5156176 69.2526946,18.4935529 C75.5988024,8.97669704 80.4670659,3.51282888 87.3808383,0 L100,0 C89.7688623,4.89736014 83.4167665,11.0007955 75.245509,23.9155019 C70.2922156,31.7436129 67.188024,34.5977115 61.9113772,34.9725889 C57.6191617,35.2780002 53.8550898,32.9975958 52.4491018,29.814132 C52.4491018,29.814132 52.0071856,28.7984897 50,24.5239291" id="Fill-3" fill="#1A1919"></path>
                    <path d="M14.9987908,94 L10,94 L10,78 L15.0229746,78 C18.3651753,78 20.2055623,79.4632008 20.2055623,82.096461 C20.2055623,83.466959 19.5332527,84.6044472 18.3325272,85.3185092 C20,85.9110554 21,87.3304103 21,89.1944879 C21,92.2361416 18.8125756,94 14.9987908,94 Z M12.5078597,91.91544 L14.9733978,91.91544 C17.2696493,91.91544 18.401451,91.0021923 18.401451,89.2157845 C18.401451,87.5496398 17.1837969,86.5562167 15.0906892,86.5562167 L12.5078597,86.5562167 L12.5078597,91.91544 Z M12.5078597,84.533041 L14.4340992,84.533041 C16.5441354,84.533041 17.6735187,83.7162543 17.6735187,82.2279987 C17.6735187,80.7134356 16.7484885,80.0357031 14.5997582,80.0357031 L12.5078597,80.0357031 L12.5078597,84.533041 Z" id="Fill-4" fill="#FFFFFE"></path>
                    <path d="M29,93.2725038 C28.3000609,93.7689708 27.1947657,94 26.2136336,94 C23,94 23,91.7671275 23,90.5652842 L23,78 L25.447961,78 L25.447961,90.3281106 C25.447961,91.7695853 25.9044431,92.0129032 26.6835058,92.0129032 C27.1424224,92.0129032 27.8046257,91.8347158 28.3840536,91.5274962 L29,93.2725038" id="Fill-5" fill="#FFFFFE"></path>
                    <path d="M30.2738048,93 L32.6764125,93 L32.6764125,81.5765021 L30.2738048,81.5765021 L30.2738048,93 Z M31.4780719,79.9085343 C30.6222837,79.9085343 30,79.2913127 30,78.4401837 C30,77.6343666 30.6590281,77 31.5005927,77 C32.3409719,77 33,77.6343666 33,78.4401837 C33,79.2802909 32.3492691,79.9085343 31.4780719,79.9085343 Z" id="Fill-6" fill="#FFFFFE"></path>
                    <path d="M46,94 L43.5264631,94 L43.5264631,86.6801755 C43.5264631,84.7687487 42.9461005,84.0242323 41.477552,84.0242323 C39.8362331,84.0242323 38.6146733,85.2964278 38.6146733,86.4332567 L38.6146733,94 L36.1423531,94 L36.1423531,84.3012325 L36,82.3083351 L38.1985643,82.3083351 L38.3530843,83.4777522 C39.277771,82.5189054 40.5236647,82 41.9301618,82 C44.5509186,82 46,83.4702319 46,86.1462294 L46,94" id="Fill-7" fill="#FFFFFE"></path>
                    <path d="M52.6262325,94 C49.6441183,94 48,91.9674347 48,88.2832565 C48,84.3631336 50.1050218,81.9299539 53.4930062,81.9299539 C54.1866544,81.9299539 54.8023389,82.0159754 55.4856684,82.2150538 L55.4856684,78 L57.7947718,78 L57.7947718,91.4168971 L58,93.6952381 L55.8754873,93.6952381 L55.7562486,92.693702 C54.7599175,93.7603687 53.5285485,94 52.6262325,94 M53.4253612,83.8691244 C50.7080945,83.8691244 50.2999312,86.5112135 50.2999312,88.0854071 C50.2999312,90.718894 51.173584,92.0583717 52.8945196,92.0583717 C54.4939234,92.0583717 55.4856684,91.0113671 55.4856684,90.0442396 L55.4856684,84.2820276 C55.114194,84.1185868 54.3953222,83.8691244 53.4253612,83.8691244" id="Fill-8" fill="#FFFFFE"></path>
                    <polyline id="Fill-9" fill="#FFFFFE" points="13.5982595 114 8 98 10.8072107 98 15.0565669 110.646999 19.2387887 98 22 98 16.2836338 114 13.5982595 114"></polyline>
                    <path d="M23.5267081,108.098901 C23.5975155,109.039072 24.242236,111.025641 26.7875776,111.025641 C28.2695652,111.025641 29.2024845,110.477411 29.9602484,109.869353 L31,111.514042 C30.4745342,111.998779 28.8857143,113 26.663354,113 C23.0645963,113 21,110.870574 21,107.162393 C21,103.474969 23.4149068,101 26.9055901,101 C29.2347826,101 30.7391304,102.178266 30.7391304,103.997558 C30.7391304,107.746032 26.0496894,108.098901 23.5267081,108.098901 M23.5180124,106.239316 C24.4832298,106.239316 28.3416149,106.119658 28.3416149,104.19536 C28.3416149,103.387057 27.752795,102.886447 26.8099379,102.886447 C24.6186335,102.886447 23.6832298,104.65812 23.5180124,106.239316" id="Fill-10" fill="#FFFFFE"></path>
                    <path d="M41.5251522,108.098901 C41.5959508,109.039072 42.2430754,111.025641 44.7856167,111.025641 C46.2686623,111.025641 47.2014657,110.477411 47.9578934,109.869353 L49,111.514042 C48.4733573,111.998779 46.8847348,113 44.6626506,113 C41.0643398,113 39,110.870574 39,107.162393 C39,103.474969 41.4133648,101 44.9036145,101 C47.2325177,101 48.7391628,102.178266 48.7391628,103.997558 C48.7391628,107.746032 44.0490622,108.098901 41.5251522,108.098901 M41.5176997,106.239316 C42.4815551,106.239316 46.3394609,106.119658 46.3394609,104.19536 C46.3394609,103.387057 45.7531984,102.886447 44.8079742,102.886447 C42.6181841,102.886447 41.6828965,104.65812 41.5176997,106.239316" id="Fill-11" fill="#FFFFFE"></path>
                    <path d="M38,113.090762 C37.2425751,113.689647 36.1921319,114 35.2146668,114 C31.9958876,114 31.9958876,111.871171 32.0003105,110.464883 L32.0003105,99 L34.2349903,99 L34.2349903,102.388426 L37.2779585,102.388426 L37.2779585,104.455427 L34.2349903,104.455427 L34.2349903,110.50489 C34.2349903,111.766912 34.7049254,112.062717 35.5143196,112.062717 C36.2208809,112.062717 36.8445124,111.714782 37.2735356,111.4311 L38,113.090762" id="Fill-12" fill="#FFFFFE"></path>
                    <path d="M56.225058,103.726248 C55.8781903,103.478179 55.2598608,103.17749 54.6020882,103.17749 C53.2772622,103.17749 52.5046404,104.263729 52.5046404,105.649405 L52.5046404,113 L50.1658933,113 L50.1658933,103.146168 L50,101.310712 L52.1078886,101.310712 L52.2412993,102.404469 C52.8596288,101.467321 53.7645012,101 54.8561485,101 C55.7645012,101 56.4965197,101.26185 57,101.596367 L56.225058,103.726248" id="Fill-13" fill="#FFFFFE"></path>
                    <path d="M62.6855705,113 C59.6636177,113 58,111.035409 58,107.467643 C58,103.356532 60.1346901,101 63.8575349,101 C64.4783901,101 66.0642579,101.150183 67.5918134,101.710623 L67.7896181,101.785104 L67.7896181,110.495726 L68,112.69475 L65.8515893,112.69475 L65.7532586,111.757021 C64.974617,112.582418 63.942145,113 62.6855705,113 M63.5694032,102.95116 C61.3992682,102.95116 60.2981935,104.490842 60.2981935,107.529915 C60.2981935,109.907204 61.1751658,111.111111 62.9039561,111.111111 C64.5835811,111.111111 65.4902813,110.004884 65.4902813,108.959707 L65.4902813,103.227106 C65.0969586,103.098901 64.3823462,102.95116 63.5694032,102.95116" id="Fill-14" fill="#FFFFFE"></path>
                    <path d="M81,113 L78.5307589,113 L78.5307589,105.678221 C78.5307589,103.767592 77.9569984,103.023387 76.4842246,103.023387 C74.8409063,103.023387 73.6105494,104.296304 73.6105494,105.431405 L73.6105494,113 L71.1413083,113 L71.1413083,103.300271 L71,101.310712 L73.1939335,101.310712 L73.3486417,102.478388 C74.2744549,101.518689 75.5206481,101 76.9312949,101 C79.5564624,101 81,102.470871 81,105.144498 L81,113" id="Fill-15" fill="#FFFFFE"></path>
                    <path d="M87.5753842,105.854235 C89.2755088,106.339169 91,106.969463 91,109.390472 C91,111.583062 89.4206009,113 86.9473903,113 C85.1398311,113 83.8672297,112.434446 83,111.733306 L83.9469749,109.92671 C84.6070885,110.469055 85.6304859,111.06759 86.9562509,111.06759 C87.9109788,111.06759 88.792607,110.640065 88.792607,109.540717 C88.792607,108.600163 88.1812266,108.17386 86.8543541,107.861156 C85.101066,107.44829 83.3444552,106.870521 83.3444552,104.494707 C83.3444552,102.078583 85.282708,101 87.2076699,101 C88.7782085,101 89.9810328,101.44829 90.9822788,102.294788 L90.0762841,104.010993 C89.2732936,103.30741 88.2498962,102.910423 87.1533989,102.910423 C86.3858508,102.910423 85.4809636,103.25855 85.4809636,104.254072 C85.4809636,105.232492 86.2750935,105.487785 87.5753842,105.854235" id="Fill-16" fill="#FFFFFE"></path>
                    <path d="M14.9670856,132 C11.6708558,132 10,130.436876 10,127.351259 L10,118 L11.8456014,118 L11.8456014,127.310627 C11.8456014,129.934955 13.6002394,130.485873 15.0736086,130.485873 C16.97307,130.485873 18.1543986,129.306359 18.1543986,127.411012 L18.1543986,118 L20,118 L20,127.712164 C20,130.277934 17.9760622,132 14.9670856,132" id="Fill-17" fill="#FFFFFE"></path>
                    <polyline id="Fill-18" fill="#FFFFFE" points="34 132 31.9241517 132 28.0800751 124.648272 25.7905366 127.407793 25.7905366 132 24 132 24 118 25.7905366 118 25.7905366 124.923484 31.5402137 118 33.721733 118 29.3622167 123.209274 34 132"></polyline>
                    <path d="M35.2367334,6.8774884 C38.4186944,6.640541 41.335189,7.61840006 42.908593,10.6602273 C44.8735297,14.4573995 46.2396516,17.6098824 47.3209123,19.8229952 C48.7949178,22.8383613 51.7053515,24.790471 55.0655024,24.7158988 C58.8232468,24.6317043 61.7045883,22.2995164 66.0793302,15.9680895 C71.3474455,8.34247281 76.044626,2.63889639 81,0 L0,0 L0,49 C9.84650265,26.1159331 22.4785849,7.836103 35.2367334,6.8774884" id="Fill-19" fill="#1A1919"></path>
                    <path d="M100,14 C93.6293696,18.5638126 89.7286393,24.8401184 84.297029,33.3418146 C78.3820464,42.5994872 74.7971354,46.4182619 68.1745728,46.7573574 C63.1974048,47.0125906 58.8844218,44.6328449 56.8810182,40.5017134 L52.9935475,32.2990047 C51.790541,29.8572738 47.9452599,29.2434987 45.0522584,30.7578823 C40.5355598,33.0306731 35.7741615,39.9705852 32,52.7371066 C42.0893427,50.0219115 50.6369567,49.69497 55.8660569,51.7927437 C61.2590938,53.9573643 64.018294,57.665538 67.6803517,64.3538631 C70.2527122,69.0562309 72.3959441,71.9513045 76.0146068,73.4583958 C83.7051691,76.6633955 92.2829185,74.3991124 100,70.9704798 L100,14" id="Fill-20" fill="#1A1919"></path>
                </g>
            </g>
        </g>
    </g>
</svg>