<?xml version="1.0" encoding="UTF-8" standalone="no"?>
<svg width="211px" height="72px" viewBox="0 0 211 72" version="1.1" xmlns="http://www.w3.org/2000/svg" xmlns:xlink="http://www.w3.org/1999/xlink">
    <!-- Generator: Sketch 50.2 (55047) - http://www.bohemiancoding.com/sketch -->
    <title>Concern logo BLK CMYK 2</title>
    <desc>Created with Sketch.</desc>
    <defs>
        <polygon id="path-1" points="0.0836842105 0.3664 210.663522 0.3664 210.663522 54.279643 0.0836842105 54.279643"></polygon>
    </defs>
    <g id="BF-Digital" stroke="none" stroke-width="1" fill="none" fill-rule="evenodd" opacity="0.800000012">
        <g id="Home" transform="translate(-453.000000, -5395.000000)">
            <g id="Group-7" style="mix-blend-mode: multiply;" transform="translate(115.000000, 5122.000000)">
                <g id="Concern-logo-BLK-CMYK-2" transform="translate(338.000000, 273.000000)">
                    <g id="Group-4">
                        <mask id="mask-2" fill="white">
                            <use xlink:href="#path-1"></use>
                        </mask>
                        <g id="Clip-2"></g>
                        <path d="M210.069684,29.667 C209.581526,28.7108 209.857684,27.5642 209.472737,26.608 C209.375105,26.4162 209.181237,26.2286 209.085,26.0354 C208.884158,25.082 208.588474,24.3176 208.298368,23.5588 C208.1045,22.9834 208.100316,22.3142 207.903658,21.743 C207.899474,21.4546 207.702816,21.1704 207.702816,20.882 C207.603789,20.308 207.599605,19.7354 207.408526,19.258 C207.111447,18.2108 206.624684,17.2602 206.423842,16.1108 C207.087737,15.1462 206.309474,14.1998 205.828289,13.3402 C205.633026,12.9622 205.822711,12.4778 205.914763,12.097 C206.091895,11.2346 205.895237,10.2784 205.602342,9.4202 C205.506105,8.9428 205.027711,8.569 205.019342,8.0846 C205.013763,7.323 205.193684,6.4564 204.807342,5.6976 C204.033263,4.1716 202.967684,2.9382 202.006711,1.4122 C201.713816,1.0342 201.330263,0.561 200.946711,0.561 C199.326026,0.3846 197.705342,0.2082 195.992605,0.6044 C195.330105,0.7052 195.140421,1.4766 194.956316,2.0492 C194.581132,2.8206 194.875421,3.6802 195.258974,4.4376 C195.650895,5.3924 196.137658,6.2506 196.717868,7.2026 C197.387342,8.0524 198.540789,8.4318 199.030342,9.3838 C199.030342,9.5742 199.217237,9.7632 199.125184,9.955 C198.751395,10.5332 198.946658,11.1044 198.660737,11.6812 L198.663526,12.4512 C198.860184,12.7312 198.579842,13.1148 198.674684,13.497 C198.674684,13.5936 198.582632,13.784 198.399921,13.8848 C196.685789,14.3776 195.525368,12.475 194.091579,11.8142 C193.798684,11.726 193.417921,11.8198 193.228237,11.6322 C191.788868,10.7866 190.352289,9.745 189.484763,8.2232 C188.624211,8.1336 188.141632,7.4686 187.375921,7.0906 C186.226658,6.5292 185.547421,5.2902 184.685474,4.2416 C184.098289,3.4828 183.145684,3.4926 182.294895,3.7838 C182.008974,3.8832 181.625421,3.8888 181.340895,4.0806 C180.586342,4.376 180.399447,5.3336 179.6435,5.7228 C179.543079,5.7228 179.356184,5.8194 179.259947,5.8264 C179.117684,6.1218 178.902895,6.3696 178.650447,6.5656 C178.865237,7.3132 178.498421,9.094 178.464947,9.8024 C178.425895,10.5234 178.346395,11.082 178.545842,11.782 C178.682526,12.2832 179.702079,14.3692 179.685342,15.4276 C180.068895,15.954 180.240447,16.6008 180.307395,17.2014 C180.607263,18.3452 179.854105,19.405 180.054947,20.5474 C180.153974,21.3118 181.017316,21.7878 181.213974,22.3562 C181.492921,23.682 182.008974,25.4894 180.893184,26.4498 C180.822053,27.0462 180.714658,27.7392 180.750921,27.9702 C180.872263,28.862 181.244658,29.8014 181.548711,30.6596 C181.856947,31.5906 182.248868,32.3872 182.894632,33.0214 C182.932289,33.062 183.018763,33.1712 183.134526,33.3182 C183.742632,33.5702 184.296342,33.8642 184.847263,34.098 C185.608789,34.4704 186.660421,34.4606 187.321526,34.0742 C187.988211,33.6878 187.693921,32.6336 188.063526,31.9616 C188.063526,31.872 187.963105,31.5836 187.963105,31.4828 C188.724632,30.332 189.002184,29.1854 189.080289,27.9366 C189.076105,27.4592 188.882237,27.077 188.783211,26.5968 C188.774842,25.642 188.575395,24.781 188.667447,23.8262 C188.656289,23.157 188.077474,22.6768 188.073289,22.009 L188.073289,21.8186 C188.071895,21.3398 188.159763,20.8624 188.636763,20.5698 C189.016132,20.3794 189.394105,20.378 189.774868,20.2744 C190.060789,20.2744 190.162605,20.749 190.352289,20.8456 C191.8865,21.4042 193.417921,22.0608 194.660632,23.1934 C194.762447,23.1934 194.950737,23.2928 195.140421,23.2844 C196.194842,23.759 196.017711,25.2906 196.878263,25.8604 C197.932684,26.5198 198.798816,27.3682 199.190737,28.617 C199.289763,28.9922 199.860211,28.988 200.338605,29.079 C200.526895,29.0748 200.818395,29.1742 201.008079,29.17 C201.104316,29.2638 201.294,29.2638 201.395816,29.4514 C201.485079,29.5508 201.200553,29.6474 201.294,29.737 C201.971842,30.3138 202.453026,31.1692 202.559026,32.0288 C202.651079,32.2192 202.943974,32.3102 203.037421,32.5034 C203.327526,33.1712 203.333105,33.839 203.722237,34.504 C204.012342,35.0794 204.496316,35.736 205.165789,35.9278 C205.641395,36.1098 206.216026,35.7276 206.683263,35.5316 C207.253711,35.3356 207.928763,35.7066 208.499211,35.421 C209.255158,34.9366 209.437868,33.5898 210.384895,33.3938 C210.952553,32.243 210.553658,30.8094 210.069684,29.667" id="Fill-1" fill="#1A1919" mask="url(#mask-2)"></path>
                        <path d="M117.851079,32.6742 C117.669763,31.3008 116.722737,31.144 116.722737,31.144 C114.916553,31.6354 113.399079,32.3214 111.590105,32.6224 C110.344605,32.8268 109.209289,32.7358 108.057237,32.0764 C107.576053,31.7026 107.383579,31.1314 106.896816,30.7464 C106.327763,30.472 105.847974,30.1836 105.274737,29.905 C104.723816,29.639 104.263553,28.5148 104.179868,28.1004 C104.097579,27.6888 103.522947,27.1904 103.522947,27.1904 C103.038974,27.0056 102.755842,25.9108 102.567553,25.4278 L103.317921,24.2742 C104.259368,23.311 103.769816,21.4994 105.193842,20.9128 C107.092079,20.1274 109.864816,20.8722 110.704447,18.6602 C110.891342,18.278 110.982,17.8958 110.882974,17.4156 C110.782553,16.7492 110.486868,16.2704 110.199553,15.702 C109.913632,15.2218 109.239974,15.1364 109.046105,14.4686 L108.859211,14.1816 C108.658368,13.798 108.4645,13.3206 108.083737,13.231 C106.175737,12.867 104.465789,13.3542 102.560579,13.7616 C102.363921,13.7616 102.083579,13.952 101.898079,14.148 C101.708395,14.5344 101.613553,14.911 101.330421,15.1098 C100.104447,16.4566 99.5521316,16.7534 97.9356316,17.7222 C97.2745263,18.1114 96.5088158,19.3644 96.3191316,20.0322 C96.2326579,20.3192 95.9118684,21.0122 95.824,21.491 C95.6426842,22.4486 95.9648684,22.8112 95.3972105,23.577 C95.1168684,24.1566 94.9313684,24.732 94.7458684,25.3074 C94.7458684,25.3074 94.4404211,27.0616 94.9606579,27.889 C95.2507632,28.6548 95.1642895,29.4192 95.3595526,30.2788 C95.3623421,30.5602 95.7472895,30.7464 95.7514737,31.039 C96.0527368,32.4726 96.6329474,33.7116 97.2131579,34.9492 C97.2131579,34.9492 97.5702105,35.666 98.0988158,35.9278 C98.6288158,36.198 99.7362368,36.6754 99.7362368,36.6754 C100.603763,37.913 101.722342,37.8752 102.870211,38.347 C103.154737,38.438 103.344421,38.6256 103.631737,38.7194 C104.302605,38.907 104.570395,39.649 105.237079,39.649 C107.1395,39.6336 109.076789,40.2076 110.982,40.0914 C112.509237,39.9822 114.030895,39.971 115.559526,39.7666 C116.792474,39.5622 117.841316,38.788 118.973842,38.109 C119.750711,37.4496 119.330895,36.2344 119.240237,35.5008 C119.084026,34.238 117.975211,33.5814 117.851079,32.6742 M94.2939737,34.8666 L94.2856053,34.2926 C94.3748684,33.244 94.1740263,32.383 93.4027368,31.6228 L93.1126316,30.4818 L92.7067632,28.1858 L92.2702105,26.5128 L91.9075789,23.8822 L91.8029737,22.7412 C91.5045,20.826 91.8643421,19.0046 91.3747895,17.1916 C90.6885789,14.8074 87.9130526,13.7812 85.7233158,13.9898 C84.1974737,14.0962 83.0635526,15.541 82.4122105,16.8878 C82.2211316,17.2742 82.2281053,17.746 82.2308947,18.1296 C82.3299211,18.425 82.5223947,18.803 82.4303421,19.0844 C82.3368947,19.2804 82.3368947,19.4736 82.3368947,19.664 C82.3368947,19.664 82.7804211,21.0794 82.9087368,21.484 C83.0370526,21.8886 83.2183684,22.3982 83.2183684,22.3982 C83.2183684,22.3982 83.5782105,23.3012 83.6451579,23.5574 C83.7135,23.8122 84.0036053,24.5248 84.0036053,24.5248 C84.1123947,25.9626 84.4066842,27.3962 84.7065526,28.9222 C84.9073947,29.877 85.5838421,31.1188 84.6368158,31.7894 C84.3550789,31.991 83.9743158,31.9952 83.5893684,31.9042 C83.0175263,31.7124 82.5363421,31.235 82.15,30.8626 C80.3256842,29.247 79.0690263,27.4438 77.6212895,25.446 C77.3381579,25.159 77.0452632,24.592 76.6603158,24.4044 C75.8932105,23.9312 74.9392105,24.1258 74.3645789,23.3698 C73.9796316,22.6992 73.6881316,22.0328 73.3938421,21.4644 C72.9070789,20.511 71.7633947,20.427 70.8066053,19.9566 C70.3254211,19.6724 70.3212368,19.0046 69.7493947,18.8184 C68.9822895,18.6364 68.2263421,18.7316 67.5554737,18.9332 C67.1719211,19.0326 66.8985526,19.5114 66.7074737,19.9944 C65.8594737,21.246 63.5790789,21.8382 64.2597105,23.5546 L64.1216316,26.23 L64.6348947,27.7826 C64.6348947,27.7826 65.2039474,30.5756 65.5414737,31.1958 C65.879,31.816 66.0491579,32.4376 66.1007632,32.8884 C66.1579474,33.3434 66.3267105,35.036 66.4410789,35.323 C66.5498684,35.603 68.1872895,40.4036 68.0171316,41.4732 C67.8441842,42.547 68.7465789,45.2028 68.7465789,45.8804 C68.7465789,46.5594 68.6907895,48.0798 68.8581579,48.4774 L69.5415789,49.9166 C70.3993421,50.002 71.2598947,50.1868 72.1176579,50.1728 C72.4021842,50.1728 72.6950789,50.2666 72.9782105,50.1728 C73.4566053,50.0706 73.8317895,49.687 74.3073947,49.5876 L74.5891316,48.9156 C74.8652895,48.0462 75.0452105,47.1908 75.4231842,46.4194 C75.6979474,45.6508 76.0773158,44.8794 76.3548684,44.0156 L76.3520789,43.6362 L76.1024211,42.8648 L75.6602895,40.9622 C75.3687895,40.5842 75.4636316,40.1082 75.5528947,39.628 C75.7397895,39.2416 76.2167895,39.047 76.5975526,39.1352 C77.5543421,39.4166 78.2252105,40.2678 79.182,40.5464 C79.6603947,40.7326 80.1387895,40.8278 80.6157895,41.0154 C81.0049211,41.2002 81.3842895,41.4844 81.6743947,41.7686 L83.1053947,42.5302 C83.9645526,42.6212 84.8362632,43.4626 85.5936053,43.359 C86.0678158,43.3576 86.6424474,43.2582 87.1208421,43.4416 C87.503,43.7286 87.9841842,43.723 88.1780526,44.2046 C88.4695526,44.8724 88.9479474,45.3456 89.146,46.0064 C89.146,46.0064 91.3747895,46.9388 92.0107895,46.6574 C92.7737105,46.8422 93.4403947,46.3592 94.1028947,46.2598 C94.1028947,46.2598 94.2981579,46.0302 94.3190789,45.9378 C94.3302368,45.837 94.3818421,45.585 94.3818421,45.585 C94.8504737,45.1734 95.0778158,44.437 95.5032105,43.9988 L95.9899737,43.562 C96.0304211,43.5116 96.0750526,43.4528 96.1182895,43.3996 C97.1476053,41.9702 96.2326579,40.0564 95.9439474,38.585 C94.7946842,37.64 94.4948158,36.303 94.2939737,34.8666 M143.63,20.672 C142.769447,20.3892 141.913079,20.1078 140.956289,19.832 C140.668974,19.7354 140.384447,19.9314 140.104105,20.0322 C139.341184,20.5138 139.104079,21.1018 138.343947,21.4882 C137.964579,21.5904 137.374605,21.5792 136.995237,21.6842 C136.134684,21.7794 135.636763,21.9824 134.869658,21.701 C134.009105,21.4224 133.060684,21.7192 132.301947,22.1056 C131.064816,22.688 129.636605,22.6068 128.393895,22.1448 C127.626789,21.8578 127.236263,20.3346 127.326921,19.5688 C127.319947,19.09 127.7035,18.7036 128.078684,18.4166 C128.5515,18.124 129.220974,18.1184 129.692395,17.9196 C130.455316,17.627 131.222421,17.9098 131.983947,17.9 C132.264289,17.8048 132.557184,17.7992 132.745474,17.704 C134.919868,16.2452 137.406684,17.1846 139.692658,17.1636 C140.363526,17.1538 141.026026,16.7646 141.691316,16.381 C142.738763,15.604 142.628579,14.1718 143.384526,13.2044 C143.086053,11.964 142.981447,10.7194 142.583947,9.4832 C142.4905,9.297 142.204579,9.1024 141.913079,9.0072 C141.530921,9.0156 141.246395,8.9246 140.960474,8.7314 C140.289605,8.3562 139.613158,7.5946 138.851632,7.5036 C137.802789,7.421 136.954789,8.2876 135.903158,8.4878 L134.189026,8.6936 C133.809658,8.7944 133.239211,9.0856 132.765,8.9946 C131.903053,8.9064 131.045289,8.5312 130.283763,8.7314 C128.855553,9.122 127.611447,8.373 126.279474,8.765 C126.183237,8.765 125.997737,8.8616 125.808053,8.8616 L121.897211,9.5686 C121.522026,9.668 121.045026,9.864 120.664263,9.9592 L119.496868,10.8006 L118.777184,12.0844 L118.406184,13.0448 L117.978,14.526 L117.760421,15.9232 C117.581895,16.3992 118.054711,16.8766 118.442447,17.3512 L118.740921,18.3956 C118.835763,18.6826 118.556816,19.1614 118.561,19.454 C118.655842,20.1232 118.664211,20.8876 118.955711,21.5512 C119.244421,22.0328 118.964079,22.8952 118.873421,23.276 C118.879,23.85 119.269526,24.5192 119.463395,25.1884 L119.467579,25.3732 L119.467579,26.048 C119.598684,26.7046 119.683763,27.3528 119.5945,27.9436 C119.5945,27.9436 119.636342,29.7552 119.727,30.031 C119.816263,30.3082 120.088237,31.8608 120.088237,31.8608 L120.821868,33.6066 L121.183105,34.9786 L121.675447,37.703 C122.628053,38.0768 122.538789,39.3228 123.213842,39.7904 C124.271053,40.4498 125.411947,40.9174 126.183237,41.966 C126.283658,42.1564 126.759263,42.1508 127.046579,42.2432 C127.907132,42.7178 128.675632,43.2862 129.538974,43.569 C131.831921,44.2144 134.209947,43.807 136.502895,43.9862 L137.355079,43.877 L138.027342,43.7804 C138.401132,43.6768 138.694026,43.6712 138.974368,43.3842 C139.065026,43.3842 139.356526,43.3814 139.549,43.3758 C140.116658,43.2806 140.595053,43.4682 141.1655,43.366 C143.076289,43.1546 144.967553,41.9002 144.855974,39.887 C144.846211,38.7432 144.356658,37.5 144.733237,36.4458 C145.104237,35.4896 144.802974,34.5334 144.132105,33.958 C142.981447,32.9234 141.074842,32.9416 139.560158,33.8096 C139.272842,33.9104 138.889289,33.8166 138.698211,34.014 C137.281158,35.078 135.660474,34.9926 134.035605,34.8204 C133.558605,34.8246 133.175053,35.036 132.693868,34.7532 C132.504184,34.658 132.219658,34.6622 131.932342,34.6622 C131.550184,34.5712 131.261474,34.2828 130.972763,34.098 L130.682658,33.1292 C130.587816,32.936 130.306079,32.7456 130.392553,32.5552 C130.579447,31.5038 131.523684,30.2298 132.472105,29.94 C133.999342,29.4486 135.618632,29.338 137.232342,29.0356 C138.475053,28.7388 139.512737,27.8652 140.747079,27.861 C141.514184,27.8498 142.208763,28.1102 142.773632,27.7224 C144.102816,26.846 144.169763,26.9244 145.596579,26.048 C145.596579,26.048 145.669105,24.438 145.669105,24.0712 C145.669105,23.7086 145.738842,22.9722 145.738842,22.9722 C145.445947,21.8746 144.779263,21.0402 143.63,20.672 M31.7386316,44.1094 C31.1877105,43.9442 29.9171053,44.5154 29.9171053,44.5154 C29.6005,44.9256 28.5865263,44.9998 28.5865263,44.9998 C28.2085526,45.102 27.7259737,45.011 27.3452105,44.9158 C24.4832105,44.5616 21.9922105,43.1462 19.1316053,42.7906 C18.5541842,42.7906 18.1720263,42.2222 17.6908421,42.036 C17.4063158,41.8442 17.0255526,41.8498 16.6378158,41.7574 C15.8721053,41.4788 15.1036053,41.1008 14.3434737,40.538 C13.0979737,39.6854 11.8496842,39.1212 10.5107368,38.3722 C9.83847368,37.9928 9.35728947,37.4202 9.15505263,36.66 C9.05742105,36.1812 9.15226316,35.6996 9.05323684,35.225 C8.95281579,34.7434 8.75894737,34.2716 9.03789474,33.7914 C9.51071053,33.2146 9.98771053,32.8268 10.4591316,32.2486 C11.6809211,30.423 12.2388158,28.5022 13.6544737,26.9594 C14.8804474,25.6056 16.2961053,24.5388 17.5262632,22.9988 C18.0911316,22.2288 19.1385789,22.1238 19.8024737,21.5456 C21.2195263,20.1904 23.1261316,20.0798 24.7384474,19.4022 C25.0229737,19.202 25.3995526,18.9136 25.6868684,18.7162 L27.7789737,18.124 C29.2113684,18.0162 30.6493421,18.7694 32.0733684,18.5692 C34.3593421,18.3536 36.9340263,18.425 38.3482895,16.4048 C38.6314211,15.9246 38.8113421,15.443 38.9075789,14.9698 C39.0916842,14.2964 39.1767632,13.623 38.8908421,13.1484 C38.3064474,12.1012 37.9145263,11.152 37.1488158,10.2966 C36.2812895,9.248 34.9604737,10.3134 33.7163684,10.0376 C33.2407632,9.9466 32.8558158,9.9466 32.383,9.955 C29.6158421,10.1664 26.8500789,10.0992 23.9978421,10.6928 C23.2363158,10.8944 22.4803684,11.1898 21.8108947,11.5734 C21.1497895,11.964 21.2488158,12.8292 20.8778158,13.4018 C20.5932895,13.784 20.2111316,13.8862 19.8303684,13.9856 L18.1873684,14.9754 L14.6098684,16.9004 C13.6670263,17.5794 13.197,18.4446 12.3462105,19.1236 C12.0588947,19.2188 11.7785526,19.4106 11.6809211,19.5114 C10.9263684,20.378 9.78268421,20.5824 9.31684211,21.4462 C9.31684211,21.5428 9.222,21.8284 9.222,21.9236 C8.18710526,23.08 7.33910526,24.2364 6.39626316,25.4866 C6.01828947,25.9668 5.45063158,26.265 5.07265789,26.7466 C4.21907895,27.6118 3.27344737,28.1984 2.70997368,29.2526 C2.70997368,29.4486 2.61792105,29.8224 2.61792105,29.8224 C1.39194737,30.7954 1.30826316,32.1338 0.838236842,33.3854 C0.652736842,33.6724 0.365421053,33.9636 0.270578947,34.2506 C0.0864736842,34.6342 -0.00278947368,35.1158 -3.25260652e-19,35.589 C-3.25260652e-19,35.589 -0.0209210526,37.9032 0.196657895,38.3554 C0.196657895,38.3554 1.04326316,40.461 1.28176316,40.6514 L3.88713158,44.0758 C3.98615789,44.2648 4.27207895,44.5462 4.46315789,44.6428 C5.42134211,45.0166 6.28189474,45.4898 6.95276316,46.2444 C6.95276316,46.2444 8.20105263,47.5352 8.79939474,47.8138 C9.41307895,48.0924 10.4033421,48.42 10.6864737,48.6538 C10.9696053,48.8876 12.7060526,49.6394 12.7060526,49.6394 C12.8971316,49.925 13.1872368,50.212 13.4731579,50.3016 C14.7200526,50.7664 15.8637368,50.9498 17.1064474,51.2312 C18.7299211,51.787 20.5388947,51.5784 21.7899737,52.7222 C24.2684211,53.1758 26.8458947,53.341 29.3145789,52.6508 C29.3145789,52.6508 30.1848947,52.6102 30.6409737,52.5528 C31.3146316,52.4674 31.8320789,52.1426 32.2909474,52.1202 L32.6145263,51.836 C33.4192895,51.3488 34.2784474,49.7332 34.3942105,49.4336 C34.5043947,49.1312 34.4820789,48.8778 34.715,48.0658 C34.9437368,47.2594 34.5783158,46.3788 34.0901579,45.1734 C33.6061842,43.9666 31.7386316,44.1094 31.7386316,44.1094 M57.4017895,40.384 C56.2720526,42.2138 55.7225263,43.7552 53.8201053,44.9158 C53.4463158,45.2126 52.5871579,45.1258 52.2063947,45.4128 C51.0682895,46.2822 49.7460789,46.9626 48.4085263,46.5944 C48.2481316,46.5202 47.6776842,46.4824 47.4029211,46.236 L47.0709737,46.0232 C46.5409737,45.823 45.9677368,45.3456 45.4363421,44.99 L44.3763421,43.9498 C44.2773158,43.758 44.0918158,43.5732 43.9927895,43.3758 C43.8867895,42.2348 44.0681053,41.1778 44.1545789,40.0298 C44.1434211,39.2654 43.4739474,38.599 43.6580526,37.8318 C43.7501053,37.3544 44.1266842,36.8728 44.3121842,36.3926 C44.6873684,35.4322 44.3861053,34.2828 44.8589211,33.5212 C45.5158421,32.2668 46.9426579,32.1618 48.2788158,31.9546 C49.2300263,31.7572 50.1784474,31.3694 51.2314737,31.4492 C51.4239474,31.5458 51.7070789,31.641 51.8981579,31.7334 C53.3389211,33.1572 55.3473421,33.8096 56.2232368,35.5274 C56.8020526,36.569 56.7169737,37.8164 57.4896579,38.8636 C57.5831053,39.0484 57.3976053,39.439 57.5942632,39.628 C57.7839474,39.719 57.4980263,40.286 57.4017895,40.384 M64.4786842,36.4892 C64.4786842,36.4892 63.8789474,34.7252 63.6934474,34.2086 C63.5079474,33.6892 63.0253684,31.886 62.9695789,31.5458 L62.5651053,30.15 C62.2931316,29.8476 62.1257632,29.121 61.1076053,27.4438 C60.8216842,27.0616 60.4311579,26.6794 60.1466316,26.3014 C58.7965263,24.9728 57.6430789,23.6428 56.0126316,22.5116 L52.7684737,22.0538 L52.3891053,22.0622 C51.4337105,22.3632 49.5731316,21.9768 48.8213684,22.555 C47.7781053,23.3292 46.4112632,22.3982 45.368,23.1696 C44.4237632,23.85 43.9258421,24.0936 42.8742105,24.3008 C42.3079474,24.4016 41.6356842,25.222 40.9717895,25.3228 C39.3608684,25.6238 38.849,25.9388 37.3315263,26.9034 C37.1432368,27.0056 37.047,27.3878 36.9591316,27.6734 C36.8726579,28.729 36.0734737,28.8312 36.1794737,29.8826 C36.1836579,30.3558 36.0637105,30.9144 35.9744474,31.396 C35.6968947,32.166 35.6062368,32.9276 35.2352368,33.6962 C34.9535,34.4676 35.1515526,35.3258 35.0622895,36.093 C34.8837632,37.6218 34.7066316,39.0582 34.9102632,40.5842 C35.0092895,41.161 35.0176579,41.7322 35.2129211,42.3062 C35.2129211,42.3062 35.8363684,45.5206 36.6508947,46.3354 L37.5309737,48.7322 C37.6592895,48.987 38.7081316,51.332 39.6453947,52.3218 C40.3302105,53.0428 41.1056842,53.5174 41.7542368,53.7876 C43.1908158,54.3462 44.5646316,54.286 46.0876842,54.2692 C46.3736053,54.2636 46.6609211,54.2636 46.9426579,54.2608 C48.4698947,54.2454 49.9971316,54.3308 51.5215789,54.1264 C52.6624737,53.9248 53.7043421,53.5286 54.8494211,53.236 L58.1744737,52.2518 C59.6947368,51.374 60.8802632,50.2442 62.4395789,49.246 C63.0686053,48.8442 63.6599737,48.2422 64.3963947,47.2804 L65.0644737,45.0194 L65.1118947,43.1182 L64.8357368,39.6756 L64.4786842,36.4892" id="Fill-3" fill="#1A1919" mask="url(#mask-2)"></path>
                    </g>
                    <polyline id="Fill-5" fill="#1A1919" points="76.5532376 62.7283979 75 62.7283979 75 60 81.6467759 60 81.6467759 62.7283979 80.3282308 62.7283979 81.8032376 67.1276645 81.8530209 67.1276645 84.309469 60 87.5667163 60 90.0501897 67.1276645 90.10424 67.1276645 91.4995936 62.7283979 90.0786372 62.7283979 90.0786372 60 96 60 96 62.7283979 94.47521 62.7283979 91.3161067 72 87.9550257 72 85.5768085 65.0497364 85.5284476 65.0497364 83.1729884 72 79.7592793 72 76.5532376 62.7283979"></polyline>
                    <path d="M102.487055,62.0716507 C100.917792,62.0716507 100.056207,63.3323706 100.056207,65.5635414 C100.056207,67.6647412 100.969573,68.9196845 102.487055,68.9196845 C104.054879,68.9196845 104.945231,67.6647412 104.945231,65.4841146 C104.945231,63.3323706 104.054879,62.0716507 102.487055,62.0716507 M102.487055,72 C98.8249613,72 96,69.6085314 96,65.4841146 C96,61.127194 99.1385262,59 102.487055,59 C106.095928,59 109,61.3077094 109,65.4841146 C109,69.393357 106.357712,72 102.487055,72" id="Fill-6" fill="#1A1919"></path>
                    <path d="M119.845286,71 L111,71 L111,68.2719147 L113.343161,68.2719147 L113.343161,61.9027157 L111.214741,61.9027157 L111.214741,59.1718804 L116.976228,59.1718804 L116.976228,62.1749742 L117.030279,62.1749742 C117.77676,60.1275352 119.342762,59 121.417131,59 L122,59 L122,62.5737367 L121.52085,62.5737367 C118.280744,62.5737367 117.399867,64.6239257 117.399867,67.0247508 L117.399867,68.2719147 L119.845286,68.2719147 L119.845286,71" id="Fill-7" fill="#1A1919"></path>
                    <polyline id="Fill-8" fill="#1A1919" points="123 68.2683243 124.741163 68.2683243 124.741163 56.7344294 123 56.7344294 123 54 128.381896 54 128.381896 68.2683243 130 68.2683243 130 71 123 71 123 68.2683243"></polyline>
                    <path d="M139.097935,62.3744087 C137.690197,62.3744087 136.828178,63.6039445 136.828178,65.6243085 C136.828178,67.6201395 137.711917,68.9304899 139.121012,68.9304899 C140.281683,68.9304899 141.466789,67.9607151 141.466789,65.5434939 C141.466789,63.6847591 140.57762,62.3744087 139.097935,62.3744087 M147,71.8196104 L141.415204,71.8196104 L141.415204,70.3505171 C140.281683,71.5266576 139.292059,72 138.037719,72 C135.174731,72 133,69.2234426 133,65.5434939 C133,61.9313718 135.196451,59.1216227 138.05944,59.1216227 C139.366722,59.1216227 140.553185,59.7219594 141.415204,60.7725487 L141.415204,56.8674737 L139.613788,56.8674737 L139.613788,54 L145.194512,54 L145.194512,68.9579091 L147,68.9579091 L147,71.8196104" id="Fill-9" fill="#1A1919"></path>
                    <polyline id="Fill-10" fill="#1A1919" points="150.54623 62.7283979 149 62.7283979 149 60 155.641536 60 155.641536 62.7283979 154.325747 62.7283979 155.798009 67.1276645 155.849218 67.1276645 158.307255 60 161.567568 60 164.049787 67.1276645 164.100996 67.1276645 165.497866 62.7283979 164.075391 62.7283979 164.075391 60 170 60 170 62.7283979 168.469417 62.7283979 165.318634 72 161.957326 72 159.578947 65.0497364 159.523471 65.0497364 157.174964 72 153.759602 72 150.54623 62.7283979"></polyline>
                    <path d="M177.528266,56.1396795 C177.528266,57.3336522 176.644167,58.2980148 175.533749,58.2980148 C174.431272,58.2980148 173.563055,57.3336522 173.563055,56.1396795 C173.563055,54.9342263 174.431272,54 175.533749,54 C176.644167,54 177.528266,54.9342263 177.528266,56.1396795 M172,59.6570199 L177.337682,59.6570199 L177.337682,69.1528343 L179,69.1528343 L179,72 L172,72 L172,69.1528343 L173.659671,69.1528343 L173.659671,62.5070557 L172,62.5070557 L172,59.6570199" id="Fill-11" fill="#1A1919"></path>
                    <path d="M187.100893,62.3744087 C185.689756,62.3744087 184.827319,63.6039445 184.827319,65.6243085 C184.827319,67.6201395 185.718277,68.9304899 187.123981,68.9304899 C188.285215,68.9304899 189.469538,67.9607151 189.469538,65.5434939 C189.469538,63.6847591 188.582654,62.3744087 187.100893,62.3744087 M195,71.8196104 L189.417928,71.8196104 L189.417928,70.3505171 C188.285215,71.5266576 187.299185,72 186.038805,72 C183.168995,72 181,69.2234426 181,65.5434939 C181,61.9313718 183.198875,59.1216227 186.059177,59.1216227 C187.371168,59.1216227 188.554133,59.7219594 189.417928,60.7725487 L189.417928,56.8674737 L187.619713,56.8674737 L187.619713,54 L193.196352,54 L193.196352,68.9579091 L195,68.9579091 L195,71.8196104" id="Fill-12" fill="#1A1919"></path>
                    <path d="M206.105544,64.1185424 C205.892423,62.5413843 204.928374,61.5982669 203.499465,61.5982669 C202.074846,61.5982669 201.213781,62.4113987 200.982066,64.1185424 L206.105544,64.1185424 Z M209.977474,68.9511165 C208.701611,70.9456727 206.621897,72 203.945731,72 C199.681887,72 197,69.5822686 197,65.7202533 C197,61.8336851 199.783442,59 203.631056,59 C207.322763,59 210.289288,61.8596823 209.977474,66.3210754 L200.982066,66.3210754 C201.006382,67.7422509 201.760171,69.4219531 203.998653,69.4219531 C205.03851,69.4219531 205.70934,69.0782135 206.855042,67.9791134 L209.977474,68.9511165 Z" id="Fill-13" fill="#1A1919"></path>
                    <path d="M162.466006,16.4893222 C162.05539,16.4991385 161.443599,16.7108908 161.044006,17.1259814 C160.229663,18.0697516 159.216901,18.2899179 158.100797,18.6040405 L157.590971,18.7106179 C157.181733,18.7204342 156.674663,18.7204342 156.269558,18.7260435 C155.962285,18.7302505 155.657767,18.7302505 155.452459,18.5184982 C154.72768,18.016463 154.824134,16.0335639 154.82,15.2019804 L154.901296,13.6453906 C155.101093,13.2274954 155.303645,12.7100344 155.710128,12.4968798 C156.92682,11.9682002 158.04568,11.125398 159.369849,10.8056661 C160.175925,10.5883044 161.094989,10.8968177 162.018186,11.0973514 C163.447076,11.499821 164.767111,10.6528118 166.194623,11.0552814 C166.504652,11.2656313 166.504652,11.6779173 166.610751,11.9892352 L166.825704,13.8613499 C166.124349,15.5231147 164.403344,16.7908238 162.466006,16.4893222 M178.446972,30.6613007 C178.196193,30.2490148 177.983996,29.7497842 177.690501,29.4006032 C177.253705,28.8803376 177.44799,28.583043 177.142094,28.2086201 C176.754903,27.7304245 176.761792,27.5761678 176.522036,27.0601092 C176.469676,26.9451179 176.373222,26.8595756 176.275391,26.772631 C176.205118,26.7291586 176.138978,26.6520303 176.082484,26.579109 C176.067327,26.5692927 176.053548,26.558074 176.039769,26.5426483 C175.970873,26.46552 175.904734,26.398208 175.812414,26.398208 C174.773472,26.3126657 173.931571,25.6465575 172.978059,25.2791462 C171.37142,24.5232886 169.675216,23.6762794 168.433722,22.1519433 C168.242193,22.0607917 168.42821,21.5769868 168.61285,21.2923131 C169.549826,20.3233009 171.142687,20.5687092 171.892269,19.4384287 C172.916053,17.8972647 174.227821,17.0250135 175.250228,15.482447 C175.527187,14.9986421 175.527187,14.5148372 175.805525,14.0380439 L175.800013,13.9412829 C175.820682,13.9146386 175.845484,13.8992129 175.856507,13.8753733 C175.699426,13.4686967 175.889577,12.7731394 175.896466,12.3468302 C175.904734,11.7003546 175.871664,11.1688703 175.704937,10.6303744 C175.495496,9.9642662 175.688402,9.57301526 175.63053,8.86203237 C175.593327,8.36841111 175.229559,7.9869765 175.084879,7.53963224 C174.996693,7.26757961 175.062833,7.04601098 174.977402,6.78237236 C174.948466,6.77255602 174.920908,6.77255602 174.890594,6.75853269 C174.60399,6.57202239 174.417972,6.09522913 174.12999,6.00267514 C173.759333,5.81336017 173.468594,5.52868655 173.099315,5.53429588 C172.621181,5.34778558 172.054862,5.34778558 171.586373,5.15987294 C170.547431,4.78965699 169.694507,4.12214643 168.561867,3.93984312 C167.426472,3.75753982 166.204268,3.96368279 165.07714,3.68602083 C164.410233,3.40415187 163.566954,3.31580489 162.807727,3.12789225 C162.525256,3.0409476 162.244163,2.94278428 161.960314,3.0409476 C161.676465,3.2358719 161.491826,3.33683988 161.207977,3.43219854 C159.799756,3.92722213 158.384645,3.55560385 156.97918,3.75753982 C155.657767,3.95807345 154.436942,4.35633606 153.21336,4.84575032 C152.186819,5.33235991 151.059691,5.73062252 149.935319,6.31539543 C149.652848,6.50611273 149.27668,6.70243937 149.089284,6.99412466 L148.751697,8.50303509 L148.274941,10.4452665 C147.997982,11.125398 147.811964,11.8938766 147.537761,12.5627895 C147.07754,13.5233877 146.993488,14.5821492 147.000377,15.6367037 C147.000377,15.8288233 147.194662,16.0181383 147.38068,16.1106923 C147.28836,16.1106923 147.475755,16.3028119 147.478511,16.3981705 C147.486778,17.0684858 147.207063,17.7444103 147.213953,18.4133232 C147.220842,19.5618341 147.931842,21.6639314 147.748581,22.9078009 L147.838145,25.6886275 C148.130261,26.5510623 148.044831,27.4148995 148.239116,28.3670837 C148.529854,29.5198015 147.97318,30.671117 148.454069,31.7228669 C148.652488,32.0117475 148.652488,32.2978234 148.746185,32.5867041 C148.856418,33.7268009 148.483005,34.7869647 148.868819,35.9368779 C149.061726,36.6071931 149.352465,37.2775083 149.546749,38.0445846 C149.645959,38.8046491 149.373133,39.5759323 149.75068,40.2392359 C150.137872,40.9067465 150.706947,41.2909857 151.271889,41.759365 C151.464796,42.0440386 152.025604,42.0356246 152.405907,41.940266 C153.907825,41.835091 155.510331,41.8168606 156.917174,40.9432071 C157.199645,40.7482828 157.477983,40.5575655 157.377395,40.2644779 C157.377395,39.8886526 157.37464,39.5044133 157.37464,39.1215764 C157.553767,38.3474885 157.641954,37.679978 157.826593,36.9129017 C158.000209,35.7601839 158.088395,34.7070317 158.080128,33.5571186 C158.075994,33.4617599 157.885843,33.2696403 157.885843,33.1742816 C157.691558,32.1211295 157.491762,31.062368 157.858285,30.0134228 C159.642675,29.4202359 161.529029,29.8844081 163.230745,30.5378954 C164.269687,31.0090793 165.128123,31.5742196 165.978291,32.2403278 C167.870158,33.5627279 170.227757,33.6384539 171.655268,35.352105 C172.874716,35.3422886 174.194751,35.423624 175.421089,35.3198513 L176.349798,35.2020553 C177.020839,35.486729 177.653298,35.141755 178.313315,34.8360464 C178.327095,34.7505041 178.33674,34.6579501 178.349141,34.5724078 C178.444217,34.0801888 178.586141,33.6132119 178.799717,33.2079376 C179.385327,32.0902781 178.506222,30.7566593 178.446972,30.6613007" id="Fill-14" fill="#1A1919"></path>
                </g>
            </g>
        </g>
    </g>
</svg>