<?xml version="1.0" encoding="UTF-8" standalone="no"?>
<svg width="129px" height="157px" viewBox="0 0 129 157" version="1.1" xmlns="http://www.w3.org/2000/svg" xmlns:xlink="http://www.w3.org/1999/xlink">
    <!-- Generator: Sketch 50.2 (55047) - http://www.bohemiancoding.com/sketch -->
    <title>FFBM_VERT_CMYK_POS</title>
    <desc>Created with Sketch.</desc>
    <defs>
        <polygon id="path-1" points="0.047195122 0.654382022 128.417927 0.654382022 128.417927 139.361348 0.047195122 139.361348"></polygon>
        <polygon id="path-3" points="0.0468965517 0.1048 67.8671264 0.1048 67.8671264 15.6544 0.0468965517 15.6544"></polygon>
    </defs>
    <g id="BF-Digital" stroke="none" stroke-width="1" fill="none" fill-rule="evenodd" opacity="0.800000012">
        <g id="Home" transform="translate(-809.000000, -5348.000000)">
            <g id="Group-7" style="mix-blend-mode: multiply;" transform="translate(115.000000, 5122.000000)">
                <g id="FFBM_VERT_CMYK_POS" style="mix-blend-mode: multiply;" transform="translate(694.000000, 226.000000)">
                    <path d="M115.004163,5.7333039 C112.099338,5.7333039 109.735667,8.09667655 109.735667,10.9996216 C109.735667,13.9033235 112.099338,16.2666961 115.004163,16.2666961 C117.90596,16.2666961 120.268117,13.9033235 120.268117,10.9996216 C120.268117,8.09667655 117.90596,5.7333039 115.004163,5.7333039 Z M115.004163,17 C111.692148,17 109,14.3074352 109,10.9996216 C109,7.69105127 111.692148,5 115.004163,5 C118.312394,5 121,7.69105127 121,10.9996216 C121,14.3074352 118.312394,17 115.004163,17 Z" id="Fill-1" fill="#020000"></path>
                    <g id="Group-5">
                        <mask id="mask-2" fill="white">
                            <use xlink:href="#path-1"></use>
                        </mask>
                        <g id="Clip-3"></g>
                        <path d="M115.354317,10.6423596 C116.138543,10.6423596 116.51925,10.3710112 116.51925,9.65764045 C116.51925,9.27617978 116.349348,8.71382022 115.464439,8.71382022 L113.587646,8.71382022 L113.587646,10.6423596 L115.354317,10.6423596 Z M112.115159,7.46955056 L115.756262,7.46955056 C117.674744,7.46955056 118.025561,8.88449438 118.025561,9.5058427 C118.025561,10.3002247 117.622829,10.9821348 116.909396,11.2235955 C117.501695,11.4855056 117.824195,11.7065169 117.824195,13.0498876 C117.824195,14.1038202 117.824195,14.3625843 118.145122,14.4852809 L118.145122,14.6764045 L116.479921,14.6764045 C116.378451,14.3342697 116.318671,13.9630337 116.318671,13.2213483 C116.318671,12.2374157 116.258104,11.8559551 115.143512,11.8559551 L113.587646,11.8559551 L113.587646,14.6764045 L112.115159,14.6764045 L112.115159,7.46955056 Z" id="Fill-2" fill="#020000" mask="url(#mask-2)"></path>
                        <path d="M44.5246646,129.51573 C43.753811,129.913708 42.911378,129.948315 42.5275244,129.963258 C41.8722988,129.98764 41.4200122,130.017528 40.2314817,130.017528 L38.8266402,130.017528 L38.8266402,123.812697 L40.6271341,123.812697 C42.6722561,123.812697 43.5941341,123.835506 44.3940915,124.23191 C45.9098415,125.005056 45.975128,126.448315 45.9735549,126.880899 L45.946811,126.880899 L45.975128,126.905281 C45.975128,126.905281 45.9735549,126.910787 45.975128,126.910787 C45.975128,128.322584 45.2931585,129.120112 44.5246646,129.51573 Z M45.4717134,131.869775 L45.5865549,131.835955 C46.5965305,131.518202 49.093939,130.359663 49.093939,126.932022 C49.0892195,124.834382 48.232628,123.429663 47.1235427,122.51573 C45.5511585,121.248652 43.9693354,121.247079 41.4931646,121.220337 L35.7857012,121.220337 L35.7857012,139.358202 L38.8266402,139.358202 L38.8266402,132.482472 L42.2435671,132.482472 L45.9169207,139.358202 L49.429811,139.358202 L45.3513659,131.902022 L45.4717134,131.869775 Z M50.1377378,123.97236 L55.1490732,123.97236 L55.1490732,139.358202 L58.2222622,139.358202 L58.2222622,123.97236 L63.3445061,123.97236 L63.3445061,121.220337 L50.1377378,121.220337 L50.1377378,123.97236 Z M119.949549,56.3853933 C119.949549,25.6097753 94.9959146,0.654382022 64.2136829,0.654382022 C33.4306646,0.654382022 8.47703049,25.6097753 8.47703049,56.3853933 C8.47703049,87.1688764 33.4306646,112.113258 64.2136829,112.113258 C94.9959146,112.113258 119.949549,87.1688764 119.949549,56.3853933 Z M74.1954512,129.51573 C73.4269573,129.913708 72.5860976,129.948315 72.2030305,129.963258 C71.5478049,129.99236 71.0947317,130.015169 69.9062012,130.015169 L68.4966402,130.015169 L68.4997866,124.012472 L68.4997866,123.812697 L70.2994939,123.812697 C72.3414695,123.812697 73.2641341,123.835506 74.064878,124.23191 C75.5727622,125.000337 75.6459146,126.429438 75.6419817,126.874607 L75.6364756,126.874607 L75.6419817,126.905281 L75.6419817,126.910787 C75.6459146,128.322584 74.967878,129.120112 74.1954512,129.51573 Z M75.1440732,131.865056 L75.2573415,131.832809 C76.2688902,131.522921 78.7631524,130.359663 78.7686585,126.928876 C78.7631524,124.834382 77.9057744,123.433596 76.7888232,122.51573 C75.225878,121.248652 73.6432683,121.247079 71.1670976,121.220337 L65.454128,121.220337 L65.454128,139.358202 L68.4966402,139.358202 L68.4966402,132.479326 L71.9119939,132.479326 L75.5908537,139.358202 L79.0982378,139.358202 L75.0213659,131.902022 L75.1440732,131.865056 Z M109.91272,130.509888 C109.915866,134.38191 108.426073,135.665506 107.025951,136.198764 C106.202396,136.501573 105.253774,136.632135 102.623433,136.632135 L100.955872,136.632135 L100.955872,123.97236 L102.994701,123.97236 C105.320634,123.999101 105.931024,124.027416 106.966957,124.491461 C109.65472,125.788427 109.91272,128.731573 109.91272,130.478427 L109.91272,130.509888 Z M109.704274,122.625056 C107.81175,121.271461 105.931024,121.247079 104.331896,121.220337 L97.888189,121.220337 L97.888189,139.358202 L103.62161,139.358202 C105.800451,139.33382 107.698482,139.30236 109.487177,138.253933 C112.126957,136.736742 113.188848,133.584382 113.193567,130.450112 C113.193567,128.394944 112.71847,124.744719 109.704274,122.625056 Z M3.05509756,123.924382 L11.8797988,123.924382 L11.8797988,121.220337 L0.0125853659,121.220337 L0.0125853659,139.361348 L3.05509756,139.361348 L3.05509756,131.508764 L10.8013902,131.508764 L10.8013902,128.939213 L3.05509756,128.939213 L3.05509756,123.924382 Z M128.417927,123.924382 L128.417927,121.220337 L115.633555,121.220337 L115.633555,139.358202 L128.377024,139.358202 L128.377024,136.632135 L118.64775,136.632135 L118.64775,131.268876 L127.572348,131.268876 L127.572348,128.677303 L118.64775,128.677303 L118.64775,123.924382 L128.417927,123.924382 Z M85.4656463,133.112472 L88.3036463,123.694719 L91.1188354,133.112472 L85.4656463,133.112472 Z M86.4268537,121.220337 L80.3142988,139.361348 L83.5904268,139.361348 L84.6609695,135.733146 L91.9187927,135.737865 L92.9940549,139.358202 L96.2709695,139.358202 L90.0789695,121.220337 L86.4268537,121.220337 Z M28.9943232,139.361348 L32.0124512,139.358202 L32.0124512,121.220337 L28.9943232,121.220337 L28.9943232,139.361348 Z M21.6641341,133.112472 L16.0062256,133.112472 L18.8536646,123.691573 L21.5870488,132.859213 L21.6641341,133.112472 Z M16.9682195,121.220337 L10.8533049,139.358202 L14.1302195,139.358202 L15.2070549,135.733146 L22.4585854,135.733146 L23.5409268,139.358202 L26.8099756,139.358202 L20.6187622,121.220337 L16.9682195,121.220337 Z" id="Fill-4" fill="#020000" mask="url(#mask-2)"></path>
                    </g>
                    <path d="M71.9845381,53.0018128 C64.6350365,53.0018128 58.6833843,47.0188888 58.6833843,39.6394496 C58.6833843,32.2536984 64.6350365,26.2676185 71.9845381,26.2676185 C79.320697,26.2676185 85.2762734,32.2536984 85.2762734,39.6394496 C85.2762734,47.0188888 79.320697,53.0018128 71.9845381,53.0018128 Z M103.037831,89.996844 L103.033906,90 C110.496429,81.1490913 115,69.401794 115,56.8844409 C115,50.5953882 113.864296,44.5753816 111.789891,39.0208801 C104.950553,20.0945475 86.1961385,6 65.0141276,6 C64.6397457,6 63.6390393,6.02682572 63.6390393,6.02682572 C59.6982184,6.16568825 55.7471941,6.87025783 52.5158936,7.86517635 C51.0042383,8.32989245 45.6302488,10.1863899 41.6894278,14.2244493 C37.5453261,18.530766 35,24.3866623 35,30.8485042 C35,41.3894331 42.2262774,50.0872775 51.9609921,54.0677406 C56.1443372,55.7262011 60.7130524,56.7637252 64.0691468,57.5890105 C69.9007142,59.0147185 82.1784004,61.0747757 92.4013029,67.8624712 L92.7937368,68.1196825 C99.1825602,72.5009534 103.037831,78.9462265 103.037831,89.3932654 L103.037831,89.996844 Z" id="Fill-6" fill="#FFFFFF"></path>
                    <path d="M13,56.6723802 C13,43.2993285 18.2994059,31.0167262 26.8477173,22 C25.7579737,24.8039009 24.2109131,29.9098615 24.2109131,35.8170482 C24.2109131,42.5496934 26.2012195,50.4751886 33.0883365,57.7323438 L34.3500625,59.0658969 C44.1718261,69.4130494 53,78.6978932 53,91.0688259 C53,95.2953918 51.9595059,99.8893493 49.5798937,105 C28.5003127,99.0130814 13,79.6335691 13,56.6723802" id="Fill-7" fill="#FFFFFF"></path>
                    <g id="Group-11" transform="translate(0.000000, 141.000000)">
                        <mask id="mask-4" fill="white">
                            <use xlink:href="#path-3"></use>
                        </mask>
                        <g id="Clip-9"></g>
                        <path d="M65.1283678,8.0712 C65.1307126,11.3784 63.8887356,12.4744 62.7194483,12.9304 C62.0324138,13.188 61.2406437,13.3 59.0466667,13.3 L57.6538391,13.3 L57.6538391,2.4864 L59.3554023,2.4864 C61.2961379,2.5104 61.8065287,2.5336 62.6702069,2.9304 C64.9126437,4.0376 65.1283678,6.552 65.1283678,8.044 L65.1283678,8.0712 Z M64.9548506,1.3352 C63.376,0.1808 61.8065287,0.1592 60.4715402,0.136 L55.0932874,0.136 L55.0932874,15.628 L59.8782989,15.628 C61.6971034,15.6088 63.2806437,15.5816 64.7735172,14.6856 C66.9768736,13.3888 67.8624368,10.696 67.8671264,8.02 C67.8671264,6.264 67.4708506,3.1472 64.9548506,1.3352 Z" id="Fill-8" fill="#8A8B8A" mask="url(#mask-4)"></path>
                        <polyline id="Fill-10" fill="#8A8B8A" mask="url(#mask-4)" points="9.93737931 2.4216 9.93737931 0.1048 0 0.1048 0 15.6544 2.54804598 15.6544 2.54804598 8.9224 9.03462069 8.9224 9.03462069 6.7208 2.54804598 6.7208 2.54804598 2.4216 9.93737931 2.4216"></polyline>
                    </g>
                    <path d="M125.203919,141.3889 L125.551565,152.148986 L118.837987,141.3889 L116.28518,141.3889 L116.28518,156.614249 L119.057719,156.614249 L118.879579,145.939185 L125.529592,156.614249 L128,156.614249 L128,141.3889 L125.203919,141.3889 Z M93.6348013,156.614249 L96.4324522,156.614249 L96.4324522,141.3889 L93.6348013,141.3889 L93.6348013,156.614249 Z M106.412179,154.372171 C103.896255,154.372171 102.000288,152.320606 102.000288,148.893722 C102.000288,145.720331 103.743228,143.608148 106.341551,143.608148 C109.329113,143.608148 110.86017,146.347766 110.798959,149.321197 C110.728331,152.990553 108.304223,154.372171 106.412179,154.372171 Z M106.361955,141 C102.21845,141 99.0723675,144.363905 99.0723675,149.022043 C99.0723675,150.939776 99.5950142,152.921275 101.104098,154.670537 C102.64771,156.463098 104.405561,157 106.316439,157 C110.996717,157 113.612305,153.358984 113.628785,149.001574 C113.653897,143.801023 110.124854,141 106.361955,141 Z M72.6677217,151.160205 L74.7590933,144.147412 L76.8543887,151.160205 L72.6677217,151.160205 Z M73.1071844,141.3889 L68,156.614249 L71.0322927,156.614249 L71.9033705,153.636883 L77.6006906,153.636883 L78.4898178,156.614249 L81.5119087,156.614249 L76.3380201,141.3889 L73.1071844,141.3889 Z M80.589037,143.977367 L84.6862419,143.977367 L84.6862419,156.614249 L87.5270544,156.614249 L87.5270544,143.977367 L91.721569,143.977367 L91.721569,141.3889 L80.589037,141.3889 L80.589037,143.977367 Z" id="Fill-12" fill="#8A8B8A"></path>
                    <polyline id="Fill-13" fill="#8A8B8A" points="51.1356966 141 51.4951417 151.601375 44.6150238 141 42 141 42 156 44.8385713 156 44.6592508 145.483169 51.465389 156 54 156 54 141 51.1356966 141"></polyline>
                    <path d="M38.7456763,152.642759 C38.2602857,154.113841 36.5548172,156 32.9046798,156 C31.1557203,156 29.4028777,155.584923 28.1812466,154.258813 C27.9917501,154.071875 27.4853906,153.471387 27.2314342,152.684725 C27,151.940027 27,151.254082 27,149.700595 L27,141 L29.8036162,141 L29.8036162,149.991302 C29.8036162,150.860369 29.8036162,151.17244 29.9519516,151.608118 C30.2268768,152.477186 31.0283538,153.34778 33.0103008,153.34778 C33.3683249,153.34778 35.4131785,153.34778 36.0259356,151.68976 C36.1944632,151.21288 36.2162087,150.821456 36.2162087,149.84633 L36.2162087,141 L38.9996327,141 L38.9996327,149.431253 C38.9996327,151.10911 39.0206016,151.814131 38.7456763,152.642759" id="Fill-14" fill="#8A8B8A"></path>
                    <path d="M18.5626069,154.372171 C15.9700365,154.372171 14.0171179,152.319819 14.0171179,148.893722 C14.0171179,145.720331 15.8123475,143.608148 18.4898273,143.608148 C21.5684034,143.608148 23.1469116,146.346979 23.083836,149.321197 C23.0102478,152.990553 20.5122909,154.372171 18.5626069,154.372171 Z M18.5116612,141 C14.2419259,141 11,144.363905 11,149.022043 C11,150.938988 11.5385689,152.921275 13.0936259,154.670537 C14.684264,156.463098 16.4948582,157 18.4639501,157 C23.2868102,157 25.9820806,153.358984 25.9998711,149.001574 C26.0249396,143.801023 22.3891954,141 18.5116612,141 Z" id="Fill-15" fill="#8A8B8A"></path>
                </g>
            </g>
        </g>
    </g>
</svg>