<?xml version="1.0" encoding="UTF-8" standalone="no"?>
<svg width="244px" height="39px" viewBox="0 0 244 39" version="1.1" xmlns="http://www.w3.org/2000/svg" xmlns:xlink="http://www.w3.org/1999/xlink">
    <!-- Generator: Sketch 50.2 (55047) - http://www.bohemiancoding.com/sketch -->
    <title>GR • black</title>
    <desc>Created with Sketch.</desc>
    <defs></defs>
    <g id="BF-Digital" stroke="none" stroke-width="1" fill="none" fill-rule="evenodd" opacity="0.800000012">
        <g id="Home" transform="translate(-756.000000, -5687.000000)" fill="#000000">
            <g id="Group-7" style="mix-blend-mode: multiply;" transform="translate(115.000000, 5122.000000)">
                <g id="GR-•-black" transform="translate(641.000000, 565.000000)">
                    <path d="M150.285484,24.7006597 C150.070216,23.7492162 150.346106,23.993567 150.551065,23.1949972 C151.30863,23.1851078 151.782881,22.898315 152.500856,22.7524462 C153.062122,22.7825265 153.623387,22.8113706 154.185066,22.8414509 C154.919536,22.6716827 156.003716,22.4232113 156.66643,22.1322979 C157.31636,22.1322979 157.966703,22.1322979 158.616633,22.1322979 C159.697101,21.6514254 160.542918,22.0704891 161.807312,21.7779274 C162.25682,21.6749128 162.553742,21.4849537 162.870872,21.3353764 C163.313781,21.3057082 163.757515,21.2768641 164.200425,21.2471958 C164.200425,21.1878594 164.200425,21.1285229 164.200425,21.0700106 C164.407446,21.0700106 164.614467,21.0700106 164.821075,21.0700106 C165.62524,20.5961431 166.103203,19.6533529 166.504873,18.7670146 C166.731276,18.2675995 166.444664,17.0668605 166.327544,16.8188012 C166.298264,16.5237672 166.268572,16.2287332 166.23888,15.9332871 C166.131245,15.7206648 165.881336,15.3976108 165.795558,15.1359535 C165.795558,14.9888486 165.795558,14.8413316 165.795558,14.6934025 C165.475954,14.1181686 164.679212,13.727949 164.555082,13.0109669 C164.260222,12.9738816 164.07382,12.6916214 163.757515,12.8337817 C163.757515,12.8634499 163.757515,12.8931181 163.757515,12.9223743 C163.47379,13.1205745 162.962423,13.2132877 162.693543,13.4535179 C162.663851,13.5717788 162.634571,13.6900396 162.605291,13.8078884 C162.399508,13.9591139 161.800302,13.9409834 161.541319,14.0736662 C161.541319,14.1330027 161.541319,14.1919271 161.541319,14.2508515 C160.9949,14.5137449 159.751537,14.2850524 159.237284,14.5166293 C157.813705,15.1565565 155.302236,15.1619132 153.564828,14.9591804 C153.629161,14.1692639 155.096865,12.085071 155.691947,11.7710823 C155.898556,11.7710823 156.105577,11.7710823 156.312598,11.7710823 C156.576529,11.6952635 157.051192,11.438963 157.287081,11.3281192 C157.671018,11.2988631 158.054955,11.2691949 158.439305,11.2395266 C158.439305,11.1806022 158.439305,11.1212658 158.439305,11.0627535 C158.645913,11.0627535 158.852934,11.0627535 159.059955,11.0627535 C159.059955,11.003417 159.059955,10.9440806 159.059955,10.8855682 C159.266563,10.8855682 159.473584,10.8855682 159.680193,10.8855682 C159.680193,10.8262318 159.680193,10.7673074 159.680193,10.708383 C160.123102,10.6791268 160.566424,10.6494586 161.010158,10.6193783 C161.010158,10.560866 161.010158,10.5015295 161.010158,10.4430172 C161.334711,10.4430172 161.659676,10.4430172 161.984641,10.4430172 C161.984641,10.3836807 161.984641,10.3247564 161.984641,10.2654199 C162.575599,10.2361637 163.166557,10.2069076 163.757515,10.1768273 C164.343525,9.91310973 165.219858,9.71532157 165.884635,9.55709103 C166.149803,9.55709103 166.416208,9.55709103 166.681789,9.55709103 C166.681789,9.49816664 166.681789,9.43883019 166.681789,9.3799058 C166.829838,9.3799058 166.977474,9.3799058 167.125523,9.3799058 C167.125523,9.32098141 167.125523,9.26164496 167.125523,9.20272057 C167.686789,9.1734644 168.248055,9.14379618 168.809321,9.11412795 C169.144596,8.95383712 169.73143,8.7416269 170.050209,8.58298431 C170.28651,8.55372814 170.522811,8.52405992 170.759112,8.49397963 C170.954173,8.36376909 170.742616,8.25787001 171.202021,8.14002123 C171.299346,7.66203315 171.662663,7.34886856 171.822671,6.98872927 C171.976906,6.64218792 171.651941,6.47406797 171.645755,6.45717357 C171.501418,6.08549664 171.87422,5.48924772 172,5.30588161 C171.35007,4.89341087 171.822671,4.31075989 171.645755,3.80063124 C171.585546,3.62839071 171.288623,3.57399897 171.202021,3.44626078 C171.172741,3.21056321 171.143461,2.97404153 171.113769,2.7379319 C171.032115,2.60524901 170.669622,2.51377198 170.581783,2.38356144 C170.503841,2.26777295 170.332698,0.840401671 170.31579,0.701125837 C170.050209,0.671457612 169.784216,0.642201445 169.518223,0.61253322 C169.43327,0.275881277 169.341719,0.1559722 168.98665,0.0809775201 C168.83159,-0.0170924462 167.354401,-0.0364592043 167.125523,0.0809775201 C167.092944,0.0978719261 166.891697,0.419277698 166.85953,0.435347987 C166.534153,0.435347987 166.209188,0.435347987 165.884635,0.435347987 C165.884635,0.494272378 165.884635,0.55319677 165.884635,0.61253322 C165.322957,0.642201445 164.761691,0.671457612 164.200425,0.701125837 C163.474202,1.04025013 162.429612,1.55161496 161.629984,1.76382518 C161.128102,1.76382518 160.625808,1.76382518 160.123102,1.76382518 C158.928402,2.30073764 157.256151,2.47174199 156.046192,3.00370975 C155.691947,3.00370975 155.33729,3.00370975 154.982632,3.00370975 C154.982632,3.06263414 154.982632,3.12155854 154.982632,3.18089499 C154.453533,3.41741667 153.607304,3.16853323 153.121918,3.44626078 C153.070369,3.47551694 152.907062,3.76890273 152.855513,3.80063124 C152.585396,3.96669089 151.785355,4.13398672 151.614625,4.33218694 C151.5173,4.44509102 151.45173,4.98529996 151.349044,5.12910844 C151.305743,5.189269 151.034801,5.24572104 150.993974,5.30588161 C150.776231,5.63017179 150.90366,6.25320452 150.728394,6.63477086 C150.669009,6.63477086 150.610037,6.63477086 150.551065,6.63477086 C150.551065,6.90013665 150.551065,7.1659145 150.551065,7.43169235 C150.462401,7.46094852 150.373736,7.49061674 150.285484,7.52028497 C150.285484,7.6974702 150.285484,7.87424338 150.285484,8.05184067 C150.2261,8.05184067 150.167128,8.05184067 150.108156,8.05184067 C149.899898,8.37571879 149.870618,8.78489306 149.664834,9.11412795 C149.633492,9.16439911 149.337394,9.33087082 149.310177,9.3799058 C149.280484,9.64568365 149.251204,9.9114615 149.221925,10.1768273 C149.103568,10.2069076 148.985211,10.2361637 148.867267,10.2654199 C148.73159,10.4537307 148.738601,11.0198994 148.601274,11.2395266 C148.562922,11.3013354 148.287856,11.4439077 148.246204,11.5053045 C148.217337,11.6528215 148.187645,11.8007506 148.15754,11.9482676 C148.105991,12.0137849 147.849483,12.0586993 147.803708,12.1254528 C147.774015,12.3318942 147.744735,12.5387477 147.715043,12.7456011 C147.596687,12.7748573 147.478742,12.8041134 147.360386,12.8337817 C147.360386,12.9520425 147.360386,13.0703034 147.360386,13.1881521 C147.301001,13.1881521 147.242442,13.1881521 147.183057,13.1881521 C146.889021,13.6735573 146.966964,14.2492032 146.651484,14.6934025 C146.611069,14.7494425 146.331879,14.8141357 146.296826,14.8705877 C146.088568,15.2035312 146.212698,15.834393 146.030833,16.1986529 C145.632462,16.9988708 145.184192,17.9507264 144.789945,18.7670146 C144.789945,18.9738681 144.789945,19.1811336 144.789945,19.387575 C144.730973,19.387575 144.671588,19.387575 144.612616,19.387575 C144.582924,19.8004578 144.553644,20.2137527 144.524364,20.6270475 C144.46498,20.6270475 144.40642,20.6270475 144.347035,20.6270475 C143.930932,21.5253355 143.911137,25.046789 144.170119,26.2067341 C144.170119,26.4720999 144.170119,26.7382898 144.170119,27.0036556 C144.228679,27.0036556 144.287651,27.0036556 144.347035,27.0036556 C144.347035,27.210097 144.347035,27.4165384 144.347035,27.6233919 C144.40642,27.6233919 144.46498,27.6233919 144.524364,27.6233919 C144.553644,27.918838 144.582924,28.213872 144.612616,28.5084939 C144.671588,28.5084939 144.730973,28.5084939 144.789945,28.5084939 C144.789945,28.5974986 144.789945,28.6860912 144.789945,28.7746839 C144.920261,28.9436279 145.286877,29.0482908 145.410183,29.2172349 C145.410183,29.3354957 145.410183,29.4537566 145.410183,29.5720174 C145.469567,29.5720174 145.528539,29.5720174 145.587924,29.5720174 C145.748344,29.821725 145.682774,30.0528899 145.853917,30.2803463 C145.90959,30.3549289 146.227132,30.7484449 146.296826,30.8114899 C146.41477,30.8407461 146.533127,30.8704143 146.651484,30.8996705 C146.680763,31.0175193 146.710456,31.1361922 146.740148,31.2548651 C146.887784,31.2841212 147.035421,31.3129653 147.183057,31.3426336 C147.261412,31.4011459 147.286568,31.6257179 147.360386,31.697004 C147.766592,32.0913442 148.390954,32.6554525 148.867267,32.9373007 C149.266875,33.1734103 149.849173,33.0052903 150.285484,33.2026665 C151.562663,33.782433 153.168931,34 154.982632,34 C155.573591,34 156.164549,34 156.755094,34 C157.397602,33.712383 158.033511,33.353892 158.616633,33.0250692 C158.882214,32.995813 159.148207,32.9665568 159.4142,32.9373007 C159.4142,32.8779642 159.4142,32.8186278 159.4142,32.7601154 C159.608849,32.6356737 159.755248,32.7106684 159.946598,32.5825181 C159.946598,32.5235937 159.946598,32.4642573 159.946598,32.4053329 C160.123102,32.3760767 160.300843,32.3464085 160.47776,32.3171523 C160.507452,32.1993036 160.537144,32.0806307 160.566424,31.9627819 C160.714473,31.9331137 160.862109,31.9038575 161.010158,31.8737772 C161.404405,31.577507 161.526886,31.0603734 161.807312,30.6343047 C161.866697,30.6343047 161.925257,30.6343047 161.984641,30.6343047 C162.013921,30.3392707 162.043613,30.0442367 162.073305,29.7487906 C162.132277,29.7487906 162.191662,29.7487906 162.250222,29.7487906 C162.250222,29.4830127 162.250222,29.2172349 162.250222,28.9518691 C162.534772,28.3032887 162.174754,28.052757 162.427963,27.6233919 C162.208982,27.5088396 162.367341,27.6617134 162.250222,27.4462067 C162.713751,27.1557053 162.209395,26.2586535 162.073305,25.9405442 C161.660088,24.9755028 160.975517,23.8386329 159.502864,23.9041502 C159.139959,24.5675647 158.60055,24.2387419 157.995983,24.5238865 C156.762518,25.1057133 155.481627,25.9384839 153.742156,25.9405442 C153.180066,25.9405442 152.619212,25.9405442 152.057534,25.9405442 C151.395644,25.6339726 150.980365,24.8741364 150.285484,24.7006597" id="Fill-1"></path>
                    <path d="M8.58489213,6.86211436 C8.24287782,6.86047747 8.02402194,6.90017196 7.77978545,6.95009699 C7.7702157,7.43707063 7.66203599,8.16794032 7.33292003,8.35700067 C7.21891526,8.43147899 6.85235247,8.34717935 6.70672594,8.44539253 C6.67676848,8.56242989 6.6472271,8.67987647 6.61726964,8.79691383 C6.40631921,9.0146197 5.85959559,9.33544939 5.54462621,9.41279226 C5.5275671,9.48031382 4.61760931,11.3729635 4.56060692,11.4355744 C4.56060692,11.4650383 4.56060692,11.4940931 4.56060692,11.523557 C4.41165179,11.553021 4.26269665,11.5820757 4.11374151,11.6115396 C3.98475801,11.7310323 3.99016699,12.0350839 3.84537261,12.1390262 C3.69891393,12.2441962 3.50377437,12.0878735 3.39809112,12.2270088 C3.39809112,12.3440462 3.39809112,12.461902 3.39809112,12.5793486 C3.27909344,12.6084033 3.15967968,12.6374581 3.040682,12.666922 C2.88007674,12.8326567 2.90920204,13.0871925 2.7723131,13.2823912 C2.71239819,13.2823912 2.65289935,13.2823912 2.59340051,13.2823912 C2.59340051,13.3998378 2.59340051,13.5172844 2.59340051,13.6343218 C2.53390167,13.6343218 2.47398675,13.6343218 2.41448791,13.6343218 C2.38453045,13.7808231 2.35498907,13.9273244 2.32503161,14.0742349 C2.27593467,14.1401196 2.00923007,14.2714797 1.96720642,14.3381828 C1.96720642,14.4556294 1.96720642,14.5726668 1.96720642,14.6897041 C1.87775012,14.7187589 1.78829382,14.7482228 1.6992536,14.7776868 C1.6992536,14.8951333 1.6992536,15.0121707 1.6992536,15.1296173 C1.65473349,15.191819 1.38761282,15.2433809 1.3414284,15.3055826 C1.31147094,15.4516746 1.28192956,15.598176 1.2519721,15.7450865 C1.13297442,15.7745504 1.01314459,15.8036052 0.89414691,15.8334783 C0.67279458,16.1367115 0.820501492,17.0529586 0.62619409,17.4163473 C-0.463092374,19.4518153 0.456435161,20.9205114 0.447281493,23.3963018 C0.357825194,23.3963018 0.268368896,23.3963018 0.178912597,23.3963018 C0.0836312373,23.6496099 0.0262127759,23.6311949 0,24.0125894 C0.31455331,24.2024682 0.288340534,25.0053609 0.268368896,25.5074757 C0.646581805,25.6388359 0.804274536,25.7648761 0.805106687,26.2997287 C0.522175138,26.5141607 0.743943544,26.3942588 0.805106687,26.6508407 C0.83464807,26.9147886 0.864605528,27.1787365 0.89414691,27.4422752 C1.27984918,27.9988165 2.12323484,28.4100842 2.32503161,29.113536 C2.9736938,29.2727232 3.98725446,30.1971547 4.56060692,30.5208489 C4.82897582,30.5499036 5.09734472,30.5793676 5.36571361,30.6084223 C5.36571361,30.6677595 5.36571361,30.7262781 5.36571361,30.7843876 C5.51466875,30.7843876 5.66362389,30.7843876 5.81257903,30.7843876 C5.81257903,30.8433155 5.81257903,30.9018342 5.81257903,30.9611713 C5.96153417,30.990226 6.11048931,31.0188715 6.25986052,31.0483355 C6.25986052,31.1072634 6.25986052,31.1661913 6.25986052,31.2243008 C6.52781334,31.2243008 6.79618224,31.2243008 7.06455113,31.2243008 C7.06455113,31.2832287 7.06455113,31.3413381 7.06455113,31.400266 C7.27300511,31.400266 7.48187517,31.400266 7.69032915,31.400266 C7.69032915,31.4587847 7.69032915,31.5173034 7.69032915,31.5758221 C8.13761064,31.6056952 8.58489213,31.63475 9.03175755,31.6642139 L9.38958274,32.0161445 C10.373186,32.0451992 11.3567892,32.0746631 12.3403924,32.1037179 C14.5497549,32.1037179 16.3430416,32.0492914 17.7951462,31.400266 C18.0339737,31.400266 18.2723852,31.400266 18.5107966,31.400266 C19.3570948,31.0070041 19.7960548,30.522895 21.1041971,30.5208489 C21.1033649,32.0206459 20.8091994,34.4448743 21.0147408,35.4458302 C21.0729914,35.7294208 20.7284806,35.528493 20.8358282,35.7977608 C20.895327,35.7977608 20.9548259,35.7977608 21.0147408,35.7977608 C21.0147408,36.1791553 21.0147408,36.5601405 21.0147408,36.9411258 C21.0808969,37.172336 21.2252752,37.2787336 21.2826936,37.5570042 C21.8489728,37.6425315 21.4466275,37.7108715 21.7299751,37.9085255 C22.069493,38.145874 23.3239615,38.3684905 23.8760941,38.4364213 C23.8760941,38.5534587 23.8760941,38.670496 23.8760941,38.7879426 C24.1877349,38.8288648 24.341683,39.095268 24.6807847,38.9639079 C25.4085013,38.6823635 26.0234614,38.2293552 27.0058164,38.1728826 C27.1044263,37.9085255 27.3307716,37.7628427 27.4530978,37.5570042 C27.7094005,37.1256847 27.5046912,36.3645326 27.7214667,35.8861526 C27.7809656,35.8861526 27.8408805,35.8861526 27.9003793,35.8861526 C27.9003793,34.9772716 27.9003793,34.0675721 27.9003793,33.1595095 C27.8408805,33.1595095 27.7809656,33.1595095 27.7214667,33.1595095 C27.7214667,32.6610776 27.7214667,32.1622365 27.7214667,31.6642139 C28.2927388,30.4017654 28.2232542,28.4387297 28.7945262,27.1787365 C28.7945262,26.8857339 28.7945262,26.5923221 28.7945262,26.2997287 C28.8540251,26.2997287 28.9135239,26.2997287 28.9730228,26.2997287 C29.2031127,25.823804 29.0187911,25.1133954 29.2418077,24.6280586 C29.3013066,24.6280586 29.3608054,24.6280586 29.4203043,24.6280586 C29.4203043,24.4226294 29.4203043,24.2176094 29.4203043,24.0125894 C29.819321,23.1978293 30.269515,22.2586659 30.6726924,21.4623207 C30.7022338,21.109981 30.7321913,20.7584597 30.7621487,20.4065291 C30.8212315,20.4065291 30.8811464,20.4065291 30.9406453,20.4065291 C31.1811371,19.8671751 30.6215151,18.718081 30.4937798,18.4713204 C30.2611935,18.0240413 30.4492597,17.247748 30.2254109,16.8008781 C30.165496,16.8008781 30.1059972,16.8008781 30.0464984,16.8008781 C30.0464984,16.6834315 30.0464984,16.5663941 30.0464984,16.4489476 C30.0048908,16.3830629 29.7377701,16.2504751 29.6886732,16.1845904 C29.506432,15.9406944 29.589231,15.6636514 29.4203043,15.3935652 C29.3608054,15.3935652 29.3013066,15.3935652 29.2418077,15.3935652 C29.0928526,15.1639919 29.1677462,14.9409662 28.9730228,14.7776868 C28.8240676,14.7482228 28.6751125,14.7187589 28.5261574,14.6897041 C28.4595852,14.6422344 28.4138169,14.3868802 28.3472448,14.3381828 C28.1383747,14.1847247 27.8171642,14.3709205 27.5425541,14.249791 C26.0234614,13.5798953 24.3059004,14.6332315 22.7135783,14.6897041 C21.8885,14.7187589 20.2241968,15.0309949 19.5838561,15.3055826 C19.0770758,15.3055826 18.5702954,15.3055826 18.0639312,15.3055826 C18.0639312,15.3055826 17.6815575,15.3624643 17.6166497,15.3935652 C17.6166497,15.4516746 17.6166497,15.5106025 17.6166497,15.5691212 C17.3482808,15.5691212 17.0799119,15.5691212 16.811543,15.5691212 C16.811543,15.6280491 16.811543,15.6861586 16.811543,15.7450865 C16.1562236,15.7745504 15.5000721,15.8036052 14.8443366,15.8334783 C14.8443366,15.8915878 14.8443366,15.9505157 14.8443366,16.0086252 C14.6358826,16.0086252 14.4270125,16.0086252 14.2185586,16.0086252 C14.2185586,16.0675531 14.2185586,16.126481 14.2185586,16.1845904 C13.9801471,16.1845904 13.7413196,16.1845904 13.5033243,16.1845904 C13.5033243,16.2435183 13.5033243,16.302037 13.5033243,16.3609649 C13.1454991,16.3900197 12.7876739,16.4190744 12.4298487,16.4489476 C11.7200233,16.7996504 10.5778952,17.0816041 10.1048171,17.679886 C9.95544584,17.8697648 9.29180493,20.8763155 9.47903904,21.2863555 C9.91966332,22.2512999 10.274576,23.4965611 11.1778766,24.0125894 C12.2413663,24.6190558 13.3115133,24.0195462 14.1286862,23.6610681 C14.4270125,23.6610681 14.7253389,23.6610681 15.0232492,23.6610681 C15.1701239,23.6266935 15.5791265,23.4269934 15.6494433,23.3963018 C16.1558075,23.3963018 16.6625879,23.3963018 17.1693682,23.3963018 C18.3497753,22.8659506 20.2870242,22.5533054 21.9088877,22.5172939 C21.9192896,23.2203365 21.7632612,23.4846936 21.6405188,24.0125894 C21.5215211,24.0125894 21.4021074,24.0125894 21.2826936,24.0125894 C21.2826936,24.1005721 21.2826936,24.1885547 21.2826936,24.2765373 C20.8187691,24.3943931 21.0347124,24.4962893 20.8358282,24.6280586 C20.6269581,24.6575226 20.4185042,24.6865773 20.2096341,24.7160413 C20.1572086,24.7463237 19.9945229,25.0360525 19.9416813,25.0679718 C19.6167261,25.2639889 19.2089718,25.1375395 18.8686218,25.3319197 L18.5107966,25.683441 C17.7656048,25.712905 17.0204131,25.7423689 16.2752213,25.7718329 C16.2307012,25.7959769 16.1408288,26.0963455 16.0963087,26.1233542 C15.3065968,26.599688 13.6452061,26.1213081 12.6087613,26.1233542 C12.2442789,26.1237634 11.2402879,26.3271465 11.1778766,26.2997287 C10.9615171,26.2011063 10.7809402,25.7816542 10.5520985,25.683441 C10.1256208,25.5009282 9.42869387,25.5025651 9.03175755,25.3319197 C8.58489213,25.3024557 8.13761064,25.273401 7.69032915,25.2439371 C6.3272648,24.5556264 4.56684806,24.6816667 4.56060692,22.6056857 C4.08960911,21.8752253 5.27417693,19.8139763 5.54462621,19.3511468 C6.60978028,17.5243818 7.7290242,15.8453458 9.03175755,14.249791 C9.09416892,14.1732665 9.32301061,14.1491225 9.38958274,14.0742349 C9.4195402,13.9571976 9.44908158,13.839751 9.47903904,13.7227136 C9.59803672,13.6932497 9.71745048,13.6637857 9.83686424,13.6343218 C9.86640562,13.5172844 9.89636308,13.3998378 9.92632054,13.2823912 C10.0453182,13.2533365 10.164732,13.2238725 10.2837297,13.1944086 C10.3136871,13.0188525 10.3432285,12.8428873 10.373186,12.666922 C10.6710962,12.3477292 10.884127,12.5347435 10.99938,11.9634702 C11.1183777,11.9634702 11.2377915,11.9634702 11.3567892,11.9634702 C11.5827183,11.2845716 12.3724302,11.2522431 12.519305,10.4677654 C12.6387187,10.4677654 12.7581325,10.4677654 12.8771302,10.4677654 C13.0215085,10.1379328 13.8382653,9.27324772 14.1286862,9.06086173 C14.2780574,9.031807 14.4270125,9.00234305 14.5763838,8.9728791 C14.7078637,8.85093108 14.704119,8.560793 14.8443366,8.44539253 C14.9932917,8.4163378 15.1426629,8.38687384 15.2916181,8.35700067 C15.3565259,8.31116786 15.4052068,8.05131217 15.4705307,8.00547936 C15.6194858,7.97642463 15.7684409,7.94696068 15.9173961,7.91790595 C15.9173961,7.85897805 15.9173961,7.80045937 15.9173961,7.74153146 C16.0363938,7.74153146 16.1558075,7.74153146 16.2752213,7.74153146 C17.1735289,7.06304214 17.9778035,6.33176323 19.5838561,6.33421856 C19.7120074,6.55437975 19.8131139,6.46639712 19.9416813,6.68655831 C20.165114,6.94314022 20.1879982,7.2656068 20.3885467,7.56597542 C20.4484616,7.56597542 20.5079605,7.56597542 20.5678754,7.56597542 C20.5970007,7.77099541 20.6269581,7.97642463 20.6569156,8.18144463 C20.6926981,8.23341576 20.983119,8.30543876 21.0147408,8.35700067 C21.1653602,8.60376126 21.1012846,9.18690197 21.2826936,9.41279226 C21.4021074,9.44225622 21.5215211,9.47131095 21.6405188,9.5007749 C21.7736631,9.63581801 21.7628451,9.909178 21.9088877,10.0282615 C22.2201124,10.2823881 23.0385335,10.3359961 23.4292287,10.4677654 C23.5328316,10.3020307 24.693267,9.72912052 24.9491536,9.67674016 C25.0714799,9.22209502 25.1784114,9.42793346 25.3069788,9.236827 C25.3365202,8.9728791 25.3664777,8.70934042 25.3964351,8.44539253 C25.455934,8.44539253 25.5158489,8.44539253 25.5753477,8.44539253 C25.5753477,8.29889121 25.5753477,8.15198068 25.5753477,8.00547936 C25.6348466,8.00547936 25.6943454,8.00547936 25.7538442,8.00547936 C26.1029318,7.25946848 25.5661941,5.99988456 25.3964351,5.63076672 C25.3964351,5.42574672 25.3964351,5.22031751 25.3964351,5.01529751 C25.3103074,4.70142458 25.0702317,4.37363813 24.9491536,4.13588041 C24.9196123,3.87193251 24.8896548,3.60798461 24.8596973,3.34403671 C24.643754,2.98269408 24.1527845,2.77071732 23.8760941,2.4646196 C23.5507228,2.10491386 23.3605762,1.53159448 22.9819472,1.23327197 C22.7327178,1.03684562 22.4772473,1.14324323 22.1768405,0.969733291 C22.1331526,0.943952333 21.9517435,0.639491502 21.9088877,0.61780276 C21.6105614,0.588338808 21.3126511,0.559284078 21.0147408,0.529820127 C20.324055,0.152927082 19.3870522,-0.23624261 18.4213403,0.177889596 C18.0934726,0.177889596 17.7656048,0.177889596 17.4377371,0.177889596 C17.4377371,0.236817499 17.4377371,0.29533618 17.4377371,0.353854862 C17.1697843,0.4856242 16.5785405,0.465572344 16.3646776,0.61780276 C16.3347201,0.734840122 16.3047627,0.852286707 16.2752213,0.969733291 C16.0854907,1.10354874 15.5129704,1.09741041 15.2916181,1.23327197 C15.2383604,1.26600969 15.0756747,1.55573855 15.0232492,1.5852025 C14.7548803,1.61466645 14.4865114,1.64372118 14.2185586,1.67318513 C14.0954001,1.75830321 14.1157878,2.02552488 13.9501897,2.11268907 C13.831192,2.11268907 13.7117782,2.11268907 13.5923645,2.11268907 C13.5628231,2.28865434 13.5328656,2.4646196 13.5033243,2.64058487 C13.3839105,2.6696396 13.2644967,2.69910355 13.145083,2.7285675 C12.783097,3.09482079 12.4444113,3.42751791 12.0720235,3.78394987 C12.0424821,3.90139646 12.0129407,4.01843382 11.9825672,4.13588041 C11.8040707,4.16534436 11.6251581,4.19439909 11.4462455,4.22386304 C11.416288,4.3409004 11.3867466,4.45793776 11.3567892,4.57538435 C11.2748222,4.66500387 11.0942453,4.66868686 10.99938,4.75134961 C10.8957772,4.84178758 10.8404391,5.11964901 10.7305951,5.19085356 C10.5221411,5.22031751 10.3136871,5.24978146 10.1048171,5.27883619 C9.88679333,5.43597726 9.87763967,5.92417857 9.65795164,6.07067988 C9.12079777,6.42915796 8.70014513,6.05922168 8.58489213,6.86211436" id="Fill-2"></path>
                    <path d="M67.3553547,24.5229283 C67.0250625,24.4818439 66.6898951,24.137657 66.5696411,24.1628107 C66.5696411,24.2223412 66.5696411,24.2827102 66.5696411,24.3426599 C66.2637247,24.5153822 65.9972159,24.3430791 65.6965809,24.5229283 C65.6965809,24.5832972 65.6965809,24.6428277 65.6965809,24.7031967 C65.4446976,24.8826266 65.1875328,24.8054885 64.9108674,24.9731801 C64.9108674,25.033549 64.9108674,25.0934988 64.9108674,25.1534485 C64.7069231,25.183633 64.5029788,25.2133982 64.2994408,25.2435827 C64.2994408,25.3035324 64.2994408,25.3639014 64.2994408,25.4234319 C63.4588817,25.8543991 61.2488084,24.9815646 60.8941404,24.7933309 C60.3936238,24.5275398 59.9820789,24.8935266 59.6720998,24.3426599 C59.3535893,23.9578078 59.3629333,23.8618044 59.5843469,23.4413179 C59.5843469,23.3214184 59.5843469,23.2019382 59.5843469,23.0816195 C59.75254,22.8057669 61.1472425,22.5257221 61.5055669,22.3601267 C61.7964516,22.3601267 62.0873362,22.3601267 62.3786271,22.3601267 C62.3786271,22.3005962 62.3786271,22.2402272 62.3786271,22.1802775 C62.6402608,22.1802775 62.9023007,22.1802775 63.1643407,22.1802775 C63.1643407,22.1203278 63.1643407,22.0599588 63.1643407,21.9995899 C63.74611,21.9694054 64.3286918,21.9400594 64.9108674,21.9102941 C64.9108674,21.8499252 64.9108674,21.7899754 64.9108674,21.7300257 C65.3638511,21.5191536 66.3067887,21.7467949 66.7443344,21.5493381 C67.8790283,21.5191536 69.0145347,21.4898076 70.1496349,21.4596231 C70.1496349,21.3992541 70.1496349,21.3388852 70.1496349,21.2793547 C70.3531729,21.2793547 70.5571171,21.2793547 70.7606552,21.2793547 C70.7606552,21.2189857 70.7606552,21.159036 70.7606552,21.0990863 C70.9060975,21.0990863 71.0515398,21.0990863 71.1973884,21.0990863 C71.1973884,21.0387173 71.1973884,20.9791868 71.1973884,20.9188179 C71.4594283,20.9188179 71.7214683,20.9188179 71.9831019,20.9188179 C72.541308,20.7314226 73.0215114,20.1080293 73.0308555,19.2964022 C72.5384641,18.9371231 72.8695689,17.5796601 72.5941222,16.9541707 C72.5360265,16.9541707 72.4779309,16.9541707 72.4198352,16.9541707 C72.4198352,16.6540028 72.4198352,16.353835 72.4198352,16.0532479 C72.1939527,15.5627501 71.5093987,14.1495297 71.1100417,13.8908655 C70.9934441,13.8908655 70.8772528,13.8908655 70.7606552,13.8908655 C70.6611206,13.820435 70.6058688,13.5018211 70.4990215,13.4401945 C70.0838202,13.2024917 69.6531809,13.0905576 69.1018814,13.0800769 C68.7029306,13.7223355 67.8107761,13.2033302 67.1810677,13.5303287 C67.1493791,13.5466786 66.95031,13.8745156 66.9190277,13.8908655 C66.6569878,13.8908655 66.3949478,13.8908655 66.1329079,13.8908655 C66.0614055,13.9135038 65.8915874,14.1507874 65.8712742,14.1612681 C65.6092343,14.1612681 65.3471943,14.1612681 65.0851544,14.1612681 C65.0851544,14.2216371 65.0851544,14.2815868 65.0851544,14.3415365 C64.6776721,14.3415365 64.2701899,14.3415365 63.8631139,14.3415365 C63.7262031,14.4035824 62.4887245,14.8731187 62.2912805,14.7917883 C62.1352753,14.727227 61.9894267,14.5649855 61.6798539,14.5213857 C61.6705099,13.5307479 62.01299,13.1488304 62.1165872,12.4491375 C62.6256353,12.3690648 62.968928,12.0089472 63.339034,11.8186173 C63.6299186,11.7884328 63.9212095,11.7586676 64.2120942,11.7284831 C64.2120942,11.6685334 64.2120942,11.6081644 64.2120942,11.5482147 C64.3575365,11.5482147 64.5029788,11.5482147 64.6488274,11.5482147 C64.6488274,11.488265 64.6488274,11.4283152 64.6488274,11.3679463 C65.0563097,11.338181 65.463792,11.3079966 65.8712742,11.2778121 C65.8712742,11.2178624 65.8712742,11.1574934 65.8712742,11.0979629 C66.0455613,11.0979629 66.2202545,11.0979629 66.3949478,11.0979629 C66.3949478,11.037594 66.3949478,10.977225 66.3949478,10.9176945 C66.7150835,10.9176945 67.0352191,10.9176945 67.3553547,10.9176945 C67.3553547,10.8573255 67.3553547,10.7973758 67.3553547,10.7374261 C67.8213389,10.4775042 68.5274248,10.698857 69.0145347,10.4674427 C69.0145347,10.4070738 69.0145347,10.347124 69.0145347,10.2867551 C69.0795369,10.2553129 69.4508617,10.1966209 69.4508617,10.1966209 C70.0334435,10.1966209 70.6152128,10.1966209 71.1973884,10.1966209 C71.517524,10.0415062 72.0659797,9.67593866 72.4198352,9.5661007 C72.8269112,9.5661007 73.2347997,9.5661007 73.642282,9.5661007 C74.8492908,8.98085723 76.0298924,8.96744191 75.9994227,7.0431815 C75.6931,6.81889406 75.5289696,5.4446619 75.3010558,5.0610675 C75.2742424,5.01579079 74.9732011,4.8342647 74.9516692,4.7906649 C74.9516692,4.46031257 74.9516692,4.12954101 74.9516692,3.7996079 C74.8935735,3.7996079 74.8354778,3.7996079 74.7769759,3.7996079 C74.7481312,3.64952398 74.7188802,3.49944005 74.6900355,3.34893689 C74.6051264,3.24161431 74.3239921,3.19591836 74.2533023,3.07895351 C74.2533023,2.95863483 74.2533023,2.83831616 74.2533023,2.71841671 C74.215926,2.65720929 73.9421044,2.50922151 73.9039157,2.4480141 C73.9039157,2.32811465 73.9039157,2.20779597 73.9039157,2.08747729 C73.7475042,1.86989752 72.4433985,1.13247398 72.1577952,1.00628609 C72.052573,0.960170919 70.8289074,1.18278144 70.4116748,1.1865545 C69.7795289,1.19284293 69.6357116,1.36472676 69.2765747,1.54709131 C68.8398414,1.57727578 68.4031082,1.60704103 67.9667812,1.63722551 C67.9667812,1.69717523 67.9667812,1.75712496 67.9667812,1.81749391 C67.7632432,1.81749391 67.559299,1.81749391 67.3553547,1.81749391 C67.2781646,1.85480528 66.8954644,2.05100438 66.7443344,2.08747729 C66.4822945,2.08747729 66.2202545,2.08747729 65.9586209,2.08747729 C65.9586209,2.14784624 65.9586209,2.20779597 65.9586209,2.26774569 C65.7258319,2.26774569 65.4926367,2.26774569 65.260254,2.26774569 C65.260254,2.32811465 65.260254,2.38806437 65.260254,2.4480141 C65.0563097,2.4480141 64.8523654,2.4480141 64.6488274,2.4480141 C64.6488274,2.50796382 64.6488274,2.56833278 64.6488274,2.6282825 C64.3575365,2.65804775 64.0666519,2.68823223 63.7753609,2.71841671 C63.7753609,2.77836643 63.7753609,2.83831616 63.7753609,2.89868511 C63.5718229,2.89868511 63.3682849,2.89868511 63.1643407,2.89868511 C63.1643407,2.95863483 63.1643407,3.01858456 63.1643407,3.07895351 C62.6114161,3.10913799 62.0584915,3.13890324 61.5055669,3.16866849 C61.4730658,3.1862761 61.2756218,3.51243614 61.243527,3.5292053 C60.981487,3.5292053 60.7194471,3.5292053 60.4578134,3.5292053 C60.4578134,3.58915502 60.4578134,3.64952398 60.4578134,3.7094737 C60.0304242,3.91992658 59.4011221,3.77110034 58.9733267,3.97987631 C58.9733267,4.03982603 58.9733267,4.09977576 58.9733267,4.16014471 C58.682442,4.19032919 58.3911511,4.22009444 58.0998602,4.25027891 C58.0649215,4.26914421 57.5761866,4.7906649 57.5761866,4.7906649 C57.052513,4.82043015 56.5284331,4.85061462 56.0043532,4.8807991 C55.8694737,4.95039109 54.4910217,5.88275605 54.4329261,5.9619903 C54.2265442,6.24413131 54.3411105,6.65539481 54.1708861,6.95304729 C54.1127904,6.95304729 54.0542885,6.95304729 53.9961928,6.95304729 C53.9673481,7.1333157 53.9380971,7.3135841 53.9092524,7.49385251 C53.8507505,7.49385251 53.7926548,7.49385251 53.7341529,7.49385251 C53.6784948,7.61123658 53.5013639,9.42985132 53.5598659,9.5661007 C53.7508097,10.0104833 53.8227183,10.8053412 53.9961928,11.2778121 C54.3573611,12.2604845 54.7786563,12.8390203 55.4806796,13.4401945 C55.4814921,14.4174169 55.1243865,15.3963163 54.7823127,16.0532479 C54.7823127,16.2033318 54.7823127,16.353835 54.7823127,16.5034997 C54.7546867,16.5529687 54.4609582,16.7248525 54.4329261,16.7743215 C54.4036751,17.0443049 54.3748304,17.3151267 54.3455794,17.5851101 C54.0217874,18.2470724 53.7073395,19.1693759 53.3851726,19.8372075 C53.3563279,20.318063 53.3270769,20.7989184 53.2978259,21.2793547 C53.2397302,21.2793547 53.1816346,21.2793547 53.1231326,21.2793547 C52.8675929,21.8339945 53.051224,24.8876574 53.2978259,25.4234319 C53.5212708,25.9093181 53.2945758,27.2542042 53.5598659,27.7665019 C53.5834291,27.8117786 53.8824391,27.9907893 53.9092524,28.0364853 C54.1026339,28.373126 53.9665356,28.7198283 54.1708861,29.0279615 C54.2582328,29.058146 54.3455794,29.0879112 54.4329261,29.1180957 C54.565368,29.3516062 54.4577081,29.5494822 54.6076194,29.7486159 C54.7481865,29.9347535 55.0504465,30.032853 55.2190459,30.1988677 C55.5716826,30.5489237 55.8601297,31.1890862 56.2663931,31.4603273 C56.4122417,31.4603273 56.557684,31.4603273 56.7031264,31.4603273 C56.7031264,31.5206962 56.7031264,31.5806459 56.7031264,31.6414341 C56.8485687,31.6711994 56.994011,31.7005454 57.1398596,31.7307299 C57.1398596,31.7910988 57.1398596,31.8514678 57.1398596,31.9109983 C57.256051,31.9109983 57.3722423,31.9109983 57.4888399,31.9109983 C57.4888399,31.9713672 57.4888399,32.0308977 57.4888399,32.0912667 C57.8756028,32.3151349 58.4086204,32.1277396 58.7986334,32.3616693 C58.7986334,32.421619 58.7986334,32.4815687 58.7986334,32.5419377 C58.915231,32.5419377 59.0314223,32.5419377 59.14802,32.5419377 C59.14802,32.6023066 59.14802,32.6618371 59.14802,32.7222061 C59.293056,32.7519713 59.4389046,32.7821558 59.5843469,32.8119211 C59.5843469,32.8718708 59.5843469,32.9322397 59.5843469,32.9921895 C59.7878849,32.9921895 59.9922355,32.9921895 60.1957735,32.9921895 C60.1957735,33.0525584 60.1957735,33.1125081 60.1957735,33.1728771 C60.3412158,33.1728771 60.4866581,33.1728771 60.6321004,33.1728771 C60.6321004,33.2324076 60.6321004,33.2927766 60.6321004,33.3531455 C60.9229851,33.3531455 61.2146823,33.3531455 61.5055669,33.3531455 C61.644509,33.4047107 61.9772388,33.7321284 62.1165872,33.8033973 C62.4078781,33.8033973 62.6987627,33.8033973 62.9896474,33.8033973 C63.9638672,34.1425534 65.1164367,34.0557731 66.3076012,33.4424412 C66.5115455,33.4424412 66.7150835,33.4424412 66.9190277,33.4424412 C67.1128154,33.3879415 67.9684063,32.8559401 68.0541279,32.7222061 C68.0541279,32.6023066 68.0541279,32.4815687 68.0541279,32.3616693 C68.1703192,32.3314848 68.2869168,32.3017196 68.4031082,32.2711158 C68.4323592,32.1512164 68.4612039,32.0308977 68.4904548,31.9109983 C68.6188341,31.7579797 68.9085,31.633888 69.0145347,31.4603273 C69.0433794,31.0997904 69.0726304,30.7396729 69.1018814,30.3795553 C69.1599771,30.3795553 69.2180727,30.3795553 69.2765747,30.3795553 C69.2765747,30.2294714 69.2765747,30.0789682 69.2765747,29.9293035 C69.3346704,29.9293035 69.392766,29.9293035 69.4508617,29.9293035 C69.5552714,29.7087891 69.1806965,27.7526673 69.1018814,27.5862335 C69.1018814,27.3757806 69.1018814,27.1657469 69.1018814,26.9557133 C69.0454108,26.8454561 68.7350255,26.7867641 68.6651481,26.6853107 C68.5578946,26.5297768 68.5071117,26.0145445 68.4031082,25.8745221 C68.2869168,25.8443376 68.1703192,25.8145724 68.0541279,25.7843879 C68.0248769,25.6041195 67.9956259,25.4234319 67.9667812,25.2435827 C67.6779279,24.9182611 67.462202,25.108591 67.3553547,24.5229283" id="Fill-3"></path>
                    <path d="M92.0426842,31.0022518 C92.1775999,30.5017211 92.629256,29.9520459 92.8455362,29.493639 C92.8455362,29.2272675 92.8455362,28.960896 92.8455362,28.6945244 C93.448713,27.3122833 92.549552,24.9876238 91.9534323,24.1678603 C91.9061081,24.1034355 91.6433339,24.055117 91.5964247,23.9906922 C91.1622038,23.3964153 90.8018752,22.5023155 89.8118018,22.4812535 C89.1629612,24.0088633 84.9992562,24.8505148 83.0315631,23.9906922 C82.3216991,23.6801319 81.7193525,24.2112231 81.336192,23.3695716 C81.1456496,23.0866809 81.2992459,22.650575 81.336192,22.3044985 C81.5142807,22.274351 81.6931996,22.2454425 81.8712883,22.215295 C81.8712883,22.156239 81.8712883,22.097183 81.8712883,22.037714 C82.2685631,21.8568291 83.2017644,21.9906343 83.6559112,21.7713424 C83.6559112,21.7126994 83.6559112,21.6532304 83.6559112,21.5937614 C84.0722817,21.5937614 84.4886523,21.5937614 84.9050228,21.5937614 C84.9050228,21.5351184 84.9050228,21.4756494 84.9050228,21.4165934 C85.1130004,21.4165934 85.3213933,21.4165934 85.529371,21.4165934 C85.529371,21.3575373 85.529371,21.2980683 85.529371,21.2385994 C86.1836082,21.2385994 86.8378454,21.2385994 87.4924977,21.2385994 C87.9080379,21.1353546 88.1367719,20.8210775 88.3846016,20.7066822 C89.1575646,20.7066822 89.9309427,20.7066822 90.7043208,20.7066822 C90.7043208,20.6472133 90.7043208,20.5877443 90.7043208,20.5291012 C90.9122985,20.5291012 91.1206913,20.5291012 91.3290841,20.5291012 C91.3290841,20.4696322 91.3290841,20.4105762 91.3290841,20.3515202 C91.5665357,20.3515202 91.8044024,20.3515202 92.0426842,20.3515202 C92.0426842,20.2920512 92.0426842,20.2334082 92.0426842,20.1739392 C92.3693877,20.1442047 92.6965063,20.1148832 93.02404,20.0851487 C93.7866249,19.7138804 94.7538664,19.1712259 95.7003517,19.0200755 C95.797491,18.4947661 96.1939355,18.3142942 96.3246999,17.7778343 C96.4583702,17.230637 96.4662576,15.5783075 96.235448,15.2033225 C96.2014078,15.1471573 95.9137261,14.9931161 95.8788555,14.9373639 C95.8788555,14.8192519 95.8788555,14.7007269 95.8788555,14.5817889 C95.8194927,14.5817889 95.7601298,14.5817889 95.7003517,14.5817889 C95.4902984,14.2303436 95.3815356,13.1784858 95.1652554,12.8955951 C95.0465297,12.8662736 94.9273887,12.8365391 94.8082478,12.8068046 C94.6509154,12.661023 94.2366205,11.9337667 94.0946477,11.830522 C93.826892,11.8012004 93.5591363,11.7714659 93.2917957,11.7417314 C92.8721042,11.4993127 93.3478376,11.3898732 92.3992767,11.3869824 C92.1294454,11.8284571 90.6258622,12.3855659 90.0795575,12.6296366 C89.7823279,12.6296366 89.4850983,12.6296366 89.1874536,12.6296366 C87.9732126,13.1768339 86.5709199,13.3395477 84.726519,13.3399606 C84.8556229,12.7890465 85.2960706,12.5875127 85.529371,12.186097 C85.55926,11.9193125 85.589149,11.6533539 85.6186229,11.3869824 C85.6779857,11.3869824 85.7373486,11.3869824 85.7967115,11.3869824 C85.993896,11.0813778 86.0063497,10.8302865 86.2433862,10.5882808 C86.2433862,10.5585463 86.2433862,10.5288118 86.2433862,10.4994902 C86.392001,10.4994902 86.5406158,10.4994902 86.6892306,10.4994902 C86.8295429,10.4214372 87.0732213,10.1178975 87.224742,10.0551247 C87.3733568,10.0551247 87.5223867,10.0551247 87.6705864,10.0551247 C87.6705864,9.99648167 87.6705864,9.93701268 87.6705864,9.87836964 C88.027594,9.87836964 88.3846016,9.87836964 88.7411941,9.87836964 C88.7411941,9.81890065 88.7411941,9.75984463 88.7411941,9.70037564 C89.0982017,9.67105412 89.4552093,9.6417326 89.8118018,9.61158513 C89.8118018,9.55294209 89.8118018,9.49306012 89.8118018,9.43400411 C90.0500836,9.43400411 90.2879503,9.43400411 90.525817,9.43400411 C90.525817,9.37494809 90.525817,9.31589208 90.525817,9.25683606 C91.0908023,9.25683606 91.6557876,9.25683606 92.2207729,9.25683606 C92.2394535,9.24775052 92.4171271,9.01111348 92.4885286,8.99046453 C93.1128768,8.99046453 93.7376401,8.99046453 94.3619883,8.99046453 C94.3619883,8.93140851 94.3619883,8.87193952 94.3619883,8.8128835 C94.659633,8.8128835 94.9568626,8.8128835 95.2545073,8.8128835 C95.2545073,8.75382749 95.2545073,8.6943585 95.2545073,8.63530248 C95.7302407,8.63530248 96.2063893,8.63530248 96.6821227,8.63530248 C97.2989986,8.5043881 98.7025367,8.41064184 99.2691825,8.36893095 C99.4186275,8.01500784 99.7361982,7.63506705 99.8939458,7.30385779 C100.029692,7.01848922 100.0409,5.0741835 99.8939458,4.81854943 C99.8345829,4.81854943 99.7748049,4.81854943 99.715442,4.81854943 C99.5552037,4.57654366 99.6120758,4.36262048 99.4476863,4.10863831 C99.3883234,4.10863831 99.3285454,4.10863831 99.2691825,4.10863831 C99.2691825,3.99011331 99.2691825,3.87200128 99.2691825,3.75388925 L98.4659153,3.22114618 C98.4659153,3.19141168 98.4659153,3.16209017 98.4659153,3.13235567 C98.3347358,2.79164789 98.2608435,2.25560099 98.1989899,1.978492 C98.079849,1.978492 97.9607081,1.978492 97.8415672,1.978492 C97.4638033,0.787047229 95.2370721,0.910527987 94.0946477,1.17979038 C93.6189143,1.17979038 93.1427658,1.17979038 92.6670324,1.17979038 C92.6670324,1.23884639 92.6670324,1.2979024 92.6670324,1.3573714 C92.5180025,1.3573714 92.3693877,1.3573714 92.2207729,1.3573714 C92.2207729,1.41642741 92.2207729,1.47589641 92.2207729,1.53495242 C91.6258986,1.56427394 91.0314394,1.59400844 90.4365651,1.62332995 C90.4365651,1.68279895 90.4365651,1.74185496 90.4365651,1.80091098 C90.2580613,1.80091098 90.0795575,1.80091098 89.9010537,1.80091098 C89.9010537,1.86037997 89.9010537,1.91943598 89.9010537,1.978492 C89.722965,1.978492 89.5444612,1.978492 89.3659574,1.978492 C89.3659574,2.03754801 89.3659574,2.09701701 89.3659574,2.15607302 C88.8308611,2.18539454 88.2953497,2.21512904 87.7598383,2.24486353 C87.7598383,2.30391955 87.7598383,2.36297556 87.7598383,2.42244456 C87.5817496,2.42244456 87.4032458,2.42244456 87.224742,2.42244456 C87.224742,2.48150057 87.224742,2.54055659 87.224742,2.60002558 C86.7490086,2.62976008 86.2728601,2.65908159 85.7967115,2.68840311 C85.7967115,2.7478721 85.7967115,2.80692812 85.7967115,2.86598413 C85.1051131,3.16580698 84.6920636,2.36380152 84.0129189,2.68840311 C84.0129189,2.7478721 84.0129189,2.80692812 84.0129189,2.86598413 C83.8933628,2.86598413 83.774637,2.86598413 83.6559112,2.86598413 C83.5994542,2.90067438 83.4446126,3.18686891 83.3881555,3.22114618 C83.2694298,3.22114618 83.1502888,3.22114618 83.0315631,3.22114618 C83.001674,3.30993669 82.971785,3.3987272 82.941896,3.48751771 C82.7638073,3.48751771 82.5853035,3.48751771 82.4067997,3.48751771 C82.4067997,3.54657373 82.4067997,3.60562974 82.4067997,3.66509874 C82.0057889,3.88810746 81.2876224,3.72415475 80.8903476,3.93105729 C80.8903476,3.99011331 80.8903476,4.0495823 80.8903476,4.10863831 C80.430389,4.40020158 79.8500441,4.56291535 79.5515691,4.99613045 C78.8450261,6.02444847 79.2767563,8.24503721 78.7487171,9.43400411 C78.7487171,9.73011014 78.7487171,10.0258032 78.7487171,10.3219092 C78.7159222,10.4102868 78.5191529,10.444977 78.4809614,10.4994902 C78.3431398,10.6964813 78.4469211,10.9124694 78.3028727,11.1206108 C78.2136208,11.1503453 78.1243689,11.1796669 78.035117,11.2094014 C78.035117,11.3275134 78.035117,11.4464514 78.035117,11.5645634 C78.001907,11.6178377 77.7088286,11.7776606 77.6781094,11.830522 C77.6482204,12.0374245 77.6187465,12.24474 77.5888575,12.4520555 C77.1438433,13.1983088 76.7075468,14.223736 76.3401611,15.0261544 C76.3401611,15.3809035 76.3401611,15.7360655 76.3401611,16.0912276 C76.1649783,16.4864486 76.0051551,17.1183066 75.8939016,17.6002533 C75.8939016,17.8666248 75.8939016,18.1321704 75.8939016,18.3985419 C75.6975474,18.8412555 75.5688586,19.5495147 75.4476421,20.0851487 C75.4476421,20.3808417 75.4476421,20.6769477 75.4476421,20.9730538 C75.3882792,20.9730538 75.3289163,20.9730538 75.2695534,20.9730538 C75.2695534,21.2385994 75.2695534,21.5053839 75.2695534,21.7713424 C74.7867629,22.8554126 75.0184027,23.678067 75.4476421,24.6113999 C75.4775311,25.0260309 75.507005,25.440249 75.536894,25.854467 C75.5655376,25.9036115 75.8594462,25.9820776 75.8939016,26.032461 C75.9233755,26.210042 75.9532645,26.3867971 75.9827384,26.5643781 C76.0425164,26.5643781 76.1018793,26.5643781 76.1612422,26.5643781 C76.1612422,26.7712807 76.1612422,26.9790092 76.1612422,27.1854987 C76.2210202,27.1854987 76.2803831,27.1854987 76.3401611,27.1854987 C76.5066263,27.5113393 76.3812585,27.9090381 76.6075017,28.1621944 C76.7262275,28.1919288 76.8453684,28.2212504 76.9645093,28.2509849 C76.9939832,28.3984184 77.0238722,28.5470909 77.0537612,28.6945244 C77.1131241,28.6945244 77.1729021,28.6945244 77.2318499,28.6945244 C77.2318499,28.8130494 77.2318499,28.9315745 77.2318499,29.0500995 C77.2750229,29.1174151 77.5394576,29.2491554 77.5888575,29.315645 C77.6187465,29.4639045 77.6482204,29.6121641 77.6781094,29.7600106 C77.7374723,29.7600106 77.7972503,29.7600106 77.8566132,29.7600106 C77.8566132,29.9375916 77.8566132,30.1147596 77.8566132,30.2923407 L78.3028727,30.7367062 C78.5324369,30.9254377 78.8392144,30.8378861 79.1053096,31.0022518 C79.1584456,31.0344642 79.3211746,31.3276793 79.3734804,31.3570008 C79.640821,31.3871483 79.9085767,31.4164698 80.1763324,31.4462043 C80.2128634,31.4660273 80.4079722,31.7831953 80.443673,31.8013664 C80.8006806,31.8013664 81.1581033,31.8013664 81.5142807,31.8013664 C81.6691224,31.8575315 81.8318514,32.1713957 81.9605402,32.2453189 C82.3582301,32.4720445 82.7069352,32.2721626 83.2096517,32.4229 C83.2814684,32.4439619 83.4578966,32.679773 83.4774074,32.6888585 C84.1017556,32.6888585 84.726519,32.6888585 85.3508671,32.6888585 C85.5256348,32.7698024 85.7788612,33.1233126 86.2433862,32.9552301 C86.3712447,32.9085634 86.5588813,32.5327524 86.5999787,32.5108645 C87.1670396,32.2114547 87.8212768,33.3087402 88.5626903,32.8664395 C88.6635657,32.8061446 88.7258344,32.4852598 88.830446,32.4229 C88.9495869,32.4229 89.0687278,32.4229 89.1874536,32.4229 C89.1874536,32.363431 89.1874536,32.303962 89.1874536,32.2453189 C89.4253203,32.2453189 89.663187,32.2453189 89.9010537,32.2453189 C89.9010537,32.1858499 89.9010537,32.1267939 89.9010537,32.0673249 C90.3028948,31.8748767 90.6349949,32.0334606 90.9716614,31.8013664 C91.3216119,31.5601866 91.5603088,31.1273845 92.0426842,31.0022518" id="Fill-4"></path>
                    <path d="M53.8202472,26.2428181 C53.8202472,26.039901 53.8202472,25.836984 53.8202472,25.6344712 C53.7604689,25.6344712 53.7006907,25.6344712 53.6409124,25.6344712 C53.6409124,25.4897614 53.6409124,25.3446475 53.6409124,25.1999377 C53.5811341,25.1999377 53.5209378,25.1999377 53.4611596,25.1999377 C53.1409487,24.6223114 53.1873501,23.9226114 52.3830607,23.810239 C52.3529626,23.6651251 52.3228644,23.5204153 52.2931843,23.3757055 C51.4888949,23.2851609 51.1055616,22.680452 50.5859506,22.3328252 C50.466394,22.3328252 50.3464195,22.3328252 50.226863,22.3328252 C50.226863,22.2758306 50.226863,22.2176233 50.226863,22.1598202 C50.0471101,22.1303124 49.8673573,22.1020172 49.6880225,22.0725093 C49.6880225,22.0147063 49.6880225,21.9569032 49.6880225,21.8986959 C49.568048,21.8986959 49.4480734,21.8986959 49.3280989,21.8986959 C48.5426209,21.4099974 47.3487277,20.5231449 46.9921483,19.6399303 C47.3503999,19.4721802 47.5916031,19.0982793 47.6212832,18.5974542 C47.7408397,18.5974542 47.8608142,18.5974542 47.9807888,18.5974542 C48.1751727,18.2688256 48.4623591,18.2659961 48.6095056,18.076014 C48.6095056,17.9604079 48.6095056,17.8443976 48.6095056,17.7291957 C48.6998001,17.5226407 48.9522901,17.2930453 49.0588877,17.1208488 C49.0885678,16.918336 49.1186659,16.7154189 49.1487641,16.5125019 C49.2683206,16.4838025 49.3882952,16.4542946 49.5078517,16.4259994 C49.5078517,16.2808855 49.5078517,16.1361757 49.5078517,15.991466 C49.6884406,15.6680922 49.9731189,15.094508 50.1369866,14.7751764 C50.1670847,14.4275497 50.1967648,14.0799229 50.226863,13.7327003 C50.2866412,13.7327003 50.3464195,13.7327003 50.4061977,13.7327003 C50.4061977,13.6170942 50.4061977,13.5010839 50.4061977,13.3854778 C50.4333697,13.3418223 50.7439658,13.166392 50.7657034,13.1243535 C50.943366,12.7868321 50.9316612,9.72812064 50.7657034,9.38898242 C50.7059251,9.38898242 50.6461469,9.38898242 50.5859506,9.38898242 C50.5859506,9.04135564 50.5859506,8.69372886 50.5859506,8.34650629 C50.5261723,8.34650629 50.466394,8.34650629 50.4061977,8.34650629 C50.2214286,7.95562827 50.3526899,7.39740434 50.1369866,7.04331008 C50.0767903,7.04331008 50.017012,7.04331008 49.9572337,7.04331008 C49.9572337,6.92729975 49.9572337,6.81169363 49.9572337,6.6956833 C49.8974555,6.6956833 49.8372592,6.6956833 49.7774809,6.6956833 C49.7478008,6.49317049 49.7177027,6.29025346 49.6880225,6.08733643 C49.6587605,6.04044724 49.3561069,5.87431397 49.3280989,5.82702056 C49.1286987,5.48788234 49.2804435,5.09902541 49.0588877,4.78454443 C49.0183388,4.72674138 48.740349,4.6685341 48.699382,4.61073104 C48.6697019,4.40821823 48.6396038,4.2053012 48.6095056,4.00278839 C48.4895311,3.97368476 48.3699746,3.94498534 48.25,3.9158817 C48.25,3.79987137 48.25,3.68426525 48.25,3.56825492 C48.1174846,3.39969635 47.7621592,3.30066314 47.6212832,3.13372144 C47.4561614,2.93808032 47.5121774,2.63734273 47.3516539,2.43887209 C47.2914577,2.36409191 47.058197,2.33822201 46.9921483,2.2650587 C46.9624682,2.14945259 46.93237,2.03344226 46.9026899,1.91743192 C46.7827154,1.8887325 46.6631589,1.85962886 46.5431843,1.83092944 C46.5130862,1.71491911 46.483406,1.59890878 46.4533079,1.48330266 C46.2735551,1.45419903 46.0942203,1.4254996 45.9144675,1.39639597 C45.8304435,1.33738026 45.5165031,0.905272084 45.4646674,0.874955795 C45.1653581,0.846256375 44.8660487,0.817152737 44.5667394,0.788453317 C44.5241003,0.765817155 44.3405852,0.464271132 44.2971101,0.440826536 C43.9677027,0.411722898 43.6382952,0.383023478 43.3088877,0.35391984 C43.3088877,0.295712565 43.3088877,0.237909507 43.3088877,0.18010645 C43.159233,0.18010645 43.0091603,0.18010645 42.8595056,0.18010645 C42.8595056,0.122303392 42.8595056,0.0645003338 42.8595056,0.00629305879 C42.7324246,-0.0494889131 39.7844784,0.281969181 39.625209,0.35391984 C39.2397855,0.528137448 38.460578,0.461441612 38.0977281,0.614639926 C37.7386405,0.614639926 37.3791349,0.614639926 37.0196292,0.614639926 C37.0196292,0.672442984 37.0196292,0.730246042 37.0196292,0.788453317 C36.7800981,0.817152737 36.5405671,0.846256375 36.301036,0.874955795 C36.2391676,0.915377514 36.1827336,1.18013977 36.1212832,1.22258258 C36.0017266,1.22258258 35.8817521,1.22258258 35.7621956,1.22258258 C35.5368775,1.41256465 35.5460742,1.89924215 35.3123955,2.09124531 C35.1247001,2.24565628 34.828317,2.25333641 34.6836787,2.43887209 C34.6539985,2.58358185 34.6239004,2.7282916 34.5942203,2.87340557 C34.4742457,2.90250921 34.3542712,2.93120863 34.2347146,2.95990805 C34.2046165,3.30753483 34.1749364,3.65516161 34.1448382,4.00278839 C33.5746456,4.97331386 33.4379498,6.95114856 34.2347146,7.91197282 C34.2907306,7.97947709 34.5419666,8.0174735 34.5942203,8.08538199 C34.8299891,8.39582079 34.6473101,8.52395764 35.0431843,8.69372886 C35.1397492,8.75880782 35.1280443,8.74627709 35.3123955,8.78063555 C35.3546165,10.3675922 34.7639404,12.2164816 34.2347146,13.2981668 C34.2046165,13.5875863 34.1749364,13.8770059 34.1448382,14.1668296 C33.8589059,14.5548781 32.9254453,14.7735596 32.2582697,14.7751764 C31.9727554,15.4000962 31.1592694,16.0630124 31,16.6863153 C31,16.7154189 31,16.7441184 31,16.773222 C31.0025082,16.9680547 31.1438023,16.7562449 31.1801708,16.8601287 C31.1801708,17.2364549 31.1801708,17.6127811 31.1801708,17.9891073 C31.1801708,18.4527444 31.1801708,18.9159773 31.1801708,19.3796144 C31.5990367,20.2434266 32.8460196,21.1318959 32.5274809,22.5066386 C32.0860414,24.4149479 31.4673573,27.9955038 32.2582697,29.6309665 C32.2582697,29.8330751 32.2582697,30.0359922 32.2582697,30.238505 C32.3723919,30.4511232 33.0111414,31.6051633 33.1566158,31.7155146 C33.2761723,31.7155146 33.3961469,31.7155146 33.5161214,31.7155146 C33.5458015,31.8311207 33.5758997,31.947131 33.6055798,32.0635456 C33.7251363,32.092245 33.8455289,32.1209444 33.9650854,32.1496438 C34.0704289,32.23938 34.1164122,32.5158646 34.2347146,32.5845815 C34.3542712,32.5845815 34.4742457,32.5845815 34.5942203,32.5845815 C34.5942203,32.6423846 34.5942203,32.7005919 34.5942203,32.7583949 C34.9675209,32.9411011 35.7212286,32.7434389 35.7621956,32.7583949 C35.7621956,32.816198 35.7621956,32.874001 35.7621956,32.9322083 C36.4042893,33.1751428 37.1115958,32.7026129 37.3791349,32.4976748 C39.3906943,30.7413511 37.2729553,26.6963497 38.2774809,24.5919951 C38.5671756,23.9844566 38.0843511,23.5749846 38.7264449,23.2022964 C38.9162305,23.0967957 38.9270992,23.1598536 39.175827,23.2022964 C39.2527445,23.7112058 39.7150854,24.0337711 40.074173,24.2443683 C40.1941476,24.2443683 40.3137041,24.2443683 40.4336787,24.2443683 C40.6355871,24.4003961 40.6598328,24.8907116 40.8830607,25.0261243 C41.0929117,25.0261243 41.3023446,25.0261243 41.5117775,25.0261243 C41.6752272,25.125966 41.9716103,25.6854026 42.1409124,25.8086888 C42.2905671,25.8373882 42.4402217,25.8660876 42.5902944,25.8951913 C42.6199746,26.0112016 42.6500727,26.1268077 42.6797528,26.2428181 C42.8595056,26.2715175 43.0392585,26.3002169 43.2190113,26.3293205 C43.3431661,26.4222905 43.7637041,27.1385634 43.9376045,27.28489 C44.1165213,27.4352588 44.379462,27.3996877 44.5667394,27.5456101 C44.9082697,27.811585 45.1624318,28.2744136 45.4646674,28.5880862 C45.5340603,28.6596326 45.7669029,28.6871194 45.824173,28.7623038 C45.8542712,28.9066093 45.8843693,29.0517233 45.9144675,29.1964331 C46.0356961,29.3354838 46.3199564,29.3282079 46.4533079,29.4571531 C46.483406,29.5727593 46.5130862,29.6887696 46.5431843,29.8043757 C46.7011996,29.9753596 47.0243366,30.0590325 47.1719011,30.238505 C47.2851872,30.3767472 47.5054889,30.936588 47.6212832,31.020261 C47.9251908,31.2421762 50.4316976,31.4543903 51.0353326,31.4551987 C51.153635,31.1508232 51.2456016,31.0554279 51.6644675,31.020261 C51.868466,29.7578907 53.2237186,29.0784016 53.8202472,28.1539569 C53.8202472,28.008843 53.8202472,27.8645374 53.8202472,27.7190192 C53.8804435,27.7190192 53.9402217,27.7190192 54,27.7190192 C54,27.2274911 54,26.7347504 54,26.2428181 C53.9402217,26.2428181 53.8804435,26.2428181 53.8202472,26.2428181 Z M44.3869866,10.6052719 C44.2130862,10.8979252 44.141185,11.5567992 43.9376045,11.8211572 C43.6157216,12.2399262 41.7488004,13.8390094 41.1526899,13.9061095 C40.9415849,14.0403096 40.7681025,13.9574451 40.5235551,13.9061095 C40.5235551,13.7040009 40.5235551,13.5010839 40.5235551,13.2981668 C41.0486005,12.9606455 40.6059069,12.2653919 40.8830607,11.6477481 C41.364631,10.5729346 41.3445656,8.83722596 41.3324427,7.30403017 C41.5063431,7.24218494 41.6564158,7.15446981 41.7814068,7.04331008 C43.2047983,7.27937292 44.2206107,8.11771936 44.7464922,9.21516903 C45.0169575,9.78066888 44.5215921,10.3785061 44.3869866,10.6052719 Z" id="Fill-5"></path>
                    <path d="M147.726637,8.22007702 C147.697056,7.81223149 147.667886,7.40438595 147.638305,6.99654042 C147.413571,6.53258054 147.081194,5.89621138 146.843724,5.42330574 C146.843724,5.24845671 146.843724,5.07360768 146.843724,4.89875864 C146.790314,4.81702689 146.458348,4.72594274 146.402473,4.63689172 C146.402473,4.49131973 146.402473,4.34534112 146.402473,4.19976914 C146.3429,4.19976914 146.284148,4.19976914 146.225397,4.19976914 C146.072972,4.01475446 146.114468,3.79680311 145.9604,3.58820415 C145.912331,3.52314404 145.655961,3.47841522 145.607481,3.41335511 C145.5779,3.26778313 145.548319,3.12221114 145.519149,2.97623253 C145.401235,2.97623253 145.283322,2.97623253 145.165819,2.97623253 C144.750451,2.60945619 144.905752,1.87834325 144.106652,1.75269593 C143.484627,1.33834438 143.429574,1.84784633 143.046252,1.66567803 C143.046252,1.60753057 143.046252,1.54897647 143.046252,1.490829 C142.830146,1.36070879 142.658411,1.45504594 142.428747,1.31597997 C142.326446,1.25417287 142.262353,0.935784978 142.163339,0.878857385 C141.604585,0.878857385 141.044598,0.878857385 140.485845,0.878857385 C140.485845,0.820709916 140.485845,0.762155821 140.485845,0.704008352 C140.044593,0.675137931 139.602931,0.645860883 139.161269,0.616990461 C139.161269,0.558436367 139.161269,0.500288897 139.161269,0.442141428 C138.602105,0.442141428 138.04294,0.442141428 137.483775,0.442141428 C137.483775,0.383587334 137.483775,0.325439864 137.483775,0.267292395 C137.138252,0.110741517 135.796421,0.392939724 135.629616,0.0924433622 C135.600035,0.0631663148 135.570454,0.0338892673 135.541284,0.0050188456 C135.371604,0.122127035 135.160838,0.135952308 134.922957,0.267292395 C134.922957,0.325439864 134.922957,0.383587334 134.922957,0.442141428 C134.224926,0.774354591 133.805449,-0.0449961104 133.068387,0.179867879 C132.760251,0.273798406 132.733957,0.527939442 132.362139,0.616990461 C132.208892,0.346991024 131.648084,0.0745518332 131.302972,0.0050188456 C131.13288,0.27339178 130.316935,0.279491165 129.889653,0.267292395 C129.917591,0.688556577 130.098775,0.562502623 129.889653,0.704008352 C129.700252,1.12811891 128.679705,1.46033208 128.123827,1.490829 C127.945108,1.21269705 127.939356,1.43593454 127.593832,1.31597997 C127.378548,1.24116085 127.298843,0.958556014 127.152581,0.878857385 C126.609439,0.583647157 126.177638,1.14316406 126.004671,1.22855545 C125.327592,1.2578325 124.650514,1.28670292 123.973847,1.31597997 C123.858398,1.55060297 123.67023,1.49326876 123.532185,1.66567803 C123.360039,1.88037638 123.502193,2.09588798 123.355931,2.36466754 C123.192824,2.66272415 122.222811,2.55496835 121.766358,2.53951657 C121.64598,2.74811554 121.498074,2.74852216 121.236364,2.8013835 C121.085993,3.47882185 120.631184,3.68335455 120.530115,4.37461817 C120.412613,4.37461817 120.29511,4.37461817 120.177197,4.37461817 C120.001353,3.40481598 119.63652,2.12231865 118.852621,1.75269593 C118.757715,1.68722919 118.768808,1.70024122 118.587213,1.66567803 C118.587213,1.54897647 118.587213,1.43227491 118.587213,1.31597997 C117.391233,1.20537779 117.151709,0.318120603 115.850141,1.05370642 C115.732228,1.05370642 115.614725,1.05370642 115.497222,1.05370642 C115.028033,1.38998584 114.865748,2.41102287 114.613487,2.97623253 C114.613487,3.38407807 114.613487,3.79233023 114.613487,4.19976914 C114.555147,4.19976914 114.495985,4.19976914 114.437644,4.19976914 C114.281522,4.55881959 114.571992,4.9630055 114.613487,5.07360768 C114.749478,5.43143826 114.445861,5.49039898 114.437644,5.51073026 C114.437644,6.06414778 114.437644,6.6175653 114.437644,7.17138945 C114.187848,8.32539307 114.172236,9.58471273 114.172236,11.0164417 C114.172236,11.6284133 114.172236,12.2399783 114.172236,12.8515433 C114.113896,12.8515433 114.054734,12.8515433 113.995571,12.8515433 C113.995571,13.3760904 113.995571,13.9006375 113.995571,14.4243713 C113.911758,14.9781955 113.790147,15.8670792 113.730985,16.3477107 C113.613482,16.3477107 113.495569,16.3477107 113.378066,16.3477107 C113.2203,15.8121847 112.78439,15.518601 112.494742,15.1237674 C112.141823,14.6427293 111.98529,14.1023238 111.611829,13.6383639 C111.47666,13.4704275 111.121687,13.369991 110.993502,13.2012413 C110.993502,13.0849464 110.993502,12.9682448 110.993502,12.8515433 C110.894487,12.7218297 110.301633,12.3761979 110.198921,12.2399783 C110.169751,12.0944063 110.14017,11.9488343 110.110589,11.8028557 C109.992675,11.7739853 109.875173,11.7447082 109.75767,11.7154312 C109.75767,11.5991362 109.75767,11.4824347 109.75767,11.3661397 C109.714942,11.281155 109.536223,11.2494382 109.492673,11.1912907 C109.492673,11.1038662 109.492673,11.0164417 109.492673,10.9290172 C109.356271,10.7602675 108.9976,10.6720297 108.874346,10.4923012 C108.874346,10.3760063 108.874346,10.2588981 108.874346,10.1426031 C108.815595,10.1426031 108.756843,10.1426031 108.697681,10.1426031 C108.6681,9.9677541 108.63893,9.79331169 108.609349,9.61805604 C108.550597,9.61805604 108.491846,9.61805604 108.433095,9.61805604 C108.433095,9.26876459 108.433095,8.9186599 108.433095,8.56936846 C108.255608,8.18470059 107.735885,6.93229356 108.079765,6.12270188 C108.138516,6.12270188 108.197268,6.12270188 108.25643,6.12270188 L107.991433,3.41335511 C107.932681,3.41335511 107.873519,3.41335511 107.815179,3.41335511 C107.815179,3.26778313 107.815179,3.12221114 107.815179,2.97623253 C107.756016,2.97623253 107.697265,2.97623253 107.638514,2.97623253 C107.608933,2.62694109 107.578941,2.27724302 107.549771,1.92754496 C107.272448,1.41438338 106.309419,0.808104521 105.695612,0.616990461 C105.252717,0.478737738 105.015247,0.628782606 104.636034,0.442141428 C104.636034,0.383587334 104.636034,0.325439864 104.636034,0.267292395 C104.430199,0.267292395 104.223953,0.267292395 104.017707,0.267292395 C103.945397,0.24533461 103.75312,0.0050188456 103.75312,0.0050188456 C103.629044,-0.0413364794 102.86199,0.248180989 102.516877,0.267292395 C102.192307,1.00735109 101.257216,1.22286269 100.839383,1.75269593 C100.617525,2.03367426 100.739958,2.62897422 100.574386,2.97623253 C100.515224,2.97623253 100.456473,2.97623253 100.397721,2.97623253 C100.397721,3.5589271 100.397721,4.14162167 100.397721,4.72431624 C100.397721,5.27326088 100.151212,7.36616314 100.221056,7.52108751 C100.441271,8.01025818 100.855406,8.72917235 100.662308,9.61805604 C100.456473,10.5695601 100.397721,11.4909738 100.397721,12.6771009 C100.397721,13.2305184 100.397721,13.7835293 100.397721,14.3373534 C100.338559,14.3373534 100.279808,14.3373534 100.221056,14.3373534 C100.191475,15.0070659 100.162305,15.6775916 100.132724,16.3477107 C99.3455385,18.0966076 99.3159574,20.5432742 98.5431516,22.2897314 C98.5431516,22.697577 98.5431516,23.1058291 98.5431516,23.5136747 C98.1450395,25.1336713 97.596146,27.3571004 98.4548192,29.0189794 C98.7814436,29.6512823 98.5102837,30.0424562 99.3381433,30.2425161 C99.3381433,30.3303472 99.3381433,30.4181783 99.3381433,30.5047896 C99.7567978,30.5942472 100.073151,30.8817316 100.397721,31.0289301 C100.75064,31.0289301 101.104381,31.0289301 101.457299,31.0289301 C102.177517,31.1940201 102.388282,31.45914 103.399791,31.4664593 C103.399791,31.3501643 103.399791,31.2330562 103.399791,31.1167612 C103.458953,31.1167612 103.517704,31.1167612 103.576456,31.1167612 C103.670951,31.0504812 103.659858,31.0643065 103.841453,31.0289301 C103.916227,30.4905577 104.293386,30.4507084 104.459369,30.067667 C104.607685,29.7256948 104.467997,29.5244151 104.636034,29.1942351 C104.694785,29.1942351 104.753947,29.1942351 104.812698,29.1942351 C104.812698,28.9319616 104.812698,28.669688 104.812698,28.4074145 C104.893636,28.0528369 105.226423,26.3966506 105.077285,26.0477658 C105.033324,25.9444828 104.748606,25.6077968 104.901031,25.2617584 C104.959782,25.2617584 105.018533,25.2617584 105.077285,25.2617584 C105.077285,24.9702078 105.077285,24.6786572 105.077285,24.3871066 C105.136447,24.3871066 105.195198,24.3871066 105.25395,24.3871066 C105.25395,24.1833871 105.25395,23.9796677 105.25395,23.7759482 C105.313112,23.7759482 105.371863,23.7759482 105.430614,23.7759482 C105.460195,23.2806782 105.489366,22.7850015 105.518947,22.2897314 C105.577698,22.2897314 105.63686,22.2897314 105.695612,22.2897314 C105.695612,22.1445661 105.695612,21.9981808 105.695612,21.8530155 C105.754363,21.8530155 105.813114,21.8530155 105.872276,21.8530155 C105.901447,21.4158929 105.931028,20.9795836 105.960609,20.542461 C106.2178,20.0073416 106.481565,19.4356259 106.578525,18.7073594 C106.696438,18.7073594 106.813941,18.7073594 106.931855,18.7073594 C107.101124,19.150988 107.56867,19.2461384 107.815179,19.5807913 C107.815179,19.6970862 107.815179,19.8137878 107.815179,19.9304894 C107.873519,19.9304894 107.932681,19.9304894 107.991433,19.9304894 C108.021014,20.1342088 108.050184,20.3387415 108.079765,20.542461 C108.138516,20.542461 108.197268,20.542461 108.25643,20.542461 C108.25643,20.688033 108.25643,20.8331983 108.25643,20.9795836 C108.373932,21.008454 108.491846,21.0369178 108.609349,21.0661948 C108.79382,21.3150497 108.695627,21.6236786 108.874346,21.8530155 C108.951996,21.9522321 109.245342,22.0193254 109.316008,22.1156956 C109.316008,22.2323972 109.316008,22.3482855 109.316008,22.4645805 C109.361201,22.5337068 109.618392,22.6585409 109.668927,22.726854 C109.698508,22.8728326 109.728089,23.017998 109.75767,23.1643832 C109.816421,23.1643832 109.875173,23.1643832 109.933924,23.1643832 C109.933924,23.2806782 109.933924,23.3973797 109.933924,23.5136747 C109.992675,23.5136747 110.051837,23.5136747 110.110589,23.5136747 C110.268765,23.7609031 110.20303,23.9918664 110.375586,24.2126642 C110.422423,24.2724381 110.689063,24.326926 110.728505,24.3871066 C110.758086,24.5916393 110.787667,24.7953587 110.817248,24.9990782 C110.89079,25.1027677 111.190298,25.1515628 111.258499,25.2617584 C111.395723,25.4813362 111.286848,25.6805828 111.435164,25.8733234 C111.482412,25.9347238 111.746176,25.9851454 111.788494,26.0477658 C112.151684,26.5849183 112.145521,27.9865569 112.318077,28.7575191 C112.318077,29.0486631 112.318077,29.3398071 112.318077,29.6313577 C112.524734,30.0648206 112.886691,30.6198647 113.113069,31.0289301 C113.113069,31.1749087 113.113069,31.3204807 113.113069,31.4664593 C113.186611,31.5734018 113.816852,31.9584763 113.90765,32.0784309 C114.051447,32.2675118 114.069113,32.6273755 114.349312,32.7774204 C114.996398,32.7774204 115.644306,32.7774204 116.291392,32.7774204 C116.558033,33.1966515 118.022707,32.5777672 118.587213,32.5151469 C118.771684,31.8088381 119.336601,31.0390957 119.646791,30.4181783 C119.676783,29.9225017 119.705953,29.4272316 119.735124,28.9319616 C119.794286,28.9319616 119.853037,28.9319616 119.911789,28.9319616 C119.911789,28.7278355 119.911789,28.524116 119.911789,28.3203966 C119.97054,28.3203966 120.029702,28.3203966 120.088453,28.3203966 C120.088453,27.883274 120.088453,27.446558 120.088453,27.0094354 C120.088453,26.4848883 120.088453,25.9611545 120.088453,25.4366074 C119.808255,24.8307352 119.396174,23.8784179 119.646791,22.726854 C119.718279,22.3995204 119.561746,21.4594018 119.735124,21.0661948 C120.163639,20.0963926 119.83496,19.2587438 120.088453,18.0949811 C120.419186,16.575421 120.177197,14.4503954 120.177197,12.7641188 C120.177197,11.7646329 120.198561,10.6915478 119.911789,10.054772 C119.675962,9.53144477 120.057229,8.96582848 120.088453,8.56936846 C120.980405,8.62263642 121.012451,9.15368953 121.589693,9.443207 C122.307035,9.80307071 123.679679,9.42043597 124.415098,9.26876459 C124.415098,9.18093345 124.415098,9.09391556 124.415098,9.00649104 C124.845256,8.94956345 124.786916,8.7950457 125.033425,8.65679298 C125.425374,8.43721512 126.123406,8.59457925 126.534254,8.39451943 C127.403609,7.97203537 127.758172,7.74676476 128.830075,7.95739685 C128.844455,9.42694198 128.561791,10.9399961 128.388824,12.1529604 C127.719141,12.2306259 127.366633,12.4099478 126.534254,12.4148273 C126.301714,12.840971 125.775828,13.1073108 125.474676,13.4635149 C125.445506,13.6094935 125.415514,13.7546589 125.386344,13.9006375 C125.3506,13.9502458 125.061363,14.0258782 125.033425,14.0750799 C125.033425,14.4243713 125.033425,14.774476 125.033425,15.1237674 C124.974263,15.3209809 124.674754,15.7276066 124.591763,15.9105881 C124.33375,16.4786441 125.054378,18.714272 125.21009,18.9688197 C125.337042,19.1778253 125.889633,19.7239235 126.093003,19.9304894 C126.210916,19.9597664 126.328419,19.9886368 126.445922,20.0179139 C126.475092,20.1927629 126.505084,20.3676119 126.534254,20.542461 C127.157511,21.1987548 127.896627,20.5603525 127.947162,22.0278645 C127.631219,22.2332105 127.934015,22.3641439 127.770908,22.726854 C127.711746,22.726854 127.652994,22.726854 127.593832,22.726854 C127.564662,23.7466712 127.535492,24.7664883 127.5055,25.7863055 C127.426206,25.9705069 127.007141,27.0248872 127.152581,27.3587269 C127.211332,27.3587269 127.270084,27.3587269 127.329246,27.3587269 C127.585615,27.9524003 127.280766,29.5435265 127.5055,30.2425161 C127.580685,30.4755126 127.83952,30.5214613 127.947162,30.6796386 C127.947162,30.7959336 127.947162,30.9126351 127.947162,31.0289301 C128.006324,31.0289301 128.065075,31.0289301 128.123827,31.0289301 C128.152997,31.2037791 128.182989,31.3790348 128.212159,31.5534772 C128.27091,31.5534772 128.329662,31.5534772 128.388824,31.5534772 C128.388824,31.6701787 128.388824,31.7868803 128.388824,31.9035819 L129.007151,32.3402978 C129.212986,32.3402978 129.419232,32.3402978 129.624656,32.3402978 C129.624656,32.3984453 129.624656,32.4565928 129.624656,32.5151469 C129.830902,32.5444239 130.036737,32.5728877 130.242983,32.6025714 C130.282013,32.6241225 130.470182,32.9335647 130.50798,32.9522694 C130.940603,33.1665612 132.499362,32.5944389 132.804212,32.5151469 C132.930753,32.0060515 133.311199,31.8377085 133.51046,31.4664593 C133.700272,31.1114751 133.502243,30.8089456 133.686303,30.4181783 C133.745876,30.4181783 133.804217,30.4181783 133.863379,30.4181783 C134.0384,30.0302575 133.883921,29.3617649 133.863379,29.1068106 C133.78655,28.1398548 133.949657,27.0358661 133.951711,25.9611545 C133.951711,25.5529023 133.951711,25.1450568 133.951711,24.7372113 C134.010052,24.7372113 134.069214,24.7372113 134.127965,24.7372113 C134.164942,24.4907961 133.817775,24.5676484 133.951711,24.2126642 C134.010052,24.2126642 134.069214,24.2126642 134.127965,24.2126642 C134.127965,23.8629661 134.127965,23.5136747 134.127965,23.1643832 C134.187128,23.1643832 134.24629,23.1643832 134.30463,23.1643832 C134.30463,22.9309801 134.30463,22.697577 134.30463,22.4645805 C134.363792,22.4645805 134.422544,22.4645805 134.481706,22.4645805 C134.510876,21.8245517 134.540046,21.183303 134.570038,20.542461 C134.708905,20.238305 134.885981,19.9544803 134.922957,19.4933668 C135.395433,19.4030959 136.194533,19.1599337 136.600451,18.9688197 C136.895029,18.9399493 137.189608,18.9110788 137.483775,18.8818018 C137.531845,18.8553711 137.699882,18.5617874 137.748362,18.5321037 C137.866275,18.5321037 137.983778,18.5321037 138.101691,18.5321037 C138.131272,18.4442726 138.160853,18.3572547 138.190024,18.2698302 C138.600872,18.0388668 139.646892,18.254785 140.044593,18.0075566 C140.169491,17.9307044 140.19784,17.5590485 140.308769,17.4838228 C140.632928,17.4545457 140.956677,17.4252687 141.280425,17.3959916 C141.572539,17.2552992 141.983798,17.0519863 142.340414,16.9592757 C142.593497,15.9923199 143.231545,15.1237674 144.459571,15.1237674 C144.488741,14.9781955 144.517911,14.8322169 144.547492,14.6870515 C144.780032,14.5882415 144.807559,14.3894015 144.900822,14.3373534 C145.194989,14.3080764 145.489567,14.2787993 145.784146,14.2499289 C145.922191,13.9286946 146.16377,13.5281684 146.402473,13.2890725 C146.489983,13.2597954 146.578727,13.2305184 146.667059,13.2012413 C146.667059,13.0849464 146.667059,12.9682448 146.667059,12.8515433 C146.784562,12.8226728 146.902475,12.7933958 147.019978,12.7641188 C147.049559,12.5603993 147.07914,12.3566798 147.10831,12.1529604 C147.167472,12.1529604 147.225813,12.1529604 147.284975,12.1529604 C147.284975,12.0362588 147.284975,11.9191506 147.284975,11.8028557 C147.312913,11.7577202 147.615297,11.5849043 147.638305,11.5409888 C147.667886,11.1912907 147.697056,10.8415926 147.726637,10.4923012 C147.785388,10.4923012 147.84414,10.4923012 147.903302,10.4923012 C148.151044,9.94620294 147.860163,8.51691375 147.726637,8.22007702 Z M140.308769,9.443207 C140.097182,9.6111434 139.830541,9.54283029 139.603342,9.70548055 C139.538839,9.75102263 139.490359,10.0096365 139.426267,10.054772 C139.279183,10.0844557 139.132099,10.1137327 138.985015,10.1426031 C138.861761,10.2340939 138.646476,10.5890781 138.543353,10.6667436 C138.337518,10.6960207 138.131272,10.7252977 137.925437,10.7541681 C137.925437,10.8127222 137.925437,10.8708697 137.925437,10.9290172 C137.777943,10.9290172 137.630859,10.9290172 137.483775,10.9290172 C137.483775,10.9871646 137.483775,11.0457187 137.483775,11.1038662 C137.277529,11.1331432 137.071283,11.1620137 136.865448,11.1912907 C136.820666,11.2189413 136.64359,11.5194376 136.600451,11.5409888 C136.070868,11.5409888 135.540873,11.5409888 135.011289,11.5409888 C135.011289,11.4824347 135.011289,11.4246938 135.011289,11.3661397 C134.468148,10.5951775 134.863795,9.19963823 134.481706,8.39451943 C134.268886,7.94804446 134.136182,7.93259268 134.127965,7.17138945 C135.804638,6.92212792 137.823136,6.92944718 139.161269,7.52108751 C139.367104,7.52108751 139.57335,7.52108751 139.779596,7.52108751 C140.482147,7.70406906 140.850267,7.90412889 140.838763,8.83164201 C140.567193,8.97436762 140.528162,9.27079772 140.308769,9.443207 Z" id="Fill-6"></path>
                    <path d="M243.999507,6.81821117 C243.999507,6.69846409 243.999507,6.578717 243.999507,6.45938716 C243.961557,6.26537185 243.864439,6.46898361 243.824449,6.36968115 C243.824449,5.80182129 243.824449,5.23396142 243.824449,4.66568432 C243.436791,3.884199 242.160376,2.05461377 241.45647,1.61693192 C240.527723,1.03905836 238.417231,1.60065967 237.246504,1.88604993 C236.723369,2.01372452 235.63303,1.87395005 235.229458,2.06546194 C235.229458,2.12512686 235.229458,2.18520902 235.229458,2.24487394 C234.878933,2.27449779 234.528001,2.30453887 234.177068,2.33416271 C234.177068,2.39424487 234.177068,2.45390979 234.177068,2.51357472 C233.982423,2.64166654 233.846947,2.56614661 233.651077,2.69298672 C233.651077,2.75265165 233.651077,2.81273381 233.651077,2.87239873 C232.744774,2.87239873 231.83847,2.87239873 230.932574,2.87239873 C230.317218,3.01509386 229.748789,3.09854131 229.266053,3.32092875 C228.67722,3.59213294 227.369793,3.29631175 226.722608,3.58962952 C226.372083,3.58962952 226.020743,3.58962952 225.66981,3.58962952 C225.66981,3.64929444 225.66981,3.7093766 225.66981,3.76904153 C225.524132,3.76904153 225.378046,3.76904153 225.231552,3.76904153 C225.231552,3.82870645 225.231552,3.88878861 225.231552,3.94845353 C224.765955,4.1700065 224.062049,3.88670242 223.740905,3.94845353 C223.387932,4.0164632 222.648526,4.25554013 222.337175,4.39698355 C221.431687,4.42702463 220.525384,4.45664847 219.618672,4.48668955 C218.385511,5.07207338 216.625136,5.31490545 215.847779,6.36968115 C215.818399,6.51905208 215.789426,6.66842301 215.760046,6.81821117 C215.243849,7.55421763 214.943924,8.36031995 214.707248,9.41843356 C214.707248,10.1060405 214.707248,10.7936475 214.707248,11.4808372 C214.649304,11.4808372 214.590543,11.4808372 214.532598,11.4808372 C214.532598,11.6306253 214.532598,11.7799963 214.532598,11.9293672 C214.473837,11.9293672 214.415893,11.9293672 214.356724,11.9293672 C214.32816,12.138403 214.297963,12.3478561 214.268991,12.556892 C214.210638,12.556892 214.152285,12.556892 214.093524,12.556892 C214.093524,12.7066801 214.093524,12.8560511 214.093524,13.0058392 C213.976411,13.0354631 213.859705,13.0650869 213.743,13.095128 C213.713619,13.3041638 213.684647,13.5136169 213.655267,13.7226528 C213.462662,14.058946 213.223538,14.6197128 213.041135,14.9781196 C213.041135,15.1279077 213.041135,15.2772787 213.041135,15.4262324 L212.69061,15.7854736 C212.66123,16.0837982 212.631849,16.3829573 212.602469,16.6816992 C212.202161,17.4857153 212.025879,18.7407649 211.638221,19.5514568 C211.219142,20.4280722 211.585989,23.6049165 210.936356,24.0346708 C210.818834,23.7684734 210.736814,23.9403752 210.585831,23.7663873 C209.983533,23.0725218 210.524214,22.4717001 209.007043,22.5105032 C208.852387,22.7737799 208.685899,22.5952024 208.480644,22.7796212 C208.451671,22.8989511 208.422291,23.0191154 208.393319,23.1384452 C208.18888,23.1689036 207.984033,23.1981102 207.779187,23.2285685 C207.614738,23.3458121 207.514763,23.7547046 207.340929,23.855676 C207.194435,23.855676 207.048349,23.855676 206.901855,23.855676 C206.858601,23.8832137 206.770052,24.1894658 206.726797,24.2145 C206.376273,24.2445411 206.024932,24.274165 205.674407,24.3046233 C205.674407,24.363871 205.674407,24.4239531 205.674407,24.483618 C205.469969,24.483618 205.26553,24.483618 205.060684,24.483618 C205.060684,24.5437002 205.060684,24.6029479 205.060684,24.6630301 C204.15438,24.6630301 203.247668,24.6630301 202.341772,24.6630301 C202.341772,24.6029479 202.341772,24.5437002 202.341772,24.483618 C202.137334,24.483618 201.932487,24.483618 201.728048,24.483618 C201.728048,24.4239531 201.728048,24.363871 201.728048,24.3046233 C201.376708,24.274165 201.026183,24.2445411 200.675659,24.2145 C200.675659,24.1544179 200.675659,24.0951702 200.675659,24.0346708 C200.529165,24.0346708 200.383487,24.0346708 200.236993,24.0346708 C200.236993,23.9754231 200.236993,23.9153409 200.236993,23.855676 C199.917889,23.692119 199.480448,23.7751492 199.184604,23.586558 C199.132372,23.5540135 198.97282,23.2581923 198.921404,23.2285685 C198.658205,23.1981102 198.395005,23.1689036 198.131806,23.1384452 C198.102834,23.0191154 198.073861,22.8989511 198.044073,22.7796212 C197.840042,22.7499974 197.634787,22.7199563 197.430349,22.6899152 C197.354858,22.6365089 197.093698,22.2150993 196.992091,22.1516792 C196.701552,21.9722672 196.450186,22.0778282 196.202901,21.8833957 C195.504708,21.3330598 194.937912,20.5870396 194.27318,19.9995696 C194.240127,16.2419311 197.546238,12.8869266 199.973794,11.5705432 C200.002766,11.4808372 200.032147,11.3915484 200.061935,11.3018424 C200.315749,11.12702 200.569155,11.2839012 200.850717,11.1224304 C200.882546,11.1040719 200.957629,10.8783466 201.026183,10.8528951 C201.318763,10.8528951 201.610935,10.8528951 201.903107,10.8528951 C202.593138,10.5316225 203.158303,10.2871215 204.183352,10.4944884 C204.183352,10.8528951 204.183352,11.2121364 204.183352,11.5705432 C203.765498,11.8192166 203.964223,12.1692786 203.745095,12.646598 C203.686334,12.646598 203.627981,12.646598 203.569628,12.646598 C203.540656,12.7121042 203.777331,15.3198369 203.832828,15.4262324 C204.279655,16.2907479 207.50905,18.1220021 209.094776,17.1302292 C209.368585,16.9591619 209.477129,16.539004 209.708908,16.3237096 C209.825613,16.2932513 209.942319,16.2636275 210.059432,16.2335864 C210.088405,16.0837982 210.117785,15.9344273 210.147165,15.7854736 C210.198173,15.7145433 210.442602,15.6757402 210.498098,15.6060616 C210.52707,15.4566907 210.556043,15.3069025 210.585831,15.1575316 C210.633166,15.0907736 210.88698,15.0452948 210.936356,14.9781196 C210.936356,14.8884136 210.936356,14.7991248 210.936356,14.7090016 C210.995116,14.7090016 211.053469,14.7090016 211.111822,14.7090016 C211.141202,14.4403008 211.170175,14.1716 211.199555,13.9020648 C211.257908,13.9020648 211.316668,13.9020648 211.374613,13.9020648 C211.374613,13.7526939 211.374613,13.6033229 211.374613,13.453952 C211.433374,13.453952 211.491727,13.453952 211.550488,13.453952 C211.57946,12.8264272 211.609248,12.1984852 211.638221,11.5705432 C211.696573,11.5705432 211.754926,11.5705432 211.813279,11.5705432 C211.813279,11.5108782 211.813279,11.4512133 211.813279,11.3915484 C211.832458,11.0932238 211.679435,11.2259052 211.638221,11.1224304 C211.609248,10.4648645 211.57946,9.80729865 211.550488,9.14931555 C211.491727,9.14931555 211.433374,9.14931555 211.374613,9.14931555 C211.143243,8.61441742 211.371349,7.76700862 211.111822,7.26632395 C211.053469,7.26632395 210.995116,7.26632395 210.936356,7.26632395 C210.936356,7.11695302 210.936356,6.96716486 210.936356,6.81821117 C210.900038,6.75938072 210.626637,6.69721237 210.585831,6.63838192 C210.556043,6.48942824 210.52707,6.34005731 210.498098,6.19026914 C210.380984,6.1606453 210.264279,6.13060422 210.147165,6.10056314 C210.117785,5.92115113 210.088405,5.74173913 210.059432,5.56232712 C209.942319,5.53270328 209.825613,5.5026622 209.708908,5.47262112 C209.60322,5.33785349 209.546091,4.80545879 209.445708,4.66568432 L208.042386,3.76904153 C208.013006,3.76904153 207.984033,3.76904153 207.954653,3.76904153 C207.282168,3.76904153 206.609684,3.76904153 205.937199,3.76904153 C205.937199,3.7093766 205.937199,3.64929444 205.937199,3.58962952 C205.73276,3.58962952 205.528322,3.58962952 205.323475,3.58962952 C205.294095,3.58962952 205.26553,3.58962952 205.235742,3.58962952 C205.235742,3.64929444 205.235742,3.7093766 205.235742,3.76904153 C204.91419,3.76904153 204.593046,3.76904153 204.271085,3.76904153 C204.271085,3.82870645 204.271085,3.88878861 204.271085,3.94845353 C203.978914,3.94845353 203.686334,3.94845353 203.394162,3.94845353 C202.880821,4.08113497 202.174059,4.35400812 201.640315,4.48668955 C201.376708,4.48668955 201.113917,4.48668955 200.850717,4.48668955 C200.261885,4.77124534 199.510236,5.17262755 198.921404,5.47262112 C198.658205,5.5026622 198.395005,5.53270328 198.131806,5.56232712 C198.08039,5.59320268 197.920838,5.88860663 197.869015,5.92115113 C197.751901,5.92115113 197.634787,5.92115113 197.518082,5.92115113 C197.518082,5.9812333 197.518082,6.04089822 197.518082,6.10056314 C197.284263,6.13060422 197.050852,6.1606453 196.816625,6.19026914 C196.816625,6.24993407 196.816625,6.31001623 196.816625,6.36968115 C196.699511,6.36968115 196.582806,6.36968115 196.465692,6.36968115 C196.465692,6.42934608 196.465692,6.48942824 196.465692,6.54867592 C196.290634,6.578717 196.11476,6.60875808 195.939702,6.63838192 C195.939702,6.69846409 195.939702,6.75812901 195.939702,6.81821117 C195.822588,6.81821117 195.705883,6.81821117 195.589177,6.81821117 C195.53164,6.85784871 195.470839,7.13781488 195.413303,7.17661795 C195.179484,7.20665903 194.945665,7.23628287 194.711438,7.26632395 C194.651453,7.29970293 194.309089,7.69232316 194.27318,7.71485397 C194.156475,7.71485397 194.039361,7.71485397 193.922656,7.71485397 C193.892867,7.83418381 193.863895,7.9539309 193.834514,8.07326074 C193.591718,8.33862362 192.890669,8.74042307 192.4316,8.79090877 C192.4316,8.91023862 192.4316,9.0299857 192.4316,9.14931555 C192.294492,9.18144281 191.926421,9.25988341 191.817468,9.32872755 C191.525705,9.51356364 191.579977,9.92621126 191.378803,10.2253704 C191.254344,10.4114582 190.905452,10.5011642 190.765079,10.6743176 C190.735698,10.8232713 190.706726,10.9726422 190.677754,11.1224304 C190.552479,11.2939149 190.172982,11.3898794 190.063622,11.5705432 C189.924473,11.8004409 190.026488,11.9873632 189.888155,12.1984852 C189.829395,12.1984852 189.77145,12.1984852 189.712689,12.1984852 C189.602513,12.3808179 189.569052,12.8522959 189.449898,13.0058392 C189.332784,13.0354631 189.216079,13.0650869 189.098557,13.095128 C188.714163,13.5528372 188.96104,14.3651981 188.222042,14.7090016 C188.12778,14.776594 188.138797,14.7628252 187.958842,14.7991248 C187.932726,14.3167986 187.837648,14.4782694 187.783376,14.3505948 C187.783376,13.6930289 187.783376,13.0354631 187.783376,12.3778972 C187.724615,12.3778972 187.666671,12.3778972 187.60791,12.3778972 C187.578937,11.7203313 187.549557,11.0623482 187.520177,10.4047824 C187.461824,10.4047824 187.403471,10.4047824 187.345118,10.4047824 C187.345118,10.2253704 187.345118,10.0463756 187.345118,9.86696357 C187.286358,9.86696357 187.228005,9.86696357 187.169652,9.86696357 C187.169652,9.68713433 187.169652,9.50813956 187.169652,9.32872755 C187.110891,9.32872755 187.052539,9.32872755 186.993778,9.32872755 C186.964806,8.76128493 186.935833,8.19300783 186.906045,7.62514796 C186.847692,7.62514796 186.789339,7.62514796 186.730986,7.62514796 C186.730986,7.47577704 186.730986,7.32598887 186.730986,7.17661795 C186.672226,7.17661795 186.614281,7.17661795 186.55552,7.17661795 C186.364956,6.76355309 186.522875,6.11391473 186.292729,5.74173913 C186.257636,5.68582934 185.979338,5.61865415 185.941796,5.56232712 C185.912416,5.38333235 185.883444,5.20392034 185.853655,5.02450834 C185.79571,5.02450834 185.737358,5.02450834 185.678597,5.02450834 C185.678597,4.90517849 185.678597,4.78501417 185.678597,4.66568432 C185.619836,4.66568432 185.561483,4.66568432 185.503131,4.66568432 C185.47375,4.42702463 185.44437,4.18753046 185.415397,3.94845353 C185.332153,3.82578579 184.710268,3.43775517 184.625799,3.32092875 C184.625799,3.20118166 184.625799,3.08143458 184.625799,2.96210473 C184.309552,2.45182361 183.517913,1.29065241 182.784627,1.25810791 C182.620179,1.15129518 182.313317,1.27396292 182.082762,1.16881914 C180.47949,0.43781952 179.145947,2.26448409 178.486928,3.14151674 C178.255557,3.44985505 177.751602,3.63594285 177.522271,3.94845353 C177.492891,4.09782446 177.463919,4.24719539 177.434538,4.39698355 C177.317833,4.42702463 177.200719,4.45664847 177.083606,4.48668955 C177.083606,4.6060194 177.083606,4.72534925 177.083606,4.84509633 C177.041575,4.93188167 176.864069,4.96484341 176.821222,5.02450834 C176.821222,5.11421434 176.821222,5.20392034 176.821222,5.29362635 C176.737978,5.40043908 176.451927,5.44633517 176.382149,5.56232712 C176.173629,5.90863402 176.201378,6.2716304 175.943891,6.54867592 C175.826777,6.578717 175.710072,6.60875808 175.592958,6.63838192 C175.592958,6.75812901 175.592958,6.87787609 175.592958,6.99762318 C175.534606,6.99762318 175.476253,6.99762318 175.417492,6.99762318 C175.2559,7.25380683 175.313845,7.4720219 175.154701,7.71485397 C175.09594,7.71485397 175.037179,7.71485397 174.978826,7.71485397 C174.949854,7.89426597 174.920474,8.07326074 174.891501,8.25308999 C174.832333,8.25308999 174.774388,8.25308999 174.715627,8.25308999 C174.58668,8.4370916 174.661763,8.59814517 174.540569,8.79090877 C174.482216,8.79090877 174.423863,8.79090877 174.365103,8.79090877 C174.33613,9.06002678 174.306342,9.32872755 174.277369,9.59784556 C174.239012,9.65625878 173.966019,9.71884436 173.926845,9.77725757 C173.897056,9.98629342 173.868084,10.1957465 173.838704,10.4047824 C173.779535,10.5065882 173.363313,10.7782097 173.313121,10.8528951 C173.283741,11.0623482 173.25436,11.2718013 173.22498,11.4808372 C173.193559,11.5359125 172.908324,11.6948799 172.874047,11.7499552 C172.696949,12.0391006 172.781825,12.3787317 172.611256,12.646598 C172.552903,12.646598 172.494142,12.646598 172.435382,12.646598 C172.406409,12.8556338 172.377029,13.0650869 172.348056,13.27454 C172.289704,13.27454 172.230943,13.27454 172.17259,13.27454 C172.17259,13.3938698 172.17259,13.5136169 172.17259,13.6329468 C172.136681,13.6917772 171.857567,13.8432343 171.822066,13.9020648 C171.792685,14.1115179 171.763305,14.320971 171.734333,14.5300068 C171.702912,14.5838304 171.416453,14.744884 171.382992,14.7991248 C171.382992,14.9188719 171.382992,15.0382017 171.382992,15.1575316 C171.147133,15.5722654 170.778245,15.7028606 170.681943,16.3237096 C170.564829,16.3237096 170.447716,16.3237096 170.330602,16.3237096 C170.182884,16.7730741 169.828687,16.6320479 169.629145,16.9512344 C169.488772,17.1765425 169.587115,17.3668027 169.454087,17.5787592 C169.395326,17.5787592 169.337382,17.5787592 169.278621,17.5787592 C169.249648,17.8478772 169.220268,18.1169952 169.190888,18.385696 C169.163956,18.4336783 168.866479,18.607249 168.839547,18.6552312 C168.839547,18.8041849 168.839547,18.9539731 168.839547,19.1029268 C168.781602,19.1029268 168.72325,19.1029268 168.664489,19.1029268 C168.635516,19.4613336 168.606136,19.8205748 168.576756,20.1793988 C168.518403,20.1793988 168.46005,20.1793988 168.401697,20.1793988 C168.401697,20.3884347 168.401697,20.5978878 168.401697,20.8069236 C168.342937,20.8069236 168.284584,20.8069236 168.226231,20.8069236 C168.196851,21.2254126 168.16747,21.6443187 168.138498,22.0628077 C168.112382,22.1112072 167.817354,22.2818572 167.787565,22.3315084 C167.523142,22.7716937 167.609243,23.3320433 167.349308,23.7663873 C167.290547,23.7663873 167.231786,23.7663873 167.173842,23.7663873 C167.144869,23.9153409 167.115081,24.0651291 167.086108,24.2145 C166.968995,24.2445411 166.852289,24.274165 166.735176,24.3046233 C166.550324,24.5437002 166.638057,24.8566281 166.471976,25.1111428 C165.989648,25.8517389 165.455088,26.6807893 165.069062,27.5323705 C164.877682,27.9537801 165.133128,30.8927991 165.243713,31.1193589 C165.364091,31.3646944 165.601174,31.4794346 165.682786,31.8365897 C166.208777,31.898758 166.771085,32.160783 167.086108,32.4645317 C167.115081,32.5838615 167.144869,32.7040259 167.173842,32.8233557 C167.494986,32.8529796 167.816538,32.8830206 168.138498,32.9126445 C168.16747,33.0323916 168.196851,33.1521386 168.226231,33.2718857 C168.273158,33.3077681 168.751814,33.4296014 168.839547,33.4512977 C168.995018,33.0870496 169.953554,32.3781636 170.243277,32.0160017 C170.505661,31.6880532 170.544834,31.1381346 170.769268,30.7609521 C170.828029,30.7609521 170.886382,30.7609521 170.944734,30.7609521 C171.070417,30.5681885 170.994926,30.4150624 171.120201,30.2227161 C171.178553,30.2227161 171.236906,30.2227161 171.295667,30.2227161 C171.447874,29.956936 171.406659,29.5104921 171.558458,29.2363673 C171.617627,29.2363673 171.675572,29.2363673 171.734333,29.2363673 C171.763305,28.9372082 171.792685,28.6380491 171.822066,28.3397245 C171.865728,28.2591977 172.318676,27.939594 172.348056,27.8911945 C172.348056,27.7414063 172.348056,27.5924526 172.348056,27.4430817 C172.415387,27.2857833 172.709599,27.1284848 172.786722,26.9949689 C173.160506,26.3411582 172.993201,25.4549463 173.926845,25.3802608 C174.372856,25.0961223 175.630908,24.9709511 176.20709,24.8424421 C176.557615,24.8424421 176.908547,24.8424421 177.259072,24.8424421 C178.201693,24.4135222 179.449544,24.4848698 180.854906,24.483618 C180.980997,24.7794392 181.118922,24.7510671 181.206247,25.1111428 C181.48985,25.6089068 180.996912,28.4344373 181.206247,29.4157793 C181.26256,29.6823939 181.138509,30.6107467 181.29398,30.9403641 C182.147644,32.7511737 183.238799,33.9240275 185.941796,33.8994105 C186.059318,33.5964963 186.337208,33.147549 186.55552,32.9126445 C186.672226,32.8830206 186.789339,32.8529796 186.906045,32.8233557 C186.935833,32.6139026 186.964806,32.4048668 186.993778,32.1954137 L187.345118,31.8365897 C187.345118,31.6872187 187.345118,31.5378478 187.345118,31.3880597 C187.403471,31.3880597 187.461824,31.3880597 187.520177,31.3880597 C187.725023,30.9462054 187.666671,28.2287394 187.520177,27.8911945 C187.461824,27.8911945 187.403471,27.8911945 187.345118,27.8911945 C187.18475,27.5144293 187.483859,27.1347434 187.520177,26.9949689 C187.520177,26.4266918 187.520177,25.8584147 187.520177,25.2905548 C187.610358,24.8691452 187.709925,24.1227078 187.783376,23.7663873 C187.567104,23.6499781 187.723391,23.8047731 187.60791,23.586558 C187.789089,23.4776591 187.88988,23.160976 187.958842,22.9590332 C188.029029,23.0508254 187.989855,22.9840675 188.046576,23.1384452 C188.385266,23.2519338 189.191187,24.6914022 189.274431,25.1111428 C189.391137,25.1111428 189.507842,25.1111428 189.625364,25.1111428 C189.707792,25.5901312 190.031385,26.0883124 190.326413,26.3666096 C190.443526,26.3966507 190.560232,26.4266918 190.677754,26.4567329 C190.706726,26.6361449 190.735698,26.8151397 190.765079,26.9949689 C190.911573,27.0245928 191.05725,27.0542166 191.203744,27.0842577 C191.273523,27.137664 191.30984,27.385503 191.378803,27.4430817 C191.525296,27.4727055 191.671382,27.5023294 191.817468,27.5323705 C191.895408,27.5916181 191.919892,27.8169262 191.992935,27.8911945 C192.374064,28.2800596 192.817626,28.600915 193.221198,28.966832 C193.221198,29.0269142 193.221198,29.0869964 193.221198,29.1466613 C193.366876,29.1767024 193.512962,29.2063262 193.659048,29.2363673 C193.72597,29.286853 193.855325,29.5513814 193.922656,29.5951913 C194.039361,29.5951913 194.156475,29.5951913 194.27318,29.5951913 C194.44987,29.7065936 194.543725,30.0962932 194.711438,30.2227161 C194.988919,30.4305002 195.274154,30.3015739 195.589177,30.4918341 C195.589177,30.551499 195.589177,30.6115812 195.589177,30.6712461 C195.734855,30.7012872 195.881349,30.730911 196.027435,30.7609521 C196.108231,30.8201998 196.360005,31.2349336 196.465692,31.2987709 C196.736237,31.4623279 197.243865,31.4055836 197.518082,31.5674717 C197.518082,31.6275538 197.518082,31.6872187 197.518082,31.7477181 C197.821271,31.9521644 198.259529,31.9913847 198.570472,32.1954137 C198.570472,32.2550786 198.570472,32.3147435 198.570472,32.3744085 C198.833671,32.4048668 199.09687,32.4344906 199.359662,32.4645317 C199.683662,32.6506195 200.251683,32.9126445 200.587926,33.0920565 C200.734012,33.0920565 200.880097,33.0920565 201.026183,33.0920565 C201.026183,33.1521386 201.026183,33.2118036 201.026183,33.2718857 C201.172269,33.2718857 201.318763,33.2718857 201.464441,33.2718857 C201.464441,33.3311334 201.464441,33.3912156 201.464441,33.4512977 C201.814965,33.4809216 202.166714,33.5105454 202.517239,33.5401693 C202.517239,33.6002514 202.517239,33.6599163 202.517239,33.7199985 C202.721677,33.7199985 202.926524,33.7199985 203.130963,33.7199985 C203.130963,33.7796634 203.130963,33.8393284 203.130963,33.8994105 C203.536575,34.0829949 205.337757,33.9732615 205.674407,33.8994105 C206.083693,33.8994105 206.49257,33.8994105 206.901855,33.8994105 C209.674631,32.586365 210.268359,30.741342 211.638221,28.0706065 C211.79206,28.1273507 211.723505,28.0881304 211.813279,28.1598952 C212.407008,28.4398614 212.482499,29.1808747 212.866077,29.6844801 C213.147639,30.0545695 213.543458,30.2006025 213.918058,30.4918341 C213.918058,30.551499 213.918058,30.6115812 213.918058,30.6712461 C214.035172,30.7012872 214.152285,30.730911 214.268991,30.7609521 C214.297963,30.880282 214.32816,31.000029 214.356724,31.1193589 C214.473837,31.1193589 214.590543,31.1193589 214.707248,31.1193589 C214.707248,31.1193589 215.127959,31.5578752 215.145914,31.5674717 C215.292408,31.5674717 215.438086,31.5674717 215.58458,31.5674717 C215.616816,31.5866646 215.694348,31.8086348 215.760046,31.8365897 C216.060787,31.9667677 216.233397,31.8411793 216.461503,32.0160017 C216.52312,32.0631495 216.574944,32.3322675 216.636969,32.3744085 C216.964234,32.5997166 217.548986,32.2809473 217.952558,32.4645317 C217.952558,32.5241966 217.952558,32.5838615 217.952558,32.6439437 C219.013517,33.1646558 220.491106,32.6439437 221.811184,32.9126445 C221.983386,32.9476924 221.814449,33.1521386 222.074384,33.0920565 C222.074384,33.0323916 222.074384,32.9723094 222.074384,32.9126445 C222.513049,32.8830206 222.951307,32.8529796 223.389973,32.8233557 C223.389973,32.7632735 223.389973,32.7040259 223.389973,32.6439437 C223.536059,32.6439437 223.682144,32.6439437 223.828638,32.6439437 C223.828638,32.5838615 223.828638,32.5241966 223.828638,32.4645317 C224.15019,32.4645317 224.471743,32.4645317 224.793295,32.4645317 C225.26583,32.3543811 226.125614,32.398191 226.547141,32.1954137 C226.547141,32.1353315 226.547141,32.0760838 226.547141,32.0160017 C226.809933,32.0160017 227.07354,32.0160017 227.33674,32.0160017 C228.189995,31.6037713 229.443151,31.0317391 229.879777,30.2227161 C229.909157,29.8935159 229.938537,29.5651502 229.96751,29.2363673 C230.720382,27.6041353 230.635506,24.6788851 228.827795,24.3046233 C228.827795,24.1544179 228.827795,24.0054642 228.827795,23.855676 C228.856767,23.8256349 228.88574,23.7960111 228.915528,23.7663873 C229.572098,23.7613804 229.898139,23.440525 230.318442,23.2285685 C231.050912,22.8576446 231.862545,23.2068721 231.984556,22.1516792 C232.336713,21.6368085 231.989861,20.9304258 232.248163,20.3588108 C232.306108,20.3588108 232.364869,20.3588108 232.422813,20.3588108 C232.422813,20.2390638 232.422813,20.1193167 232.422813,19.9995696 C232.481574,19.9995696 232.539927,19.9995696 232.598688,19.9995696 C232.598688,19.5514568 232.598688,19.1029268 232.598688,18.6552312 C232.539927,18.6552312 232.481574,18.6552312 232.422813,18.6552312 C232.422813,18.3560722 232.422813,18.0569131 232.422813,17.7581712 C232.047397,16.9787721 231.502636,16.2602896 231.019899,15.6060616 C230.990927,15.4566907 230.961547,15.3069025 230.932574,15.1575316 C230.779143,14.947244 229.838562,14.2174961 229.529252,14.1716 C228.759649,13.6809291 227.853753,14.5012174 227.424065,14.7090016 C226.722608,14.7390427 226.020743,14.7686665 225.319286,14.7991248 C223.593595,14.7991248 221.782212,14.7169291 220.40827,14.7090016 C220.438467,13.3216878 221.241123,12.0720623 222.162525,11.5705432 C222.691372,11.2826495 224.235067,11.5521847 224.793295,11.3018424 C224.793295,11.2417602 224.793295,11.1816781 224.793295,11.1224304 C225.027114,11.1224304 225.261341,11.1224304 225.49516,11.1224304 C226.755253,10.5174364 228.587855,10.7498375 230.142976,10.4047824 C230.78608,10.4047824 231.429185,10.4047824 232.072289,10.4047824 C233.169565,9.91703204 235.142541,10.3697344 236.545047,10.2253704 C236.812735,10.1978327 236.706231,10.0918544 236.808246,10.0463756 C237.159179,10.0463756 237.510111,10.0463756 237.860636,10.0463756 C237.879407,10.0367791 238.052833,9.79853667 238.123835,9.77725757 C238.854673,9.77725757 239.58551,9.77725757 240.316348,9.77725757 C240.6379,9.77725757 240.959452,9.77725757 241.281004,9.77725757 C241.349558,9.80187457 241.424642,10.0280171 241.45647,10.0463756 C241.874325,10.286287 242.503147,10.2245359 243.122584,10.2253704 C243.584101,9.37796155 244.016646,9.8907461 243.999507,8.25308999 C243.826489,8.12750158 243.664489,7.19581086 243.824449,6.81821117 C243.882802,6.81821117 243.941154,6.81821117 243.999507,6.81821117 Z M181.469038,15.4262324 C181.160136,15.495911 181.052408,15.6895091 180.854906,15.7854736 C179.949011,15.8150975 179.042707,15.8447213 178.135995,15.8751796 C178.079275,15.707033 178.052751,15.5242831 178.048262,15.2472376 C178.255965,14.9906367 178.466525,14.498714 178.574661,14.1716 C178.574661,14.0218119 178.574661,13.8724409 178.574661,13.7226528 C178.691775,13.6930289 178.808888,13.6629878 178.925594,13.6329468 C178.925594,13.5136169 178.925594,13.3938698 178.925594,13.27454 C178.983946,13.27454 179.042707,13.27454 179.10106,13.27454 C179.258571,13.0492319 179.215317,12.7872069 179.364259,12.556892 C179.422612,12.556892 179.480965,12.556892 179.539726,12.556892 C179.734371,12.2155919 179.607056,11.8905641 179.802517,11.5705432 C179.83557,11.5163023 180.122845,11.355666 180.153857,11.3018424 C180.486835,10.7156241 180.241183,9.99004856 181.030781,9.86696357 C181.151567,10.09102 181.337235,10.0530514 181.469038,10.2253704 C181.707754,10.537881 181.65185,11.1966986 181.644097,11.7499552 C182.062359,12.4062693 181.585744,14.9038514 181.469038,15.4262324 Z M221.811184,23.586558 C223.860875,23.586558 225.249915,23.880293 227.424065,23.855676 C227.424065,23.9754231 227.424065,24.0951702 227.424065,24.2145 C226.800139,24.2199241 225.678379,24.4231187 225.319286,24.6630301 C225.290313,24.7527361 225.261341,24.8424421 225.231552,24.9321481 C225.152797,24.9692822 223.565439,25.1111428 223.565439,25.1111428 C223.452814,25.0623261 223.046385,24.7698428 222.688516,24.9321481 C221.00608,25.6944405 218.615658,25.3210132 217.426159,24.3046233 C217.475127,24.1602592 217.496346,24.0884944 217.513893,23.855676 C218.195355,23.6487264 218.605048,23.5798822 219.618672,23.586558 C219.805972,23.866107 221.149717,23.5869753 221.811184,23.586558 Z" id="Fill-7"></path>
                </g>
            </g>
        </g>
    </g>
</svg>