<?xml version="1.0" encoding="UTF-8" standalone="no"?>
<svg width="233px" height="61px" viewBox="0 0 233 61" version="1.1" xmlns="http://www.w3.org/2000/svg" xmlns:xlink="http://www.w3.org/1999/xlink">
    <!-- Generator: Sketch 50.2 (55047) - http://www.bohemiancoding.com/sketch -->
    <title>IMP ML 4CP PT BW</title>
    <desc>Created with Sketch.</desc>
    <defs>
        <polygon id="path-1" points="0.635638554 0.261413793 53.9499036 0.261413793 53.9499036 18.8689655 0.635638554 18.8689655"></polygon>
        <polygon id="path-3" points="0.216129032 0.328487805 99.6296774 0.328487805 99.6296774 25.9619512 0.216129032 25.9619512"></polygon>
    </defs>
    <g id="BF-Digital" stroke="none" stroke-width="1" fill="none" fill-rule="evenodd" opacity="0.800000012">
        <g id="Home" transform="translate(-1080.000000, -5958.000000)">
            <g id="Group-7" style="mix-blend-mode: multiply;" transform="translate(115.000000, 5122.000000)">
                <g id="IMP-ML-4CP-PT-BW" transform="translate(965.000000, 836.000000)">
                    <polygon id="Fill-1" fill="#1A1919" points="0 25 5 25 5 1 0 1"></polygon>
                    <path d="M11.5745566,10.4961422 L11.6441866,10.4961422 C12.8226407,8.91423507 15.0744471,8.00037398 17.1206481,8.00037398 C19.3021677,8.00037398 21.1723232,8.87985989 22.214145,10.4961422 C23.6717758,9.09129971 25.9235822,8.03604634 27.9697832,8.00037398 C31.8815415,7.9653502 33.93037,10.3923681 34,14.433074 L34,25.9649762 L29.387344,25.9649762 L29.387344,15.2781847 C29.387344,13.2403199 28.6943289,11.1311103 26.4096781,11.1311103 C24.1913729,11.1311103 22.8059996,12.4646081 22.8059996,15.5227026 L22.8059996,26 L18.1946573,26 L18.1946573,15.2781847 C18.1946573,12.8180888 17.1206481,11.1311103 15.1453908,11.1311103 C12.9599299,11.1311103 11.6106854,12.6410242 11.6106854,15.6290711 L11.6106854,26 L7,26 L7,8.42260504 L11.5745566,8.42260504 L11.5745566,10.4961422" id="Fill-2" fill="#1A1919"></path>
                    <path d="M40.6377163,8.4255417 L36,8.4255417 L36,35 L40.6377163,35 L40.6377163,23.9437598 C41.9305632,25.5053868 43.7412102,26.5649921 45.8686212,26.5649921 C50.8594732,26.5649921 54,21.5715773 54,16.8938869 C54,12.9960295 51.7687645,8 46.2911937,8 C44.1975091,8 41.9305632,9.06352742 40.7078144,10.8689747 L40.6377163,10.8689747 L40.6377163,8.4255417 Z M45.1041552,10.8356373 C47.7533341,10.8356373 49.0799074,13.883065 49.0799074,16.929839 C49.0799074,20.0472098 48.035049,23.7319695 44.9308939,23.7319695 C42.4179433,23.7319695 40.6377163,21.2166324 40.6377163,17.4965743 C40.6377163,13.4209176 42.1732613,10.8356373 45.1041552,10.8356373 Z" id="Fill-3" fill="#1A1919"></path>
                    <path d="M71.966699,17.4116404 C72.3049931,12.2944967 70.0778366,8 64.7352583,8 C59.8361634,8 56,11.3672758 56,16.6580754 C56,22.327242 59.8692786,26 65.0436838,26 C66.9948806,26 69.4272212,25.4505123 71.7569697,24.0777437 L70.4550896,21.6738143 C69.3259278,22.4622372 67.5416053,23.049118 65.8650695,23.049118 C63.0217114,23.049118 60.7620891,20.6426534 60.8659798,17.4116404 L71.966699,17.4116404 Z M60.9328594,14.9386289 C60.8990949,12.6411746 62.0620212,10.5427274 64.6664307,10.5427274 C66.9267024,10.5427274 67.8526281,12.3287208 67.6799098,14.9386289 L60.9328594,14.9386289 Z" id="Fill-4" fill="#1A1919"></path>
                    <path d="M78.3098077,11.5154223 L78.3753796,11.5154223 L79.2550332,10.1449265 C79.7765156,9.40487172 80.7242155,8 82.0616354,8 C83.0415026,8 84.0838488,8.56363505 85,9.58129144 L83.3687437,12.8178149 C82.6511641,12.429951 82.1933978,12.2185068 81.312507,12.2185068 C79.811776,12.2185068 78.3413564,13.5196022 78.3413564,17.3165177 L78.3413564,26 L74,26 L74,8.42223984 L78.3098077,8.42223984 L78.3098077,11.5154223" id="Fill-5" fill="#1A1919"></path>
                    <path d="M86,2.64834272 C86,1.33813004 87.0060794,0 88.4216236,0 C89.8669686,0 91,1.30640577 91,2.64834272 C91,4.12542511 90.0231255,5.53461753 88.4818214,5.53461753 C87.0060794,5.53461753 86,4.12542511 86,2.64834272 Z M86.4088688,25 L90.5887472,25 L90.5887472,7.80480686 L86.4088688,7.80480686 L86.4088688,25 Z" id="Fill-6" fill="#1A1919"></path>
                    <path d="M102.924394,23.080807 C102.924394,24.0080279 103.02187,25.0043308 103.349913,25.5886765 L108,25.5886765 C107.471382,24.3857611 107.306423,22.7715221 107.306423,21.397486 L107.306423,14.3910426 C107.306423,9.03116087 103.582979,8 100.549363,8 C98.2755561,8 96.2654336,8.58434562 94.2190702,10.3373825 L95.6355911,12.5011091 C96.7915521,11.4699482 98.1105974,10.7493398 99.9913772,10.7493398 C101.408523,10.7493398 102.758185,11.7456428 102.988753,13.3256575 L99.0978505,14.5273054 C95.2731817,15.6598711 93,17.5155804 93,20.7808176 C93,23.9389458 95.1413397,26 97.7131967,26 C99.2296926,26 100.716196,24.9365163 101.935891,23.9389458 L102.924394,23.080807 Z M102.988753,15.6269145 C103.318045,20.6743425 101.046113,22.9439104 99.2984254,22.9439104 C98.2436891,22.9439104 97.3176706,21.9140171 97.3176706,20.4011831 C97.3176706,18.4440689 98.4073982,17.1391148 100.549363,16.4495616 L102.988753,15.6269145 Z" id="Fill-7" fill="#1A1919"></path>
                    <polygon id="Fill-8" fill="#1A1919" points="111 26 116 26 116 0 111 0"></polygon>
                    <path d="M145.504262,5.79931193 C144.342418,5.17686035 142.402351,4.45247197 140.559804,4.45247197 C135.655386,4.45247197 132.113666,7.94062181 132.113666,13.4318298 C132.113666,19.1645005 136.03255,22.5481651 140.697365,22.5481651 C142.538621,22.5481651 144.241669,22.0289246 145.504262,21.3383028 L146.832731,24.343527 C145.367993,25.2074414 142.812452,26 140.493929,26 C132.211832,26 127,20.4750255 127,13.3636595 C127,6.76707441 132.181478,1 140.559804,1 C143.04947,1 145.367993,1.89831804 147,2.86480632 L145.504262,5.79931193" id="Fill-9" fill="#1A1919"></path>
                    <path d="M154.983751,26 C160.370622,26 164,22.1206296 164,16.794972 C164,11.2297454 159.613418,8 154.983751,8 C150.387232,8 146,11.2297454 146,16.794972 C146,22.1206296 149.634578,26 154.983751,26 Z M154.983751,23.4585402 C151.7255,23.4585402 150.835704,19.818105 150.835704,16.794972 C150.835704,13.9442273 151.862642,10.5427274 154.983751,10.5427274 C158.173106,10.5427274 159.165595,13.9442273 159.165595,16.794972 C159.165595,19.818105 158.310248,23.4585402 154.983751,23.4585402 Z" id="Fill-10" fill="#1A1919"></path>
                    <polygon id="Fill-11" fill="#1A1919" points="166 26 171 26 171 0 166 0"></polygon>
                    <polygon id="Fill-12" fill="#1A1919" points="174 26 179 26 179 0 174 0"></polygon>
                    <g id="Group-16" transform="translate(179.000000, 8.000000)">
                        <mask id="mask-2" fill="white">
                            <use xlink:href="#path-1"></use>
                        </mask>
                        <g id="Clip-14"></g>
                        <path d="M16.6339518,9.99072414 C16.9781205,4.70086207 14.7472048,0.261413793 9.39209639,0.261413793 C4.48460241,0.261413793 0.635638554,3.74234483 0.635638554,9.21172414 C0.635638554,15.0722414 4.51518072,18.8689655 9.70113253,18.8689655 C11.6555422,18.8689655 14.0926988,18.300931 16.429012,16.8818276 L15.1245542,14.3967586 C13.9931566,15.2117931 12.2053012,15.8184828 10.5241446,15.8184828 C7.67645783,15.8184828 5.40845783,13.3307931 5.51255422,9.99072414 L16.6339518,9.99072414 Z M5.58412048,7.43424138 C5.54573494,5.05924138 6.71356627,2.88996552 9.32118072,2.88996552 C11.5891807,2.88996552 12.5143373,4.73624138 12.3438795,7.43424138 L5.58412048,7.43424138 Z" id="Fill-13" fill="#1A1919" mask="url(#mask-2)"></path>
                        <path d="M53.9167229,9.99072414 C54.2582892,4.70086207 52.0293253,0.261413793 46.6748675,0.261413793 C41.7647711,0.261413793 37.921012,3.74234483 37.921012,9.21172414 C37.921012,15.0722414 41.7979518,18.8689655 46.983253,18.8689655 C48.9402651,18.8689655 51.3774217,18.300931 53.7104819,16.8818276 L52.4066747,14.3967586 C51.2733253,15.2117931 49.4893735,15.8184828 47.8069157,15.8184828 C44.9566265,15.8184828 42.6951325,13.3307931 42.7953253,9.99072414 L53.9167229,9.99072414 Z M42.8636386,7.43424138 C42.8311084,5.05924138 43.9963373,2.88996552 46.6059036,2.88996552 C48.8693494,2.88996552 49.7990602,4.73624138 49.6266506,7.43424138 L42.8636386,7.43424138 Z" id="Fill-15" fill="#1A1919" mask="url(#mask-2)"></path>
                    </g>
                    <path d="M216,8.4255417 L211.36,8.4255417 L211.36,10.5865876 L211.291901,10.5865876 C210.315372,8.99227696 208.220826,8 206.092562,8 C201.348099,8 198,12.4645927 198,17.0710326 C198,22.7396925 201.036033,26.5649921 205.675372,26.5649921 C208.327934,26.5649921 210.139504,25.0772304 211.291901,23.5888149 L211.36,23.5888149 L211.36,25.9276601 C211.36,30.0373078 208.989091,31.951265 205.917355,31.951265 C203.546446,31.951265 201.557686,31.4904249 199.850579,30.4282048 L198.941488,33.3324779 C201.000992,34.394698 203.653554,35 206.267107,35 C211.465785,35 216,32.4121051 216,24.5477545 L216,8.4255417 Z M207.139835,10.8356373 C209.931901,10.8356373 211.36,13.7059194 211.36,16.7879918 C211.36,20.3309042 210.033719,23.7319695 206.928264,23.7319695 C204.243306,23.7319695 202.919669,20.4008474 202.919669,16.96383 C202.919669,13.5281201 204.140165,10.8356373 207.139835,10.8356373 Z" id="Fill-17" fill="#1A1919"></path>
                    <polyline id="Fill-18" fill="#1A1919" points="0 36 4.8315138 36 4.8315138 56.7765915 15 56.7765915 15 60 0 60 0 36"></polyline>
                    <g id="Group-25" transform="translate(15.000000, 35.000000)">
                        <mask id="mask-4" fill="white">
                            <use xlink:href="#path-3"></use>
                        </mask>
                        <g id="Clip-20"></g>
                        <path d="M26.0870968,10.4310732 C27.7019355,8.78165854 29.9548387,7.9902439 32.2122581,7.9902439 C36.4032258,7.9902439 38.4103226,10.1907317 38.4103226,14.5206829 L38.4103226,25.588439 L33.8612903,25.588439 L33.8612903,15.0375122 C33.8612903,12.6328293 32.7503226,11.0519024 30.2787097,11.0519024 C27.9477419,11.0519024 26.1219355,12.527561 26.1219355,15.3457073 L26.1219355,25.588439 L21.5722581,25.588439 L21.5722581,8.40497561 L26.0870968,8.40497561 L26.0870968,10.4310732" id="Fill-19" fill="#1A1919" mask="url(#mask-4)"></path>
                        <path d="M54.5264516,25.588439 L59.076129,25.588439 L59.076129,0.328487805 L54.5264516,0.328487805 L54.5264516,10.3987317 L54.4541935,10.3987317 C53.38,8.88439024 51.303871,7.9902439 48.9754839,7.9902439 C44.1729032,7.9902439 40.8064516,12.3220976 40.8064516,16.7896585 C40.8064516,22.2877073 43.9219355,26 48.6167742,26 C51.4109677,26 53.2729032,24.5573171 54.4541935,23.1127317 L54.5264516,23.1127317 L54.5264516,25.588439 Z M50.1916129,10.7430732 C53.0587097,10.7430732 54.5264516,13.5269756 54.5264516,16.5150732 C54.5264516,19.9540488 53.1670968,23.2516098 49.976129,23.2516098 C47.2193548,23.2516098 45.8580645,20.0206341 45.8580645,16.6869268 C45.8580645,13.3538537 47.1129032,10.7430732 50.1916129,10.7430732 Z" id="Fill-21" fill="#1A1919" mask="url(#mask-4)"></path>
                        <path d="M70.8987097,26 C76.5219355,26 80.3180645,22.1158537 80.3180645,16.7896585 C80.3180645,11.2237561 75.7348387,7.9902439 70.8987097,7.9902439 C66.0974194,7.9902439 61.5122581,11.2237561 61.5122581,16.7896585 C61.5122581,22.1158537 65.3103226,26 70.8987097,26 Z M70.8987097,23.4558049 C67.4974194,23.4558049 66.5625806,19.8139024 66.5625806,16.7896585 C66.5625806,13.9385366 67.636129,10.5350732 70.8987097,10.5350732 C74.2322581,10.5350732 75.2683871,13.9385366 75.2683871,16.7896585 C75.2683871,19.8139024 74.3754839,23.4558049 70.8987097,23.4558049 Z" id="Fill-22" fill="#1A1919" mask="url(#mask-4)"></path>
                        <path d="M87.3058065,10.4310732 C88.9187097,8.78165854 91.1748387,7.9902439 93.4303226,7.9902439 C97.6219355,7.9902439 99.6296774,10.1907317 99.6296774,14.5206829 L99.6296774,25.588439 L95.0806452,25.588439 L95.0806452,15.0375122 C95.0806452,12.6328293 93.9696774,11.0519024 91.496129,11.0519024 C89.1696774,11.0519024 87.3412903,12.527561 87.3412903,15.3457073 L87.3412903,25.588439 L82.7916129,25.588439 L82.7916129,8.40497561 L87.3058065,8.40497561 L87.3058065,10.4310732" id="Fill-23" fill="#1A1919" mask="url(#mask-4)"></path>
                        <path d="M9.60258065,26 C15.2258065,26 19.0225806,22.1158537 19.0225806,16.7896585 C19.0225806,11.2237561 14.4367742,7.9902439 9.60258065,7.9902439 C4.80064516,7.9902439 0.216129032,11.2237561 0.216129032,16.7896585 C0.216129032,22.1158537 4.01225806,26 9.60258065,26 Z M9.60258065,23.4558049 C6.19612903,23.4558049 5.26709677,19.8139024 5.26709677,16.7896585 C5.26709677,13.9385366 6.34064516,10.5350732 9.60258065,10.5350732 C12.9335484,10.5350732 13.9729032,13.9385366 13.9729032,16.7896585 C13.9729032,19.8139024 13.0748387,23.4558049 9.60258065,23.4558049 Z" id="Fill-24" fill="#1A1919" mask="url(#mask-4)"></path>
                    </g>
                </g>
            </g>
        </g>
    </g>
</svg>