<?xml version="1.0" encoding="UTF-8" standalone="no"?>
<svg width="157px" height="110px" viewBox="0 0 157 110" version="1.1" xmlns="http://www.w3.org/2000/svg" xmlns:xlink="http://www.w3.org/1999/xlink">
    <!-- Generator: Sketch 50.2 (55047) - http://www.bohemiancoding.com/sketch -->
    <title>KCL_black</title>
    <desc>Created with Sketch.</desc>
    <defs>
        <polygon id="path-1" points="0.0259030837 0.223007813 97.6395154 0.223007813 97.6395154 54.6347656 0.0259030837 54.6347656"></polygon>
    </defs>
    <g id="BF-Digital" stroke="none" stroke-width="1" fill="none" fill-rule="evenodd" opacity="0.800000012">
        <g id="Home" transform="translate(-482.000000, -5122.000000)">
            <g id="Group-7" style="mix-blend-mode: multiply;" transform="translate(115.000000, 5122.000000)">
                <g id="KCL_black" transform="translate(367.000000, 0.000000)">
                    <path d="M74.5150237,40.1445134 C74.7904018,40.1445134 74.9545944,40.0355965 75.0657799,39.7650062 L76.9352483,33.7384152 C77.1003028,33.2491402 76.9352483,32.977699 76.6051393,32.977699 C76.4400848,32.977699 76.3301922,33.0313065 76.1099759,33.3567807 C75.7798669,33.7920227 75.3398652,34.4433966 75.0101872,34.4433966 C74.7904018,34.4433966 74.6796472,34.389789 74.5150237,34.2264138 C72.9752334,32.4888495 70.9945794,32 69.2345728,32 C61.0956194,32 54,40.524446 54,48.453253 C54,53.013721 56.8046335,55.6200674 60.8749721,55.6200674 C62.5802479,55.6200674 64.1196073,55.2945932 66.485532,54.3164687 C67.0349954,54.1003368 67.5844588,53.8825031 68.0253224,53.8825031 C68.5747858,53.8825031 68.6303785,54.5887609 68.6846784,55.510725 C68.6846784,55.8357738 68.9044638,56 69.125542,56 C69.3448964,56 69.5642508,55.945967 69.6750054,55.7294097 L71.9844754,49.1042014 C72.2042608,48.5617444 71.9301755,48.2890268 71.6009284,48.2890268 C71.2699576,48.2890268 71.0497413,48.453253 70.775225,48.887644 C69.0147874,51.8186137 64.7246635,54.1003368 61.2602429,54.1003368 C58.5646402,54.1003368 57.3540969,52.090055 57.3540969,49.2131182 C57.3540969,42.3164687 63.6796056,33.4665485 69.0699492,33.4665485 C71.8745828,33.4665485 74.0194293,35.1492289 74.0194293,38.6783904 C74.0194293,38.950257 73.9642675,39.3306151 73.9642675,39.6020564 C73.9642675,39.9283815 74.1849147,40.1445134 74.5150237,40.1445134" id="Fill-1" fill="#1A1919"></path>
                    <path d="M86.9291958,39.3968123 C88.2115385,39.3968123 88.7687937,40.4037961 88.7687937,41.8562356 C88.7687937,46.21662 84.3063811,54.4906193 81.0721154,54.4906193 C79.7880245,54.4906193 79.2307692,53.5957659 79.2307692,52.1433264 C79.2307692,47.3909235 83.6936189,39.3968123 86.9291958,39.3968123 Z M86.7613636,38 C81.4624126,38 77,44.3726001 77,50.8017034 C77,53.6522691 78.4497378,56 81.1831294,56 C86.5384615,56 91,49.0676238 91,43.1982966 C91,40.3472929 89.5502622,38 86.7613636,38 Z" id="Fill-2" fill="#1A1919"></path>
                    <path d="M99.7134168,33.7745928 C99.7134168,33.8844734 99.6576029,34.1068404 99.5481216,34.3279045 C96.7535599,40.8690554 94.0693381,47.0206298 91.3833989,53.562215 C91.2202504,53.9504886 91,54.5602606 91,55.002823 C91,55.5014115 91.4396422,56 92.0415742,56 C92.4249732,56 92.918712,55.9452769 93.3570662,55.7793702 C95.0550984,55.169164 96.4251163,54.2275787 97.5753131,52.8403909 C97.6847943,52.730076 97.7947048,52.5646037 97.7947048,52.3413681 C97.7947048,52.0660152 97.6847943,51.89924 97.4658318,51.89924 C97.3563506,51.89924 97.2472987,51.9539631 97.0820036,52.0660152 C96.5337388,52.4534202 95.8223256,53.1735071 94.6171735,53.8388708 C94.5076923,53.8944625 94.2874419,54.0052117 94.1792487,54.0052117 C94.0693381,54.0052117 94.0148122,53.9504886 94.0148122,53.8388708 C94.0148122,53.6729642 94.0693381,53.562215 94.123864,53.3967427 L102.77975,33.1639522 C102.945903,32.7761129 103,32.5541802 103,32.3322476 C103,32.1116178 102.836422,32 102.562075,32 C102.123292,32 101.302397,32.0555917 100.644651,32.1116178 C100.096816,32.1663409 98.8354204,32.2210641 98.0145259,32.3322476 C97.6847943,32.3878393 97.4658318,32.609772 97.4658318,32.830836 C97.4658318,33.1087948 97.6847943,33.2751357 97.96,33.2751357 C98.3966369,33.3302932 99.1106261,33.3850163 99.4935957,33.4970684 C99.6576029,33.5517915 99.7134168,33.662975 99.7134168,33.7745928" id="Fill-3" fill="#1A1919"></path>
                    <path d="M108.711582,33.7745928 C108.711582,33.8844734 108.657483,34.1068404 108.547569,34.3279045 C105.752048,40.8690554 103.067731,47.0206298 100.382554,53.562215 C100.218541,53.9504886 100,54.5602606 100,55.002823 C100,55.5014115 100.439229,56 101.039894,56 C101.424165,56 101.916634,55.9452769 102.355004,55.7793702 C104.054814,55.169164 105.424022,54.2275787 106.575548,52.8403909 C106.685033,52.730076 106.793231,52.5646037 106.793231,52.3413681 C106.793231,52.0660152 106.685033,51.89924 106.464346,51.89924 C106.356149,51.89924 106.246234,51.9539631 106.082221,52.0660152 C105.534366,52.4534202 104.82121,53.1735071 103.616444,53.8388708 C103.505671,53.8944625 103.28713,54.0052117 103.177645,54.0052117 C103.067731,54.0052117 103.012344,53.9504886 103.012344,53.8388708 C103.012344,53.6729642 103.067731,53.562215 103.123117,53.3967427 L111.779742,33.1639522 C111.944613,32.7761129 112,32.5541802 112,32.3322476 C112,32.1116178 111.83427,32 111.560771,32 C111.12369,32 110.301478,32.0555917 109.644138,32.1116178 C109.094994,32.1663409 107.834842,32.2210641 107.011771,32.3322476 C106.685033,32.3878393 106.464346,32.609772 106.464346,32.830836 C106.464346,33.1087948 106.685033,33.2751357 106.957673,33.2751357 C107.396901,33.3302932 108.109199,33.3850163 108.49347,33.4970684 C108.657483,33.5517915 108.711582,33.662975 108.711582,33.7745928" id="Fill-4" fill="#1A1919"></path>
                    <path d="M117.947685,44.9304038 C116.473783,45.4174028 115.105455,45.796227 114.210557,45.9044019 C115.211853,43.8465339 116.316661,42.3316614 117.527454,41.0853172 C118.211618,40.328093 119.368799,39.3528223 120.474019,39.3528223 C121.263344,39.3528223 121.685637,39.8402455 121.685637,40.7607925 C121.685637,42.6561861 120.10575,44.2253581 117.947685,44.9304038 Z M120.052551,51.3716874 C120.158949,51.2100614 120.26411,51.0484354 120.26411,50.8303888 C120.26411,50.5597395 120.052551,50.3433897 119.790267,50.3433897 C119.631908,50.3433897 119.47396,50.452413 119.368799,50.5597395 C118.316779,51.6966362 116.790091,53.158906 114.94792,53.158906 C113.580005,53.158906 112.789855,52.1306084 112.789855,50.452413 C112.789855,49.2607925 113.210086,48.12432 113.580005,47.2576484 C114.738423,47.0417228 117.000825,46.5542995 118.158419,46.1742027 C122.000295,44.9304038 124,42.9259869 124,40.4362679 C124,38.7580726 122.842406,38 121.212207,38 C116.473783,38 110,44.7127814 110,51.2100614 C110,53.4299795 111.420702,55 113.580005,55 C116.525745,55 118.421939,53.4838549 120.052551,51.3716874 Z" id="Fill-5" fill="#1A1919"></path>
                    <path d="M147.946035,44.9304038 C146.472134,45.4174028 145.105455,45.796227 144.210557,45.9044019 C145.210616,43.8465339 146.315011,42.3316614 147.525392,41.0853172 C148.209968,40.328093 149.36715,39.3528223 150.47237,39.3528223 C151.262107,39.3528223 151.68275,39.8402455 151.68275,40.7607925 C151.68275,42.6561861 150.1041,44.2253581 147.946035,44.9304038 Z M150.052139,51.3716874 C150.156062,51.2100614 150.262873,51.0484354 150.262873,50.8303888 C150.262873,50.5597395 150.052139,50.3433897 149.788618,50.3433897 C149.631083,50.3433897 149.472311,50.452413 149.36715,50.5597395 C148.315129,51.6966362 146.788854,53.158906 144.945858,53.158906 C143.578355,53.158906 142.789443,52.1306084 142.789443,50.452413 C142.789443,49.2607925 143.208849,48.12432 143.578355,47.2576484 C144.736361,47.0417228 146.999175,46.5542995 148.158006,46.1742027 C151.998645,44.9304038 154,42.9259869 154,40.4362679 C154,38.7580726 152.841994,38 151.210145,38 C146.472134,38 140,44.7127814 140,51.2100614 C140,53.4299795 141.367916,55 143.578355,55 C146.524096,55 148.419465,53.4838549 150.052139,51.3716874 Z" id="Fill-6" fill="#1A1919"></path>
                    <path d="M128.380654,59.762928 C125.450075,59.762928 123.767745,58.4688773 123.767745,57.0693104 C123.767745,55.399622 125.666903,54.2127757 127.567336,53.5674386 C128.380654,53.9987889 129.572782,54.5369215 130.497064,55.0754762 C132.01571,55.9909348 132.287808,56.4758873 132.287808,57.2849855 C132.287808,58.7373105 130.767036,59.762928 128.380654,59.762928 Z M131.039134,47.5344442 C130.171397,47.5344442 129.736891,46.7802143 129.736891,45.6490806 C129.736891,44.7332 130.061708,43.6029104 130.821881,42.2552575 C131.907296,40.3158696 133.319229,39.1847359 134.673766,39.1847359 C135.542353,39.1847359 136.085274,39.7241348 136.085274,40.6940397 C136.085274,41.7171248 135.759606,43.0094873 134.946289,44.4639226 C133.426368,46.9958895 132.178119,47.5344442 131.039134,47.5344442 Z M138.200409,41.8783536 C138.200409,40.9092928 138.038426,40.5319668 138.038426,40.1546409 C138.038426,39.7785811 138.472932,39.5080376 139.124691,39.5080376 C139.83002,39.5080376 140.371239,40.0470144 141.022574,40.0470144 C141.565494,40.0470144 142,39.6160862 142,38.9690608 C142,38.3237237 141.511074,38 140.752176,38 C140.045572,38 139.232255,38.2156751 138.364518,38.755074 C138.146415,38.8614343 137.930012,39.0235072 137.659615,39.0235072 C137.5495,39.0235072 137.333097,38.9690608 137.170264,38.8614343 C136.520205,38.4853745 135.814026,38.2156751 134.456938,38.2156751 C132.665769,38.2156751 130.333381,39.1315558 128.813034,41.1785701 C127.728894,42.6866077 127.512491,43.6560906 127.512491,44.7332 C127.512491,45.703527 127.837733,46.5117811 128.108131,46.9958895 C128.162975,47.1030939 128.325809,47.2651668 128.325809,47.3732154 C128.325809,47.5884685 127.999717,47.6956729 127.348808,47.8581679 C126.210248,48.1270232 124.745171,48.8804089 124.745171,50.2820861 C124.745171,51.3591955 125.341661,52.0057988 126.480645,52.814475 C124.418229,53.3526076 121,54.6985723 121,57.0152861 C121,59.2775535 123.876584,61 128.162975,61 C132.287808,61 135.162267,59.2775535 135.162267,56.58478 C135.162267,55.1299226 133.806454,53.837138 131.418371,52.6524021 C128.976293,51.466822 127.294813,50.6585679 127.294813,49.7443755 C127.294813,48.9352773 127.946147,48.5575293 129.139551,48.5575293 C129.791311,48.5575293 130.659898,48.7740485 131.310807,48.7740485 C133.263959,48.7740485 135.92244,48.1802033 137.5495,44.7332 C137.984856,43.7645612 138.200409,42.7950784 138.200409,41.8783536 Z" id="Fill-7" fill="#1A1919"></path>
                    <g id="Group-11" transform="translate(2.000000, 98.000000)" fill="#1A1919">
                        <polygon id="Fill-8" points="0.159519886 2.39769231 152.891335 2.39769231 152.891335 0.263076923 0.159519886 0.263076923"></polygon>
                        <polygon id="Fill-10" points="0.159519886 11.9723077 152.891335 11.9723077 152.891335 7.85123077 0.159519886 7.85123077"></polygon>
                    </g>
                    <path d="M125.48582,19.874535 C125.48582,17.5500284 127.134495,17.3240653 128.561209,17.2102011 C128.835774,17.2102011 129,16.927306 129,16.5870374 C129,16.3037009 128.835774,16.0772965 128.45258,16.0772965 L117.356634,16.0772965 C116.972157,16.0772965 116.697164,16.3037009 116.697164,16.6430868 C116.697164,17.0402875 116.972157,17.3240653 117.356634,17.3240653 C119.55444,17.4935376 121.31046,17.890297 121.31046,20.1009394 L121.31046,23.5596747 C121.31046,24.521783 120.980298,25.0324065 120.43245,25.4856566 C118.399726,27.0162033 116.312687,27.2421663 114.611409,27.2421663 C107.689112,27.2421663 104.559837,21.2912175 104.559837,15.2268457 C104.559837,7.0652544 109.556755,2.70046025 115.049772,2.70046025 C120.102287,2.70046025 123.398354,4.96715213 125.265142,8.87825484 C125.48582,9.33194628 125.705216,9.50185991 126.035379,9.50185991 C126.309089,9.50185991 126.528912,9.21852342 126.528912,8.87825484 L126.528912,2.75650968 C126.528912,2.41668243 126.309089,2.19027804 126.035379,2.19027804 C125.705216,2.19027804 125.539707,2.41668243 125.430223,2.75650968 C125.265142,3.43704684 124.935834,3.89029695 124.441018,3.89029695 C124.112139,3.89029695 123.617322,3.60651913 123.288015,3.38099742 C121.037178,2.01992308 119.114365,1 115.049772,1 C108.348582,1 100,4.79723851 100,15.0573734 C100,25.712061 107.799024,29 114.611409,29 C120.706588,29 124.497899,25.8819747 125.48582,25.0324065 L125.48582,19.874535" id="Fill-12" fill="#1A1919"></path>
                    <path d="M132.636605,5.3418108 C132.999823,5.3418108 133.455439,5.1105661 133.591026,4.64717517 C133.636339,4.76347367 133.682007,4.93656912 133.682007,5.1105661 C133.682007,6.26724037 132.954863,7.36847 131.72679,8.00495638 C131.545181,8.12080412 131.40924,8.29435033 131.40924,8.58419505 C131.40924,8.87268747 131.636162,9.04668445 131.909107,8.98898597 C133.909284,8.52559503 135,6.20954189 135,4.00978724 C135,2.04172807 134.137623,1 132.909904,1 C132.091424,1 131,1.52063865 131,3.25745313 C131,4.64717517 131.817771,5.3418108 132.636605,5.3418108" id="Fill-13" fill="#1A1919"></path>
                    <path d="M153.245945,6.95860315 C153.527391,6.95860315 153.75106,6.73359652 153.695471,6.39674193 L152.852884,0.504626523 C152.795982,0.112721769 152.62659,0 152.346019,0 C152.177064,0 152.008985,0.112721769 151.896494,0.393652379 C151.727976,0.841481112 151.445655,1.29062056 150.88539,1.29062056 C149.929875,1.29062056 148.692038,0.28093061 145.99401,0.28093061 C142.507234,0.28093061 137.898613,2.0761777 137.898613,6.90093155 C137.898613,11.9515658 141.946968,13.7472498 145.43287,14.9815095 C149.253617,16.328491 152.065011,17.2272068 152.065011,21.0422707 C152.065011,24.8018475 149.142001,26.204316 146.218992,26.204316 C143.127027,26.204316 139.641126,24.7450497 138.291674,20.1999157 C138.180497,19.8075741 138.011104,19.5834413 137.618043,19.5834413 C137.224544,19.5834413 137,19.8075741 137,20.3130744 L137,26.8216643 C137,27.2148798 137.224544,27.4385757 137.561579,27.4385757 C137.786122,27.4385757 137.95464,27.3271646 138.123595,27.0457971 C138.291674,26.6538924 138.629147,26.0361072 139.192476,26.0361072 C140.316508,26.0361072 142.507234,28 146.499125,28 C150.266034,28 156,26.5962208 156,19.8075741 C156,17.0017632 154.876405,13.3549082 148.017094,11.3905784 C143.182616,9.98854682 141.665085,8.2483499 141.665085,5.83575452 C141.665085,3.70321594 143.127027,1.96432974 146.275894,1.96432974 C148.579548,1.96432974 150.997881,3.02994367 152.684367,6.50902679 C152.852884,6.84588138 153.022277,6.95860315 153.245945,6.95860315" id="Fill-14" fill="#1A1919"></path>
                    <path d="M60.6665618,5.42597527 C60.6665618,3.32370164 61.2773605,2.27256482 63.3887687,1.99599521 C63.778088,1.9412844 64,1.77499801 64,1.442856 C64,1.1658556 63.778088,1 63.3887687,1 L53.6107987,1 C53.2210468,1 53,1.1658556 53,1.442856 C53,1.77499801 53.2210468,1.9412844 53.6107987,1.99599521 C55.7217744,2.27256482 56.3330056,3.32370164 56.3330056,5.42597527 L56.3330056,23.5731631 C56.3330056,25.6758676 55.7217744,26.7265736 53.6107987,27.003574 C53.2210468,27.0587156 53,27.2245712 53,27.5567132 C53,27.8337136 53.2210468,28 53.6107987,28 L63.3887687,28 C63.778088,28 64,27.8337136 64,27.5567132 C64,27.2245712 63.778088,27.0587156 63.3887687,27.003574 C61.2773605,26.7265736 60.6665618,25.6758676 60.6665618,23.5731631 L60.6665618,5.42597527" id="Fill-15" fill="#1A1919"></path>
                    <g id="Group-19">
                        <mask id="mask-2" fill="white">
                            <use xlink:href="#path-1"></use>
                        </mask>
                        <g id="Clip-17"></g>
                        <path d="M94.3122643,5.13519531 C94.4219207,2.4303125 94.9222819,1.49230469 97.0294978,1.21644531 C97.4163172,1.161875 97.6395154,0.996015625 97.6395154,0.664726562 C97.6395154,0.3884375 97.4163172,0.223007813 97.0294978,0.223007813 L88.6584846,0.223007813 C88.4352863,0.223007813 88.2695066,0.4434375 88.2695066,0.719726562 C88.2695066,0.94015625 88.4352863,1.161875 88.7133128,1.21644531 C90.4863789,1.49230469 91.7612423,1.87816406 91.9844405,5.13519531 C92.2611718,8.94222656 92.3172952,19.70375 92.3172952,19.70375 L74.8512775,0.223007813 L67.9209075,0.223007813 C67.5323612,0.223007813 67.3104581,0.3884375 67.3104581,0.664726562 C67.3104581,0.996015625 67.5323612,1.161875 67.9209075,1.21644531 C69.0848194,1.381875 70.6364141,1.93316406 70.6364141,3.75460938 C70.6364141,9.21765625 70.6364141,16.3921484 70.4149427,22.2419141 C70.3039912,24.9455078 69.8053568,25.8835156 67.6985727,26.1598047 C67.3104581,26.2148047 67.0881233,26.3802344 67.0881233,26.7115234 C67.0881233,26.9878125 67.3104581,27.1536719 67.6985727,27.1536719 L76.0717445,27.1536719 C76.2927841,27.1536719 76.4589956,26.9319531 76.4589956,26.6569531 C76.4589956,26.4356641 76.2927841,26.2148047 76.0160529,26.1598047 C74.2412599,25.8835156 72.965533,25.4980859 72.74363,22.2419141 C72.5221586,18.4340234 72.411207,4.5271875 72.411207,4.5271875 L92.8154978,27.1536719 L94.0903612,27.1536719 C94.0903612,27.1536719 94.0903612,10.9836719 94.3122643,5.13519531" id="Fill-16" fill="#1A1919" mask="url(#mask-2)"></path>
                        <path d="M14.3598062,8.4459375 C14.4150661,5.35476562 14.9141322,2.76117187 20.958185,1.93316406 C21.5677709,1.82316406 21.9006256,1.546875 21.9006256,0.996015625 C21.9006256,0.553867187 21.5677709,0.223007813 21.0682731,0.223007813 C17.2993744,0.3884375 15.635533,0.3884375 10.9785903,0.3884375 C6.98649339,0.3884375 1.88531278,0.223007813 1.10822026,0.223007813 C0.442942731,0.223007813 0.0548281938,0.499296875 0.0548281938,0.996015625 C0.0548281938,1.436875 0.387682819,1.76773438 0.997700441,1.82316406 C3.16060793,2.15488281 6.48699559,2.65117187 6.70846696,8.88679688 C6.76372687,10.8182422 6.81985022,20.3658984 6.81985022,30.7398438 C6.81985022,37.4176172 6.76372687,43.2669531 6.65363877,45.9705469 C6.43087225,52.2078906 3.10448458,52.7041797 0.941577093,53.0350391 C0.332854626,53.0896094 0,53.4213281 0,53.8621875 C0,54.3593359 0.387682819,54.6347656 1.05339207,54.6347656 C1.82962115,54.6347656 6.92993833,54.4689063 10.922467,54.4689063 C15.5794097,54.4689063 17.9080969,54.4689063 21.6791542,54.6347656 C22.1782203,54.6347656 22.5102115,54.3043359 22.5102115,53.8621875 C22.5102115,53.3104688 22.1782203,53.0350391 21.5677709,52.9241797 C15.5241498,52.0961719 14.5812775,49.5038672 14.304978,46.4126953 C14.1935947,45.0879688 14.0822115,41.7222266 14.0822115,38.1901953 C14.0822115,34.6581641 14.1387665,31.2361328 14.1935947,30.5194141 C14.2484229,29.6918359 14.6926608,29.4155469 15.136467,29.4155469 C15.5241498,29.4155469 15.9118326,29.5814063 16.1894273,29.8022656 C19.9604846,32.9475781 31.5477974,46.6889844 38.1461762,54.6347656 L52.2296828,54.6347656 C52.7831454,54.6347656 53.0046167,54.3593359 53.0046167,53.9171875 C53.0046167,53.4213281 52.6717621,53.0350391 52.2296828,53.0350391 C49.568141,52.75875 47.9047313,52.2611719 44.5783436,49.6130078 C41.1405727,46.9094141 21.8453656,23.9520703 21.8453656,23.9520703 C23.3421322,22.2419141 32.2130749,13.2468359 37.3146872,8.66636719 C43.3026167,3.25789062 45.631304,2.54074219 48.1814626,1.93316406 C48.5700088,1.82316406 48.8471718,1.60230469 48.8471718,1.10558594 C48.8471718,0.608867188 48.5143172,0.223007813 47.7385198,0.223007813 C46.4079648,0.223007813 42.4158678,0.3884375 39.8648458,0.3884375 C35.4293744,0.3884375 31.7701322,0.223007813 30.9939031,0.223007813 C30.3281938,0.223007813 29.8291278,0.553867187 29.8291278,1.10558594 C29.8291278,1.60230469 30.2725022,1.93316406 30.8825198,2.04445312 C31.7701322,2.20945312 32.5454978,2.3203125 33.4339736,2.65117187 C34.319859,2.98246094 34.8189251,3.36832031 34.8189251,4.30675781 C34.8189251,5.18933594 34.4312423,5.96277344 33.9330396,6.73492188 C32.712141,8.6109375 31.326326,10.3219531 29.109022,12.6396875 C23.8411982,18.0473047 17.3546344,24.4483594 15.1912952,26.2148047 C14.9702555,26.3802344 14.8036123,26.4356641 14.6374009,26.4356641 C14.304978,26.4356641 14.1935947,26.049375 14.1935947,25.6635156 C14.1935947,25.2217969 14.2484229,15.1778516 14.3598062,8.4459375" id="Fill-18" fill="#1A1919" mask="url(#mask-2)"></path>
                    </g>
                    <path d="M2.38386986,66 C2.16457672,66 2,66.1638098 2,66.4354116 C2,66.6535417 2.2184382,66.8720962 2.49373017,66.8720962 C4.30578401,66.9803126 4.9640909,68.1804528 4.9640909,69.9233721 L4.9640909,85.0749303 C4.9640909,86.8186985 4.30578401,87.9645183 2.49373017,88.1266306 C2.2184382,88.1266306 2,88.3447608 2,88.5641641 C2,88.8366146 2.16457672,89 2.38386986,89 L21.7637408,89 L22.9709218,82.5672823 C23.0820645,82.1318708 22.8614889,81.8589959 22.5323355,81.8589959 C22.2578985,81.8589959 22.0386053,82.0232301 21.928745,82.2956806 C20.226979,86.9829326 17.5360427,87.5269849 13.5280651,87.5269849 C9.46579862,87.5269849 8.58819859,86.8734432 8.58819859,85.0210344 L8.58819859,69.323302 C8.58819859,67.471742 10.1796769,66.9803126 11.3334238,66.9255678 C11.6630047,66.8720962 11.827154,66.7082864 11.827154,66.4901563 C11.827154,66.2181302 11.6070059,66 11.2778525,66 L2.38386986,66" id="Fill-20" fill="#1A1919"></path>
                    <path d="M27.8691232,77.7755704 C27.8691232,71.943456 30.5949517,67.5129353 35.4452543,67.5129353 C39.7506458,67.5129353 43.1304524,71.7190263 43.1304524,77.7755704 C43.1304524,85.2328348 40.0778471,88.4853182 35.4452543,88.4853182 C30.9217285,88.4853182 27.8691232,84.000655 27.8691232,77.7755704 Z M35.4452543,90 C42.2040187,90 47,85.1765091 47,77.7755704 C47,71.2710403 42.3135102,66 35.4452543,66 C28.7959813,66 24,71.3828185 24,77.7755704 C24,84.7285231 28.5231013,90 35.4452543,90 Z" id="Fill-21" fill="#1A1919"></path>
                    <path d="M72.8243608,89 L72.9374295,69.9233721 C72.9374295,68.1804528 73.6180498,67.1441224 75.4903077,66.8720962 C75.830397,66.8177759 76,66.6535417 76,66.4354116 C76,66.1638098 75.830397,66 75.6029347,66 L68.1156696,66 C67.8325563,66 67.6625117,66.1638098 67.6625117,66.4354116 C67.6625117,66.6535417 67.8325563,66.8177759 68.1730873,66.8720962 C70.0444619,67.197594 70.9525445,67.7433437 71.0090789,69.9233721 L71.2930755,83.0048158 L56.2041517,66 L49.7941306,66 C49.5105756,66 49.3409727,66.1638098 49.3409727,66.4354116 C49.3409727,66.7082864 49.5105756,66.8720962 49.8511066,66.9255678 C51.4393679,67.1441224 52.1760809,67.6355518 52.1760809,69.106445 L52.0630122,85.0749303 C52.0630122,86.8186985 51.3828336,87.8546045 49.5105756,88.1266306 C49.1704863,88.1813754 49,88.3447608 49,88.5641641 C49,88.8366146 49.1135103,89 49.397507,89 L56.8843304,89 C57.1692104,89 57.3388134,88.8366146 57.3388134,88.5641641 C57.3388134,88.3447608 57.1692104,88.1813754 56.827796,88.1266306 C55.5230898,87.9093492 54.0483388,87.5830027 53.9913628,85.0749303 L53.8217598,68.9969556 L71.5196545,89 L72.8243608,89" id="Fill-22" fill="#1A1919"></path>
                    <path d="M84.812283,69.705242 C84.812283,67.6355518 85.9381642,67.471742 88.9229771,67.471742 C93.9346393,67.471742 99.0024201,69.8138827 99.0024201,77.1721682 C99.0024201,84.4209643 94.7229315,87.5269849 89.149644,87.5269849 L87.9084564,87.5269849 C86.3327488,87.5269849 84.812283,87.0924221 84.812283,84.3127479 L84.812283,69.705242 Z M78.3932693,66 C78.1683561,66 78,66.1638098 78,66.4354116 C78,66.7082864 78.2240363,66.8720962 78.5068219,66.8720962 C80.3639999,67.0350573 81.0391779,68.1804528 81.0391779,69.9233721 L81.0391779,85.0749303 C81.0391779,86.8186985 80.3639999,87.9645183 78.5068219,88.1266306 C78.1683561,88.1813754 78,88.3447608 78,88.5641641 C78,88.8366146 78.1683561,89 78.3932693,89 L89.8239451,89 C94.7786118,89 103,86.5466723 103,77.282082 C103,69.0508515 96.4683105,66 89.7117078,66 L78.3932693,66 Z" id="Fill-23" fill="#1A1919"></path>
                    <path d="M108.869333,77.7755704 C108.869333,71.943456 111.595435,67.5129353 116.444621,67.5129353 C120.751047,67.5129353 124.129818,71.7190263 124.129818,77.7755704 C124.129818,85.2328348 121.07823,88.4853182 116.444621,88.4853182 C111.921345,88.4853182 108.869333,84.000655 108.869333,77.7755704 Z M116.444621,90 C123.203435,90 128,85.1765091 128,77.7755704 C128,71.2710403 123.312497,66 116.444621,66 C109.796565,66 105,71.3828185 105,77.7755704 C105,84.7285231 109.524124,90 116.444621,90 Z" id="Fill-24" fill="#1A1919"></path>
                    <path d="M153.823192,89 L153.936696,69.9233721 C153.936696,68.1804528 154.618167,67.1441224 156.489008,66.8720962 C156.830847,66.8177759 157,66.6535417 157,66.4354116 C157,66.1638098 156.830847,66 156.602513,66 L149.114732,66 C148.831632,66 148.662037,66.1638098 148.662037,66.4354116 C148.662037,66.6535417 148.831632,66.8177759 149.172146,66.8720962 C151.044754,67.197594 151.951467,67.7433437 152.007557,69.9233721 L152.29154,83.0048158 L137.203798,66 L130.794975,66 C130.509667,66 130.340514,66.1638098 130.340514,66.4354116 C130.340514,66.7082864 130.509667,66.8720962 130.851065,66.9255678 C132.438807,67.1441224 133.176808,67.6355518 133.176808,69.106445 L133.062862,85.0749303 C133.062862,86.8186985 132.382717,87.8546045 130.509667,88.1266306 C130.169595,88.1813754 130,88.3447608 130,88.5641641 C130,88.8366146 130.113505,89 130.396604,89 L137.883943,89 C138.168368,89 138.337963,88.8366146 138.337963,88.5641641 C138.337963,88.3447608 138.168368,88.1813754 137.827854,88.1266306 C136.521886,87.9093492 135.048533,87.5830027 134.991118,85.0749303 L134.821082,68.9969556 L152.518549,89 L153.823192,89" id="Fill-25" fill="#1A1919"></path>
                </g>
            </g>
        </g>
    </g>
</svg>