<?xml version="1.0" encoding="UTF-8" standalone="no"?>
<svg width="249px" height="72px" viewBox="0 0 249 72" version="1.1" xmlns="http://www.w3.org/2000/svg" xmlns:xlink="http://www.w3.org/1999/xlink">
    <!-- Generator: Sketch 50.2 (55047) - http://www.bohemiancoding.com/sketch -->
    <title>Leeds 100% BLACK</title>
    <desc>Created with Sketch.</desc>
    <defs>
        <polygon id="path-1" points="0 0.658867925 248.604848 0.658867925 248.604848 71.9184906 0 71.9184906"></polygon>
        <polygon id="path-3" points="0.92475 0.430615385 25.9443 0.430615385 25.9443 17.9169231 0.92475 17.9169231"></polygon>
        <polygon id="path-5" points="0.294233333 0.430615385 39.8291667 0.430615385 39.8291667 17.9169231 0.294233333 17.9169231"></polygon>
        <polygon id="path-7" points="0.347272727 0.456923077 27.98 0.456923077 27.98 17.9169231 0.347272727 17.9169231"></polygon>
    </defs>
    <g id="BF-Digital" stroke="none" stroke-width="1" fill="none" fill-rule="evenodd" opacity="0.800000012">
        <g id="Home" transform="translate(-1069.000000, -5393.000000)">
            <g id="Group-7" style="mix-blend-mode: multiply;" transform="translate(115.000000, 5122.000000)">
                <g id="Leeds-100%-BLACK" transform="translate(954.000000, 271.000000)">
                    <g id="Group-4">
                        <mask id="mask-2" fill="white">
                            <use xlink:href="#path-1"></use>
                        </mask>
                        <g id="Clip-2"></g>
                        <path d="M234.859777,36.9455094 C233.963918,36.9455094 233.24263,36.2200755 233.24263,35.3275472 C233.24263,34.4323019 233.963918,33.7055094 234.859777,33.7055094 C235.751576,33.7055094 236.468804,34.4323019 236.468804,35.3275472 C236.468804,36.2200755 235.751576,36.9455094 234.859777,36.9455094 Z M234.859777,33.2517736 C233.709505,33.2517736 232.789288,34.1823396 232.789288,35.3275472 C232.789288,36.4686792 233.709505,37.3965283 234.859777,37.3965283 C235.991103,37.3965283 236.922147,36.4686792 236.922147,35.3275472 C236.922147,34.1823396 235.991103,33.2517736 234.859777,33.2517736 Z M230.649783,29.2333585 L231.327766,29.2333585 L231.327766,22.9435472 L232.808234,22.9435472 L232.808234,21.8146415 L230.621364,21.8146415 L230.649783,29.2333585 Z M232.911082,16.4241509 L233.513283,16.4241509 L233.513283,15.8495094 L232.522696,15.8495094 L232.522696,17.5530566 L232.911082,17.5530566 L232.911082,16.4241509 Z M233.732511,29.2333585 L234.405082,29.2333585 L234.405082,22.9435472 L235.896375,22.9435472 L235.896375,21.8146415 L233.709505,21.8146415 L233.732511,29.2333585 Z M229.950147,20.7672453 L239.72881,20.7672453 L240.206511,20.1396226 L229.533342,20.1396226 L229.950147,20.7672453 Z M236.819299,29.2333585 L237.486457,29.2333585 L237.486457,22.9435472 L238.987223,22.9435472 L238.987223,21.8146415 L236.786821,21.8146415 L236.819299,29.2333585 Z M242.241815,32.1052075 L239.057592,32.1052075 L239.057592,30.810566 L230.594299,30.810566 L230.594299,32.1052075 L227.415489,32.1052075 L227.415489,29.2333585 L227.986565,29.2333585 L227.986565,19.7470189 L228.88513,19.7470189 L228.88513,14.8306415 L240.795179,14.8306415 L240.795179,19.7470189 L241.699158,19.7470189 L241.699158,29.2333585 L242.241815,29.2333585 L242.241815,32.1052075 Z M230.744511,11.3270943 L238.906027,11.3270943 L239.333658,14.3293585 L230.33312,14.3293585 L230.744511,11.3270943 Z M234.825946,8.39003774 L238.906027,10.8556981 L230.776989,10.8556981 L234.825946,8.39003774 Z M202.702239,0.658867925 L202.702239,46.3123019 L226.52369,46.3123019 L226.52369,32.5806792 L230.594299,32.5806792 L230.594299,46.3123019 L231.154549,46.3123019 L231.154549,31.2819623 L238.558239,31.2819623 L238.558239,46.3123019 L239.057592,46.3123019 L239.057592,32.5806792 L243.136321,32.5806792 L243.136321,46.3123019 L248.604848,46.3123019 L248.604848,0.658867925 L202.702239,0.658867925 Z M234.732571,16.4241509 L235.326652,16.4241509 L235.326652,15.8495094 L234.333359,15.8495094 L234.333359,17.5530566 L234.732571,17.5530566 L234.732571,16.4241509 Z M236.540527,16.4241509 L237.140022,16.4241509 L237.140022,15.8495094 L236.154848,15.8495094 L236.154848,17.5530566 L236.540527,17.5530566 L236.540527,16.4241509 Z" id="Fill-1" fill="#1A1919" mask="url(#mask-2)"></path>
                        <path d="M14.4135815,65.2021132 L14.4135815,54.9645283 L10.9478804,54.9645283 L10.9478804,65.4330566 C10.9478804,66.5212075 10.6880543,67.4178113 10.1047989,68.0182642 C9.49853804,68.7138113 8.5214837,69.0751698 7.1966413,69.0751698 C6.01930435,69.0751698 4.99623913,68.7138113 4.39403804,68.0182642 C3.828375,67.392 3.44675543,66.4913208 3.44675543,65.2741132 L3.44675543,54.9645283 L0,54.9645283 L0,65.5607547 C0,67.5183396 0.529125,69.1702642 1.64556522,70.2679245 C2.84861413,71.4430189 4.66875,72 7.13033152,72 C9.67852174,72 11.4742989,71.3126038 12.7260652,70.0682264 C13.856038,68.9189434 14.4135815,67.2412075 14.4135815,65.2021132" id="Fill-3" fill="#1A1919" mask="url(#mask-2)"></path>
                    </g>
                    <path d="M35,72 L35,55 L31.4422793,55 L31.4422793,63.6678265 C31.4422793,64.3859039 31.4422793,65.4891568 31.4993475,66.3007768 L31.4422793,66.3007768 C30.9745977,65.6033339 30.5013484,64.9210228 29.8262723,64.0736365 L22.6120052,55 L19,55 L19,72 L22.5646803,72 L22.5646803,62.6815019 C22.5646803,61.9152776 22.5646803,60.8835572 22.5034363,60.3167988 L22.5646803,60.3167988 C23.0685515,61.0610131 23.5515441,61.7281923 24.2099174,62.5521929 L31.6761201,72 L35,72" id="Fill-5" fill="#1A1919"></path>
                    <polygon id="Fill-6" fill="#1A1919" points="39 72 42 72 42 55 39 55"></polygon>
                    <path d="M61,55 L57.4116562,55 L53.6011704,64.0713999 C53.1337181,65.1978154 52.7507616,66.180869 52.4768318,67.099751 L52.4250441,67.099751 C52.0856983,66.1467352 51.7054674,65.0762991 51.2679974,63.9758252 L47.8377425,55 L44,55 L50.9136604,72 L53.522126,72 L61,55" id="Fill-7" fill="#1A1919"></path>
                    <polyline id="Fill-8" fill="#1A1919" points="72.9735155 72 72.9735155 69.100178 66.5823808 69.100178 66.5823808 64.7669526 72.0758294 64.7669526 72.0758294 61.8506231 66.5823808 61.8506231 66.5823808 57.8915682 72.0535266 57.8915682 73 55 63 55 63 72 72.9735155 72"></polyline>
                    <g id="Group-12" transform="translate(76.000000, 54.000000)">
                        <mask id="mask-4" fill="white">
                            <use xlink:href="#path-3"></use>
                        </mask>
                        <g id="Clip-10"></g>
                        <path d="M8.4213,5.92753846 C8.4213,7.40630769 7.3278,8.53476923 5.8644,8.53476923 L4.401,8.53476923 L4.401,3.60553846 L5.8644,3.60553846 C7.5033,3.60553846 8.4213,4.61353846 8.4213,5.92753846 Z M13.8024,17.748 C11.2887,13.3850769 9.6741,10.494 8.82225,10.0024615 L8.82225,9.96507692 C10.37745,9.26861538 11.8584,7.76492308 11.8584,5.54261538 C11.8584,2.898 10.25055,0.636923077 5.79285,0.636923077 L0.92475,0.636923077 L0.92475,17.748 L4.401,17.748 L4.401,11.1350769 L5.69295,11.1350769 C6.29505,11.3704615 7.30755,13.3033846 9.84285,17.748 L13.8024,17.748 Z" id="Fill-9" fill="#1A1919" mask="url(#mask-4)"></path>
                        <path d="M25.9443,12.924 C25.9443,7.55169231 18.76365,7.82169231 18.76365,4.84615385 C18.76365,3.85615385 19.7316,3.28846154 20.9709,3.28846154 C22.3344,3.28846154 23.5386,3.75784615 24.94935,4.54015385 L25.0074,1.46630769 C24.0408,0.901384615 22.5612,0.430615385 20.79945,0.430615385 C17.1234,0.430615385 15.11865,2.71107692 15.11865,5.31830769 C15.11865,6.63923077 15.5466,7.60430769 16.17705,8.35892308 C18.2169,10.7266154 22.2669,11.1101538 22.2669,13.3850769 C22.2669,14.6769231 20.91015,15.138 19.6803,15.138 C18.15885,15.138 16.8966,14.5149231 15.85035,13.8143077 L14.5071,16.3896923 C15.7113,17.1969231 17.4204,18 19.8288,18 C23.2551,18 25.9443,16.0546154 25.9443,12.924" id="Fill-11" fill="#1A1919" mask="url(#mask-4)"></path>
                    </g>
                    <polygon id="Fill-13" fill="#1A1919" points="104 72 107 72 107 55 104 55"></polygon>
                    <polyline id="Fill-14" fill="#1A1919" points="124 55 110 55 110 57.8915682 115.009594 57.8915682 115.009594 72 118.599941 72 118.599941 57.8915682 123.194145 57.8915682 124 55"></polyline>
                    <g id="Group-18" transform="translate(124.000000, 54.000000)">
                        <mask id="mask-6" fill="white">
                            <use xlink:href="#path-5"></use>
                        </mask>
                        <g id="Clip-16"></g>
                        <path d="M15.5066,0.636923077 L11.8371,0.636923077 L9.2541,5.46369231 C8.8646,6.18369231 8.39583333,7.09753846 8.03503333,7.87846154 L7.98856667,7.87846154 C7.63186667,7.09753846 7.13986667,6.138 6.74353333,5.41246154 L4.16736667,0.636923077 L0.294233333,0.636923077 L6.1463,10.9689231 L6.1463,17.748 L9.66,17.748 L9.66,11.0215385 L15.5066,0.636923077" id="Fill-15" fill="#1A1919" mask="url(#mask-6)"></path>
                        <path d="M36.1022667,9.24507692 C36.1022667,12.9904615 33.9771,15.138 31.0920667,15.138 C28.1756,15.138 26.0395,12.9904615 26.0395,9.24507692 C26.0395,5.49692308 28.1756,3.34523077 31.0920667,3.34523077 C34.0194667,3.34523077 36.1022667,5.55092308 36.1022667,9.24507692 Z M39.8291667,9.16476923 C39.8291667,6.77215385 39.1089333,4.64123077 37.7012667,3.08076923 C36.1815333,1.41923077 33.8787,0.430615385 31.0920667,0.430615385 C28.5036,0.430615385 26.347,1.386 24.8136,2.97969231 C23.2528667,4.58584615 22.3754667,6.84830769 22.3754667,9.37523077 C22.3754667,12.0253846 23.3225667,14.3376923 25.0691667,15.9216923 C26.5670333,17.2730769 28.6184,18 31.0920667,18 C33.7529667,18 35.9027333,17.0376923 37.4607333,15.4495385 C39.0037,13.896 39.8291667,11.6307692 39.8291667,9.16476923 Z" id="Fill-17" fill="#1A1919" mask="url(#mask-6)"></path>
                    </g>
                    <polyline id="Fill-19" fill="#1A1919" points="177 55 167 55 167 72 170.586034 72 170.586034 64.8164752 176.02629 64.8164752 176.01238 61.9221557 170.586034 61.9221557 170.586034 57.8915682 176.083322 57.8915682 177 55"></polyline>
                    <polyline id="Fill-20" fill="#1A1919" points="194 72 194 69.0813378 188.325007 69.0813378 188.325007 55 185 55 185 72 194 72"></polyline>
                    <polyline id="Fill-21" fill="#1A1919" points="205.972067 72 205.972067 69.1061774 199.586592 69.1061774 199.586592 64.7633737 205.071229 64.7633737 205.071229 61.8460914 199.586592 61.8460914 199.586592 57.8855427 205.047486 57.8855427 206 55 196 55 196 72 205.972067 72"></polyline>
                    <polyline id="Fill-22" fill="#1A1919" points="218.984605 72 218.984605 69.1061774 212.594122 69.1061774 212.594122 64.7633737 218.094472 64.7633737 218.094472 61.8460914 212.594122 61.8460914 212.594122 57.8855427 218.06788 57.8855427 219 55 209 55 209 72 218.984605 72"></polyline>
                    <g id="Group-26" transform="translate(221.000000, 54.000000)">
                        <mask id="mask-8" fill="white">
                            <use xlink:href="#path-7"></use>
                        </mask>
                        <g id="Clip-24"></g>
                        <path d="M11.5563636,9.15092308 C11.5563636,12.1375385 9.92818182,14.7973846 5.76772727,14.7973846 L3.84909091,14.7973846 L3.84909091,3.62076923 L5.70909091,3.62076923 C9.56545455,3.62076923 11.5563636,5.796 11.5563636,9.15092308 Z M15.3104545,9.05676923 C15.3104545,3.95723077 11.9381818,0.668769231 5.94227273,0.668769231 L0.347272727,0.668769231 L0.347272727,17.7258462 L5.63,17.7258462 C11.4581818,17.7258462 15.3104545,14.3016923 15.3104545,9.05676923 Z" id="Fill-23" fill="#1A1919" mask="url(#mask-8)"></path>
                        <path d="M27.98,12.9309231 C27.98,7.56138462 20.75,7.82169231 20.75,4.87384615 C20.75,3.88107692 21.7181818,3.31338462 22.9740909,3.31338462 C24.3472727,3.31338462 25.5472727,3.77723077 26.9831818,4.55676923 L27.0295455,1.49538462 C26.0613636,0.922153846 24.5790909,0.456923077 22.7831818,0.456923077 C19.085,0.456923077 17.0654545,2.74015385 17.0654545,5.33076923 C17.0654545,6.65307692 17.5059091,7.61123077 18.1468182,8.36584615 C20.1881818,10.7266154 24.2709091,11.1101538 24.2709091,13.3726154 C24.2709091,14.6672308 22.8895455,15.1324615 21.6663636,15.1324615 C20.1363636,15.1324615 18.86,14.5149231 17.8140909,13.8046154 L16.4572727,16.3730769 C17.6640909,17.1803077 19.3931818,17.9792308 21.8231818,17.9792308 C25.2690909,17.9792308 27.98,16.038 27.98,12.9309231" id="Fill-25" fill="#1A1919" mask="url(#mask-8)"></path>
                    </g>
                </g>
            </g>
        </g>
    </g>
</svg>