<?xml version="1.0" encoding="UTF-8" standalone="no"?>
<svg width="143px" height="139px" viewBox="0 0 143 139" version="1.1" xmlns="http://www.w3.org/2000/svg" xmlns:xlink="http://www.w3.org/1999/xlink">
    <!-- Generator: Sketch 50.2 (55047) - http://www.bohemiancoding.com/sketch -->
    <title>MC_Logo_NO STRAP_clear area_CMYK</title>
    <desc>Created with Sketch.</desc>
    <defs></defs>
    <g id="BF-Digital" stroke="none" stroke-width="1" fill="none" fill-rule="evenodd" opacity="0.800000012">
        <g id="Home" transform="translate(-1118.000000, -5635.000000)">
            <g id="Group-7" style="mix-blend-mode: multiply;" transform="translate(115.000000, 5122.000000)">
                <g id="MC_Logo_NO-STRAP_clear-area_CMYK" transform="translate(1003.000000, 513.000000)">
                    <path d="M50.999391,95 C49.8946407,95 49,95.8502534 49,97.0003072 C49,98.1485179 49.8946407,99 50.999391,99 C52.1047503,99 53,98.1485179 53,97.0003072 C53,95.8502534 52.1047503,95 50.999391,95" id="Fill-2" fill="#000000"></path>
                    <path d="M67.6726976,103.929604 C67.4514041,103.173834 67.0982621,102.505448 66.6073085,101.917775 C66.1196677,101.33277 65.4842771,100.867835 64.7051119,100.518967 C63.9259467,100.173434 62.9778299,100 61.8594363,100 C61.001427,100 60.1632944,100.136746 59.3437134,100.416908 C58.5247949,100.694401 57.791346,101.129986 57.1427042,101.724997 C56.494725,102.320674 55.9752816,103.069774 55.5863616,103.973629 C55.1954539,104.876818 55,105.952773 55,107.203495 C55,108.729043 55.2186433,109.994441 55.6599052,110.997688 C56.099842,111.998266 56.6729524,112.798061 57.3818868,113.394406 C58.0901585,113.988749 58.8991387,114.405657 59.8075022,114.643794 C60.7158657,114.881265 61.6394679,115 62.5802966,115 C63.6171959,115 64.521584,114.883933 65.2888232,114.657135 C66.0587126,114.429003 66.6530248,114.155512 67.0717598,113.838662 C67.5713266,113.484458 67.82111,113.084893 67.82111,112.647974 C67.82111,112.35247 67.6919117,111.969582 67.4302023,111.50398 C67.1704806,111.039045 66.918047,110.654823 66.6788645,110.356651 C66.4973243,110.516743 66.2978951,110.688842 66.0766016,110.877618 C65.8566332,111.066394 65.5969115,111.242496 65.2954488,111.397252 C64.9953111,111.557344 64.6547577,111.693423 64.2744508,111.802819 C63.894144,111.909548 63.451557,111.964246 62.9519902,111.964246 C61.6487437,111.964246 60.6973141,111.603371 60.0957138,110.877618 C59.4954386,110.154534 59.15356,109.246676 59.0747159,108.153378 L67.9118801,108.153378 C67.9297691,108.05332 67.9456705,107.921243 67.9556088,107.750478 C67.9648846,107.586383 67.9754854,107.410949 67.9854238,107.232179 C67.9946996,107.052742 68,106.88798 68,106.726553 L68,106.309646 C68,105.478499 67.8913409,104.682706 67.6726976,103.929604 M59.0435758,105.799351 C59.0435758,104.910837 59.2907089,104.122382 59.7823251,103.554053 C60.2746037,102.990394 60.9331838,102.707564 61.7547526,102.707564 C62.7200958,102.707564 63.3866266,103.005737 63.7589827,103.60008 C64.1306763,104.197759 64.3168544,104.968871 64.3168544,105.799351 L59.0435758,105.799351" id="Fill-3" fill="#000000"></path>
                    <path d="M53,100 L51.2745608,100 C49.7345478,100 49,101.114671 49,102.544314 L49,115 L53,115 L53,100" id="Fill-4" fill="#000000"></path>
                    <path d="M50.999391,117 C49.8946407,117 49,117.84977 49,118.999386 C49,120.147773 49.8946407,121 50.999391,121 C52.1047503,121 53,120.147773 53,118.999386 C53,117.84977 52.1047503,117 50.999391,117" id="Fill-5" fill="#000000"></path>
                    <path d="M49,125.544314 L49,138 L53,138 L53,123 L51.2745608,123 C49.7345478,123 49,124.113308 49,125.544314" id="Fill-6" fill="#000000"></path>
                    <path d="M29.2588393,115 C30.7043204,115 32.0794699,114.284667 32.95627,113.406 C33.1692742,114.532 33.856514,114.858 35.184106,114.858 L37,114.858 L37,100.19 L35.1445864,100.19 C33.8839768,100.19 33.3253433,100.904667 33.0788479,101.6 L33.0775083,101.567333 C33.0661212,101.596 33.0580833,101.63 33.048036,101.658667 C32.2656811,100.683333 30.9742596,100 29.3519449,100 C26.1769772,100 23,102.674 23,107.766667 C23,111.592 25.1997034,115 29.2588393,115 M30.2836706,102.908667 C31.8323047,102.908667 32.8698627,104.296667 32.8698627,106.13 L32.8812497,106.175333 L32.8812497,110.619333 C32.23152,111.568667 31.1624803,112.090667 30.190565,112.090667 C27.8863691,112.090667 27.1381752,110.002667 27.1381752,107.530667 C27.1381752,104.44 28.3853883,102.908667 30.2836706,102.908667" id="Fill-7" fill="#000000"></path>
                    <path d="M17.4553188,134.314058 C15.232759,134.314058 12.1339352,132.741273 12.1339352,127.207998 C12.1339352,122.272152 14.651404,120.544304 17.371338,120.544304 C18.5132156,120.544304 20.0437481,120.8014 21.5723276,121.913023 L22.1849312,120.27244 C22.9570331,118.331128 20.7774402,117 17.3010286,117 C11.5004991,117 8,121.800249 8,127.459053 C8,133.118527 10.7010546,138 17.0992144,138 C18.437698,138 19.6166833,137.844937 20.6348683,137.535481 C21.6524022,137.227369 22.4407795,136.87898 23,136.489643 L21.9069485,133.180284 C20.6277071,133.887131 18.9793412,134.314058 17.4553188,134.314058" id="Fill-8" fill="#000000"></path>
                    <path d="M34.6794728,123 L32.9174926,123 L32.9161643,133.782959 C31.9737407,134.317009 30.7842546,134.618805 30.2144171,134.618805 C29.6943905,134.618805 29.2899254,134.542512 29.0003576,134.387901 C28.7087974,134.237341 28.498263,134.02264 28.3674262,133.748526 C28.2379176,133.471711 28.1582201,133.141558 28.1276694,132.755368 C28.0991111,132.370527 28.0818433,131.953954 28.0818433,131.505649 L28.0818433,125.49066 C28.0818433,124.0654 27.3333504,123 25.761316,123 L24,123 L24,131.685916 C24,132.217266 24.0152754,132.755368 24.0438337,133.305622 C24.0750485,133.856551 24.1388066,134.419634 24.2397568,134.888869 C24.4383366,135.823964 24.8793297,136.575415 25.5600797,137.145249 C26.2401655,137.719134 27.2921733,138 28.7134464,138 C29.8358537,138 31.6270563,137.592204 32.9785941,136.302651 C33.1731889,137.503758 33.854603,137.85214 35.2008276,137.85214 L37,137.85214 L37,125.516991 C37,124.101184 36.2528354,123 34.6794728,123" id="Fill-9" fill="#000000"></path>
                    <path d="M46.0472789,100 C44.6501623,100 43.5761207,100.952764 42.9439022,101.780059 C42.6639482,100.864868 41.9488049,100.23752 40.759332,100.23752 L39,100.23752 L39,115 L43.078572,115 L43.078572,106.087627 L43.085206,106.150027 C43.085206,102.601315 46.0691711,102.718062 47.6381078,103.84796 L47.9532219,102.116881 C48.298189,100.221417 46.6416837,100 46.0472789,100" id="Fill-10" fill="#000000"></path>
                    <path d="M66.6073085,124.917604 C66.1196677,124.332652 65.4842771,123.866424 64.7051119,123.51892 C63.9259467,123.173418 62.9778299,123 61.8594363,123 C61.001427,123 60.1632944,123.136734 59.3437134,123.415536 C58.5247949,123.693005 57.791346,124.13122 57.1427042,124.723509 C56.494725,125.319134 55.9752816,126.068167 55.5863616,126.973276 C55.1954539,127.87505 55,128.953577 55,130.201521 C55,131.729601 55.2186433,132.993552 55.6599052,133.998043 C56.099842,134.995865 56.6729524,135.796923 57.3818868,136.39188 C58.0901585,136.987505 58.8991387,137.404375 59.8075022,137.642492 C60.7158657,137.878607 61.6394679,138 62.5802966,138 C63.6171959,138 64.521584,137.882609 65.2888232,137.655832 C66.0587126,137.42772 66.6530248,137.155587 67.0717598,136.837432 C67.5713266,136.483258 67.82111,136.085064 67.82111,135.645516 C67.82111,135.352706 67.6919117,134.969852 67.4302023,134.502957 C67.1704806,134.036729 66.918047,133.653875 66.6788645,133.357063 C66.4973243,133.517142 66.2978951,133.689226 66.0766016,133.875317 C65.8566332,134.06541 65.5982366,134.241496 65.2954488,134.397572 C64.9953111,134.556983 64.6547577,134.691049 64.2744508,134.800436 C63.894144,134.907155 63.451557,134.961848 62.9519902,134.961848 C61.6487437,134.961848 60.6973141,134.602339 60.0957138,133.875317 C59.4954386,133.152297 59.15356,132.24452 59.0747159,131.153986 L67.9118801,131.153986 C67.9297691,131.052603 67.9456705,130.919205 67.9556088,130.749122 C67.9648846,130.584375 67.9754854,130.408955 67.9854238,130.230201 C67.9946996,130.053448 68,129.8867 68,129.725955 L68,129.30775 C68,128.476677 67.8913409,127.680955 67.6726976,126.929254 C67.4514041,126.172218 67.0982621,125.503891 66.6073085,124.917604 M59.0435758,128.798835 C59.0435758,127.909067 59.2907089,127.120681 59.7823251,126.553737 C60.2746037,125.990129 60.9331838,125.707324 61.7547526,125.707324 C62.7200958,125.707324 63.3866266,126.005469 63.7589827,126.59976 C64.1306763,127.197385 64.3168544,127.969096 64.3168544,128.798835 L59.0435758,128.798835" id="Fill-11" fill="#000000"></path>
                    <path d="M46.0472789,122 C44.6501623,122 43.5761207,122.954106 42.9439022,123.781401 C42.6639482,122.864868 41.9488049,122.238862 40.759332,122.238862 L39,122.238862 L39,137 L43.078572,137 L43.078572,128.087627 L43.085206,128.151369 C43.085206,124.602657 46.0691711,124.720746 47.6381078,125.84796 L47.9532219,124.118223 C48.298189,122.221417 46.6416837,122 46.0472789,122" id="Fill-12" fill="#000000"></path>
                    <path d="M10.7426649,111.916412 L12.061297,111.916412 L16.2703233,102.803485 L17.0944683,115 L21,115 L19.5551299,95 L15.8248925,95 L10.5,107.161728 L5.19211362,95 L1.44487012,95 L0,115 L3.90422351,115 L4.7296767,102.803485 L8.24014203,110.552493 C8.78303121,111.805487 9.44234722,111.916412 10.7426649,111.916412" id="Fill-13" fill="#000000"></path>
                    <path d="M140.763699,81.357035 C137.189924,75.2225692 130.981102,69.763366 123.302047,66.1818844 C118.136402,63.7703269 114.984393,63.6235884 110.106316,62.7458133 C115.119914,61.5307389 117.074053,61.1496172 120.380754,58.6477591 C130.343164,51.132225 140.702219,33.6849516 136.62206,28.903667 C131.580036,22.9929608 121.165451,24.4636656 110.528743,28.3047615 C109.937742,28.5225453 109.378472,28.7648962 108.807963,29.0025993 C107.69339,18.6040854 109.531841,5.92614511 102.792175,0.549274841 C97.9259971,-3.33497943 81.1809509,14.2377853 75.8830906,26.3141642 C68.2549387,22.1171776 54.6896664,12.3149134 47.2214947,14.3201182 C43.2034769,15.3984137 42.8696337,34.5773341 47.6154958,43.5469736 C50.6108296,49.2093532 65.9577008,56.0808314 75.1486356,60.2087645 L71.7771498,58.969787 C62.07917,55.0689333 51.1753882,51.1780393 41.7160567,55.0018718 C30.2920084,59.6218105 15.4012794,74.8587108 17.1392473,78.8996632 C22.3604228,91.0610309 52.2278206,91.8909998 68.4598722,87.3919046 C76.8383449,85.0706477 83.8781395,74.3693612 75.388606,85.8382029 C70.8291673,92.0012197 72.7595082,107.60729 76.1164503,115.263587 C81.3521695,127.186588 93.083618,140.073016 99.3651588,138.928987 C105.644055,137.791598 112.792266,116.043094 111.785448,105.026419 C111.245349,99.1256724 107.395245,91.9155669 103.82147,86.795655 C105.160148,87.701981 106.979428,89.4502274 110.216716,90.3200347 C123.555239,93.912804 150.995167,96.8781167 140.763699,81.357035" id="Fill-14" fill="#000000"></path>
                    <path d="M106.282928,47.8780176 C105.598253,45.7798409 104.463462,43.4413097 102.002565,41.3851621 C101.604864,41.0482718 101.139023,40.7429033 100.656147,40.4578928 C100.635836,39.3099701 100.341655,37.8015157 99.6261869,36.5793852 C98.8484752,35.1983318 97.901069,34.3544642 97.1652895,33.8185918 C96.8507978,33.5545958 96.2211592,33.1861836 95.976773,33.048932 L95.7887332,32.9523961 L95.7474561,32.9333517 L95.4303437,32.773772 L95.2842361,32.7107282 L94.6853915,32.469717 C93.0742768,31.9193971 91.792068,31.962083 90.845317,32.0586188 C89.0586111,32.2891228 88.0705831,32.7317428 87.229973,33.0896478 C85.5998578,33.8185918 84.5174823,34.5140438 83.4960395,35.124124 C83.3577942,35.2094958 83.2208593,35.2948676 83.0649238,35.3881199 C83.0236468,35.3467474 82.9817145,35.3027481 82.9482998,35.262689 C82.2230034,34.5961321 81.5199834,34.0812743 80.7088569,33.6590122 C79.8898682,33.2374067 78.9123232,32.943859 77.9550891,32.8781883 C76.9978551,32.8059506 76.0622423,32.9221877 75.1475957,33.1520349 C73.9905283,33.4370454 72.7712179,33.9440227 71.6364271,34.5547596 C70.9320967,34.9244853 70.2271112,35.2206598 69.5516093,35.5358789 C68.9540751,35.83074 68.5124763,36.0625573 67.8599061,36.4539543 C66.6098016,37.1914355 65.5051496,38.0976902 64.6003308,39.131346 C64.1371108,39.6356965 63.7276164,40.1827328 63.3705373,40.7429033 C63.1824975,41.0147798 62.9584222,41.3851621 62.8974894,41.5217571 L62.6236196,42.0083764 C62.5181338,42.2165524 62.4133032,42.4083106 62.3189557,42.6381578 C61.9310827,43.5036968 61.6237981,44.5669043 61.5818659,45.6741112 C61.5628653,46.2231177 61.5956249,46.7596468 61.6893172,47.2869819 C61.7725264,47.7933025 61.9107717,48.2779518 61.9723597,48.3922187 C62.5181338,49.6314235 63.1071505,49.4915451 63.6968224,50.1436545 C64.0440737,50.4805448 63.918277,50.9238216 63.7276164,51.1871608 C63.5382662,51.4603507 63.2643964,51.6186169 62.9702156,51.7873904 C62.6655518,51.9771786 62.4133032,52.0513864 62.1191225,52.5137076 C61.2156141,53.8435379 61.3728599,54.1055638 61.1618884,54.7497927 C61.0465748,55.3710369 60.9522273,56.034967 61.0262639,56.8039701 C61.1107835,58.3334391 62.0142919,59.8294161 62.8765233,60.5984193 C63.7394098,61.4101083 64.5800199,61.8415643 65.3171098,62.1784547 C66.786048,62.8331909 68.0800503,63.1694245 69.2279449,63.5706721 C70.1006593,63.8556827 70.8672328,64.2017669 71.3815578,64.5182994 C71.4044894,65.5204332 71.6796697,66.4989256 72.1402689,67.2692422 C72.8341162,68.4283288 73.7579355,69.2616892 74.747274,69.9046047 C76.7357787,71.1779583 78.9850494,71.7814714 81.319495,71.9600955 C85.8874867,72.2785981 91.3353999,70.693309 95.4395164,67.1024388 C91.2318797,68.2142426 87.9454416,67.817592 86.2242548,67.2088252 C85.3286087,67.1011254 84.4978265,66.3432862 84.3071659,66.1640054 C80.8294121,62.8568323 87.0740376,63.7591468 87.0740376,63.7591468 C87.0740376,63.7591468 84.5659664,62.7813111 83.3040685,60.3331099 C82.5263568,58.8259689 83.587111,56.4808706 85.7354823,57.4173338 C87.7154696,58.9697876 86.3906734,56.5774064 86.3906734,56.5774064 C86.3906734,56.5774064 84.9741504,52.7691664 87.1788681,50.7445408 C88.2998999,49.7135118 90.76997,50.8338528 91.4566102,53.210473 C92.4374312,56.0277432 92.3961541,54.1981594 93.9135765,52.9812825 C95.4342748,51.763749 100.290551,52.0664906 98.4966376,58.0792938 C97.7248226,60.6555527 97.225567,62.9625621 99.3202127,64.7731014 C100.899878,63.8051163 101.752937,63.3690633 102.89559,62.354452 C104.037588,61.339184 104.537499,60.9563242 105.589735,58.8594609 C107.016741,55.9292372 107.555308,52.1026095 106.282928,47.8780176" id="Fill-15" fill="#FFFFFF"></path>
                    <path d="M67.8021843,31.7799081 C68.1480311,33.3272598 67.9815349,33.5789417 67.7495422,33.8671808 C67.5989611,34.0246578 67.4171621,34.0506696 67.2451569,33.8988168 C66.9954127,33.8953017 66.748117,33.682989 66.4775608,33.4453675 C66.369828,33.3722532 66.2406711,33.1613466 66.1359989,33.0748749 L66.0331631,32.9476279 C65.9003334,32.730394 65.4840931,32.1032983 65.0225561,31.4389424 L64.441656,30.5306378 L63.7915866,29.4768077 C62.77241,27.8718082 61.8793297,26.0495749 62.0133836,26.0031754 C62.1474374,25.9567759 62.5679626,26.434128 62.9529848,26.4397521 C63.4855276,26.4467824 66.8460559,29.17029 67.2102661,29.9661111 C67.5763128,30.7612291 67.8021843,31.7799081 67.8021843,31.7799081" id="Fill-16" fill="#FFFFFE"></path>
                    <path d="M95.3369219,21.8125148 C94.5876843,22.3921113 93.939727,23.2546871 93.4582011,24.8420994 C93.4582011,24.8420994 92.9263312,26.8393205 93.0086585,27.9678288 C93.0903935,29.097019 94.8559884,29.0540606 95.0200507,28.9517789 C95.171675,28.8685898 95.515199,28.6081123 95.8231861,27.5109704 C95.8231861,27.5109704 96.2407454,26.1213028 96.5795311,25.0207515 C96.9183168,23.920882 96.9426004,23.5178921 96.9864293,22.679182 C96.9864293,22.679182 97.0675721,21.3263357 96.8330281,21.1026797 C96.5967073,20.8797056 96.4800276,21.050857 95.9629648,21.3201988 L95.3369219,21.8125148" id="Fill-17" fill="#FFFFFE"></path>
                    <path d="M94.9255915,80.6125734 C94.8737618,80.8273255 95.0044878,81.5098819 94.9998808,81.6733397 C94.9952737,81.8374816 94.8772171,82.2040649 94.8772171,82.2040649 C94.7580088,82.6472478 94.8017761,83.2121691 94.6750813,83.9733767 C94.5466589,84.7345843 93.9788358,85.4014104 93.7795794,85.8329666 C93.5791712,86.2658906 93.3856737,86.9696485 93.2405505,86.9990573 C93.0942756,87.0270982 92.7032494,86.424561 92.8754391,85.8623753 C93.0459012,85.3001896 92.664665,83.5247225 92.664665,83.5247225 C92.4250967,82.2156916 92.6738792,82.2943429 92.6099559,81.7301055 C92.4671363,81.0420777 92.2799735,79.8595728 92.0922348,78.7741852 L92.0294633,78.0929967 C92.0294633,78.0929967 91.9799372,77.5205522 92.0093073,77.2647645 C92.0369498,77.0089769 92.0755342,76.2210962 92.5615815,76.02481 C93.0459012,75.8271559 93.8763281,76.8578296 94.1821233,77.4371134 C94.4781285,77.9603154 94.7908343,78.8083814 94.7931379,79.4731557 C94.8806725,79.7344147 95.0424963,80.4094479 94.9255915,80.6125734" id="Fill-18" fill="#FFFFFE"></path>
                    <path d="M64.9619343,66 C66.6763453,66.0137618 66.8325619,66.3058868 66.9867927,66.6962209 C67.0562958,66.9426819 66.8338858,67.1084488 66.7293001,67.3786801 C66.6247144,67.6482859 66.2354968,67.9716877 65.8528985,68.2600595 C65.7145541,68.373907 65.4365416,68.4833757 65.290254,68.6016019 L65.1068981,68.6985598 C64.8196184,68.8105307 63.9637368,69.1677114 63.0496049,69.5799393 L61.8283353,70.0709846 L60.4276814,70.6177025 C58.2664645,71.4771882 56.0165484,72.2603586 56,71.9175652 C56,71.9175652 56.0489832,71.7974624 56.7718159,71.1531609 C57.308645,70.625209 56.8803732,70.9048233 56.5030704,70.8497762 C56.1251057,70.7941035 61.2762818,66.7249956 62.5882364,66.3709425 C63.8995291,66.017515 64.9619343,66 64.9619343,66" id="Fill-19" fill="#FFFFFE"></path>
                    <path d="M106.565446,66.1420072 C106.565446,66.1420072 106.675169,66.0853767 107.09262,66.0096334 C107.50881,65.9338901 108.521539,66.3253484 108.792063,66.4655088 C109.061956,66.6056693 109.378512,66.9001478 109.683718,67.1684347 C109.988294,67.4374295 111.528828,69.118647 111.867455,69.5009028 L112.392107,70.1818843 C112.752174,70.5662638 113.080712,70.7715493 112.98234,70.9478116 C112.882707,71.124074 112.394629,70.8048197 111.908444,70.713503 C111.434239,70.62431 110.183777,70.2052444 109.587869,70.0608367 C108.990699,69.9164289 107.756632,69.7309641 107.575653,69.6799967 C107.395304,69.6283214 107.44512,69.5674436 107.298192,69.5023185 C107.153157,69.4364856 106.576796,69.3494162 106.326452,69.1490859 C106.076738,68.9473398 105.049505,67.8465847 105.003472,67.5053861 C104.958069,67.1656032 105.372998,66.9638571 105.372998,66.9638571 C105.358494,66.5532861 105.742524,66.2623469 106.565446,66.1420072" id="Fill-20" fill="#FFFFFE"></path>
                    <path d="M102.149313,72.095397 C102.149313,72.095397 102.122146,72.3636997 102.266828,72.6640081 C102.410879,72.9649974 103.184837,73.9204001 103.354791,74.1430777 C103.524114,74.3650744 103.885505,74.5891139 104.167289,74.7505041 C104.448441,74.9105324 104.905865,75.0596651 104.905865,75.0596651 C105.669082,75.3320536 105.888318,75.2843856 106.34132,75.4580333 L107.11275,75.6970542 C107.577756,75.8890881 107.896184,76.0858888 107.984005,75.9605901 C108.071194,75.8346104 107.784987,75.6868397 107.536057,75.274171 C107.271964,74.8390304 106.949745,73.7828439 106.599095,73.4566586 C106.214327,72.7940736 105.809342,72.1376172 105.651392,71.9033631 C105.493441,71.66979 105.250198,71.5717301 105.180068,71.4450694 C105.108674,71.3184088 105.159218,71.3272614 104.919765,71.0541919 C104.680312,70.7797605 102.913162,69.888369 102.590943,70.0116248 C102.268092,70.1341997 102.309791,70.5938553 102.309791,70.5938553 C101.970513,70.7457119 101.89912,71.2387351 102.149313,72.095397" id="Fill-21" fill="#FFFFFE"></path>
                    <path d="M67.5994392,76.4641345 C67.2686574,76.5398992 66.7881123,76.8225842 66.5309099,76.945463 C66.213151,77.0511516 65.5287974,76.9804803 64.9714171,76.923816 C64.4133857,76.866515 64.0396283,77.0218644 64.0038153,76.9390963 C63.9680023,76.8556914 64.1854848,76.2884113 64.6067758,76.1909996 C65.5073096,75.9840792 66.0555739,75.1010068 66.0555739,75.1010068 C66.8219718,74.3930209 66.8616917,74.6247717 67.2087521,74.3567302 C67.6020438,73.9683566 68.302676,73.3495056 68.9421006,72.771402 L69.3633916,72.453063 C69.3633916,72.453063 69.7130566,72.2022118 69.9012375,72.1092568 C70.0881162,72.0156652 70.6083812,71.9519974 70.7698652,72.0468624 C71.2452013,72.3257274 70.8779554,73.5003983 70.6168461,73.985547 C70.3882942,74.4337683 69.9149116,74.9755813 69.5157596,75.2894635 C68.7981975,75.8535603 67.5994392,76.4641345 67.5994392,76.4641345" id="Fill-22" fill="#FFFFFE"></path>
                    <path d="M113.063848,48.7330774 C112.50345,48.8879317 111.681361,49.0519365 111.094794,48.9843637 C110.45525,48.9287569 109.001277,48.7936113 109.000001,48.0115971 C108.998724,47.2295828 110.867571,46.4320832 110.867571,46.4320832 C111.828801,46.1582726 112.871091,45.8527873 113.495317,45.7106029 C113.972741,45.5388554 113.75956,45.3354332 114.935248,45.0264284 C114.935248,45.0264284 116.396241,44.6871567 116.887707,44.2641229 C117.379811,43.8424969 117.972123,44.0233949 117.998292,44.143055 C118.024461,44.2620113 117.746177,44.504851 117.417469,45.1418653 C117.29173,45.384705 116.973235,46.3448017 116.508577,46.7692432 C116.04328,47.1929809 115.259488,47.4921313 114.988862,47.7835389 C114.988862,47.7835389 113.75573,48.542325 113.063848,48.7330774" id="Fill-23" fill="#FFFFFE"></path>
                    <path d="M111.999954,38.23465 C111.999954,38.23465 111.880452,38.9403401 111.548801,39.1398308 L111.389018,39.2866871 C110.636424,39.8936066 109.896587,40.4186504 109.395754,40.8637681 C108.843897,41.2510529 107.19034,42.0607121 106.807666,41.9963812 C105.825468,41.8319801 105.928857,40.8878109 106.142349,40.3348254 C106.357856,39.7818398 107.352809,39.0066204 107.352809,39.0066204 C108.145012,38.1397782 112.015395,37.6959602 111.999954,38.23465" id="Fill-24" fill="#FFFFFE"></path>
                    <path d="M85.1101877,80.8856102 C85.1508497,81.0605523 84.9836107,81.5449536 85.0013183,81.7665933 C85.0203377,81.9882331 85.1449472,82.204994 85.1803625,82.4294216 C85.2282388,82.735396 85.2039727,83.3131927 85.2138103,83.6226519 C85.2689008,83.9774149 85.8670264,84.7970637 85.9785191,85.0800377 C86.0900118,85.3651027 86.2579067,85.9610209 86.4297366,85.9979608 C86.5995991,86.0349008 86.8186494,85.56653 86.7615914,84.8723376 C86.7038775,84.1788422 86.9032527,83.5229837 87.1124655,83.1117653 C87.3197108,82.7012439 87.1583743,82.1025379 87.2364192,81.636955 C87.400379,81.0654311 87.6259878,80.0840829 87.8437265,79.1794024 L87.9296415,78.6176363 C87.9296415,78.6176363 88.0411342,78.2893586 87.9834203,77.9332016 C87.9257064,77.5770447 87.7551882,77.2306455 87.6233644,77.0849766 C87.490229,76.9386107 87.2993798,77.0257333 87.2993798,77.0257333 C86.7648706,77.2055542 86.2552834,77.7373502 85.9404804,78.2342971 C85.6453527,78.6845464 85.3134979,79.4003452 85.2866085,79.9488687 C85.1934793,80.1684175 85.0105001,80.7322746 85.1101877,80.8856102" id="Fill-25" fill="#FFFFFE"></path>
                    <path d="M62.3698413,36.9206841 C63.5290356,37.1243191 63.7138801,36.9056794 63.928801,36.6063002 C64.045347,36.4148118 63.9939665,36.3026339 63.9488519,36.0254044 C63.9043639,35.7481749 63.7834318,35.4845211 63.6048532,35.2051481 C63.5497131,35.0922557 63.3905589,34.9693602 63.3247668,34.8614693 L63.2301515,34.7585801 C63.0672377,34.63497 62.5966674,34.2369885 62.0960208,33.7932785 L61.4117829,33.2431066 L60.6197712,32.6293434 C59.4129559,31.6640419 58.081449,30.8266374 58.0118973,31.0309869 C57.9837007,31.112441 57.992473,31.0867186 58.1867164,31.5289997 C58.4010107,32.0198673 58.1854632,31.7833649 58.0488662,31.9541325 C57.9116427,32.1256146 60.4424458,36.1025714 61.0088845,36.4705435 C61.5759499,36.8392301 62.3698413,36.9206841 62.3698413,36.9206841" id="Fill-26" fill="#FFFFFE"></path>
                    <path d="M88.3357821,21.0311871 C88.6585607,20.8350159 88.8561803,21.6190402 89.1335796,21.857484 L89.2836241,21.966468 C89.4248854,22.1276322 89.642267,22.3277665 89.6078665,22.5345058 C89.6078665,22.5345058 89.7681579,24.0767946 89.8537931,24.7108833 C90.1114304,26.6375883 89.9526029,27.3146101 89.9408921,27.3733954 C89.8969766,27.594666 89.7549833,27.8522645 89.6766674,27.9302046 C89.4709967,28.1316599 87.369642,27.9658721 87.099562,26.5054865 C86.9765987,25.8357303 87.002216,24.2716447 87.002216,24.2716447 C87.1251793,22.8508897 87.7195018,21.6263058 88.1513372,21.3898436 L88.3357821,21.0311871" id="Fill-27" fill="#FFFFFE"></path>
                </g>
            </g>
        </g>
    </g>
</svg>