<?xml version="1.0" encoding="UTF-8" standalone="no"?>
<svg width="222px" height="110px" viewBox="0 0 222 110" version="1.1" xmlns="http://www.w3.org/2000/svg" xmlns:xlink="http://www.w3.org/1999/xlink">
    <!-- Generator: Sketch 50.2 (55047) - http://www.bohemiancoding.com/sketch -->
    <title>Parkinson'sUK_Logo_Stacked_Blk</title>
    <desc>Created with Sketch.</desc>
    <defs>
        <polygon id="path-1" points="0.164510884 0.0630923328 18.2083333 0.0630923328 18.2083333 18.9589582 0.164510884 18.9589582"></polygon>
        <polygon id="path-3" points="0.0753331549 0.176448094 91.969359 0.176448094 91.969359 92.5658639 0.0753331549 92.5658639"></polygon>
        <polygon id="path-5" points="0.418145238 0.127467532 18.4543752 0.127467532 18.4543752 12.1971158 0.418145238 12.1971158"></polygon>
    </defs>
    <g id="BF-Digital" stroke="none" stroke-width="1" fill="none" fill-rule="evenodd" opacity="0.800000012">
        <g id="Home" transform="translate(-455.000000, -5934.000000)">
            <g id="Group-7" style="mix-blend-mode: multiply;" transform="translate(115.000000, 5122.000000)">
                <g id="Parkinson'sUK_Logo_Stacked_Blk" transform="translate(340.000000, 812.000000)">
                    <path d="M8.83600784,60.9855093 C7.43204748,61.0580852 6.24648095,60.8578757 5.27556437,60.3886348 C4.30339981,59.9168912 3.51468608,59.2599538 2.90567928,58.4140688 C2.2991684,57.5656812 1.84615719,56.5834034 1.55413344,55.4684869 C1.26086172,54.3498165 1.08489869,53.1961094 1.02250045,51.9998578 C0.956358319,50.7335328 1.03622806,49.5135063 1.25961376,48.3435322 C1.48549538,47.1748094 1.88234817,46.1337201 2.45142011,45.2140079 C3.01799611,44.2980495 3.77800665,43.5535205 4.73020376,42.9804209 C5.68115291,42.4085726 6.84799997,42.0844835 8.23324085,42.0119076 C9.32396206,41.9543474 10.3086063,42.1057558 11.1884214,42.4598763 C12.0644927,42.8102429 12.8220073,43.2782325 13.4597173,43.8500808 C13.751741,44.1166097 14.0225494,44.4144213 14.2758862,44.7497721 C14.5267272,45.085123 14.6627553,45.4254791 14.6802268,45.7745944 C14.707682,46.2763694 14.5566783,46.65927 14.2334554,46.918291 C13.9077366,47.181066 13.5545626,47.3199613 13.1726854,47.3399822 C12.8794137,47.3562493 12.6248289,47.2774168 12.4051871,47.1059874 C12.1880412,46.934558 11.9521759,46.7343486 11.698839,46.505359 C11.4979167,46.3226678 11.2882586,46.1387254 11.0711127,45.9497777 C10.8514709,45.7620813 10.6106137,45.5956572 10.3410533,45.449254 C10.0739889,45.3091074 9.77198141,45.1939869 9.43877482,45.1088979 C9.10182433,45.0213062 8.72868287,44.9875209 8.3131106,45.0100445 C7.53438059,45.0500864 6.88793484,45.2603063 6.37751725,45.6369504 C5.86959559,46.0110918 5.46151112,46.5016051 5.15326382,47.1072387 C4.84876042,47.7178776 4.64159827,48.4136055 4.5342733,49.2031817 C4.42819629,49.9940091 4.39699717,50.8123653 4.4419239,51.6632556 C4.4880986,52.5491825 4.60540729,53.3850571 4.79384997,54.1733819 C4.98354061,54.9654606 5.25809286,55.6499267 5.61750671,56.2180211 C5.97816853,56.7936234 6.42119602,57.2390895 6.95033308,57.5581733 C7.47947014,57.8772572 8.09970863,58.022409 8.80855261,57.9848698 C9.62097767,57.9423252 10.2624316,57.7245974 10.7266745,57.3354403 C11.1934133,56.9462831 11.6114815,56.4883039 11.983375,55.9652567 C12.1293868,55.7650472 12.3090938,55.5410628 12.5224957,55.2970575 C12.7346498,55.0492983 13.0141939,54.9166595 13.3611281,54.8991412 C13.7579809,54.877869 14.1248825,54.9979946 14.460585,55.258267 C14.7962875,55.5197906 14.9747465,55.877665 14.9972099,56.326885 C15.0321529,56.986325 14.7388812,57.6908121 14.1173947,58.4365924 C13.8415945,58.7656867 13.5358431,59.0735088 13.2051325,59.3700691 C12.8719259,59.669132 12.4937926,59.9319069 12.0732284,60.1633991 C11.6526643,60.39364 11.1746938,60.5763311 10.6430608,60.721483 C10.1151717,60.862881 9.50990881,60.9492213 8.83600784,60.9855093" id="Fill-1" fill="#1A1919"></path>
                    <path d="M16.0036451,43.061569 C15.9757844,42.5421593 16.1074894,42.1595024 16.4038256,41.9198714 C16.6988955,41.6764765 17.1016088,41.5434876 17.6119657,41.5171407 C18.0868635,41.4920484 18.4819785,41.5836352 18.8036426,41.7956647 C19.1215076,42.0026758 19.2950036,42.3702774 19.3228643,42.889687 L19.6381964,48.8679167 L26.1753233,48.5291713 L25.8612575,42.5797977 C25.8333969,42.0390596 25.9638355,41.6476204 26.2589053,41.4079894 C26.5552416,41.1645945 26.9566885,41.0316056 27.4683118,41.0040041 C27.9596727,40.9789118 28.3611197,41.0717532 28.6701199,41.2825281 C28.9803865,41.4920484 29.1500833,41.8671776 29.177944,42.4079157 L29.997301,57.8873277 C30.0175633,58.2837854 29.9238502,58.6438592 29.7123623,58.9600216 C29.4996081,59.2736748 29.0778988,59.4493206 28.4447017,59.4819405 C27.3201437,59.5409073 26.7338032,59.0578814 26.6793482,58.0316082 L26.3361554,51.5565519 L19.7990285,51.8952973 L20.1422213,58.3716083 C20.1624836,58.7718297 20.0662377,59.1344128 19.8560162,59.4568483 C19.6419956,59.7843022 19.2215527,59.959948 18.589622,59.9950771 C17.9906176,60.0239332 17.554978,59.9260734 17.278904,59.6977339 C17.0015637,59.4681398 16.8508628,59.0829737 16.8230021,58.5434902 L16.0036451,43.061569" id="Fill-2" fill="#1A1919"></path>
                    <path d="M37.0181195,42.3807353 C36.9354144,42.2105685 36.9117844,42.0708794 36.9406655,41.960398 C36.9721722,41.8537263 37.0312472,41.7457847 37.1152651,41.6340334 C37.3043052,41.4168803 37.5261649,41.2556028 37.7900334,41.1629 C38.047338,41.0714671 38.3256472,41.0194012 38.6157713,41.0041624 C39.0345477,40.982574 39.4218175,41.0447992 39.774955,41.1946476 C40.130718,41.3470357 40.4234677,41.6784799 40.6505784,42.1965996 L46.8206389,56.9338034 C46.9256612,57.1915933 46.9834234,57.453193 46.9965512,57.7186023 C47.021494,58.1592581 46.9112206,58.546578 46.6631054,58.8742125 C46.416303,59.2056567 46.0027777,59.3847128 45.4212167,59.4126506 C45.0562641,59.4316991 44.7241311,59.3847128 44.4261303,59.2678818 C44.1268167,59.1485111 43.9154594,58.9364376 43.7894326,58.6240419 L37.0181195,42.3807353 Z M36.9301633,53.3806198 L40.0440746,53.2218821 C40.2068592,53.2142627 40.321071,53.287917 40.3840843,53.4403051 L41.2623334,55.5165936 C41.4277435,55.8632767 41.3555407,56.0436026 41.0483504,56.0588414 L36.1280554,56.309012 L35.3640181,58.8907212 C35.2589958,59.2678818 35.0712685,59.5434504 34.8073999,59.7148871 C34.5422186,59.8863237 34.25472,59.9802964 33.946217,59.9942654 C33.2911404,60.0285527 32.8080378,59.909182 32.5008476,59.6336134 C32.1949701,59.355505 32.0282472,58.9973929 32.0033044,58.5618168 C31.987551,58.2418017 32.0282472,57.9586137 32.1227673,57.7059033 L36.0637293,44.467183 C36.0978615,44.3973385 36.1228043,44.3401929 36.1503727,44.2932066 C36.1726899,44.24876 36.2330777,44.2208222 36.3223467,44.2170125 C36.4680651,44.2093931 36.5862152,44.3211444 36.6689203,44.5459169 L38.0854086,47.9162348 C38.1471092,48.0571938 38.1759904,48.1765645 38.1759904,48.273077 C38.1694265,48.3708594 38.1523604,48.4635622 38.1208537,48.5524553 L36.9301633,53.3806198 Z" id="Fill-3" fill="#1A1919"></path>
                    <path d="M47.0046341,41.3146453 C46.9714926,40.7254798 47.1159897,40.2829789 47.4421024,39.9984244 C47.7668895,39.7126165 48.1884499,39.5571771 48.7041323,39.5321062 C49.0700149,39.5145566 49.4146869,39.5697125 49.7368226,39.7013346 C50.0576328,39.8329567 50.3850712,40.1363142 50.7257662,40.6076467 L58.3682052,51.7052688 L57.7544239,40.5976183 C57.722608,40.0422985 57.8472202,39.6436716 58.1295862,39.4054983 C58.4119521,39.1635644 58.8176045,39.0306887 59.3544975,39.0043643 C59.8675285,38.9780399 60.2917402,39.0708021 60.6152016,39.282651 C60.9386631,39.4907393 61.1176274,39.8743236 61.1481176,40.430897 L61.9952153,55.7128479 C62.0058206,55.9058936 61.9991923,56.1014465 61.9713534,56.3020134 C61.9461659,56.5050875 61.8812084,56.6855978 61.7804582,56.849812 C61.6797079,57.0115192 61.5179772,57.149409 61.307197,57.2634814 C61.0911141,57.380061 60.7915146,57.4452453 60.4030958,57.4640484 C59.6116758,57.5041618 58.9660786,57.1732263 58.4663042,56.4637206 L50.683345,45.8161206 L51.2679618,56.3772261 C51.290498,56.7771065 51.200353,57.1393806 50.9975268,57.4602878 C50.7933749,57.7849556 50.3625349,57.9617053 49.6997041,57.9942974 C49.0753175,58.025636 48.6166386,57.9278596 48.3276444,57.6997146 C48.0373245,57.4690626 47.8782451,57.0854782 47.8490805,56.5464545 L47.0046341,41.3146453" id="Fill-4" fill="#1A1919"></path>
                    <path d="M75.1318181,54.5496454 C75.0253209,54.7334928 74.9090308,54.8898256 74.7878444,55.0161425 C74.667882,55.1437101 74.5503678,55.2625231 74.4340778,55.3725814 C73.9664694,55.8340759 73.4266387,56.2092747 72.8219304,56.4894231 C72.2098775,56.7770756 71.4766382,56.9409124 70.6087471,56.9871869 C69.438502,57.0484694 68.4016844,56.8896352 67.494622,56.5169377 C66.5900078,56.1379869 65.8151488,55.5626821 65.1724933,54.7872713 C64.5261654,54.0118604 64.0267302,53.0526022 63.6692913,51.9032432 C63.3118524,50.7563855 63.0964098,49.456947 63.0217394,48.0011757 C62.9568618,46.7555157 63.0376527,45.5423729 63.2579918,44.374254 C63.4795549,43.2036338 63.8749411,42.1630824 64.4490467,41.2438454 C65.0256006,40.325859 65.7882185,39.5754614 66.7369005,38.9951539 C67.6892548,38.4160971 68.8656205,38.0846715 70.2757904,38.0108824 C71.242834,37.9583546 72.1633615,38.0959275 73.0288043,38.4248517 C73.8991435,38.750024 74.6886918,39.2365318 75.4047937,39.8743698 C75.6887862,40.1382596 75.9580895,40.4359173 76.2016866,40.7735962 C76.45018,41.1075231 76.5836076,41.4477034 76.6007451,41.7953876 C76.6240031,42.2481275 76.5064889,42.6145716 76.2482026,42.8959707 C75.9899163,43.1798712 75.6483907,43.3337027 75.2260742,43.3562146 C74.9371853,43.3712225 74.6715543,43.3074388 74.4340778,43.1623619 C74.1978254,43.017285 73.9530042,42.8409416 73.7057348,42.6258276 C73.5074297,42.4482335 73.2956594,42.2581328 73.0618552,42.0630294 C72.8329474,41.8666754 72.5758852,41.6890813 72.2931167,41.5289965 C72.0140206,41.371413 71.7018736,41.2425947 71.3554517,41.1500457 C71.0102538,41.0537446 70.6332293,41.0174754 70.2268261,41.0387367 C69.4629841,41.0800086 68.8191045,41.2863679 68.30498,41.6515614 C67.7859592,42.0180056 67.3771078,42.505764 67.0759778,43.1123354 C66.777296,43.7226588 66.5728703,44.4230298 66.4700454,45.2184513 C66.3635482,46.0176247 66.3366179,46.869326 66.3831339,47.7698031 C66.4920793,49.8996816 66.9094994,51.4992791 67.6390665,52.5685957 C68.3661853,53.6329096 69.4495189,54.1269214 70.8951879,54.0493803 C71.4876551,54.0168631 71.995659,53.8980501 72.4204237,53.6804348 C72.8427402,53.4653208 73.2417987,53.1501539 73.6090305,52.7274299 C73.9481078,52.3284685 74.2039459,51.8757286 74.3826653,51.3692102 C74.5626089,50.8664438 74.6850195,50.2798831 74.7523453,49.6132799 L71.9515912,49.7633594 C71.3897266,49.7933753 71.0053574,49.6845676 70.7997077,49.4369364 C70.5916097,49.1880546 70.4728714,48.852877 70.4508375,48.437657 C70.3994251,47.4333749 70.8523442,46.9018432 71.8022503,46.8505661 L76.1563947,46.6179428 C76.565246,46.5954309 76.9067715,46.6929826 77.1821953,46.9068459 C77.4551709,47.1182079 77.60696,47.4984093 77.6363386,48.0524529 L77.9974498,55.0799263 C78.0035703,55.2337578 77.9986739,55.3900907 77.9827605,55.5489248 C77.965623,55.7052577 77.9178829,55.8515852 77.838316,55.9904087 C77.7599733,56.1217283 77.6265457,56.2330373 77.4343611,56.3205837 C77.2434006,56.4093807 76.9851143,56.4619086 76.6619503,56.4794178 C76.3387864,56.4969271 76.0841724,56.4719139 75.894436,56.4031274 C75.7022514,56.3355916 75.5529105,56.2405413 75.4451892,56.1179763 C75.3337955,55.9904087 75.2640215,55.8540865 75.2309707,55.7102603 C75.1991439,55.5639328 75.1758859,55.4126026 75.1685413,55.2562698 L75.1318181,54.5496454" id="Fill-5" fill="#1A1919"></path>
                    <path d="M81.1416631,55.9971136 C80.2989508,56.0396558 79.851493,55.6118024 79.8030184,54.7220616 L79.0025661,39.7763617 C78.9826791,39.4044209 79.0783853,39.0944702 79.2896848,38.8465097 C79.5009844,38.5997647 79.8055043,38.4648449 80.2020016,38.4453971 L88.8416665,38.0029577 C89.7017799,37.9579844 90.1604242,38.4259492 90.2126276,39.4032054 C90.2374864,39.8419983 90.164153,40.2017842 89.9963563,40.4801321 C89.8310455,40.7560489 89.5252827,40.909201 89.0778248,40.9322954 L82.3510421,41.2774954 L82.5822287,45.577909 L88.6589546,45.2655274 C89.4892375,45.2229851 89.9255088,45.66664 89.9752264,46.5928455 C89.9975993,47.0328539 89.9279947,47.3987173 89.7626839,47.6904356 C89.5948872,47.9882313 89.2791809,48.1462454 88.8143219,48.1705552 L82.7388389,48.4817214 L82.9749972,52.9085463 L89.8285596,52.5572689 C90.1927406,52.5390365 90.4686729,52.6605858 90.6638143,52.9182702 C90.8601985,53.1808167 90.97082,53.5393871 90.9956788,53.9951969 C91.0192946,54.4327743 90.9459613,54.7937757 90.7794075,55.0842785 C90.6128538,55.3699193 90.2983904,55.5267179 89.8335314,55.5510277 L81.1416631,55.9971136" id="Fill-6" fill="#1A1919"></path>
                    <path d="M103.017623,38.3803976 C102.936227,38.2102272 102.911283,38.070535 102.941478,37.9600513 C102.970361,37.8533773 103.030752,37.7454333 103.114774,37.6336796 C103.303824,37.4152519 103.528321,37.253971 103.789578,37.1625361 C104.046896,37.0698313 104.32522,37.0177642 104.61536,37.003795 C105.03022,36.9834762 105.416197,37.0444327 105.770666,37.1942843 C106.126448,37.3466757 106.4179,37.6781271 106.648961,38.196258 L112.816722,52.9337791 C112.920437,53.1928446 112.982141,53.4531799 112.996582,53.7173251 C113.021526,54.1605302 112.909934,54.5453185 112.661806,54.8729601 C112.41499,55.2056814 112.00013,55.3834714 111.419852,55.4139497 C111.05488,55.4304587 110.722729,55.3834714 110.4234,55.2679079 C110.121445,55.1485346 109.910076,54.9351866 109.785356,54.625324 L103.017623,38.3803976 Z M102.929663,49.379249 L106.0398,49.2217779 C106.203906,49.2141583 106.315498,49.2878142 106.379828,49.4414755 L107.260749,51.5165388 C107.424855,51.8632293 107.352648,52.0435592 107.044129,52.0587984 L102.131451,52.3089743 L101.367373,54.8907391 C101.25972,55.2679079 101.073295,55.5422124 100.8081,55.7136528 C100.54553,55.8850932 100.254078,55.9790679 99.9455588,55.994307 C99.2917604,56.0285951 98.8086323,55.9079519 98.5014258,55.6336473 C98.196845,55.3568029 98.0288005,54.9974131 98.0038564,54.5605577 C97.9867893,54.2405357 98.0261748,53.9573416 98.1259512,53.7046258 L102.063183,40.4668903 C102.096004,40.3970442 102.1262,40.3386275 102.151144,40.2929101 C102.176088,40.2484626 102.233853,40.2205241 102.323127,40.2167143 C102.468853,40.2090948 102.585696,40.3208485 102.668406,40.5456258 L104.084969,43.9160163 C104.149299,44.0557084 104.176868,44.1763517 104.174243,44.2728662 C104.168991,44.3693808 104.151924,44.4620856 104.119103,44.5522505 L102.929663,49.379249 Z" id="Fill-7" fill="#1A1919"></path>
                    <path d="M118.369984,52.5000428 C118.39017,52.8883746 118.291763,53.2257378 118.070979,53.5169866 C117.848933,53.8058083 117.432598,53.9647817 116.819449,53.9951201 C115.70039,54.0521563 115.113735,53.6092154 115.062009,52.6662973 L114.331529,39.2591433 L110.34354,39.4605904 C109.886833,39.4836476 109.555026,39.3622939 109.346858,39.0953158 C109.141214,38.8259106 109.025144,38.4909745 109.003697,38.0868668 C108.980988,37.6839726 109.062993,37.336901 109.24719,37.0468658 C109.435172,36.7604711 109.72913,36.6063519 110.132849,36.5857218 L121.71076,36.0020106 C122.110695,35.982594 122.423577,36.1039477 122.640576,36.360004 C122.852529,36.6221279 122.973645,36.9509964 122.996354,37.3551041 C123.017801,37.7592118 122.944627,38.1087104 122.776832,38.4035998 C122.609036,38.7009164 122.287322,38.8586761 121.815475,38.8817333 L117.639504,39.0928887 L118.369984,52.5000428" id="Fill-8" fill="#1A1919"></path>
                    <path d="M133.369133,51.5002207 C133.389323,51.8873431 133.290899,52.2259235 133.07386,52.5171755 C132.851774,52.8060003 132.432838,52.9637618 131.818316,52.9953141 C130.701576,53.0511374 130.114814,52.6081917 130.063078,51.666477 L129.331203,38.2591784 L125.342485,38.4606277 C124.885694,38.4836851 124.55635,38.3623301 124.343097,38.0953492 C124.138676,37.8259411 124.023848,37.4910014 124.003658,37.0868893 C123.980945,36.6839907 124.064227,36.3369155 124.247196,36.046877 C124.436474,35.7604793 124.729224,35.6063584 125.133017,35.5857281 L136.714307,35.0020106 C137.11179,34.9825938 137.425992,35.1039488 137.643031,35.3600078 C137.85376,35.6221346 137.974898,35.9522202 137.99635,36.3563323 C138.017801,36.7604443 137.944614,37.1099467 137.779311,37.4036258 C137.610222,37.7009455 137.28845,37.858707 136.816517,37.8829779 L132.63852,38.0929221 L133.369133,51.5002207" id="Fill-9" fill="#1A1919"></path>
                    <path d="M139.004397,36.5085639 C138.970789,36.0028339 139.129665,35.6302551 139.487137,35.3969352 C139.841553,35.1599506 140.328876,35.0292426 140.946049,35.0035896 C141.511282,34.9803798 141.994022,35.0695544 142.380519,35.2759997 C142.765488,35.4775588 142.974777,35.8354788 143.008386,36.3412088 L143.99678,51.4153826 C144.021222,51.8050635 143.906648,52.1580972 143.648474,52.4720407 C143.393355,52.7896489 142.887701,52.9618903 142.1254,52.9948727 C141.404346,53.0241903 140.874249,52.9276863 140.539692,52.7078037 C140.211246,52.4830348 140.0264,52.1092344 139.992791,51.5827377 L139.004397,36.5085639" id="Fill-10" fill="#1A1919"></path>
                    <path d="M153.370785,51.4988395 C153.390973,51.8871715 153.292557,52.2257484 153.06923,52.5169974 C152.849688,52.8058194 152.433315,52.9635792 151.822634,52.9951312 C150.698427,53.0521675 150.115505,52.6080128 150.063774,51.6663077 L149.331967,38.2591453 L145.339833,38.4605925 C144.883085,38.4836497 144.553772,38.362296 144.346847,38.0953177 C144.139922,37.8259124 144.023842,37.490976 144.003655,37.0856545 C143.980943,36.6827601 144.064218,36.3369019 144.249693,36.0468664 C144.437692,35.7604716 144.72663,35.6063523 145.132909,35.5857221 L156.714386,35.0020106 C157.110571,34.982594 157.42222,35.1039478 157.6405,35.3600042 C157.853734,35.6209147 157.974861,35.9509969 157.99631,36.3551049 C158.01776,36.7592129 157.945841,37.1087117 157.776768,37.4036013 C157.606434,37.700918 157.285952,37.8586779 156.816587,37.8829486 L152.64024,38.0928906 L153.370785,51.4988395" id="Fill-11" fill="#1A1919"></path>
                    <path d="M180.954771,51.8205371 C180.717753,51.8316077 180.583265,51.6692387 180.56196,51.3235895 L180.456767,49.4551155 C180.438125,49.1180768 180.553971,48.9372567 180.790989,48.9261861 L181.877544,48.8732932 C183.388868,48.7994891 184.551322,48.2508785 185.363575,47.216391 C186.174497,46.1868237 186.520703,44.6111061 186.400863,42.4990786 C186.283685,40.4534748 185.767039,38.9995339 184.84826,38.1483265 C183.929482,37.2909688 182.713766,36.9022672 181.202442,36.9748412 L180.115887,37.0277342 C179.878869,37.0400349 179.743049,36.8752057 179.724407,36.5332467 L179.613888,34.5848183 C179.593914,34.2465495 179.70976,34.0694196 179.94811,34.058349 L180.810963,34.0165267 C182.137199,33.9525631 183.347589,34.0743399 184.440802,34.3806269 C185.532684,34.686914 186.472767,35.1789413 187.25972,35.8591692 C188.050669,36.5406271 188.679166,37.4188959 189.147876,38.4890555 C189.612592,39.5629052 189.890888,40.8409463 189.976108,42.3256389 C190.058665,43.7894203 189.92684,45.0994432 189.587292,46.2409467 C189.243749,47.3886006 188.720445,48.3615847 188.013385,49.1537488 C187.311651,49.9508331 186.434152,50.5707876 185.38488,51.0160724 C184.332946,51.4613571 183.145192,51.7135212 181.818956,51.7774847 L180.954771,51.8205371 Z M175.002686,35.5061395 C174.981381,35.1309687 175.086575,34.8283718 175.326256,34.6032693 C175.565937,34.3793969 175.885512,34.2551599 176.290307,34.2354789 L178.063949,34.1493741 C178.306293,34.1383034 178.436786,34.3019025 178.455428,34.6414014 L179.404832,51.3801726 C179.426137,51.7258218 179.314286,51.8992615 179.07061,51.9115622 L177.2983,51.997667 C176.893505,52.016118 176.560615,51.9250929 176.296965,51.7258218 C176.034647,51.5240906 175.894833,51.2276441 175.872197,50.8340222 L175.002686,35.5061395 Z" id="Fill-12" fill="#1A1919"></path>
                    <path d="M192.140647,49.9969463 C191.299206,50.040707 190.85052,49.6140407 190.80329,48.7230254 L190.002864,33.7775503 C189.981735,33.4055848 190.077438,33.0956136 190.292459,32.846421 C190.502509,32.5996596 190.804533,32.4659466 191.201017,32.4452818 L199.840394,32.0028131 C200.70545,31.9590524 201.161593,32.4258326 201.213795,33.4043692 C201.23741,33.8431912 201.166565,34.2017854 200.998774,34.4801517 C200.834711,34.7560869 200.526473,34.9104647 200.072815,34.9335606 L193.351229,35.2775679 L193.581164,39.5782666 L199.660174,39.2658642 C200.4867,39.2245347 200.929171,39.6670035 200.978887,40.594486 C201.001259,41.033308 200.929171,41.3991956 200.762623,41.6921488 C200.596075,41.9899642 200.277893,42.1467732 199.816779,42.1710847 L193.73777,42.4822715 L193.97392,46.9093899 L200.827254,46.5593047 C201.193908,46.5398555 201.472317,46.6614129 201.664966,46.9191144 C201.862587,47.1816783 201.971962,47.5402725 201.995577,47.9973281 C202.019192,48.4337189 201.948347,48.7947442 201.780556,49.0852663 C201.617736,49.370926 201.300798,49.5289506 200.832225,49.5520465 L192.140647,49.9969463" id="Fill-13" fill="#1A1919"></path>
                    <g id="Group-17" transform="translate(203.000000, 31.000000)">
                        <mask id="mask-2" fill="white">
                            <use xlink:href="#path-1"></use>
                        </mask>
                        <g id="Clip-15"></g>
                        <path d="M5.567,10.8589524 C4.8906,10.7532083 4.2408,10.6001905 3.61126667,10.4011429 C2.98173333,10.2020952 2.4244,9.91347619 1.9304,9.54275 C1.43133333,9.16953571 1.02726667,8.69182143 0.711866667,8.11333929 C0.404066667,7.531125 0.2204,6.799625 0.173533333,5.91883929 C0.131733333,5.127625 0.2356,4.38617262 0.476266667,3.69697024 C0.724533333,3.01025595 1.10833333,2.40689286 1.6264,1.888125 C2.1394,1.3681131 2.79553333,0.948869048 3.58086667,0.62914881 C4.36366667,0.313160714 5.27313333,0.129041667 6.31053333,0.075547619 C7.0148,0.0394702381 7.714,0.0817678571 8.41953333,0.202440476 C9.12253333,0.320625 9.7546,0.504744048 10.3246,0.751065476 C10.8971333,0.999875 11.3645333,1.30342262 11.7331333,1.66544048 C12.1068,2.02745833 12.3056667,2.44048214 12.331,2.907 C12.3474667,3.20059524 12.3006,3.4792619 12.1904,3.7454881 C12.1004667,3.99056548 11.9408667,4.20454167 11.7217333,4.37995238 C11.5013333,4.55411905 11.2442,4.657375 10.9452667,4.68972024 C10.7020667,4.70216071 10.4791333,4.68723214 10.2840667,4.63498214 C10.0852,4.58522024 9.8838,4.46952381 9.6824,4.28789286 C9.48353333,4.14233929 9.272,3.99554167 9.05033333,3.83879167 C8.8312,3.68950595 8.5842,3.55390476 8.31313333,3.43696429 C8.04206667,3.32002381 7.73933333,3.23045238 7.40366667,3.16078571 C7.06293333,3.09111905 6.6842,3.0662381 6.25986667,3.08863095 C5.73673333,3.11475595 5.29973333,3.20308333 4.9514,3.3536131 C4.6094,3.49667857 4.33706667,3.68328571 4.13566667,3.89975 C3.93933333,4.11497024 3.80126667,4.36626786 3.7278,4.64617857 C3.65306667,4.92857738 3.62646667,5.2084881 3.64166667,5.48342262 C3.6746,6.1228631 3.9216,6.61301786 4.37633333,6.96135119 C4.8412,7.31092857 5.4682,7.5597381 6.2662,7.70902381 L7.63293333,7.949125 C8.2346,8.05984524 8.854,8.20415476 9.4924,8.38827381 C10.1232,8.57114881 10.7033333,8.84359524 11.229,9.2056131 C11.7445333,9.57011905 12.1815333,10.0465893 12.5324,10.6288036 C12.8782,11.2172381 13.0796,11.9761071 13.129,12.9103869 C13.1834667,13.9255298 13.0631333,14.8050714 12.7654667,15.5340833 C12.4703333,16.2680714 12.0396667,16.882631 11.476,17.3653214 C10.9123333,17.8542321 10.2448,18.2262024 9.45946667,18.4837202 C8.68046667,18.7412381 7.83686667,18.8917679 6.92106667,18.9377976 C5.65566667,19.0037321 4.60053333,18.9154048 3.7468,18.6753036 C2.90066667,18.4314702 2.21033333,18.1515595 1.68213333,17.8305952 C1.2464,17.5768095 0.95,17.3354643 0.785333333,17.0978512 C0.624466667,16.8664583 0.534533333,16.6462619 0.5244,16.438506 C0.496533333,15.9197381 0.633333333,15.4494881 0.9386,15.0265119 C1.24006667,14.6072679 1.61373333,14.3845833 2.052,14.3621905 C2.33193333,14.3472619 2.584,14.3945357 2.80186667,14.5040119 C3.01466667,14.6159762 3.2642,14.7590417 3.53653333,14.9369405 C3.75693333,15.0787619 3.97353333,15.2156071 4.1914,15.3425 C4.41433333,15.4693929 4.65626667,15.5838452 4.921,15.6920774 C5.19713333,15.8003095 5.50493333,15.8811726 5.85073333,15.9309345 C6.19906667,15.9831845 6.5968,15.996869 7.05533333,15.9732321 C7.9534,15.9272024 8.63993333,15.6871012 9.11873333,15.2566607 C9.59753333,14.8249762 9.81793333,14.2477381 9.77993333,13.5224583 C9.7394,12.7436845 9.47846667,12.1763988 9.00093333,11.8094048 C8.52466667,11.4436548 7.80646667,11.1948452 6.8438,11.0517798 L5.567,10.8589524" id="Fill-14" fill="#1A1919" mask="url(#mask-2)"></path>
                        <path d="M16.3412667,18.5073571 C15.7624,18.5372143 15.2671333,18.3568274 14.858,17.9749048 C14.4514,17.5867619 14.2284667,17.0891429 14.1968,16.4870238 C14.1638667,15.8836607 14.3336,15.3798214 14.6971333,14.9692857 C15.0644667,14.559994 15.5382,14.3410417 16.1170667,14.3111845 C16.7136667,14.2813274 17.2026,14.4505179 17.5851333,14.82 C17.9638667,15.1932143 18.1728667,15.6771488 18.2058,16.281756 C18.2374667,16.883875 18.0791333,17.4001548 17.7333333,17.8268631 C17.385,18.2485952 16.9214,18.4775 16.3412667,18.5073571" id="Fill-16" fill="#1A1919" mask="url(#mask-2)"></path>
                    </g>
                    <path d="M159.003914,36.0685168 C158.974655,35.5498813 159.109503,35.1677947 159.405913,34.9285208 C159.703596,34.6854887 160.109411,34.5514452 160.616999,34.5251376 C161.111865,34.5000828 161.516408,34.591533 161.829356,34.8032465 C162.139761,35.0112018 162.306412,35.3782555 162.335671,35.896891 L162.87379,46.0077784 C162.953936,47.5223445 163.29996,48.5846704 163.908047,49.1997671 C164.517406,49.8136111 165.374834,50.09172 166.490509,50.0340939 C167.599822,49.9764677 168.419086,49.6106668 168.950844,48.9391966 C169.482602,48.265221 169.710317,47.174082 169.628899,45.6595159 L169.092052,35.5774416 C169.064065,35.0375094 169.196369,34.6466537 169.491507,34.4073798 C169.787918,34.1643477 170.192461,34.031557 170.707681,34.0039966 C171.197458,33.9789418 171.602001,34.0716447 171.917494,34.2833583 C172.226626,34.4900608 172.397094,34.8658837 172.425082,35.4058158 L172.984827,45.907559 C173.043346,47.0012035 172.932669,47.9745847 172.651524,48.825197 C172.366563,49.6770622 171.942937,50.4024003 171.369198,50.9974531 C170.799276,51.5900005 170.107227,52.0585263 169.281602,52.3980196 C168.459795,52.7350074 167.537487,52.931688 166.513407,52.9843032 C164.34185,53.0957973 162.670246,52.6134914 161.496053,51.5323743 C160.325677,50.4487517 159.680697,48.8076586 159.56366,46.6003258 L159.003914,36.0685168" id="Fill-18" fill="#1A1919"></path>
                    <path d="M43.9606373,82.8193377 C43.7209839,82.8316396 43.5865116,82.6680249 43.5678719,82.3260333 L43.4613593,80.4549212 C43.4413882,80.1203108 43.5572207,79.9382433 43.7968741,79.9271717 L44.8766462,79.8755039 C46.3864631,79.8016928 47.5554395,79.25303 48.3662671,78.2196742 C49.1757633,77.1863185 49.520598,75.6153716 49.4007713,73.4982224 C49.2849387,71.4536542 48.7683524,69.999575 47.8510121,69.1470564 C46.9350033,68.2908473 45.7127705,67.9045691 44.2016222,67.97715 L43.1218502,68.030048 C42.8835281,68.0411197 42.7477245,67.877505 42.7277534,67.5330531 L42.6172465,65.5856695 C42.5999382,65.2473685 42.7144393,65.0702218 42.9540927,65.0591501 L43.8101882,65.0160936 C45.1376022,64.9533542 46.3518465,65.0739123 47.4409384,65.3802285 C48.5353559,65.6865447 49.4739987,66.1798491 50.2635238,66.8589115 C51.050386,67.5416644 51.6774793,68.4187866 52.1501292,69.4902782 C52.6174535,70.5617697 52.8917236,71.8411626 52.9756023,73.3247663 C53.0581496,74.7923775 52.9316658,76.1000647 52.5894939,77.2441372 C52.2433278,78.3882097 51.7200843,79.3637467 51.0171008,80.1559862 C50.3114545,80.9519162 49.4353879,81.5731598 48.3835754,82.018487 C47.3370885,82.4601236 46.1454782,82.7135418 44.8180642,82.7775114 L43.9606373,82.8193377 Z M38.0025856,66.5058482 C37.9812831,66.1318718 38.09179,65.8292462 38.3274492,65.6028921 C38.5684341,65.3789983 38.8893035,65.2559798 39.2913888,65.2362968 L41.0674873,65.1501838 C41.3084722,65.1391122 41.4376188,65.3027268 41.4549271,65.6410278 L42.4055526,82.3813917 C42.4241923,82.7246134 42.3163482,82.9005299 42.0753633,82.9103714 L40.2992648,82.9977146 C39.8958481,83.0161674 39.5629961,82.9226733 39.2980458,82.7246134 C39.0384212,82.5253234 38.8932977,82.2300789 38.8719952,81.8351893 L38.0025856,66.5058482 Z" id="Fill-19" fill="#1A1919"></path>
                    <path d="M3.00277571,67.8552478 C2.98309268,67.4824838 3.06797576,67.1644258 3.26111553,66.8959849 C3.45179492,66.6326329 3.76057252,66.485054 4.19236908,66.4621538 L12.6634548,66.0028781 C13.0891004,65.9787057 13.4126403,66.1072011 13.6303839,66.3730976 C13.8505878,66.6466274 13.9699162,67.0270248 13.9957502,67.5231952 C14.0178936,67.9811987 13.9539237,68.350146 13.7939991,68.6236758 C13.6402254,68.8959335 13.3388289,69.0460568 12.8947305,69.0702292 L6.31690655,69.4277264 L6.54572182,73.9263385 L12.4838471,73.6044638 C12.8922701,73.5828359 13.2035081,73.6960645 13.4101799,73.9505109 C13.6230027,74.2062295 13.7411009,74.5688156 13.7644745,75.048447 C13.7878481,75.5051783 13.7177273,75.8830312 13.5504215,76.1705556 C13.3855761,76.4644411 13.0767985,76.6209257 12.6376208,76.6463703 L6.69949553,76.968245 L7.0230354,83.3472158 C7.04394862,83.7556023 6.94676364,84.1232773 6.73025027,84.4489686 C6.51619727,84.7810212 6.10285356,84.9604059 5.48898894,84.9947561 C4.92556209,85.0252897 4.50852781,84.9222389 4.24034647,84.6919649 C3.97216513,84.456602 3.82454238,84.0749325 3.79747821,83.5215116 L3.00277571,67.8552478" id="Fill-20" fill="#1A1919"></path>
                    <path d="M16.0044287,66.5098322 C15.970823,66.004075 16.1281588,65.6302544 16.4871287,65.396922 C16.8430436,65.1611463 17.3303262,65.0304312 17.944394,65.0035552 C18.5141633,64.9803442 18.9938083,65.0707452 19.3802738,65.27598 C19.7652118,65.4787716 19.9760112,65.8367108 20.0096169,66.3424681 L20.9964024,81.4150106 C21.0223704,81.805934 20.9078055,82.1589868 20.6511802,82.4717255 C20.3960824,82.7917941 19.8889419,82.9628231 19.1221209,82.9945856 C18.404181,83.0251265 17.8771826,82.926174 17.5411256,82.705058 C17.2081237,82.4814986 17.0248199,82.1137862 16.9912142,81.5823747 L16.0044287,66.5098322" id="Fill-21" fill="#1A1919"></path>
                    <path d="M22.0045722,67.3156392 C21.9714308,66.72394 22.1185785,66.2826728 22.4420382,65.9993592 C22.7694749,65.7122848 23.1897075,65.5568384 23.7027358,65.5317664 C24.0699421,65.5129624 24.415938,65.570628 24.7354208,65.7010024 C25.0602061,65.8326304 25.3889685,66.1372552 25.7270104,66.6073552 L33.3694094,77.7067294 L32.7543056,66.5998336 C32.7238156,66.0419816 32.8484271,65.6420832 33.1294659,65.4051528 C33.4105047,65.1644616 33.8188063,65.0303265 34.3517195,65.0040009 C34.8673991,64.9789289 35.2849803,65.0716952 35.6137427,65.2823 C35.9372024,65.4903976 36.1174914,65.8752528 36.1493071,66.4305976 L36.9950748,81.7107278 C37.0070057,81.9100502 36.9964004,82.1031046 36.9725387,82.302427 C36.9446999,82.5067638 36.8823941,82.6860286 36.7803187,82.847743 C36.6782433,83.0119646 36.5191648,83.148607 36.3057344,83.2651918 C36.0896527,83.3767622 35.7900547,83.4444566 35.4016379,83.4645142 C34.6128734,83.5033758 33.9686053,83.1699182 33.4675078,82.4628878 L25.6872408,71.8160631 L26.2731801,82.3763894 C26.2943906,82.7775414 26.2015948,83.1385782 26.0014209,83.4594998 C25.7959445,83.7854358 25.3637811,83.9609397 24.6983024,83.9947869 C24.0752447,84.0248733 23.6178939,83.9245853 23.3249242,83.6976838 C23.0399085,83.4670214 22.8795043,83.0896878 22.8490142,82.5456254 L22.0045722,67.3156392" id="Fill-22" fill="#1A1919"></path>
                    <path d="M62.0189952,65.3795853 C61.9376179,65.2106734 61.9100546,65.0697018 61.9389304,64.9604806 C61.9704313,64.8525294 62.028183,64.7445782 62.1134979,64.634087 C62.3011908,64.4143746 62.5282598,64.2556228 62.7894547,64.1629118 C63.0453995,64.0702008 63.322345,64.0181302 63.6137283,64.0041601 C64.0311152,63.9825698 64.4170012,64.0448005 64.7726989,64.1959322 C65.1283965,64.3470638 65.4224049,64.6772675 65.652099,65.1967032 L71.8170875,79.9326762 C71.9220905,80.1955691 71.9811547,80.454652 71.9969052,80.7188149 C72.0205309,81.1633199 71.9089652,81.5468641 71.659583,81.8719877 C71.4154511,82.2060014 70.9980642,82.3838034 70.4179226,82.4130137 C70.0530372,82.4320639 69.7222777,82.3838034 69.4217066,82.2669621 C69.1224481,82.1475807 68.9137546,81.9342184 68.7890636,81.626875 L62.0189952,65.3795853 Z M61.9284301,76.381717 L65.039144,76.2242352 C65.2032112,76.2153451 65.3174019,76.2890059 65.3790912,76.4401376 L66.2624289,78.5191506 C66.423871,78.8620544 66.3543065,79.0449364 66.0471728,79.0601766 L61.1304074,79.3090993 L60.3612604,81.8923079 C60.2549449,82.2669621 60.0685645,82.5425551 59.8086821,82.715277 C59.5435495,82.8841889 59.2547913,82.9781699 58.9476575,82.9946801 C58.2913888,83.0277005 57.8057499,82.9070491 57.5012412,82.6314561 C57.19542,82.3571331 57.0274152,81.9989891 57.0037895,81.5595642 C56.9867265,81.2407907 57.0274152,80.9613876 57.1232304,80.7061148 L61.0595303,67.4674884 C61.0923438,67.3989076 61.1225321,67.3392169 61.1474703,67.2934964 C61.1750336,67.250316 61.2327853,67.2211056 61.3220378,67.2172956 C61.4703546,67.2096755 61.5858579,67.3214367 61.6698603,67.5449592 L63.0834631,70.9155765 C63.1464649,71.0578181 63.1766533,71.1759294 63.1740282,71.2749905 C63.166153,71.3702415 63.1504025,71.4616825 63.1175891,71.5531236 L61.9284301,76.381717 Z" id="Fill-23" fill="#1A1919"></path>
                    <path d="M83.8372314,80.9850116 C82.4332702,81.0588528 81.245207,80.8598571 80.2767858,80.3880247 C79.3071166,79.9211984 78.5171544,79.2616342 77.9068993,78.4143383 C77.2991401,77.5682939 76.8473766,76.5870826 76.5566006,75.4707045 C76.2645767,74.3505718 76.0848697,73.1966474 76.0224714,72.0014219 C75.9563292,70.73611 76.036199,69.5158537 76.2620808,68.3444076 C76.4904584,67.1742131 76.8835676,66.1341792 77.4538878,65.2130421 C78.0217121,64.2969112 78.7792272,63.5534935 79.7326728,62.9802859 C80.6823746,62.4095814 81.8529662,62.0841798 83.2369599,62.0115901 C84.3251859,61.9552706 85.3110786,62.1042045 86.1883984,62.4583917 C87.069462,62.8113274 87.8219852,63.2794052 88.4621915,63.8513612 C88.7529675,64.1166888 89.0250239,64.4145565 89.2783609,64.7499705 C89.527954,65.0866361 89.6652302,65.4258048 89.6827018,65.7762374 C89.710157,66.2768553 89.5616491,66.6598281 89.2359301,66.9188979 C88.9077152,67.1817223 88.5570369,67.3206438 88.1764074,67.3406685 C87.8831355,67.3556871 87.6248066,67.2793428 87.4089086,67.1078812 C87.1917626,66.9364195 86.9558971,66.7349208 86.7000642,66.5071396 C86.4978938,66.3231625 86.2894836,66.1379338 86.0723376,65.9489506 C85.8539436,65.7624704 85.6143342,65.5972664 85.3410298,65.4495841 C85.0727172,65.3106626 84.7732055,65.194269 84.4375028,65.1104154 C84.103048,65.0228073 83.7311543,64.9890156 83.3130858,65.0102918 C82.5343554,65.0515928 81.8879092,65.2606008 81.3812352,65.6360643 C80.8708174,66.0127794 80.4589887,66.5021334 80.1582291,67.1078812 C79.8499816,67.7186351 79.6403234,68.4157457 79.5342463,69.2029674 C79.4306652,69.9964469 79.3969701,70.8124542 79.4418969,71.6660079 C79.4880716,72.5521017 79.6078763,73.3868822 79.7938231,74.1753555 C79.9835139,74.968835 80.2580663,75.6521786 80.6187283,76.2216315 C80.9806383,76.7973422 81.4236661,77.2403891 81.9528034,77.5632877 C82.4831888,77.8811801 83.0984358,78.0251078 83.8097761,77.988813 C84.6259455,77.9450089 85.2649039,77.7272401 85.7278991,77.3380096 C86.1971341,76.9487791 86.6114587,76.4919652 86.9846003,75.9663163 C87.1331082,75.7660692 87.3103193,75.5432942 87.5237214,75.3004944 C87.7396195,75.051437 88.0166678,74.9175217 88.3636022,74.9012516 C88.7592073,74.8799753 89.1248612,75.0013752 89.4643078,75.2629481 C89.8000105,75.524521 89.9747257,75.8799597 89.9971891,76.3305159 C90.0321321,76.9913317 89.7413561,77.6946999 89.1211173,78.4381176 C88.8440689,78.7672739 88.5358215,79.0801602 88.2063586,79.3742732 C87.8743998,79.6721409 87.4962662,79.9312108 87.0732059,80.1652497 C86.6526415,80.3955339 86.1746707,80.579511 85.6480293,80.7209356 C85.115148,80.8648633 84.5148766,80.9487168 83.8372314,80.9850116" id="Fill-24" fill="#1A1919"></path>
                    <path d="M91.0036367,63.0689205 C90.9756512,62.5501841 91.1092184,62.1667703 91.4030662,61.9274499 C91.7045464,61.6856235 92.1077921,61.5515539 92.6191637,61.5252412 C93.1114541,61.4989285 93.5159719,61.5916495 93.8276287,61.8021512 C94.1405575,62.010147 94.3110147,62.379778 94.3390002,62.8972613 L94.8770851,73.0101145 C94.9572254,74.5249751 95.301956,75.5850016 95.9074606,76.2039769 C96.5167814,76.8154342 97.3754276,77.0948502 98.4884874,77.0384658 C99.5977311,76.9808284 100.423304,76.6149564 100.953756,75.9421027 C101.480392,75.2667431 101.706821,74.1778979 101.625408,72.6617843 L101.089867,62.5777498 C101.06061,62.0377127 101.195449,61.6467809 101.491841,61.4074605 C101.788233,61.1656341 102.190207,61.0303116 102.704122,61.0039989 C103.198957,60.9789392 103.603475,61.0716602 103.913859,61.2821619 C104.224244,61.4901576 104.397245,61.8660535 104.427775,62.4060907 L104.984941,72.9098756 C105.043456,74.0049857 104.931514,74.9773032 104.647843,75.828081 C104.366716,76.6813647 103.939301,77.4055908 103.369414,78.0020124 C102.799527,78.5946749 102.103706,79.0595329 101.278134,79.4003452 C100.458921,79.7336396 99.5341277,79.9303584 98.5113847,79.9842368 C96.3399638,80.0957526 94.6722821,79.6158588 93.4981629,78.5357846 C92.3240438,77.4506983 91.6816492,75.8092862 91.5633469,73.6027771 L91.0036367,63.0689205" id="Fill-25" fill="#1A1919"></path>
                    <path d="M110.985209,63.952145 C110.750145,63.9631029 110.622048,63.8023868 110.602239,63.4639088 L110.496592,61.6108026 C110.479425,61.2747597 110.587713,61.1018681 110.822777,61.0896926 L112.311077,61.0178574 C114.505891,60.9107132 116.123608,61.2857176 117.152345,62.1428705 C118.189005,62.9963708 118.751574,64.3381073 118.857221,66.1619923 C118.906083,67.025233 118.754215,67.8787332 118.410863,68.7261458 C118.062228,69.5747759 117.429668,70.3235671 116.513181,70.9737371 L119.675984,76.1811845 C119.75654,76.3138971 119.827851,76.4514798 119.893881,76.5878451 C119.953307,76.7302981 119.988963,76.8703159 119.996886,77.0054636 C120.008772,77.224622 119.986322,77.4096891 119.934819,77.5643176 C119.876713,77.7213811 119.760502,77.8687043 119.583543,78.0111572 C119.407905,78.1584804 119.212458,78.2729298 118.986638,78.3727686 C118.759498,78.4653022 118.468969,78.5225269 118.097884,78.5420076 C117.729441,78.5590533 117.433629,78.4847829 117.206489,78.3191966 C116.979348,78.1523926 116.760131,77.9064482 116.55676,77.576493 L113.156252,72.0232623 L111.450055,72.1060555 C111.21235,72.1170134 111.085574,71.9575148 111.065765,71.6190368 L110.9654,69.8475063 C110.945591,69.5102459 111.05388,69.3312665 111.291585,69.3215261 L112.47483,69.2643014 C113.041361,69.2362979 113.514131,69.1413292 113.889177,68.9684376 C114.266865,68.8004161 114.569279,68.5824753 114.788496,68.314615 C115.012996,68.0528424 115.163542,67.7508908 115.233534,67.4185006 C115.308807,67.0824577 115.333898,66.7330218 115.314089,66.3592349 C115.29296,66.0049288 115.226931,65.6737561 115.117322,65.3669343 C115.009034,65.058895 114.828114,64.7873821 114.574561,64.5548306 C114.327612,64.3186266 114.002748,64.1457349 113.607892,64.0288504 C113.216999,63.9144011 112.736306,63.8669167 112.169775,63.8961378 L110.985209,63.952145 Z M110.24304,77.4766542 C110.26549,77.861399 110.169087,78.2047472 109.969679,78.5042637 C109.766308,78.8013451 109.343721,78.9644963 108.703237,78.994935 C108.0786,79.0241561 107.625639,78.9267524 107.33511,78.707594 C107.047222,78.4823478 106.888752,78.1158662 106.858378,77.5886685 L106.002639,62.5178749 C105.98151,62.1477407 106.087156,61.8470067 106.323541,61.6229781 C106.558605,61.4038197 106.875546,61.2796299 107.279645,61.2613667 L108.955469,61.1797911 C109.190533,61.1676156 109.325233,61.3319844 109.343721,61.6655922 L110.24304,77.4766542 Z" id="Fill-26" fill="#1A1919"></path>
                    <path d="M122.146594,77.9969458 C121.300265,78.040712 120.850381,77.6139915 120.801913,76.7240788 L120.002809,61.776705 C119.981682,61.4059081 120.079861,61.0958975 120.292376,60.8466733 C120.503647,60.5998805 120.80937,60.4661504 121.205814,60.4454831 L129.843091,60.0029581 C130.704333,59.9579762 131.161674,60.4260314 131.21387,61.4046923 C131.237483,61.8435701 131.166645,62.2009941 131.000113,62.4793957 C130.833582,62.7577974 130.526617,62.9109791 130.077975,62.9328622 L123.352084,63.2781289 L123.58324,67.5781583 L129.661646,67.2669319 C130.486848,67.2243815 130.92679,67.6681221 130.976501,68.5945067 C130.998871,69.0358159 130.930518,69.3993186 130.761501,69.6910932 C130.597455,69.9901623 130.28179,70.1494226 129.818236,70.1725215 L123.738587,70.4837478 L123.975957,74.9126443 L130.831096,74.561299 C131.1915,74.5418473 131.469882,74.6622044 131.66624,74.9211544 C131.862598,75.1837516 131.971962,75.5411756 131.995575,75.9970735 C132.019188,76.4347355 131.94835,76.7982382 131.781818,77.0839342 C131.615286,77.370846 131.298379,77.5276749 130.836067,77.5519894 L122.146594,77.9969458" id="Fill-27" fill="#1A1919"></path>
                    <g id="Group-31" transform="translate(4.000000, 75.000000)" fill="#1A1919">
                        <path d="M133.04815,4.25875 C132.471782,4.29 131.978471,4.105 131.57451,3.72375 C131.168032,3.3375 130.950321,2.8375 130.917601,2.23125 C130.88614,1.625 131.050997,1.12125 131.414688,0.7075 C131.778378,0.295 132.249037,0.07875 132.825405,0.0475 C133.416875,0.0175 133.902635,0.18625 134.280169,0.55875 C134.661478,0.9325 134.866605,1.41875 134.898066,2.02375 C134.930785,2.63 134.77348,3.15 134.427407,3.575 C134.081334,3.99625 133.620743,4.22875 133.04815,4.25875" id="Fill-28"></path>
                        <path d="M7.15447635,17.64875 C7.12679054,17.13125 7.25766892,16.74875 7.55088682,16.51125 C7.84410473,16.2675 8.24806588,16.1325 8.75018581,16.10625 C9.24097973,16.08125 9.64116554,16.1725 9.94822635,16.38625 C10.2552872,16.5925 10.4276943,16.96 10.4553801,17.4775 L11.0380405,28.53 C11.084603,29.41375 11.0783108,30.2125 11.0191639,30.9125 C10.9575,31.62125 10.7687331,32.235 10.4453125,32.76125 C10.0111486,33.5125 9.40206081,34.05875 8.61553209,34.395 C7.82774493,34.72875 6.87258446,34.92625 5.75760135,34.985 C5.00756757,35.025 4.34436655,34.9825 3.78058277,34.85375 C3.21302365,34.7275 2.72852196,34.54625 2.32078547,34.30375 C1.91556588,34.0625 1.56949324,33.77875 1.2888598,33.44625 C1.01200169,33.115 0.779189189,32.755 0.605523649,32.3825 C0.410464527,31.9975 0.269518581,31.61375 0.190236486,31.2425 C0.107179054,30.87625 0.0631334459,30.56125 0.0492905405,30.3025 C0.0165709459,29.6775 0.158775338,29.23125 0.475903716,28.96 C0.796807432,28.69375 1.18440878,28.5475 1.63241554,28.52375 C1.79475507,28.51625 1.94828547,28.52625 2.10810811,28.5525 C2.26541385,28.58125 2.41894426,28.63625 2.56492399,28.72375 C2.70964527,28.80875 2.84304054,28.94 2.9651098,29.11875 C3.0884375,29.2975 3.18282095,29.53625 3.25077703,29.84875 C3.43576858,30.62125 3.70759291,31.22875 4.07128378,31.67 C4.43623311,32.1125 5.04028716,32.3125 5.87589527,32.2675 C6.17163007,32.25375 6.44848818,32.2075 6.69640203,32.1325 C6.94431588,32.05875 7.15951014,31.935 7.33317568,31.75875 C7.50809966,31.58875 7.63646115,31.34 7.71070946,31.0225 C7.79250845,30.70625 7.8214527,30.29625 7.79376689,29.7925 L7.15447635,17.64875" id="Fill-30"></path>
                    </g>
                    <path d="M24.6829421,104.746747 C25.2481379,104.594938 25.725631,104.327704 26.1142031,103.950064 C26.5064295,103.569914 26.8170436,103.099432 27.0606625,102.536108 C27.3030633,101.975294 27.4699423,101.332929 27.5588632,100.611523 C27.6502202,99.8926266 27.6721459,99.1160176 27.6307307,98.2816961 C27.5868793,97.4473747 27.4857775,96.6720203 27.3237709,95.96567 C27.1605463,95.2605742 26.9291083,94.6382833 26.6318932,94.1050704 C26.332242,93.573112 25.9680318,93.1390139 25.533172,92.8002669 C25.1019666,92.4690475 24.604984,92.2532531 24.0422244,92.1666844 C23.9362502,92.1365736 23.857074,92.0951711 23.7949512,92.0362041 C23.7316103,91.9759824 23.6975036,91.8530297 23.6877589,91.6598184 L23.5781304,89.5181842 C23.5610771,89.1719095 23.6853227,88.9975175 23.9581759,89.0000267 C25.0106095,89.0665215 25.958287,89.3362645 26.7926817,89.8042373 C27.6307307,90.2722101 28.3469703,90.9070472 28.948709,91.7049847 C29.5492295,92.5016676 30.019414,93.4426317 30.3641347,94.5303861 C30.7064193,95.6206498 30.9122773,96.8100284 30.9780544,98.101031 C31.0450496,99.4372 30.9585649,100.67049 30.7198183,101.800902 C30.4810718,102.933822 30.1034625,103.918698 29.5894267,104.768075 C29.0717365,105.618707 28.4224921,106.311256 27.634385,106.851997 C26.8523684,107.390228 25.944888,107.739012 24.9204705,107.898349 C24.6476173,107.929714 24.5075365,107.772887 24.4892651,107.426612 L24.3820727,105.287487 C24.3711099,105.093021 24.3918175,104.962541 24.4490679,104.888518 C24.5038822,104.815751 24.579404,104.768075 24.6829421,104.746747 Z M22.9593384,104.839588 C23.0604402,104.849625 23.1432706,104.888518 23.2066116,104.956268 C23.2687344,105.024017 23.3052772,105.150734 23.315022,105.343945 L23.4246505,107.484325 C23.4404857,107.830599 23.3162401,108.002482 23.044605,107.999973 C21.9885171,107.952297 21.0444938,107.703883 20.208881,107.25222 C19.3744863,106.800557 18.6521563,106.180776 18.0540719,105.391621 C17.4572056,104.601211 16.9845849,103.661501 16.6398642,102.561201 C16.2975796,101.462155 16.0892855,100.24392 16.0210722,98.9077509 C15.9565132,97.6167482 16.0405617,96.4135688 16.2695635,95.2919397 C16.5022195,94.1728198 16.8761745,93.1866894 17.3902104,92.3297848 C17.9042463,91.470371 18.558363,90.7615114 19.3415978,90.2057153 C20.1260506,89.6499192 21.0371853,89.2823159 22.0823103,89.1016508 C22.3539454,89.0702853 22.4952444,89.2296219 22.5122977,89.5758967 L22.6207081,91.7175309 C22.6304529,91.9107422 22.6085272,92.0362041 22.5524948,92.1026988 C22.4964625,92.1691936 22.4172863,92.220633 22.3186207,92.2595262 C21.7668239,92.4063166 21.2929851,92.6735504 20.8971044,93.0524452 C20.4987875,93.4338493 20.1808649,93.9030767 19.9396822,94.4664006 C19.6948452,95.0297244 19.5304024,95.6733438 19.4414815,96.3909857 C19.3525606,97.1123915 19.3245444,97.8927643 19.3671777,98.7270858 C19.4110291,99.5614073 19.5145672,100.330489 19.6777918,101.036839 C19.8397984,101.745698 20.066364,102.364226 20.3550524,102.896184 C20.6437408,103.431906 21.0067329,103.867259 21.4379384,104.202242 C21.8691438,104.535971 22.3770892,104.749256 22.9593384,104.839588 Z" id="Fill-32" fill="#1A1919"></path>
                    <path d="M33.0040075,90.5118907 C32.9719266,90.0062613 33.1323309,89.6313139 33.4898033,89.400483 C33.845748,89.1611029 34.3315438,89.0304209 34.9456631,89.0035517 C35.5170078,88.9803465 35.9982207,89.0707247 36.3831909,89.2783503 C36.7666335,89.4798693 36.9759229,89.8389395 37.0080038,90.3445689 L37.9963997,105.413303 C38.0223699,105.804127 37.9077954,106.154648 37.6542039,106.472193 C37.3990847,106.789738 36.8888463,106.961945 36.1250164,106.994921 C35.408544,107.024233 34.8799737,106.926527 34.5438885,106.705467 C34.2062757,106.481964 34.0260119,106.107016 33.9924033,105.580624 L33.0040075,90.5118907" id="Fill-33" fill="#1A1919"></path>
                    <path d="M39.0043317,90.3160019 C38.9725148,89.724449 39.1156911,89.2845441 39.4431407,89.0000472 C39.7692645,88.7117905 40.1895135,88.5576358 40.7038877,88.53257 C41.0697828,88.5125173 41.417118,88.5701687 41.7366133,88.7017641 C42.0574343,88.8333596 42.3862096,89.1366558 42.732219,89.607893 L50.3682897,100.703271 L49.7531618,89.6003732 C49.7213449,89.0439124 49.8459613,88.6453661 50.1270111,88.4072409 C50.4093866,88.1641026 50.8203557,88.0312539 51.3506384,88.0036815 C51.8663383,87.979869 52.2892388,88.0713592 52.6153626,88.2844185 C52.9388351,88.4912114 53.1178055,88.8772248 53.1482967,89.431179 L53.9954233,104.708787 C54.006029,104.903047 53.9980747,105.099813 53.9728863,105.30034 C53.9450465,105.500866 53.8814125,105.683847 53.7819845,105.849281 C53.6799051,106.008449 53.5208203,106.145057 53.3073815,106.262867 C53.092617,106.379423 52.7903559,106.444594 52.4032495,106.463393 C51.614454,106.502245 50.9661835,106.16887 50.466392,105.462014 L42.687145,94.8165671 L43.2717817,105.374284 C43.2956444,105.775337 43.2001935,106.133778 43.0013375,106.459633 C42.7945272,106.784235 42.3649983,106.959696 41.7008192,106.994788 C41.0764113,107.024867 40.6190425,106.924604 40.327387,106.697758 C40.0370573,106.468406 39.8792982,106.083646 39.8488069,105.542225 L39.0043317,90.3160019" id="Fill-34" fill="#1A1919"></path>
                    <path d="M59.0036377,89.0702266 C58.9756446,88.5515676 59.109248,88.1669581 59.4031756,87.930179 C59.6996479,87.685883 60.1055478,87.5505807 60.6183305,87.5242719 C61.1120269,87.4992159 61.5166544,87.5906703 61.8296682,87.804899 C62.1401371,88.0103581 62.3119129,88.379934 62.339906,88.8985931 L62.8781369,99.009939 C62.958299,100.522068 63.2993058,101.585695 63.9087919,102.202072 C64.5144607,102.814691 65.3746123,103.090307 66.4892465,103.032679 C67.5975187,102.976303 68.4220426,102.612991 68.9539115,101.942743 C69.4794183,101.267484 69.7097251,100.17379 69.6282907,98.6616607 L69.0913322,88.5778764 C69.0633391,88.0379197 69.1931252,87.6470462 69.4946872,87.4090143 C69.7937044,87.1634656 70.1919699,87.0306688 70.7047525,87.00436 C71.1997214,86.9780512 71.6043489,87.0707584 71.9160902,87.2837344 C72.2278315,87.4904463 72.3970625,87.8662862 72.4250556,88.4062428 L72.9849176,98.9072094 C73.0434486,100.002156 72.9314762,100.976834 72.6515452,101.826233 C72.3665246,102.676884 71.9428109,103.403507 71.3689524,103.998587 C70.8014559,104.588656 70.1054457,105.062214 69.2821942,105.397964 C68.4602151,105.73622 67.5351704,105.931657 66.5108775,105.984275 C64.3414125,106.095774 62.6681887,105.614699 61.4988407,104.529774 C60.3218581,103.451114 59.6818341,101.809946 59.5634997,99.5987548 L59.0036377,89.0702266" id="Fill-35" fill="#1A1919"></path>
                    <path d="M79.4100563,96.854175 C78.7324176,96.7515955 78.0814275,96.5952244 77.4520102,96.3950694 C76.8263999,96.1949144 76.2617009,95.9034387 75.7667962,95.531901 C75.2718915,95.1591123 74.8607398,94.6774893 74.5473002,94.0932869 C74.2351295,93.5090844 74.0574714,92.7710128 74.0092499,91.8890798 C73.9673734,91.0909617 74.0676233,90.3478863 74.3112687,89.6535986 C74.5574521,88.9618129 74.940686,88.356344 75.4647774,87.83469 C75.9774479,87.313036 76.6360519,86.8902085 77.4228235,86.5699605 C78.2045192,86.2509635 79.1181894,86.0658201 80.1587583,86.0120284 C80.8605079,85.9770013 81.5660643,86.0182833 82.2678139,86.1383763 C82.9721013,86.2572183 83.6104015,86.4461146 84.1814455,86.6913045 C84.7448754,86.9414983 85.2169384,87.2467346 85.5938274,87.6107666 C85.9631025,87.9722965 86.1636023,88.3901201 86.1877131,88.8604844 C86.2042099,89.1544621 86.1572574,89.4334281 86.0468556,89.7036374 C85.9554885,89.9488272 85.7968652,90.1614919 85.5785996,90.3391295 C85.3603339,90.5142651 85.0963847,90.6205975 84.8032488,90.6556246 C84.5532585,90.6681343 84.3311859,90.6506207 84.133224,90.5968291 C83.940338,90.5455394 83.7373002,90.4291993 83.5329934,90.2503107 C83.3312245,90.1026964 83.1193038,89.9538311 82.9010381,89.7949581 C82.6840414,89.6460928 82.4353201,89.5097372 82.163757,89.3921461 C81.8921939,89.2745551 81.5876371,89.1857363 81.2475487,89.115682 C80.9099983,89.0468787 80.5267644,89.0206084 80.1054609,89.0431258 C79.5762936,89.0693962 79.1435692,89.1607169 78.7971359,89.3095822 C78.4519715,89.4534436 78.1804084,89.6410889 77.9773706,89.8562555 C77.7768707,90.0739241 77.6385512,90.3278708 77.5712949,90.6068368 C77.4964247,90.8908067 77.467238,91.1747767 77.4811969,91.4512408 C77.5154595,92.0917368 77.7591049,92.5858695 78.221016,92.9361407 C78.6803891,93.286412 79.3123444,93.5391077 80.1143438,93.687973 L81.4759663,93.9306609 C82.0863488,94.0419971 82.7056142,94.1846076 83.3413764,94.369751 C83.9784076,94.5573963 84.5596034,94.8301075 85.0824258,95.1941394 C85.6052483,95.5594223 86.0405106,96.0385433 86.3894819,96.6227458 C86.7384532,97.215705 86.9376841,97.9800469 86.9871745,98.9170225 C87.041741,99.941566 86.9224562,100.823499 86.6242444,101.555316 C86.3285706,102.295889 85.8958462,102.913868 85.3336852,103.399244 C84.7664482,103.890874 84.0938854,104.263663 83.3147277,104.526367 C82.5304941,104.782815 81.6815421,104.93168 80.7678719,104.979217 C79.5026923,105.044268 78.4405507,104.9567 77.5915987,104.715263 C76.7401088,104.472575 76.0523181,104.186103 75.5180748,103.865855 C75.0802745,103.609406 74.7795247,103.365468 74.6209014,103.131536 C74.4584711,102.896354 74.37218,102.673682 74.3607592,102.466021 C74.3328415,101.945618 74.471161,101.471501 74.7706418,101.048673 C75.0777365,100.624595 75.4470116,100.400672 75.8911569,100.376903 C76.1766788,100.363142 76.4190552,100.410679 76.6423968,100.523266 C76.8543176,100.634603 77.1043079,100.778464 77.379678,100.956102 C77.5941367,101.099963 77.8162093,101.238821 78.035744,101.363917 C78.2514717,101.490265 78.4976551,101.607856 78.7666802,101.717942 C79.0369743,101.826776 79.346607,101.904336 79.6943093,101.955626 C80.0407426,102.008166 80.4430113,102.021927 80.8998464,101.996908 C81.7995579,101.950622 82.4886175,101.710436 82.9708324,101.27635 C83.4479713,100.843514 83.6675059,100.265567 83.6294363,99.5350011 C83.5862908,98.7518946 83.3261486,98.1802019 82.8528166,97.8124171 C82.3680638,97.4458832 81.6498174,97.1931875 80.6917327,97.0505771 L79.4100563,96.854175" id="Fill-36" fill="#1A1919"></path>
                    <g id="Group-40" transform="translate(0.000000, 13.000000)">
                        <mask id="mask-4" fill="white">
                            <use xlink:href="#path-3"></use>
                        </mask>
                        <g id="Clip-38"></g>
                        <path d="M90.1185421,92.5626486 C89.5397324,92.5928108 89.0538336,92.4105811 88.6470345,92.0235 C88.2427466,91.6339054 88.0242804,91.1324595 87.9916361,90.5254459 C87.9602473,89.9146622 88.1247246,89.4044189 88.4888349,88.9896892 C88.8542007,88.5762162 89.3174996,88.355027 89.8963093,88.3236081 C90.4889302,88.2934459 90.9723179,88.4668784 91.3477281,88.8388784 C91.7256495,89.2146486 91.9328156,89.7060405 91.96546,90.3168243 C91.9968488,90.9238378 91.8386492,91.4466486 91.4933722,91.8752027 C91.1506064,92.2999865 90.6910741,92.5324865 90.1185421,92.5626486" id="Fill-37" fill="#1A1919" mask="url(#mask-4)"></path>
                        <path d="M7.23951619,10.5693243 C7.88738132,10.5353919 8.42601338,10.410973 8.85541236,10.2023514 C9.28481135,9.98995946 9.62255499,9.71598649 9.86738774,9.37791892 C10.1084538,9.03859459 10.2804645,8.65654054 10.3721199,8.23552703 C10.4650308,7.81074324 10.4989307,7.36710811 10.4738196,6.90462162 C10.4512197,6.46852703 10.3733754,6.05002703 10.2377758,5.66043243 C10.1021761,5.26706757 9.8924988,4.92271622 9.61878833,4.62360811 C9.34005566,4.32072973 8.97720096,4.09451351 8.52771314,3.93993243 C8.07948087,3.78409459 7.53205994,3.72377027 6.88293926,3.7577027 L5.69393096,3.82054054 C5.41896495,3.83436486 5.27332085,3.63202703 5.2507209,3.21604054 L5.13018785,0.922459459 C5.11009901,0.506472973 5.23314316,0.289054054 5.50685363,0.27522973 L7.01100562,0.196054054 C9.49951084,0.0666081081 11.3401509,0.578108108 12.5304148,1.73181081 C13.7231897,2.883 14.3785882,4.57208108 14.494099,6.789 C14.5342767,7.54431081 14.4802879,8.32601351 14.3346438,9.14290541 C14.1877442,9.95728378 13.8726005,10.7188784 13.3854461,11.4251757 C12.8970361,12.1339865 12.2152711,12.7322027 11.3401509,13.2173108 C10.4650308,13.7049324 9.31494461,13.9814189 7.89491464,14.0568243 L6.23256302,14.1435405 C5.96010811,14.1586216 5.81320846,13.9613108 5.79186406,13.5402973 L5.67384212,11.2806486 C5.65124217,10.8608919 5.77554188,10.6459865 6.04925234,10.6321622 L7.23951619,10.5693243 Z M4.83889965,20.5756216 C4.86526626,21.0557027 4.76231094,21.4817432 4.53003372,21.8512297 C4.29650094,22.2207162 3.81687985,22.4217973 3.08489269,22.4607568 C2.37424993,22.4972027 1.85319561,22.3790676 1.52424083,22.1038378 C1.19528606,21.8273514 1.01448649,21.3636081 0.980586567,20.7138649 L0.00251110516,2.04348649 C-0.0213443939,1.58225676 0.100444207,1.21277027 0.367876907,0.937540541 C0.637820712,0.661054054 1.00067541,0.5115 1.46271876,0.487621622 L3.37492534,0.387081081 C3.6461247,0.373256757 3.7917688,0.575594595 3.81436874,0.991581081 L4.83889965,20.5756216 Z" id="Fill-39" fill="#1A1919" mask="url(#mask-4)"></path>
                    </g>
                    <path d="M19.6858205,13.6726268 C19.5928467,13.4638744 19.5630951,13.2948233 19.599045,13.1654736 C19.6325155,13.0348432 19.698217,12.9029321 19.7961495,12.7684597 C20.0093695,12.5020761 20.263498,12.3099726 20.5585349,12.1998333 C20.8535719,12.0871326 21.1647243,12.0230981 21.4957112,12.0051684 C21.9704976,11.9782739 22.4080944,12.056396 22.8122207,12.238254 C23.2138677,12.4188313 23.5436149,12.8222487 23.802702,13.4497868 L30.7918551,31.2833957 C30.9121012,31.5984455 30.9790424,31.9173373 30.9963975,32.2387905 C31.0236698,32.7702769 30.8959858,33.2364481 30.6170643,33.637304 C30.3369031,34.0368793 29.868315,34.253316 29.2075809,34.2891753 C28.7947771,34.3122277 28.4191628,34.2545966 28.0794984,34.108598 C27.7410736,33.9690028 27.5005813,33.7103034 27.3580214,33.3337805 L19.6858205,13.6726268 Z M19.5841691,26.9879613 L23.1146956,26.7971385 C23.3006433,26.786893 23.429567,26.8752606 23.5002271,27.0622413 L24.4969066,29.5736745 C24.6840939,29.9924602 24.6022769,30.2114582 24.2526953,30.2293878 L18.6804635,30.5316307 L17.8127077,33.6552337 C17.6912219,34.1124401 17.4829605,34.4454195 17.1817252,34.6541719 C16.88049,34.8616437 16.5557014,34.9743445 16.2048801,34.9935548 C15.4623291,35.0332562 14.915643,34.8898189 14.5685406,34.5555588 C14.2201987,34.2212987 14.0317717,33.7858641 14.0044994,33.2543777 C13.984665,32.8701707 14.030532,32.5256651 14.1396213,32.2182995 L18.6048447,16.200709 C18.6407946,16.1123414 18.6755049,16.0444648 18.7015375,15.9881145 C18.7300495,15.9330448 18.7945114,15.9023082 18.8986421,15.8971855 C19.062276,15.8882206 19.1949187,16.0214124 19.2928511,16.291638 L20.89572,20.3731972 C20.9663802,20.5448097 20.9998507,20.6831242 20.9961318,20.8022284 C20.9911732,20.9187712 20.9700991,21.0340333 20.9341492,21.1428919 L19.5841691,26.9879613 Z" id="Fill-41" fill="#1A1919"></path>
                    <path d="M36.7023166,15.6057091 C36.4294215,15.6193461 36.2822845,15.4197504 36.2596481,15.0081619 L36.1389203,12.7469043 C36.118799,12.3365555 36.2432995,12.1233229 36.514937,12.1096859 L38.2126717,12.0216655 C40.7240613,11.8914944 42.5701905,12.347713 43.7485441,13.3952803 C44.9281553,14.4428475 45.5758096,16.0792839 45.6940222,18.3083086 C45.7506134,19.359595 45.5783247,20.4059225 45.1847018,21.4398527 C44.7860486,22.473783 44.0654546,23.3911791 43.0153743,24.1908015 L46.628405,30.5505883 C46.7202085,30.7154717 46.8044664,30.8815948 46.874891,31.051437 C46.9490882,31.2249985 46.9868157,31.3911216 46.9956187,31.5584844 C47.0107097,31.8275046 46.9868157,32.0556139 46.9239366,32.244052 C46.8598,32.4349696 46.727754,32.6172091 46.5277985,32.7920103 C46.3278431,32.9692909 46.0964482,33.1143387 45.8424168,33.2321125 C45.5858702,33.3486466 45.2488385,33.4168314 44.8300639,33.4379068 C44.4112894,33.4602218 44.0692273,33.3709616 43.8076504,33.1639276 C43.5435584,32.9630923 43.29833,32.6593597 43.0669351,32.2589287 L39.178494,25.4751561 L37.2305008,25.5755738 C36.9601208,25.5904505 36.8117262,25.3908548 36.7903473,24.9767868 L36.6746499,22.8109881 C36.6520134,22.3969201 36.7777715,22.1824477 37.0506666,22.1688108 L38.4013088,22.0981465 C39.0502207,22.0646739 39.5897231,21.9444206 40.0185583,21.7361469 C40.4473935,21.5291129 40.7907131,21.2613324 41.0497748,20.9402438 C41.3025487,20.6154359 41.4723221,20.2484775 41.5565801,19.8418478 C41.6395804,19.431499 41.6697624,19.003794 41.6446108,18.5475754 C41.6219743,18.1149115 41.5490346,17.7107613 41.4220189,17.3351248 C41.2975183,16.9582486 41.0900174,16.6260024 40.8045465,16.3445849 C40.5140453,16.0557291 40.145574,15.8424965 39.6978751,15.7011679 C39.2501762,15.5573598 38.7006132,15.5015722 38.0529589,15.5350448 L36.7023166,15.6057091 Z M35.8496766,32.1337165 C35.8748282,32.6072913 35.7691914,33.0275579 35.5377965,33.3920369 C35.3038864,33.7577557 34.8222328,33.9561116 34.0878053,33.9933033 C33.3760144,34.0304951 32.8566333,33.9127212 32.5258895,33.6412216 C32.1976608,33.3672425 32.0165691,32.9110238 31.9826144,32.271326 L31.0029587,13.8527386 C30.9790646,13.3989994 31.0997924,13.0332807 31.3689148,12.761781 C31.6392947,12.4890416 32.0027357,12.3427541 32.4630104,12.3179596 L34.3795642,12.2187817 C34.6524593,12.2051447 34.8008539,12.4047403 34.8222328,12.8150892 L35.8496766,32.1337165 Z" id="Fill-42" fill="#1A1919"></path>
                    <path d="M48.0037044,12.4557733 C47.9736685,11.8243222 48.1262512,11.3589757 48.4626541,11.0660737 C48.7978555,10.7731716 49.2580066,10.609603 49.8371001,10.5779036 C50.3777476,10.5474722 50.8294886,10.6603219 51.1935245,10.9151847 C51.556359,11.1700475 51.753395,11.6151065 51.7858339,12.2465576 L52.1678914,19.9418928 L58.5355172,11.2397861 C58.7613877,10.9316684 59.0028769,10.6514461 59.2611862,10.4054591 C59.5182942,10.1594721 59.8390783,10.0250669 60.218733,10.0035113 C60.4986682,9.98829562 60.7353517,10.0225309 60.9299848,10.1062172 C61.1258193,10.1899035 61.3180495,10.311629 61.505474,10.4701258 C61.6940999,10.6501781 61.8490855,10.8467141 61.9704308,11.0648057 C62.0929776,11.2803613 62.1614596,11.5339561 62.1758768,11.83193 C62.1878912,12.0665053 62.1398337,12.3213681 62.0329056,12.6003224 C61.927179,12.8805447 61.7782006,13.1455513 61.5895747,13.3877343 L57.1082079,19.4473828 L63.6764739,29.3680126 C63.871107,29.6533068 63.9792365,29.9753723 63.9972581,30.3367449 C64.0224883,30.8629542 63.8735099,31.3257647 63.5539272,31.7251766 C63.2319416,32.1245884 62.751366,32.3401441 62.113402,32.3756473 C61.691697,32.3997388 61.3360711,32.3021048 61.0441215,32.0890852 C60.7521718,31.8709936 60.4878553,31.5666798 60.248769,31.1786797 L54.4902727,22.480377 L52.4322079,25.2610443 L52.7169489,31.0227189 C52.7421792,31.509621 52.6328482,31.94834 52.3925605,32.34268 C52.1534741,32.73702 51.6704957,32.9538435 50.9508339,32.9931507 C50.2696181,33.03119 49.7734238,32.9107324 49.4586468,32.6330461 C49.1438699,32.3528238 48.9696612,31.8862093 48.9372224,31.2319346 L48.0037044,12.4557733" id="Fill-43" fill="#1A1919"></path>
                    <path d="M66.0042423,11.8468771 C65.9711555,11.2262032 66.1314992,10.7709594 66.4890913,10.4836334 C66.8454107,10.1950635 67.3315322,10.0358526 67.9436381,10.0047567 C68.5162944,9.97490463 68.9960531,10.085606 69.380369,10.3356169 C69.764685,10.584384 69.9759315,11.0222141 70.0077458,11.6416442 L70.9965322,30.0603607 C71.0219836,30.5379936 70.9074524,30.9683607 70.6491208,31.3551935 C70.3958794,31.7420264 69.8881242,31.9534784 69.12331,31.9932811 C68.4043083,32.0305962 67.8774645,31.9124318 67.5440513,31.6400318 C67.2106381,31.3651442 67.0261156,30.9074127 66.9904836,30.2643498 L66.0042423,11.8468771" id="Fill-44" fill="#1A1919"></path>
                    <path d="M73.0049035,11.803677 C72.968593,11.0869003 73.1338682,10.5546903 73.5032333,10.2095756 C73.8725983,9.86446086 74.3496427,9.67483737 74.9318622,9.64449762 C75.3488064,9.6217428 75.7394569,9.6887431 76.1038137,9.85055514 C76.4644141,10.011103 76.8412917,10.3764443 77.2256818,10.9465789 L85.8876053,24.3820348 L85.1889419,10.9339373 C85.1538835,10.2639343 85.2966212,9.78102653 85.6159028,9.49027052 C85.9339324,9.19825035 86.3959517,9.03770247 87.0019608,9.0048344 C87.5841803,8.97449464 88.0587205,9.08700457 88.4305897,9.34110004 C88.7974506,9.59519551 88.9990363,10.0604051 89.0340947,10.7304081 L89.9944438,29.2300752 C90.0069647,29.4652084 89.9982001,29.7016056 89.9694021,29.9430595 C89.9393521,30.1870418 89.8667312,30.4082692 89.7540435,30.6067417 C89.6388517,30.802686 89.4585515,30.9682905 89.215647,31.1086119 C88.9702383,31.246405 88.6309233,31.3285751 88.1926936,31.3513299 C87.2962008,31.3981037 86.5637311,30.996102 85.9965367,30.1390038 L77.1755984,17.245871 L77.8404554,30.0315505 C77.8654971,30.5182508 77.7615741,30.9543848 77.5336946,31.3462733 C77.3008068,31.739426 76.8099896,31.9530685 76.0599907,31.9935215 C75.3513106,32.030182 74.8316954,31.9113513 74.5049012,31.634501 C74.176855,31.3563866 73.9953026,30.8899128 73.9614964,30.237608 L73.0049035,11.803677" id="Fill-45" fill="#1A1919"></path>
                    <path d="M97.2445365,20.1413555 C96.4624665,20.0164698 95.7096785,19.8285104 94.9837321,19.5863078 C94.2590059,19.3377979 93.6099244,18.9921546 93.0364878,18.5380247 C92.4630512,18.0838948 91.9957614,17.5036177 91.6333982,16.7971934 C91.2734752,16.0895076 91.0648419,15.2001699 91.0111585,14.1279188 C90.9611353,13.1641542 91.0794829,12.2609403 91.3625409,11.4258459 C91.645599,10.58949 92.0872672,9.85531336 92.6863254,9.22205445 C93.2866038,8.59005701 94.0381718,8.07916088 94.9471298,7.69315047 C95.8536477,7.30714006 96.9053548,7.08007511 98.1059115,7.01574004 C98.9172633,6.97158852 99.7298351,7.01952446 100.541187,7.16963962 C101.353759,7.31344742 102.088246,7.53925089 102.744648,7.83948121 C103.40227,8.13971153 103.945204,8.51058428 104.374672,8.95209945 C104.802919,9.38856874 105.034734,9.89441899 105.062796,10.4620814 C105.081097,10.8190779 105.026193,11.1571524 104.898085,11.4800892 C104.793158,11.7828425 104.612587,12.0376598 104.358811,12.2533715 C104.105034,12.4678217 103.806115,12.5952304 103.460833,12.6330745 C103.177775,12.6482122 102.921559,12.6242442 102.694624,12.5624321 C102.46891,12.5031429 102.235875,12.3631196 101.99918,12.1448849 C101.768585,11.9682788 101.52457,11.7866269 101.270794,11.5974061 C101.017017,11.4132312 100.733959,11.2492398 100.420399,11.1066935 C100.108059,10.9666701 99.7554568,10.8543991 99.3662519,10.771142 C98.9733868,10.6878848 98.5353789,10.6576095 98.0461276,10.6853619 C97.4373088,10.7181602 96.9346367,10.8241238 96.5356712,11.0019913 C96.1354857,11.1823818 95.8231457,11.4044009 95.592551,11.6680485 C95.3595161,11.9342191 95.2021261,12.2407568 95.1191608,12.5800927 C95.0325352,12.9232131 94.9995931,13.2612876 95.0166742,13.5968391 C95.0569368,14.3739058 95.3399949,14.9743665 95.8731689,15.3956981 C96.4026827,15.8233371 97.1322893,16.1260903 98.0571083,16.3064808 L99.6297887,16.5991423 C100.327673,16.7315969 101.045079,16.9069415 101.779566,17.1289605 C102.515273,17.3560255 103.183876,17.6852696 103.785374,18.1280463 C104.389313,18.5720844 104.890765,19.1485771 105.29583,19.8625702 C105.699676,20.5790862 105.927831,21.5024837 105.985175,22.6378084 C106.048619,23.8753124 105.90831,24.9399947 105.566688,25.8318554 C105.226286,26.7224545 104.728494,27.4705074 104.076973,28.0608763 C103.424231,28.656291 102.648261,29.1104209 101.745404,29.420743 C100.846206,29.7310651 99.8664839,29.9165015 98.8098964,29.9745292 C97.3482431,30.0540019 96.125725,29.9480383 95.1411222,29.6490694 C94.1601795,29.3576694 93.3634687,29.0158105 92.7546498,28.6310616 C92.2495376,28.3182165 91.9030354,28.0192477 91.7163635,27.7379395 C91.5272514,27.4503238 91.4272051,27.1803689 91.4150043,26.9343818 C91.3832823,26.3011229 91.5431125,25.7284147 91.8944949,25.2149956 C92.2458773,24.702838 92.6741247,24.4316215 93.1816771,24.4038691 C93.5062178,24.3862085 93.7953763,24.4429748 94.0467123,24.5779523 C94.2968283,24.7104068 94.5811064,24.8857514 94.8958865,25.1014631 C95.1508828,25.2755462 95.404659,25.4407991 95.654775,25.5959601 C95.9073311,25.7536441 96.1916092,25.8936675 96.5027291,26.0223376 C96.8126289,26.1547922 97.1688916,26.2519255 97.5715173,26.3137376 C97.9717029,26.3793342 98.4353325,26.3919489 98.9636262,26.362935 C99.9994724,26.3074303 100.793743,26.0185532 101.348879,25.4925194 C101.902794,24.9677471 102.15535,24.2638458 102.111427,23.3808154 C102.063844,22.4359729 101.766145,21.7434248 101.21345,21.2981252 C100.660755,20.8566101 99.8298815,20.5475494 98.7220508,20.3772507 L97.2445365,20.1413555" id="Fill-46" fill="#1A1919"></path>
                    <path d="M117.41843,26.0584074 C118.099327,25.8761999 118.673035,25.5548061 119.138335,25.0942259 C119.604853,24.6387071 119.982452,24.0667779 120.271133,23.3860303 C120.563468,22.706548 120.76323,21.92837 120.871638,21.0565576 C120.980045,20.1860105 121.009279,19.2420743 120.95812,18.2310755 C120.906962,17.2226075 120.782719,16.2887938 120.586611,15.4334307 C120.391721,14.5780676 120.116439,13.8251962 119.75711,13.1798778 C119.401436,12.5345595 118.961715,12.0107128 118.444039,11.6032765 C117.922708,11.2009016 117.325857,10.9427742 116.649832,10.8314252 C116.52559,10.7947306 116.425709,10.7428521 116.351407,10.6719936 C116.277105,10.6024004 116.234473,10.4518262 116.222292,10.2202708 L116.09196,7.63014007 C116.070035,7.20878515 116.222292,6.99874035 116.548733,7.00000568 C117.813082,7.08225214 118.949535,7.40491131 119.952,7.97430985 C120.956902,8.5399124 121.819291,9.30670243 122.537948,10.270884 C123.260259,11.2363308 123.824222,12.3776586 124.234709,13.6961325 C124.64885,15.0171371 124.893681,16.4545521 124.972855,18.0134388 C125.054465,19.6393879 124.952148,21.1324774 124.664685,22.4952379 C124.377222,23.8655904 123.925321,25.060062 123.307763,26.08751 C122.687769,27.1162234 121.905773,27.9564026 120.964211,28.6093129 C120.017776,29.2584272 118.931264,29.6861088 117.702239,29.878439 C117.378234,29.9176642 117.206487,29.725334 117.184562,29.3077751 L117.054229,26.7113178 C117.043267,26.4810277 117.071282,26.3241268 117.135839,26.2342883 C117.202833,26.1469806 117.297842,26.08751 117.41843,26.0584074 Z M115.350159,26.1710218 C115.471966,26.1874711 115.569411,26.2355537 115.648585,26.3152695 C115.721669,26.3987812 115.764301,26.5506209 115.776481,26.7809109 L115.906814,29.3773683 C115.928739,29.7949272 115.776481,30.004972 115.450041,29.9999107 C114.18691,29.9442361 113.054111,29.6380263 112.050428,29.0939343 C111.047962,28.5473117 110.183137,27.796971 109.46448,26.8416468 C108.747042,25.8875879 108.18186,24.7462601 107.768937,23.4151329 C107.353578,22.0903323 107.108747,20.6162227 107.025919,18.9902736 C106.947963,17.4313869 107.045408,15.9762573 107.324344,14.6172928 C107.602063,13.260859 108.049092,12.0638567 108.666649,11.026286 C109.285425,9.98871535 110.069858,9.13335221 111.010202,8.46146193 C111.951765,7.78577567 113.046803,7.34164481 114.295317,7.1227427 C114.62054,7.0847828 114.792287,7.2783783 114.814212,7.69973322 L114.943327,10.2898639 C114.955507,10.5214193 114.92871,10.6757896 114.862934,10.7529747 C114.792287,10.8314252 114.699714,10.8946917 114.58278,10.9440396 C113.918936,11.1275124 113.352537,11.4501716 112.873838,11.9056904 C112.400012,12.3675359 112.018758,12.9356691 111.727641,13.617682 C111.436524,14.2984296 111.23798,15.0766076 111.129572,15.9471547 C111.021165,16.8202325 110.988277,17.7616381 111.039436,18.7713715 C111.090594,19.7823702 111.217273,20.7174492 111.413381,21.571547 C111.609489,22.4269101 111.879899,23.1797815 112.228265,23.8238345 C112.574195,24.4704182 113.009043,24.9980608 113.52672,25.4004358 C114.045614,25.8066068 114.653428,26.0647341 115.350159,26.1710218 Z" id="Fill-47" fill="#1A1919"></path>
                    <path d="M126.004904,7.80240405 C125.968592,7.08563939 126.133873,6.5547026 126.50325,6.20959369 C126.872627,5.86448478 127.34593,5.6748645 127.930673,5.64326112 C128.34763,5.62177082 128.739546,5.68876999 129.100158,5.85057929 C129.465779,6.00986033 129.840164,6.3751954 130.223314,6.94658451 L138.885519,20.3818134 L138.188085,6.93394316 C138.153025,6.26395151 138.295768,5.78105186 138.61506,5.49030076 C138.934352,5.19954967 139.397638,5.03647622 140.002415,5.00487284 C140.583401,4.9745336 141.060461,5.0857775 141.43109,5.34113281 C141.797963,5.59522398 141.999555,6.0591616 142.033362,6.73041739 L142.994995,25.2297719 C143.006264,25.4649011 142.998751,25.7012944 142.969952,25.9440083 C142.941153,26.1867223 142.86853,26.4079459 142.75083,26.605151 C142.636887,26.8023561 142.457833,26.9679578 142.21492,27.1082768 C141.969504,27.2460676 141.630178,27.3282364 141.191934,27.3509908 C140.295412,27.3990279 139.562919,26.9970329 138.995706,26.1386851 L130.175734,13.2457702 L130.83936,26.0312337 C130.864403,26.5179257 130.762981,26.9540523 130.530085,27.3459343 C130.299694,27.7390803 129.811365,27.9527192 129.06009,27.9931715 C128.351387,28.0310955 127.831755,27.9110027 127.503698,27.6341571 C127.176893,27.3560473 126.995335,26.8895815 126.961528,26.2360236 L126.004904,7.80240405" id="Fill-48" fill="#1A1919"></path>
                    <path d="M156.240684,18.1408077 C155.462257,18.0159152 154.708233,17.8292072 153.98349,17.5869915 C153.257528,17.338468 152.609653,16.9915444 152.038644,16.5386514 C151.463974,16.0844968 150.994234,15.5029267 150.634303,14.7977255 C150.271932,14.0887398 150.064514,13.2006153 150.01083,12.1283059 C149.962025,11.1632275 150.077935,10.2612261 150.36344,9.42482477 C150.644064,8.58968499 151.086962,7.85420691 151.687253,7.22217514 C152.285105,6.59014338 153.039129,6.07795795 153.946887,5.69318812 C154.854645,5.30715674 155.907595,5.08007946 157.105738,5.01574089 C157.918328,4.97158698 158.729698,5.01952552 159.542287,5.16964883 C160.352437,5.31346444 161.08816,5.53928018 161.744576,5.83826527 C162.403433,6.13851189 162.945159,6.51066633 163.375856,6.95094394 C163.802893,7.38869848 164.034713,7.8945762 164.063995,8.4622694 C164.082297,8.81928535 164.027392,9.15611665 163.899281,9.48033255 C163.794352,9.78310225 163.610116,10.0379334 163.359995,10.2523953 C163.104993,10.4668572 162.806067,10.5942728 162.463218,10.632119 C162.177713,10.648519 161.921491,10.6245497 161.695772,10.5627343 C161.466392,10.5021803 161.235793,10.3621493 160.999092,10.1451644 C160.768492,9.96728716 160.524472,9.78688687 160.27069,9.59765581 C160.016908,9.4134709 159.733844,9.24947064 159.421497,9.10691657 C159.10915,8.96688558 158.75532,8.85460848 158.363666,8.77134681 C157.973233,8.68808514 157.533995,8.65780817 157.047173,8.68430052 C156.437121,8.71710057 155.931998,8.82306997 155.536684,9.00094717 C155.137709,9.18134746 154.820482,9.40464012 154.592323,9.66830207 C154.360503,9.93448711 154.201889,10.2397799 154.118922,10.5791343 C154.032295,10.9222733 153.999352,11.2616277 154.016433,11.5959359 C154.056697,12.3743063 154.340981,12.9735381 154.872947,13.3948926 C155.403692,13.8225548 156.132095,14.1253245 157.056934,14.3057248 L158.627209,14.5996637 C159.329989,14.7321254 160.04497,14.9074796 160.779473,15.1295107 C161.513976,15.3553264 162.183814,15.68585 162.785325,16.1286507 C163.388057,16.572713 163.89318,17.1479754 164.295815,17.8632688 C164.69845,18.5798238 164.927829,19.5032714 164.985174,20.6386578 C165.04862,21.876229 164.908308,22.9409691 164.566678,23.8316167 C164.223829,24.7222643 163.727246,25.4703577 163.07571,26.0607587 C162.421734,26.6574673 161.648188,27.1103603 160.74531,27.4219608 C159.846093,27.7322998 158.866349,27.9177462 157.810959,27.9745155 C156.349273,28.0539926 155.125508,27.9480232 154.144544,27.6502996 C153.15992,27.3588838 152.363191,27.0157448 151.754359,26.630975 C151.249236,26.3181129 150.902726,26.0203894 150.71605,25.7378043 C150.526934,25.4501731 150.426885,25.1802034 150.415904,24.9342031 C150.382961,24.3009097 150.542795,23.7294319 150.894185,23.2147234 C151.241915,22.7037995 151.673832,22.4313068 152.182616,22.4035529 C152.507164,22.3858913 152.792668,22.4426607 153.04523,22.578907 C153.295351,22.7113688 153.580856,22.8867229 153.896863,23.1024463 C154.149425,23.2752774 154.403206,23.4418007 154.654548,23.5957086 C154.90711,23.7546627 155.190174,23.8946937 155.501301,24.0233708 C155.813647,24.1558326 156.169918,24.2517097 156.572552,24.3147867 C156.972747,24.3791253 157.435166,24.3930022 157.963472,24.3639868 C158.998121,24.3072174 159.796069,24.0195862 160.346336,23.4935239 C160.901484,22.968723 161.155266,22.2647835 161.111342,21.3804436 C161.063758,20.4355498 160.764832,19.7442256 160.212125,19.2989019 C159.659417,18.8573627 158.827306,18.5482853 157.723111,18.3767158 L156.240684,18.1408077" id="Fill-49" fill="#1A1919"></path>
                    <g id="Group-53" transform="translate(166.000000, 0.000000)">
                        <mask id="mask-6" fill="white">
                            <use xlink:href="#path-5"></use>
                        </mask>
                        <g id="Clip-51"></g>
                        <path d="M0.420533333,1.86220779 C0.4028,1.54438312 0.483866667,1.3113961 0.662466667,1.16451299 C0.842333333,1.01636364 1.08553333,0.934058442 1.38953333,0.918863636 C1.68846667,0.902402597 1.93166667,0.959383117 2.11913333,1.08727273 C2.3066,1.21516234 2.4092,1.43928571 2.42693333,1.75711039 L2.74866667,7.93253247 C2.7968,8.85308442 3.00453333,9.50392857 3.3706,9.87873377 C3.73793333,10.2548052 4.2522,10.4219481 4.921,10.3877597 C5.58853333,10.3523052 6.0838,10.1307143 6.403,9.71918831 C6.7222,9.30892857 6.85646667,8.64035714 6.80833333,7.71980519 L6.48533333,1.55831169 C6.4676,1.23035714 6.54866667,0.993571429 6.72853333,0.846688312 C6.90713333,0.698538961 7.14906667,0.616233766 7.45813333,0.601038961 C7.75453333,0.584577922 7.99773333,0.641558442 8.1852,0.769448052 C8.37266667,0.897337662 8.47526667,1.12399351 8.493,1.45321429 L8.82866667,7.87048701 C8.86413333,8.53525974 8.79446667,9.13038961 8.626,9.64954545 C8.455,10.1712338 8.20166667,10.6118831 7.8584,10.9752922 C7.51513333,11.3374351 7.09713333,11.6248701 6.60186667,11.8325325 C6.10786667,12.0376623 5.5518,12.1554221 4.9362,12.1870779 C3.63026667,12.2567208 2.6258,11.9642208 1.92026667,11.3019805 C1.21473333,10.6422727 0.827133333,9.63688312 0.7562,8.29340909 L0.420533333,1.86220779" id="Fill-50" fill="#1A1919" mask="url(#mask-6)"></path>
                        <path d="M9.96993333,1.36204545 C9.9522,1.04422078 10.032,0.811233766 10.2118667,0.664350649 C10.3917333,0.516201299 10.6349333,0.433896104 10.9414667,0.417435065 C11.2277333,0.403506494 11.4684,0.459220779 11.6622,0.588376623 C11.8534667,0.715 11.9598667,0.939123377 11.9776,1.25694805 L12.179,5.12275974 L15.5546667,0.751720779 C15.675,0.594707792 15.8042,0.457954545 15.9397333,0.331331169 C16.0778,0.205974026 16.2488,0.14012987 16.4502,0.128733766 C16.5971333,0.122402597 16.7250667,0.138863636 16.8276667,0.180649351 C16.929,0.224967532 17.0328667,0.283214286 17.1316667,0.364253247 C17.233,0.454155844 17.3140667,0.554188312 17.3799333,0.660551948 C17.4432667,0.770714286 17.48,0.89987013 17.4876,1.04675325 C17.4939333,1.16577922 17.4686,1.2924026 17.4116,1.43675325 C17.3571333,1.57477273 17.2760667,1.70899351 17.1772667,1.83181818 L14.7997333,4.87584416 L18.2830667,9.85974026 C18.3882,10.0066234 18.4439333,10.1674351 18.4528,10.351039 C18.4667333,10.6131494 18.3882,10.8461364 18.2184667,11.0449351 C18.0487333,11.2487987 17.7928667,11.3551623 17.4534,11.3728896 C17.233,11.3855519 17.043,11.3374351 16.8884667,11.228539 C16.7314,11.1209091 16.5895333,10.9676948 16.4641333,10.7726948 L13.4102,6.40165584 L12.3196,7.79704545 L12.4716,10.6941883 C12.4842667,10.9373052 12.4234667,11.1576299 12.2968,11.3551623 C12.1676,11.5577597 11.913,11.6641234 11.5317333,11.6831169 C11.1694667,11.7021104 10.9072667,11.6438636 10.7400667,11.5007792 C10.5741333,11.3627597 10.4804,11.1272403 10.4639333,10.7992857 L9.96993333,1.36204545" id="Fill-52" fill="#1A1919" mask="url(#mask-6)"></path>
                    </g>
                    <path d="M149,8.67224703 L148.750165,11.5705994 C148.715188,12.0260214 148.592769,12.371675 148.385406,12.6063925 C148.176793,12.84111 147.829523,12.9730656 147.349839,12.9964205 C146.845172,13.0209433 146.48541,12.9193491 146.260558,12.6951414 C146.038205,12.4721014 145.872065,12.1357897 145.764636,11.6873742 L145.132553,8.86259007 L145.002639,6.57146708 C144.977655,6.09852885 145.130055,5.72952025 145.461086,5.45860255 C145.794616,5.18651709 146.274299,5.03587751 146.902634,5.00551604 C148.159305,4.94362536 148.815122,5.40255061 148.870086,6.38229178 L149,8.67224703" id="Fill-54" fill="#1A1919"></path>
                </g>
            </g>
        </g>
    </g>
</svg>