<?xml version="1.0" encoding="UTF-8" standalone="no"?>
<svg width="241px" height="72px" viewBox="0 0 241 72" version="1.1" xmlns="http://www.w3.org/2000/svg" xmlns:xlink="http://www.w3.org/1999/xlink">
    <!-- Generator: Sketch 50.2 (55047) - http://www.bohemiancoding.com/sketch -->
    <title>UCL eps-logo-black-large</title>
    <desc>Created with Sketch.</desc>
    <defs>
        <polygon id="path-1" points="0 0.762 240.945 0.762 240.945 71.94 0 71.94"></polygon>
    </defs>
    <g id="BF-Digital" stroke="none" stroke-width="1" fill="none" fill-rule="evenodd" opacity="0.800000012">
        <g id="Home" transform="translate(-125.000000, -5676.000000)">
            <g id="Group-7" style="mix-blend-mode: multiply;" transform="translate(115.000000, 5122.000000)">
                <g id="UCL-eps-logo-black-large" transform="translate(10.000000, 554.000000)">
                    <g id="Group-3">
                        <mask id="mask-2" fill="white">
                            <use xlink:href="#path-1"></use>
                        </mask>
                        <g id="Clip-2"></g>
                        <path d="M0,0.762 L0,72 L86.944,72 C86.264,71.516 85.631,71.008 85.066,70.467 C80.033,65.6 79.963,59.945 79.819,54.645 L79.819,24.578 L95.925,24.578 L95.925,56.152 C95.925,58.297 95.998,60.516 97.794,62.234 C99.089,63.596 101.032,64.096 102.902,64.096 C105.417,64.096 107.072,63.164 108.007,62.307 C109.877,60.516 109.947,58.297 109.947,56.152 L109.947,24.578 L126.125,24.578 L126.125,51.496 C126.125,57.293 126.125,64.812 120.158,70.467 C119.588,71.002 118.958,71.512 118.28,72 L142.4,72 C135.3,66.904 131.963,58.391 131.963,50.135 C131.963,36.533 141.098,22.715 158.282,22.715 C165.977,22.715 173.311,25.438 178.633,30.879 C180.789,33.098 181.796,34.814 182.873,36.818 L169.429,43.479 C168.133,40.469 165.688,35.102 158.929,35.102 C155.406,35.102 153.176,36.75 152.098,37.822 C148.287,41.473 148.287,47.199 148.287,49.207 C148.287,56.723 151.092,63.811 159.002,63.811 C166.48,63.811 168.709,57.225 169.285,55.508 L182.947,62.094 C181.652,64.525 180.43,66.816 177.986,69.25 C176.938,70.277 175.803,71.19 174.602,72 L189.373,72 L189.373,24.506 L205.406,24.506 L205.406,61.834 L226.215,61.834 L226.215,72 L240.945,72 L240.945,0.762 L0,0.762" id="Fill-1" fill="#1A1919" mask="url(#mask-2)"></path>
                    </g>
                    <path d="M63.241,33.602 L54.603,35.459 L54.732,35.939 L54.755,35.939 C54.755,35.939 54.887,35.923 54.963,36.048 L55.101,36.804 L71.38,36.804 L71.517,36.06 C71.591,35.92 71.733,35.939 71.733,35.939 L71.754,35.939 L71.884,35.46 L63.241,33.602" id="Fill-4" fill="#FFFFFE"></path>
                    <path d="M56.833,37.028 C56.844,37.028 56.852,37.021 56.852,37.009 L56.852,36.804 C56.852,36.794 56.844,36.786 56.833,36.786 L55.559,36.786 C55.547,36.786 55.54,36.794 55.54,36.804 L55.54,37.009 C55.54,37.021 55.547,37.028 55.559,37.028 L55.613,37.028 C55.642,37.028 55.643,37.056 55.643,37.081 C55.643,37.112 55.657,37.283 55.775,37.387 C55.792,37.402 55.802,37.441 55.767,37.441 C55.765,37.441 55.729,37.441 55.726,37.441 C55.696,37.441 55.695,37.462 55.704,37.478 C55.715,37.497 55.724,37.556 55.724,37.583 C55.724,37.612 55.724,37.659 55.724,37.68 C55.724,37.697 55.726,37.711 55.743,37.711 C55.745,37.711 55.76,37.711 55.76,37.711 C55.76,37.711 55.774,37.711 55.774,37.723 C55.774,37.736 55.743,39.953 55.743,39.953 L55.738,41.856 L55.738,42.547 C55.724,42.563 55.672,42.615 55.668,42.617 C55.664,42.621 55.661,42.629 55.661,42.635 L55.661,42.715 C55.661,42.721 55.659,42.733 55.655,42.733 C55.651,42.737 55.644,42.741 55.637,42.741 L55.575,42.741 C55.565,42.741 55.557,42.751 55.557,42.759 C55.557,42.759 55.557,42.894 55.557,42.899 L56.835,42.899 C56.835,42.894 56.835,42.759 56.835,42.759 C56.835,42.751 56.827,42.741 56.816,42.741 L56.756,42.741 C56.75,42.741 56.742,42.737 56.738,42.733 C56.734,42.733 56.733,42.721 56.733,42.715 L56.733,42.635 C56.733,42.629 56.731,42.623 56.724,42.617 C56.717,42.611 56.675,42.568 56.654,42.547 L56.654,41.856 L56.65,39.953 C56.65,39.953 56.615,37.736 56.615,37.723 C56.615,37.711 56.629,37.711 56.629,37.711 C56.63,37.711 56.646,37.711 56.647,37.711 C56.664,37.711 56.667,37.697 56.667,37.68 C56.667,37.659 56.667,37.612 56.667,37.583 C56.667,37.556 56.676,37.497 56.688,37.478 C56.696,37.462 56.694,37.441 56.664,37.441 C56.662,37.441 56.627,37.441 56.625,37.441 C56.587,37.441 56.6,37.4 56.615,37.387 C56.736,37.289 56.749,37.118 56.749,37.085 C56.749,37.056 56.748,37.028 56.778,37.028 L56.833,37.028" id="Fill-5" fill="#FFFFFE"></path>
                    <path d="M59.652,37.028 C59.662,37.028 59.67,37.021 59.67,37.009 L59.67,36.804 C59.67,36.794 59.662,36.786 59.652,36.786 L58.376,36.786 C58.366,36.786 58.358,36.794 58.358,36.804 L58.358,37.009 C58.358,37.021 58.366,37.028 58.376,37.028 L58.433,37.028 C58.459,37.028 58.46,37.056 58.46,37.081 C58.46,37.112 58.476,37.283 58.595,37.387 C58.611,37.402 58.621,37.441 58.586,37.441 C58.583,37.441 58.547,37.441 58.545,37.441 C58.515,37.441 58.513,37.462 58.522,37.478 C58.533,37.497 58.542,37.556 58.542,37.583 C58.542,37.612 58.542,37.659 58.542,37.68 C58.542,37.697 58.544,37.711 58.562,37.711 C58.564,37.711 58.579,37.711 58.581,37.711 C58.581,37.711 58.593,37.711 58.593,37.723 C58.593,37.736 58.562,39.953 58.562,39.953 L58.556,41.856 L58.556,42.547 C58.542,42.563 58.49,42.615 58.485,42.617 C58.481,42.621 58.479,42.629 58.479,42.635 L58.479,42.715 C58.479,42.721 58.477,42.733 58.473,42.733 C58.469,42.737 58.462,42.741 58.455,42.741 L58.395,42.741 C58.385,42.741 58.375,42.751 58.375,42.759 C58.375,42.759 58.375,42.894 58.375,42.899 L59.654,42.899 C59.654,42.894 59.654,42.759 59.654,42.759 C59.654,42.751 59.645,42.741 59.635,42.741 L59.574,42.741 C59.567,42.741 59.56,42.737 59.556,42.733 C59.553,42.733 59.55,42.721 59.55,42.715 L59.55,42.635 C59.55,42.629 59.55,42.623 59.543,42.617 C59.537,42.611 59.494,42.568 59.473,42.547 L59.473,41.856 L59.468,39.953 C59.468,39.953 59.435,37.736 59.435,37.723 C59.435,37.711 59.447,37.711 59.447,37.711 C59.448,37.711 59.464,37.711 59.465,37.711 C59.483,37.711 59.485,37.697 59.485,37.68 C59.485,37.659 59.485,37.612 59.485,37.583 C59.485,37.556 59.495,37.497 59.506,37.478 C59.516,37.462 59.513,37.441 59.483,37.441 C59.481,37.441 59.444,37.441 59.443,37.441 C59.405,37.441 59.418,37.4 59.435,37.387 C59.555,37.289 59.566,37.118 59.566,37.085 C59.566,37.056 59.565,37.028 59.596,37.028 L59.652,37.028" id="Fill-6" fill="#FFFFFE"></path>
                    <path d="M62.471,37.028 C62.481,37.028 62.489,37.021 62.489,37.009 L62.489,36.804 C62.489,36.794 62.481,36.786 62.471,36.786 L61.196,36.786 C61.186,36.786 61.177,36.794 61.177,36.804 L61.177,37.009 C61.177,37.021 61.186,37.028 61.196,37.028 L61.251,37.028 C61.277,37.028 61.279,37.056 61.279,37.081 C61.279,37.112 61.293,37.283 61.413,37.387 C61.429,37.402 61.439,37.441 61.404,37.441 C61.402,37.441 61.367,37.441 61.365,37.441 C61.334,37.441 61.333,37.462 61.34,37.478 C61.352,37.497 61.361,37.556 61.361,37.583 C61.361,37.612 61.361,37.659 61.361,37.68 C61.361,37.697 61.364,37.711 61.381,37.711 C61.382,37.711 61.397,37.711 61.399,37.711 C61.399,37.711 61.412,37.711 61.412,37.723 C61.412,37.736 61.381,39.953 61.381,39.953 L61.375,41.856 L61.375,42.547 C61.361,42.563 61.308,42.615 61.304,42.617 C61.3,42.621 61.297,42.629 61.297,42.635 L61.297,42.715 C61.297,42.721 61.296,42.733 61.292,42.733 C61.287,42.737 61.28,42.741 61.272,42.741 L61.212,42.741 C61.203,42.741 61.194,42.751 61.194,42.759 C61.194,42.759 61.194,42.894 61.194,42.899 L62.473,42.899 C62.473,42.894 62.473,42.759 62.473,42.759 C62.473,42.751 62.463,42.741 62.453,42.741 L62.393,42.741 C62.385,42.741 62.378,42.737 62.374,42.733 C62.371,42.733 62.369,42.721 62.369,42.715 L62.369,42.635 C62.369,42.629 62.368,42.623 62.362,42.617 C62.354,42.611 62.312,42.568 62.292,42.547 L62.292,41.856 L62.288,39.953 C62.288,39.953 62.254,37.736 62.254,37.723 C62.254,37.711 62.267,37.711 62.267,37.711 C62.269,37.711 62.284,37.711 62.285,37.711 C62.302,37.711 62.304,37.697 62.304,37.68 C62.304,37.659 62.304,37.612 62.304,37.583 C62.304,37.556 62.313,37.497 62.325,37.478 C62.334,37.462 62.332,37.441 62.302,37.441 C62.3,37.441 62.265,37.441 62.263,37.441 C62.225,37.441 62.237,37.4 62.254,37.387 C62.373,37.289 62.384,37.118 62.384,37.085 C62.384,37.056 62.384,37.028 62.414,37.028 L62.471,37.028" id="Fill-7" fill="#FFFFFE"></path>
                    <path d="M65.29,37.028 C65.299,37.028 65.309,37.021 65.309,37.009 L65.309,36.804 C65.309,36.794 65.299,36.786 65.29,36.786 L64.014,36.786 C64.003,36.786 63.995,36.794 63.995,36.804 L63.995,37.009 C63.995,37.021 64.003,37.028 64.014,37.028 L64.068,37.028 C64.096,37.028 64.097,37.056 64.097,37.081 C64.097,37.112 64.113,37.283 64.231,37.387 C64.247,37.402 64.258,37.441 64.223,37.441 C64.22,37.441 64.185,37.441 64.182,37.441 C64.152,37.441 64.15,37.462 64.159,37.478 C64.17,37.497 64.179,37.556 64.179,37.583 C64.179,37.612 64.179,37.659 64.179,37.68 C64.179,37.697 64.181,37.711 64.199,37.711 C64.2,37.711 64.216,37.711 64.217,37.711 C64.217,37.711 64.23,37.711 64.23,37.723 C64.23,37.736 64.199,39.953 64.199,39.953 L64.193,41.856 L64.193,42.547 C64.179,42.563 64.127,42.615 64.124,42.617 C64.12,42.621 64.116,42.629 64.116,42.635 L64.116,42.715 C64.116,42.721 64.114,42.733 64.11,42.733 C64.107,42.737 64.099,42.741 64.092,42.741 L64.031,42.741 C64.021,42.741 64.012,42.751 64.012,42.759 C64.012,42.759 64.012,42.894 64.012,42.899 L65.291,42.899 C65.291,42.894 65.291,42.759 65.291,42.759 C65.291,42.751 65.282,42.741 65.273,42.741 L65.212,42.741 C65.205,42.741 65.198,42.737 65.194,42.733 C65.19,42.733 65.188,42.721 65.188,42.715 L65.188,42.635 C65.188,42.629 65.187,42.623 65.181,42.617 C65.174,42.611 65.131,42.568 65.11,42.547 L65.11,41.856 L65.105,39.953 C65.105,39.953 65.072,37.736 65.072,37.723 C65.072,37.711 65.085,37.711 65.085,37.711 C65.087,37.711 65.101,37.711 65.103,37.711 C65.121,37.711 65.123,37.697 65.123,37.68 C65.123,37.659 65.123,37.612 65.123,37.583 C65.123,37.556 65.132,37.497 65.144,37.478 C65.152,37.462 65.151,37.441 65.12,37.441 C65.118,37.441 65.083,37.441 65.081,37.441 C65.044,37.441 65.055,37.4 65.072,37.387 C65.193,37.289 65.204,37.118 65.204,37.085 C65.204,37.056 65.203,37.028 65.234,37.028 L65.29,37.028" id="Fill-8" fill="#FFFFFE"></path>
                    <path d="M68.109,37.028 C68.119,37.028 68.127,37.021 68.127,37.009 L68.127,36.804 C68.127,36.794 68.119,36.786 68.109,36.786 L66.833,36.786 C66.823,36.786 66.814,36.794 66.814,36.804 L66.814,37.009 C66.814,37.021 66.823,37.028 66.833,37.028 L66.888,37.028 C66.915,37.028 66.917,37.056 66.917,37.081 C66.917,37.112 66.932,37.283 67.049,37.387 C67.066,37.402 67.076,37.441 67.042,37.441 C67.04,37.441 67.003,37.441 67,37.441 C66.97,37.441 66.969,37.462 66.978,37.478 C66.988,37.497 66.997,37.556 66.997,37.583 C66.997,37.612 66.997,37.659 66.997,37.68 C66.997,37.697 66.999,37.711 67.018,37.711 C67.019,37.711 67.034,37.711 67.036,37.711 C67.036,37.711 67.049,37.711 67.049,37.723 C67.049,37.736 67.018,39.953 67.018,39.953 L67.012,41.856 L67.012,42.547 C66.997,42.563 66.945,42.615 66.941,42.617 C66.938,42.621 66.934,42.629 66.934,42.635 L66.934,42.715 C66.934,42.721 66.933,42.733 66.929,42.733 C66.925,42.737 66.917,42.741 66.911,42.741 L66.851,42.741 C66.84,42.741 66.832,42.751 66.832,42.759 C66.832,42.759 66.832,42.894 66.832,42.899 L68.11,42.899 C68.11,42.894 68.11,42.759 68.11,42.759 C68.11,42.751 68.101,42.741 68.09,42.741 L68.03,42.741 C68.023,42.741 68.017,42.737 68.013,42.733 C68.008,42.733 68.006,42.721 68.006,42.715 L68.006,42.635 C68.006,42.629 68.006,42.623 67.999,42.617 C67.992,42.611 67.949,42.568 67.929,42.547 L67.929,41.856 L67.925,39.953 C67.925,39.953 67.889,37.736 67.889,37.723 C67.889,37.711 67.903,37.711 67.903,37.711 C67.905,37.711 67.92,37.711 67.921,37.711 C67.938,37.711 67.941,37.697 67.941,37.68 C67.941,37.659 67.941,37.612 67.941,37.583 C67.941,37.556 67.951,37.497 67.962,37.478 C67.972,37.462 67.97,37.441 67.938,37.441 C67.937,37.441 67.901,37.441 67.899,37.441 C67.861,37.441 67.873,37.4 67.889,37.387 C68.011,37.289 68.022,37.118 68.022,37.085 C68.022,37.056 68.022,37.028 68.052,37.028 L68.109,37.028" id="Fill-9" fill="#FFFFFE"></path>
                    <path d="M70.927,37.028 C70.937,37.028 70.945,37.021 70.945,37.009 L70.945,36.804 C70.945,36.794 70.937,36.786 70.927,36.786 L69.652,36.786 C69.642,36.786 69.633,36.794 69.633,36.804 L69.633,37.009 C69.633,37.021 69.642,37.028 69.652,37.028 L69.707,37.028 C69.733,37.028 69.734,37.056 69.734,37.081 C69.734,37.112 69.75,37.283 69.87,37.387 C69.885,37.402 69.895,37.441 69.86,37.441 C69.858,37.441 69.822,37.441 69.819,37.441 C69.79,37.441 69.788,37.462 69.797,37.478 C69.807,37.497 69.817,37.556 69.817,37.583 C69.817,37.612 69.817,37.659 69.817,37.68 C69.817,37.697 69.819,37.711 69.837,37.711 C69.838,37.711 69.852,37.711 69.854,37.711 C69.854,37.711 69.868,37.711 69.868,37.723 C69.868,37.736 69.836,39.953 69.836,39.953 L69.831,41.856 L69.831,42.547 C69.817,42.563 69.765,42.615 69.761,42.617 C69.757,42.621 69.753,42.629 69.753,42.635 L69.753,42.715 C69.753,42.721 69.751,42.733 69.747,42.733 C69.743,42.737 69.736,42.741 69.729,42.741 L69.668,42.741 C69.659,42.741 69.65,42.751 69.65,42.759 C69.65,42.759 69.65,42.894 69.65,42.899 L70.928,42.899 C70.928,42.894 70.928,42.759 70.928,42.759 C70.928,42.751 70.92,42.741 70.909,42.741 L70.849,42.741 C70.841,42.741 70.834,42.737 70.83,42.733 C70.826,42.733 70.824,42.721 70.824,42.715 L70.824,42.635 C70.824,42.629 70.823,42.623 70.817,42.617 C70.809,42.611 70.769,42.568 70.748,42.547 L70.748,41.856 L70.742,39.953 C70.742,39.953 70.708,37.736 70.708,37.723 C70.708,37.711 70.722,37.711 70.722,37.711 C70.723,37.711 70.739,37.711 70.74,37.711 C70.758,37.711 70.759,37.697 70.759,37.68 C70.759,37.659 70.759,37.612 70.759,37.583 C70.759,37.556 70.77,37.497 70.781,37.478 C70.79,37.462 70.788,37.441 70.758,37.441 C70.756,37.441 70.72,37.441 70.718,37.441 C70.681,37.441 70.692,37.4 70.708,37.387 C70.829,37.289 70.841,37.118 70.841,37.085 C70.841,37.056 70.84,37.028 70.871,37.028 L70.927,37.028" id="Fill-10" fill="#FFFFFE"></path>
                    <path d="M67.244,31.941 C67.244,31.941 67.136,31.941 67.109,31.941 C67.073,31.941 67.074,31.911 67.074,31.911 C67.074,31.911 67.074,31.795 67.074,31.765 C67.074,31.729 67.04,31.729 67.04,31.729 C67.04,31.729 66.938,31.729 66.906,31.729 C66.87,31.729 66.871,31.696 66.871,31.696 L66.871,31.563 C66.871,31.563 66.871,31.533 66.836,31.533 C66.824,31.533 66.779,31.533 66.758,31.532 C66.729,31.532 66.701,31.509 66.701,31.473 C66.694,31.288 66.759,30 66.075,29.067 C65.542,28.264 64.804,27.857 64.394,27.668 C64.387,27.494 64.141,27.428 64.031,27.389 C63.975,27.369 63.926,27.348 63.926,27.297 C63.926,27.295 63.924,27.24 63.924,27.238 C63.924,27.183 63.974,27.161 64.047,27.163 C64.071,27.164 64.088,27.146 64.088,27.129 L64.088,26.975 C64.088,26.952 64.067,26.927 64.036,26.927 C63.981,26.927 63.919,26.926 63.888,26.926 C63.853,26.926 63.836,26.894 63.836,26.876 C63.836,26.843 63.836,26.858 63.836,26.796 C63.836,26.75 63.8,26.725 63.773,26.711 L63.773,25.749 C63.773,25.716 63.796,25.721 63.819,25.721 C63.822,25.721 63.826,25.72 63.83,25.719 L63.832,25.719 C63.845,25.719 63.855,25.709 63.855,25.697 L63.855,25.604 C63.855,25.591 63.845,25.582 63.832,25.582 L63.789,25.582 C63.775,25.575 63.764,25.554 63.764,25.51 C63.764,25.467 63.777,25.445 63.794,25.442 L63.832,25.442 C63.845,25.442 63.855,25.432 63.855,25.42 L63.855,25.327 C63.855,25.315 63.845,25.303 63.832,25.303 L63.783,25.303 C63.762,25.299 63.747,25.292 63.726,25.275 C63.561,25.146 63.396,24.958 63.396,24.93 C63.396,24.916 63.395,24.915 63.395,24.896 C63.395,24.875 63.375,24.837 63.33,24.837 C63.288,24.837 63.295,24.791 63.315,24.791 C63.331,24.791 63.337,24.787 63.337,24.765 C63.337,24.752 63.337,24.727 63.337,24.704 C63.337,24.675 63.251,24.559 63.251,24.559 L63.247,24.559 C63.247,24.559 63.161,24.675 63.161,24.704 C63.161,24.727 63.162,24.752 63.162,24.765 C63.162,24.787 63.167,24.791 63.183,24.791 C63.204,24.791 63.21,24.837 63.168,24.837 C63.123,24.837 63.104,24.875 63.104,24.896 C63.104,24.915 63.102,24.916 63.102,24.93 C63.102,24.958 62.937,25.146 62.772,25.275 C62.751,25.292 62.736,25.299 62.714,25.303 L62.666,25.303 C62.653,25.303 62.643,25.315 62.643,25.327 L62.643,25.42 C62.643,25.432 62.653,25.442 62.666,25.442 L62.704,25.442 C62.721,25.445 62.734,25.467 62.734,25.51 C62.734,25.554 62.724,25.575 62.708,25.582 L62.666,25.582 C62.653,25.582 62.643,25.591 62.643,25.604 L62.643,25.697 C62.643,25.709 62.653,25.719 62.666,25.719 L62.668,25.719 C62.672,25.72 62.675,25.721 62.679,25.721 C62.701,25.721 62.725,25.716 62.725,25.749 L62.725,26.711 C62.698,26.725 62.662,26.75 62.662,26.796 C62.662,26.858 62.662,26.843 62.662,26.876 C62.662,26.894 62.645,26.926 62.61,26.926 C62.578,26.926 62.515,26.927 62.462,26.927 C62.43,26.927 62.409,26.952 62.409,26.975 L62.409,27.129 C62.409,27.146 62.427,27.164 62.449,27.163 C62.523,27.161 62.573,27.183 62.573,27.238 C62.573,27.24 62.572,27.295 62.572,27.297 C62.572,27.348 62.523,27.369 62.466,27.389 C62.357,27.428 62.11,27.494 62.103,27.668 C61.695,27.857 60.957,28.264 60.422,29.067 C59.738,30 59.803,31.288 59.797,31.473 C59.796,31.509 59.769,31.532 59.739,31.532 C59.719,31.533 59.673,31.533 59.662,31.533 C59.626,31.533 59.626,31.563 59.626,31.563 L59.626,31.696 C59.626,31.696 59.629,31.729 59.591,31.729 C59.558,31.729 59.458,31.729 59.458,31.729 C59.458,31.729 59.423,31.729 59.423,31.765 C59.423,31.795 59.424,31.911 59.424,31.911 C59.424,31.911 59.424,31.941 59.388,31.941 C59.36,31.941 59.254,31.941 59.254,31.941 C59.254,31.941 59.216,31.941 59.216,31.978 C59.216,32 59.216,32.087 59.216,32.134 C59.216,32.151 59.226,32.155 59.24,32.157 C59.278,32.162 59.361,32.198 59.361,32.287 C59.361,32.439 59.453,32.454 59.492,32.454 L59.492,33.015 C59.492,33.147 59.39,33.198 59.332,33.211 C59.322,33.213 59.305,33.227 59.305,33.241 C59.305,33.255 59.305,34.158 59.305,34.158 L63.247,33.289 L63.251,33.289 L67.192,34.158 C67.192,34.158 67.192,33.255 67.192,33.241 C67.192,33.227 67.176,33.213 67.166,33.211 C67.108,33.198 67.006,33.147 67.006,33.015 L67.006,32.454 C67.044,32.454 67.136,32.439 67.136,32.287 C67.136,32.198 67.219,32.162 67.257,32.157 C67.271,32.155 67.28,32.151 67.28,32.134 C67.28,32.087 67.28,32 67.28,31.978 C67.28,31.941 67.244,31.941 67.244,31.941" id="Fill-11" fill="#FFFFFE"></path>
                    <polyline id="Fill-12" fill="#FFFFFE" points="71.49 44.54 71.49 43.388 70.928 43.388 70.928 42.884 55.558 42.884 55.558 43.388 54.996 43.388 54.996 44.538 54.432 44.538 54.432 45.703 72.054 45.703 72.054 44.54 71.49 44.54"></polyline>
                </g>
            </g>
        </g>
    </g>
</svg>