<?xml version="1.0" encoding="UTF-8" standalone="no"?>
<svg width="219px" height="53px" viewBox="0 0 219 53" version="1.1" xmlns="http://www.w3.org/2000/svg" xmlns:xlink="http://www.w3.org/1999/xlink">
    <!-- Generator: Sketch 50.2 (55047) - http://www.bohemiancoding.com/sketch -->
    <title>UNHCR-LOGO-ENG-LAND-BLK-CMYK</title>
    <desc>Created with Sketch.</desc>
    <defs>
        <polygon id="path-1" points="0 0.267407407 9.33857143 0.267407407 9.33857143 18.6882593 0 18.6882593"></polygon>
        <polygon id="path-3" points="0.114285714 0.698866667 14.8535714 0.698866667 14.8535714 10.956 0.114285714 10.956"></polygon>
        <polygon id="path-5" points="0.45968 0.298277778 16.5036 0.298277778 16.5036 12.9566667 0.45968 12.9566667"></polygon>
    </defs>
    <g id="BF-Digital" stroke="none" stroke-width="1" fill="none" fill-rule="evenodd" opacity="0.800000012">
        <g id="Home" transform="translate(-1080.000000, -5141.000000)">
            <g id="Group-7" style="mix-blend-mode: multiply;" transform="translate(115.000000, 5122.000000)">
                <g id="UNHCR-LOGO-ENG-LAND-BLK-CMYK" transform="translate(965.000000, 19.000000)">
                    <path d="M31.5997375,35 C32.187664,35 32.1115486,34.6423664 32.1115486,33.9728595 L32.1115486,30.7126211 C32.1115486,30.0417061 32.0557743,29.8276892 32.4107612,29.8276892 C33.6587927,29.8276892 34,29.7030806 34,28.5112034 L34,16.4065739 C34,13.1097274 31.8300525,13.6546258 31.2217848,12.4521885 C30.351706,10.8217173 32.8444882,10.8217173 31.937664,7.29254971 C31.7080052,6.49280218 31.1240157,6 29.9993438,6 C28.8707349,6 28.2854331,6.49280218 28.058399,7.29254971 C27.1535433,10.8217173 29.648294,10.8217173 28.7795276,12.4521885 C28.1646982,13.6546258 26,13.1097274 26,16.4065739 L26,28.5112034 C26,29.7030806 26.3339895,29.8276892 27.5879265,29.8276892 C27.937664,29.8276892 27.8832021,30.0417061 27.8832021,30.7126211 L27.8832021,33.9728595 C27.8832021,34.6423664 27.808399,35 28.4002625,35 L31.5997375,35" id="Fill-1" fill="#1A1919"></path>
                    <path d="M21.9305576,9.91447406 C20.7859113,11.1705591 18.9761509,14.109113 20.1566944,16.5464911 C22.5590972,17.5013114 22.3748701,8.69194056 25.3699152,8.84432038 C26.8484731,10.2583771 24.9269573,14.4138726 24.3329604,16.2389355 C23.5946973,18.4959742 23.0034096,23.2204476 21.6000325,25.5054458 C20.4201663,27.4164845 21.30405,33.4047318 20.9342412,35.4604613 C19.9399567,36.4900736 17.2381849,35.764522 16.0955704,35.5716007 C16.0955704,33.2083156 15.7948468,31.3413133 15.4291018,27.5660683 C15.3932046,26.8048682 14.6163351,15.1359293 15.2441974,13.7274645 C16.5392056,10.7889105 23.5946973,5.18580676 24.5591804,4.11565308 C25.4044577,3.16362871 28.3981482,0 29.5448265,0 C30.3535293,0.573171794 29.8753516,1.90544672 29.6918018,2.43877609 C28.5471554,5.37733002 23.5946973,8.27254657 21.9305576,9.91447406" id="Fill-2" fill="#1A1919"></path>
                    <path d="M39.0775483,9.91447406 C40.1826431,11.1705591 41.993564,14.109113 40.8465121,16.5464911 C38.4116491,17.5013114 38.5991025,8.69194056 35.6039097,8.84432038 C34.169249,10.2583771 36.0857392,14.4138726 36.6778751,16.2389355 C37.416184,18.4959742 38.0076432,23.2204476 39.4071142,25.5054458 C40.5534894,27.4164845 39.7014904,33.4047318 40.0330865,35.4604613 C41.0698319,36.4900736 43.7259845,35.764522 44.9082262,35.5716007 C44.9082262,33.2083156 45.1674125,31.3413133 45.5362286,27.5660683 C45.6079617,26.8048682 46.3841673,15.1359293 45.7568416,13.7274645 C44.4670003,10.7889105 37.416184,5.18580676 36.4565855,4.11565308 C35.5727803,3.16362871 32.6154843,0 31.4691091,0 C30.6252309,0.573171794 31.1408967,1.90544672 31.3249663,2.43877609 C32.469988,5.37733002 37.416184,8.27254657 39.0775483,9.91447406" id="Fill-3" fill="#1A1919"></path>
                    <path d="M11.1554225,4.86382011 C10.5113698,5.41839313 9.06710944,5.79800404 8.08229182,7 C7.70404968,6.347524 8.68678523,4.7614957 9.863153,3.83046993 C10.735539,3.16978272 12.4449159,2.10232441 12.9342016,2 C13.3152198,2.79332996 11.9514661,4.00416877 11.1554225,4.86382011" id="Fill-4" fill="#1A1919"></path>
                    <path d="M9.19155325,9.64194391 C8.10684555,10.6817122 6.94671569,11.1076499 5.44444351,13 C4.80746914,10.7205623 4.95968476,8.71236844 5.25520247,7.36038709 C5.78315755,5.58741259 6.64297011,3.61594971 8.10684555,3 C7.8072139,4.00515646 7.31628424,5.39316239 7.20589364,7.28621883 C6.57097623,9.87433778 6.19317981,9.9492124 6.34608108,10.2981564 C6.4921258,10.2981564 7.31628424,8.94546867 8.33105504,7.90428763 C9.5316386,6.6688564 11.0249972,6.39831885 12,5.66581903 C11.8546409,6.16592498 10.9934571,7.74959384 9.19155325,9.64194391" id="Fill-5" fill="#1A1919"></path>
                    <g id="Group-9" transform="translate(0.000000, 7.000000)">
                        <mask id="mask-2" fill="white">
                            <use xlink:href="#path-1"></use>
                        </mask>
                        <g id="Clip-7"></g>
                        <path d="M3.91785714,12.958 C2.39428571,10.2656296 2.23642857,8.3037037 2.11785714,6.03144444 C2.19857143,4.45725926 2.97857143,0.804333333 4.14928571,0.267407407 C3.79785714,3.57059259 4.70071429,3.88022222 4.345,6.6112963 C4.345,6.76259259 3.95285714,9.61118519 3.95285714,9.7652963 C4.42071429,9.68788889 3.99357143,7.14681481 9.33857143,3.49459259 C8.17285714,5.49381481 8.71428571,6.11025926 6.60642857,8.76533333 C4.14928571,11.1522963 3.79785714,13.4949259 3.91785714,12.958" id="Fill-6" fill="#1A1919" mask="url(#mask-2)"></path>
                        <path d="M6.06357143,15.4990741 C4.92928571,17.111963 5.12357143,17.9205185 4.85142857,18.6882593 C2.155,17.1506667 -0.887142857,11.0375926 0.241428571,7.99759259 C0.948571429,10.3043333 1.92285714,10.8032593 2.62428571,12.7278889 C3.83642857,15.6116667 3.645,16.4948148 4.42071429,17.1506667 C4.265,15.6503704 4.77214286,13.8805556 5.285,12.5723704 C6.02571429,11.4577037 6.605,9.99611111 7.15785714,9.49577778 C7.74071429,11.6146296 7.31,13.3443333 6.06357143,15.4990741" id="Fill-8" fill="#1A1919" mask="url(#mask-2)"></path>
                    </g>
                    <path d="M8,27.8300996 C8,30.201979 7.60757379,31.2541715 7.42955263,33 C3.20382402,31.4860949 1,26.1980986 1,23.5942957 C2.28188231,26.7800414 4.16149991,26.7394904 6.61741229,31.2541715 C6.82921849,29.540357 6.18665305,30.8237615 6.11908298,27.5967533 C6.18665305,24.2139439 6.82921849,24.0958479 6.93122332,22 C7.71802487,22.9284051 8,26.6662139 8,27.8300996" id="Fill-10" fill="#1A1919"></path>
                    <path d="M12.2428812,35.3956193 C12.5838262,37.234814 12.7322132,39.4047344 13,41 C10.4367009,39.9786409 9.79069977,40.7538263 6.73806861,38.6692062 C5.33977995,37.8491259 2.85101939,34.4176587 3.00699828,31.9581661 C6.02097981,35.6013877 6.54827129,35.1920958 8.02109853,36.5396912 C9.37866703,37.7286579 10.4705193,39.4862934 11.456085,39.2431127 C11.5285531,38.262159 9.22751935,36.1333923 9.52774421,30 C10.1316448,30.6936263 11.7915087,33.4748657 12.2428812,35.3956193" id="Fill-11" fill="#1A1919"></path>
                    <path d="M17.2805724,39.5788998 C18.0942706,40.8004931 17.9025616,41.3307452 20,43.8582055 C19.489486,44.1013309 16.5066361,44.9164722 14.5213829,45 C13.2078213,45 8.5492927,43.6963704 7,40.3537688 C9.6746955,41.861743 9.71587744,41.4940718 13.2837949,42.3114505 C15.8470151,42.9200098 17.6703807,43.7746777 18.3683434,43.6963704 C18.2135562,43.3301907 16.2368234,42.4695566 14.8771096,40.6789304 C13.5159757,38.761521 13.8276804,36.6024778 12.6206237,35.0109758 C13.4385821,34.7663588 16.6202414,38.682468 17.2805724,39.5788998" id="Fill-12" fill="#1A1919"></path>
                    <path d="M49.880649,4.86382011 C50.4865805,5.41839313 51.9619822,5.79800404 52.9054646,7 C53.3204861,6.347524 52.3036833,4.7614957 51.1298639,3.83046993 C50.3046627,3.16978272 48.5975407,2.10232441 48.0642379,2 C47.6886434,2.79332996 49.0471474,4.00416877 49.880649,4.86382011" id="Fill-13" fill="#1A1919"></path>
                    <path d="M51.8455548,9.64194391 C52.8950716,10.6817122 54.0597542,11.1076499 55.5534819,13 C56.1923778,10.7205623 56.04088,8.71236844 55.7454249,7.36038709 C55.2593978,5.58741259 54.3572658,3.61594971 52.8950716,3 C53.2343993,4.00515646 53.6827233,5.39316239 53.7958326,7.28621883 C54.4306154,9.87433778 54.8062753,9.9492124 54.656834,10.2981564 C54.5094492,10.2981564 53.6827233,8.94546867 52.6695386,7.90428763 C51.5110255,6.6688564 50.0077007,6.39831885 49,5.66581903 C49.1494413,6.16592498 50.0488313,7.74959384 51.8455548,9.64194391" id="Fill-14" fill="#1A1919"></path>
                    <path d="M57.2484349,20.9210327 C58.7697506,18.1797733 58.8796582,16.1822221 59,13.8687024 C58.9186127,12.2659326 58.1576071,8.54667561 57.0578356,8 C57.3604293,11.3631655 56.4867336,11.6784175 56.8672364,14.4590834 C56.8672364,14.613127 57.2108715,17.5134453 57.2108715,17.6703548 C56.7907185,17.5915418 57.1691345,15.004326 52,11.2857855 C53.1053364,13.3213103 52.5697108,13.9489483 54.6259565,16.6522342 C57.0578356,19.0825404 57.3604293,21.4677083 57.2484349,20.9210327" id="Fill-15" fill="#1A1919"></path>
                    <path d="M54.2958262,23.7185361 C55.3334572,25.3780937 55.1464541,26.2100448 55.4070432,27 C57.9528509,25.4179173 60.8659138,19.1279621 59.7580723,16 C59.130903,18.373486 58.1722589,18.8868483 57.5457647,20.8671669 C56.3656873,23.8343865 56.5479647,24.7430885 55.8478845,25.4179173 C55.9950566,23.8742101 55.478604,22.0531859 54.9992819,20.7071485 C54.3349821,19.5602291 53.7462936,18.0563454 53.2264654,17.541535 C52.711363,19.7216956 53.0779431,21.5014481 54.2958262,23.7185361" id="Fill-16" fill="#1A1919"></path>
                    <path d="M52,27.8300996 C52,30.201979 52.4210478,31.2541715 52.6002033,33 C56.7757553,31.4860949 59,26.1980986 59,23.5942957 C57.6896424,26.7800414 55.8508731,26.7394904 53.3802088,31.2541715 C53.1661277,29.540357 53.8006098,30.8237615 53.8730481,27.5967533 C53.8006098,24.2139439 53.1661277,24.0958479 53.0574702,22 C52.2845791,22.9284051 52,26.6662139 52,27.8300996" id="Fill-17" fill="#1A1919"></path>
                    <path d="M48.7163246,35.3956193 C48.3740346,37.234814 48.2615482,39.4047344 48,41 C50.5264589,39.9786409 51.1668725,40.7538263 54.2198783,38.6692062 C55.6159522,37.8491259 58.1465517,34.4176587 57.9933493,31.9581661 C54.9762287,35.6013877 54.4110362,35.1920958 52.9790771,36.5396912 C51.6195786,37.7286579 50.4878133,39.4862934 49.5057999,39.2431127 C49.4305789,38.262159 51.7299947,36.1333923 51.4684465,30 C50.8266528,30.6936263 49.1648901,33.4748657 48.7163246,35.3956193" id="Fill-18" fill="#1A1919"></path>
                    <path d="M43.7157607,39.5788998 C42.936684,40.8004931 43.1312756,41.3307452 41,43.8582055 C41.5418738,44.1013309 44.4934171,44.9164722 46.5124829,45 C47.7922426,45 52.4510789,43.6963704 54,40.3537688 C51.3275608,41.861743 51.2842393,41.4940718 47.7169626,42.3114505 C45.1510516,42.9200098 43.3670582,43.7746777 42.6320131,43.6963704 C42.786124,43.3301907 44.8009287,42.4695566 46.1254302,40.6789304 C47.4826004,38.761521 47.1729582,36.6024778 48.4108167,35.0109758 C47.5635619,34.7663588 44.3797869,38.682468 43.7157607,39.5788998" id="Fill-19" fill="#1A1919"></path>
                    <path d="M23.7500297,50 L23,49.6749737 C23,49.6749737 27.7517831,44.6305179 35.8947669,45.021621 C44.041853,45.4133193 43.4825784,47.0735727 47.8508003,46.8104562 C48.336918,46.7806919 47.4795459,47.3343081 47.4795459,47.3343081 C47.4795459,47.3343081 43.2179827,48.7618046 37.9486312,47.200964 C32.7155163,45.6425046 29.3154275,44.6954041 23.7500297,50" id="Fill-20" fill="#1A1919"></path>
                    <path d="M37.2485675,50 L38,49.6749737 C38,49.6749737 33.290385,44.6305179 25.1442826,45.021621 C16.9598907,45.4133193 17.5219266,47.0735727 13.1493964,46.8104562 C12.6625721,46.7806919 13.5213521,47.3343081 13.5213521,47.3343081 C13.5213521,47.3343081 17.7790136,48.7618046 23.0513483,47.200964 C28.3175293,45.6425046 31.7218808,44.6954041 37.2485675,50" id="Fill-21" fill="#1A1919"></path>
                    <path d="M95,23.974095 C95,32.1007259 90.7284181,36 82.0211224,36 C73.3124417,36 69,32.1007259 69,23.974095 L69,6 L77.7855526,6 L77.7855526,21.9628979 C77.7855526,24.9590549 77.7855526,28.6960668 82.0599046,28.6960668 C86.2144474,28.6960668 86.2144474,24.9590549 86.2144474,21.9628979 L86.2144474,6 L95,6 L95,23.974095" id="Fill-22" fill="#1A1919"></path>
                    <polyline id="Fill-23" fill="#1A1919" points="101 6 109.748888 6 117.835001 21.5157396 117.911864 21.5157396 117.911864 6 126 6 126 35 117.678578 35 109.165673 19.160238 109.086113 19.160238 109.086113 35 101 35 101 6"></polyline>
                    <polyline id="Fill-24" fill="#1A1919" points="131 6 139.514736 6 139.514736 16.073573 147.485264 16.073573 147.485264 6 156 6 156 35 147.485264 35 147.485264 23.5063639 139.514736 23.5063639 139.514736 35 131 35 131 6"></polyline>
                    <path d="M180.169594,17.3502423 C180.005167,16.3055665 179.192202,13.1395451 175.484462,13.1395451 C171.295436,13.1395451 169.953197,17.1471495 169.953197,20.9996522 C169.953197,24.8465908 171.295436,28.8625414 175.484462,28.8625414 C178.501323,28.8625414 179.680545,26.7766675 180.209819,24.0891661 L189,24.0891661 C189,29.8620082 184.237241,36 175.732162,36 C166.332258,36 161,29.4620824 161,20.9996522 C161,11.9738483 166.778965,6 175.732162,6 C183.707261,6.03755825 188.107291,10.1717478 188.876503,17.3502423 L180.169594,17.3502423" id="Fill-25" fill="#1A1919"></path>
                    <path d="M199.485647,12.9030848 L203.460284,12.9030848 C206.702593,12.9030848 207.664986,13.958975 207.664986,15.7889968 C207.664986,18.3861064 205.502778,18.6735001 203.923758,18.6735001 L199.485647,18.6735001 L199.485647,12.9030848 Z M191,35 L199.485647,35 L199.485647,24.889094 L204.002006,24.889094 C207.357341,24.889094 207.586737,27.7735973 207.820146,30.5348312 C207.931166,32.0373087 208.085657,33.5397863 208.514353,35 L217,35 C216.226875,33.6623512 216.190092,30.2101044 216.071046,28.7872237 C215.76407,25.1729658 214.338872,22.4899198 212.022173,21.5565946 C214.839798,20.459145 216.150633,17.2914744 216.150633,14.2851105 C216.150633,8.79927131 211.981377,6 207.16406,6 L191,6 L191,35 Z" id="Fill-26" fill="#1A1919"></path>
                    <polyline id="Fill-27" fill="#1A1919" points="71.560598 41.8482279 69 41.8482279 69 40 76 40 76 41.8482279 73.4375442 41.8482279 73.4375442 50 71.560598 50 71.560598 41.8482279"></polyline>
                    <path d="M77,40 L78.7573624,40 L78.7573624,43.7672126 L78.7932138,43.7672126 C79.2394366,42.9533266 80.006402,42.563415 80.662612,42.563415 C82.5288092,42.563415 83,43.7541673 83,45.543557 L83,50 L81.2419974,50 L81.2419974,45.9095521 C81.2419974,44.7173503 80.9340589,44.129584 80.1177977,44.129584 C79.1664533,44.129584 78.7573624,44.7332947 78.7573624,46.2059719 L78.7573624,50 L77,50 L77,40" id="Fill-28" fill="#1A1919"></path>
                    <path d="M86.9278343,45.9414055 C86.9818923,47.0967711 87.5779343,47.6245964 88.6499675,47.6245964 C89.4250327,47.6245964 90.0463486,47.1758784 90.1685056,46.7623932 L91.8653648,46.7623932 C91.3205726,48.3312441 90.1685056,49 88.5825705,49 C86.3732134,49 85,47.560114 85,45.5053181 C85,43.51434 86.4532473,42 88.5825705,42 C90.9688447,42 92.1230179,43.9005698 91.989628,45.9414055 L86.9278343,45.9414055 Z M90.0603896,44.7867047 C89.8848766,43.8606838 89.4636455,43.3747388 88.5278104,43.3747388 C87.3083464,43.3747388 86.9524061,44.2748338 86.9278343,44.7867047 L90.0603896,44.7867047 Z" id="Fill-29" fill="#1A1919"></path>
                    <path d="M104,46.0759046 C104,48.7169865 102.5017,50 99.9932019,50 C97.4711081,50 96,48.7297316 96,46.0759046 L96,40 L98.0632223,40 L98.0632223,46.0759046 C98.0632223,47.1415422 98.324949,48.1965588 99.9932019,48.1965588 C101.46499,48.1965588 101.936778,47.5238972 101.936778,46.0759046 L101.936778,40 L104,40 L104,46.0759046" id="Fill-30" fill="#1A1919"></path>
                    <polyline id="Fill-31" fill="#1A1919" points="106 40 108.069344 40 112.02197 46.7074938 112.05012 46.7074938 112.05012 40 114 40 114 50 111.916238 50 107.976656 43.3062763 107.94988 43.3062763 107.94988 50 106 50 106 40"></polyline>
                    <path d="M120.042066,41.7056905 L122.278647,41.7056905 C123.187279,41.7056905 123.683998,42.1283074 123.683998,43.0924248 C123.683998,44.1022109 123.187279,44.5226531 122.278647,44.5226531 L120.042066,44.5226531 L120.042066,41.7056905 Z M118,50 L120.042066,50 L120.042066,46.0913374 L122.082786,46.0913374 C123.111223,46.0913374 123.489483,46.5538238 123.630153,47.6020297 C123.735824,48.4023197 123.709574,49.3693367 123.956588,50 L126,50 C125.633855,49.4374773 125.646643,48.2595143 125.607606,47.6324755 C125.542992,46.6241392 125.25896,45.5744835 124.2561,45.2939471 L124.2561,45.2635013 C125.282517,44.8169627 125.726064,43.9325843 125.726064,42.756071 C125.726064,41.2446539 124.672724,40 123.006899,40 L118,40 L118,50 Z" id="Fill-32" fill="#1A1919"></path>
                    <path d="M128.926686,44.7851106 C128.95408,44.2746178 129.305281,43.3726142 130.529566,43.3726142 C131.465867,43.3726142 131.8852,43.8605071 132.06361,44.7851106 L128.926686,44.7851106 Z M133.988891,45.9410312 C134.127265,43.9003893 132.971815,42 130.583651,42 C128.451863,42 127,43.5141962 127,45.5049853 C127,47.559586 128.371789,49 130.583651,49 C132.172482,49 133.322313,48.3333017 133.867376,46.7619409 L132.172482,46.7619409 C132.049562,47.175387 131.423722,47.6240623 130.652486,47.6240623 C129.580622,47.6240623 128.982176,47.098946 128.926686,45.9410312 L133.988891,45.9410312 Z" id="Fill-33" fill="#1A1919"></path>
                    <path d="M135.02301,44.0884058 L134,44.0884058 L134,42.7615942 L135.02301,42.7615942 L135.02301,42.2007246 C135.02301,40.9253623 135.70709,40 137.101368,40 C137.399876,40 137.713308,40.0456522 138,40.0586957 L138,41.5442029 C137.798507,41.5173913 137.594527,41.5 137.375622,41.5 C136.921642,41.5 136.728234,41.7231884 136.728234,42.3289855 L136.728234,42.7615942 L137.905473,42.7615942 L137.905473,44.0884058 L136.728234,44.0884058 L136.728234,50 L135.02301,50 L135.02301,44.0884058" id="Fill-34" fill="#1A1919"></path>
                    <g id="Group-38" transform="translate(139.000000, 42.000000)">
                        <mask id="mask-4" fill="white">
                            <use xlink:href="#path-3"></use>
                        </mask>
                        <g id="Clip-36"></g>
                        <path d="M6.80714286,8.2236 L4.94357143,8.2236 L4.94357143,7.20133333 L4.90214286,7.20133333 C4.405,8.02413333 3.54857143,8.42086667 2.72285714,8.42086667 C0.639285714,8.42086667 0.114285714,7.21673333 0.114285714,5.40173333 L0.114285714,0.8954 L2.07214286,0.8954 L2.07214286,5.03213333 C2.07214286,6.2392 2.41928571,6.83246667 3.32857143,6.83246667 C4.39071429,6.83246667 4.84642857,6.2238 4.84642857,4.73733333 L4.84642857,0.8954 L6.80714286,0.8954 L6.80714286,8.2236" id="Fill-35" fill="#1A1919" mask="url(#mask-4)"></path>
                        <path d="M11.3185714,6.49293333 C10.1185714,6.49293333 9.73214286,5.34673333 9.73214286,4.2988 C9.73214286,3.20833333 10.215,2.2132 11.3185714,2.2132 C12.5892857,2.2132 12.99,3.27653333 12.99,4.46526667 C12.99,5.5154 12.4378571,6.49293333 11.3185714,6.49293333 M14.8535714,0.8954 L12.99,0.8954 L12.99,1.87586667 L12.9621429,1.87586667 C12.4942857,1.02226667 11.7771429,0.698866667 10.8357143,0.698866667 C8.83642857,0.698866667 7.77357143,2.42513333 7.77357143,4.3252 C7.77357143,6.336 8.68285714,8.01166667 10.8228571,8.01166667 C11.6785714,8.01166667 12.535,7.6406 12.9621429,6.875 L12.99,6.875 L12.99,7.83933333 C13.005,8.89093333 12.5057143,9.6536 11.4185714,9.6536 C10.7285714,9.6536 10.1342857,9.39766667 9.95285714,8.64673333 L8.00714286,8.64673333 C8.10214286,10.318 9.74642857,11 11.1535714,11 C14.4407143,11 14.8535714,8.95986667 14.8535714,7.755 L14.8535714,0.8954" id="Fill-37" fill="#1A1919" mask="url(#mask-4)"></path>
                    </g>
                    <path d="M155.928682,44.7851106 C155.95186,44.2746178 156.305849,43.3726142 157.528659,43.3726142 C158.464905,43.3726142 158.884916,43.8605071 159.061911,44.7851106 L155.928682,44.7851106 Z M160.989188,45.9410312 C161.125446,43.9003893 159.972873,42 157.583443,42 C155.452481,42 154,43.5141962 154,45.5049853 C154,47.559586 155.37171,49 157.583443,49 C159.172182,49 160.325458,48.3333017 160.868382,46.7619409 L159.172182,46.7619409 C159.047162,47.175387 158.424168,47.6240623 157.651572,47.6240623 C156.577663,47.6240623 155.979252,47.098946 155.928682,45.9410312 L160.989188,45.9410312 Z" id="Fill-39" fill="#1A1919"></path>
                    <path d="M163.928818,44.7851106 C163.956212,44.2746178 164.306012,43.3726142 165.532421,43.3726142 C166.465924,43.3726142 166.889477,43.8605071 167.06227,44.7851106 L163.928818,44.7851106 Z M168.988981,45.9410312 C169.126653,43.9003893 167.973296,42 165.583697,42 C163.453287,42 162,43.5141962 162,45.5049853 C162,47.559586 163.370402,49 165.583697,49 C167.172548,49 168.324501,48.3333017 168.870274,46.7619409 L167.172548,46.7619409 C167.050329,47.175387 166.426589,47.6240623 165.652533,47.6240623 C164.57925,47.6240623 163.983606,47.098946 163.928818,45.9410312 L168.988981,45.9410312 Z" id="Fill-40" fill="#1A1919"></path>
                    <g id="Group-44" transform="translate(172.000000, 40.000000)">
                        <mask id="mask-6" fill="white">
                            <use xlink:href="#path-5"></use>
                        </mask>
                        <g id="Clip-42"></g>
                        <path d="M5.04424,2.75527778 L5.07212,2.75527778 L6.2526,6.41188889 L3.82364,6.41188889 L5.04424,2.75527778 Z M0.45968,10.2656667 L2.54728,10.2656667 L3.2844,8.04772222 L6.79116,8.04772222 L7.50108,10.2656667 L9.64716,10.2656667 L6.13428,0.298277778 L4.02152,0.298277778 L0.45968,10.2656667 Z" id="Fill-41" fill="#1A1919" mask="url(#mask-6)"></path>
                        <path d="M13.13964,8.56122222 C11.99588,8.56122222 11.628,7.43238889 11.628,6.40033333 C11.628,5.32638889 12.08836,4.34633333 13.13964,4.34633333 C14.348,4.34633333 14.73016,5.39355556 14.73016,6.56427778 C14.73016,7.5985 14.20316,8.56122222 13.13964,8.56122222 M16.5036,3.0485 L14.73016,3.0485 L14.73016,4.01411111 L14.70432,4.01411111 C14.2562,3.17344444 13.57212,2.85494444 12.67928,2.85494444 C10.77324,2.85494444 9.76276,4.55505556 9.76276,6.42633333 C9.76276,8.40666667 10.62908,10.0569444 12.665,10.0569444 C13.48168,10.0569444 14.29768,9.6915 14.70432,8.9375 L14.73016,8.9375 L14.73016,9.88722222 C14.7424,10.9228889 14.26912,11.674 13.23212,11.674 C12.57456,11.674 12.0088,11.4219444 11.8388,10.6823889 L9.98512,10.6823889 C10.0776,12.3283333 11.64228,13 12.98324,13 C16.10784,13 16.5036,10.9907778 16.5036,9.80416667 L16.5036,3.0485" id="Fill-43" fill="#1A1919" mask="url(#mask-6)"></path>
                    </g>
                    <path d="M190.927679,44.7851106 C190.95296,44.2746178 191.306895,43.3726142 192.528812,43.3726142 C193.462805,43.3726142 193.886965,43.8605071 194.061123,44.7851106 L190.927679,44.7851106 Z M195.989505,45.9410312 C196.123635,43.9003893 194.971241,42 192.583587,42 C190.450851,42 189,43.5141962 189,45.5049853 C189,47.559586 190.370092,49 192.583587,49 C194.16927,49 195.323771,48.3333017 195.865908,46.7619409 L194.16927,46.7619409 C194.045674,47.175387 193.424182,47.6240623 192.649599,47.6240623 C191.578666,47.6240623 190.980348,47.098946 190.927679,45.9410312 L195.989505,45.9410312 Z" id="Fill-45" fill="#1A1919"></path>
                    <path d="M198,42.1828282 L199.670578,42.1828282 L199.670578,43.1331254 L199.709622,43.1331254 C200.15511,42.3670208 200.920632,42 201.661191,42 C203.53019,42 204,43.1208459 204,44.8051847 L204,49 L202.243653,49 L202.243653,45.1476464 C202.243653,44.0274827 201.93514,43.4742228 201.118413,43.4742228 C200.165991,43.4742228 199.756987,44.042491 199.756987,45.4273463 L199.756987,49 L198,49 L198,42.1828282" id="Fill-46" fill="#1A1919"></path>
                    <path d="M209.329715,44.5181387 C209.224409,43.7729345 208.787359,43.3747388 208.093436,43.3747388 C207.024551,43.3747388 206.670894,44.5547009 206.670894,45.5319088 C206.670894,46.4818613 207.012986,47.6245964 208.05874,47.6245964 C208.836056,47.6245964 209.281627,47.0861349 209.386933,46.2764482 L211,46.2764482 C210.788171,48.0380817 209.669981,49 208.072131,49 C206.236279,49 205,47.5860399 205,45.5957265 C205,43.5316239 206.130364,42 208.106219,42 C209.541544,42 210.858781,42.8216524 210.964695,44.5181387 L209.329715,44.5181387" id="Fill-47" fill="#1A1919"></path>
                    <path d="M216.153629,50.3267935 C215.74379,51.5128452 215.095957,52 213.807112,52 C213.423186,52 213.043351,51.9733472 212.658061,51.9296661 L212.658061,50.2557193 C213.015392,50.2860739 213.383634,50.3408603 213.753921,50.3267935 C214.39698,50.2557193 214.609742,49.5272081 214.39698,48.9408455 L212,42 L214.005553,42 L215.54603,47.0647812 L215.573307,47.0647812 L217.061958,42 L219,42 L216.153629,50.3267935" id="Fill-48" fill="#1A1919"></path>
                </g>
            </g>
        </g>
    </g>
</svg>