<?xml version="1.0" encoding="UTF-8" standalone="no"?>
<svg width="220px" height="65px" viewBox="0 0 220 65" version="1.1" xmlns="http://www.w3.org/2000/svg" xmlns:xlink="http://www.w3.org/1999/xlink">
    <!-- Generator: Sketch 50.2 (55047) - http://www.bohemiancoding.com/sketch -->
    <title>YMCA_GREY_LOGO</title>
    <desc>Created with Sketch.</desc>
    <defs></defs>
    <g id="BF-Digital" stroke="none" stroke-width="1" fill="none" fill-rule="evenodd" opacity="0.800000012">
        <g id="Home" transform="translate(-768.000000, -5946.000000)" fill="#2C3C42">
            <g id="Group-7" style="mix-blend-mode: multiply;" transform="translate(115.000000, 5122.000000)">
                <g id="YMCA_GREY_LOGO" transform="translate(653.000000, 824.000000)">
                    <polyline id="Fill-1" points="155.400065 37.4081593 142.486119 45.0003004 142.492253 20.0175972 155.232204 27.4004996 163.958358 22.5213018 163.968365 12.4996496 153.00741 6.13625668 142.486119 0 131.603284 6.3513527 121 12.4996496 121.00226 52.5257324 142.462877 65 164 52.4372209 163.959649 42.4839047 155.400065 37.4081593"></polyline>
                    <g id="Group-6">
                        <polyline id="Fill-2" points="103.513726 2.5779 86.2610604 12.565475 69.0064507 2.5779 56.0705155 10.181925 56.0692194 55.00105 68.9912224 62.50335 77.6395876 57.5094 77.6256554 32.534775 86.2649485 37.534575 94.8916053 32.54095 94.8789691 57.507775 103.51729 62.50335 116.456465 55.01275 116.452253 10.068825 103.513726 2.5779"></polyline>
                        <polyline id="Fill-4" points="30.196053 10.068825 30.1873049 20.059 25.8825626 22.553375 21.5632401 20.0564 21.5655081 10.068825 8.62633284 2.5779 0 7.581925 0.00421207658 27.547 12.9433873 35.0376 12.9369072 55.01275 25.8783505 62.50595 38.8149337 55.01275 38.8055376 35.030775 51.754109 27.547 51.757025 7.574125 43.1306922 2.580175 30.196053 10.068825"></polyline>
                        <path d="M189.738498,30.1483 L189.742062,15.142725 L202.668277,22.544925 L189.738498,30.1483 Z M194.082769,0.0767 L168.205066,15.060175 L168.205066,60.001825 L176.830751,64.9974 L185.45676,60.001825 L185.45676,45.022575 L194.082769,40.026675 L202.709102,45.022575 L202.709102,60.001825 L211.469573,64.99545 L219.961119,60.001825 L219.961119,15.060175 L194.082769,0.0767 Z" id="Fill-5"></path>
                    </g>
                </g>
            </g>
        </g>
    </g>
</svg>